<?xml version="1.0" encoding="utf-8"?>
<!-- Generator: Adobe Illustrator 16.0.0, SVG Export Plug-In . SVG Version: 6.00 Build 0)  -->
<!DOCTYPE svg PUBLIC "-//W3C//DTD SVG 1.1//EN" "http://www.w3.org/Graphics/SVG/1.1/DTD/svg11.dtd">
<svg version="1.1" id="Layer_1" xmlns="http://www.w3.org/2000/svg" xmlns:xlink="http://www.w3.org/1999/xlink" x="0px" y="0px"
	 width="701.939px" height="342.34px" viewBox="0 0 701.939 342.34" enable-background="new 0 0 701.939 342.34"
	 xml:space="preserve">
<g>
	<g>
		<path fill="#B0D4FF" d="M413.511,340.911h0.083c0.491,0,0.888-0.404,0.875-0.896l-1.326-57.504l-3.907-0.456l3.332,57.964
			C412.596,340.52,413.01,340.911,413.511,340.911z"/>
	</g>
	<g>
		<path fill="#95C0F4" d="M436.285,340.911h0.084c0.491,0,0.886-0.404,0.875-0.896l-1.328-57.504l-3.907-0.456l3.332,57.964
			C435.369,340.52,435.783,340.911,436.285,340.911z"/>
	</g>
	<g>
		<path fill="#B0D4FF" d="M373.442,340.911h-0.083c-0.491,0-0.886-0.404-0.875-0.896l1.326-57.504l3.909-0.456l-3.333,57.964
			C374.357,340.52,373.943,340.911,373.442,340.911z"/>
	</g>
	<path fill="#B0D4FF" d="M438.875,278.945v-39.404c0-6.933-5.621-12.554-12.555-12.554h-28.39c-6.934,0-12.554,5.621-12.554,12.554
		v40.91L438.875,278.945z"/>
	<path fill="#95C0F4" d="M380.289,285.167h54.816c2.082,0,3.77-1.688,3.77-3.771v-2.451h-58.586V285.167z"/>
	<path fill="#CAE5FF" d="M373.721,285.167h41.47c1.539,0,2.788-1.249,2.788-2.788v-0.646c0-1.539-1.249-2.788-2.788-2.788h-41.47
		c-1.539,0-2.787,1.249-2.787,2.788v0.646C370.934,283.917,372.182,285.167,373.721,285.167z"/>
</g>
<g>
	<rect x="305.615" y="71.552" fill="#95C0F4" width="163.663" height="141.28"/>
	<g>
		<rect x="308.731" y="73.905" fill="#DFEDFB" width="157.365" height="136.11"/>
		<g>
			<polygon fill="#FFFFFF" points="363.732,133.126 329.249,133.126 329.249,90.066 335.096,84.795 363.732,84.795 			"/>
			<polygon fill="#B0D4FF" points="329.249,90.066 334.908,90.066 335.096,84.795 			"/>
			<rect x="340.97" y="88.986" fill="#B0D4FF" width="11.041" height="0.526"/>
			<rect x="338.371" y="90.564" fill="#B0D4FF" width="16.24" height="0.525"/>
			<rect x="333.331" y="100.694" fill="#B0D4FF" width="26.964" height="0.676"/>
			<rect x="333.331" y="102.747" fill="#B0D4FF" width="26.964" height="0.676"/>
			<rect x="333.331" y="104.8" fill="#B0D4FF" width="26.964" height="0.676"/>
			<rect x="333.331" y="106.853" fill="#B0D4FF" width="26.964" height="0.676"/>
			<rect x="333.331" y="128.822" fill="#B0D4FF" width="26.964" height="0.676"/>
		</g>
		<g>
			<polygon fill="#FFFFFF" points="403.549,192.867 369.067,192.867 369.067,149.807 374.914,144.536 403.549,144.536 			"/>
			<polygon fill="#B0D4FF" points="369.067,149.807 374.726,149.807 374.914,144.536 			"/>
			<rect x="380.786" y="148.727" fill="#B0D4FF" width="11.042" height="0.525"/>
			<rect x="378.189" y="150.304" fill="#B0D4FF" width="16.238" height="0.526"/>
			<rect x="373.148" y="160.435" fill="#B0D4FF" width="26.965" height="0.676"/>
			<rect x="373.148" y="162.487" fill="#B0D4FF" width="26.965" height="0.677"/>
			<rect x="373.148" y="164.541" fill="#B0D4FF" width="26.965" height="0.676"/>
			<rect x="373.148" y="166.594" fill="#B0D4FF" width="26.965" height="0.676"/>
			<rect x="373.148" y="172.911" fill="#B0D4FF" width="26.965" height="0.676"/>
			<rect x="373.148" y="174.963" fill="#B0D4FF" width="26.965" height="0.676"/>
			<rect x="373.148" y="177.344" fill="#B0D4FF" width="26.965" height="0.677"/>
		</g>
		<g>
			<rect x="403.968" y="84.795" fill="#B0D4FF" width="19.04" height="16.787"/>
			<circle fill="#FFA412" cx="413.488" cy="86.793" r="0.833"/>
		</g>
		<g>
			
				<rect x="403.967" y="107.499" transform="matrix(-0.9976 0.0696 -0.0696 -0.9976 834.0436 202.7056)" fill="#FFFFFF" width="19.041" height="16.787"/>
			<circle fill="#B0D4FF" cx="413.115" cy="110.552" r="0.833"/>
		</g>
		<g>
			
				<rect x="340.693" y="169.344" transform="matrix(-0.9976 0.0696 -0.0696 -0.9976 711.9556 330.6512)" fill="#FFFFFF" width="19.041" height="16.786"/>
			<circle fill="#B0D4FF" cx="349.841" cy="172.396" r="0.834"/>
		</g>
		<g>
			
				<rect x="316.272" y="180.846" transform="matrix(-0.9999 0.0103 -0.0103 -0.9999 653.5099 375.1268)" fill="#FFFFFF" width="19.042" height="16.787"/>
			<circle fill="#B0D4FF" cx="325.738" cy="183.886" r="0.834"/>
		</g>
		<g>
			
				<rect x="430.86" y="118.54" transform="matrix(-0.9844 -0.1759 0.1759 -0.9844 851.5631 329.3581)" fill="#EEF6FF" width="19.041" height="16.787"/>
			<circle fill="#78ACEA" cx="441.457" cy="120.91" r="0.725"/>
		</g>
		<g>
			
				<rect x="374.654" y="107.499" transform="matrix(-0.9942 0.1076 -0.1076 -0.9942 778.5897 189.7752)" fill="#EEF6FF" width="19.041" height="16.787"/>
			<circle fill="#78ACEA" cx="383.517" cy="109.809" r="0.725"/>
		</g>
		<g>
			
				<rect x="326.231" y="148.006" transform="matrix(-0.978 0.2086 -0.2086 -0.978 696.7385 239.3362)" fill="#BAE8E3" width="19.041" height="16.787"/>
			<circle fill="#FFA412" cx="334.474" cy="150.408" r="0.725"/>
		</g>
		<g>
			<g>
				<polygon fill="#FFFFFF" points="393.237,101.582 375.114,101.582 375.114,89.405 380.132,84.795 393.237,84.795 				"/>
				<polygon fill="#B0D4FF" points="375.017,89.405 379.967,89.405 380.132,84.795 				"/>
			</g>
			<circle fill="#B0D4FF" cx="384.838" cy="86.348" r="0.596"/>
		</g>
		<g>
			<g>
				<polygon fill="#FFFFFF" points="446.189,201.26 428.066,201.26 428.066,189.083 433.083,184.473 446.189,184.473 				"/>
				<polygon fill="#B0D4FF" points="427.969,189.083 432.919,189.083 433.083,184.473 				"/>
			</g>
			<circle fill="#B0D4FF" cx="437.79" cy="186.026" r="0.595"/>
		</g>
		<g>
			<g>
				<polygon fill="#FFFFFF" points="454.455,177.094 436.332,177.094 436.332,164.917 441.351,160.308 454.455,160.308 				"/>
				<polygon fill="#B0D4FF" points="436.237,164.917 441.186,164.917 441.351,160.308 				"/>
			</g>
			<circle fill="#B0D4FF" cx="446.057" cy="161.861" r="0.596"/>
		</g>
		<g>
			<g>
				<polygon fill="#BAE8E3" points="430.539,177.094 412.416,177.094 412.416,164.917 417.434,160.308 430.539,160.308 				"/>
				<polygon fill="#A1D6CE" points="412.32,164.917 417.27,164.917 417.434,160.308 				"/>
			</g>
			<circle fill="#F99746" cx="422.141" cy="161.861" r="0.596"/>
		</g>
		<g>
			<g>
				<polygon fill="#BAE8E3" points="459.571,97.38 441.448,97.38 441.448,85.203 446.464,80.593 459.571,80.593 				"/>
				<polygon fill="#A1D6CE" points="441.351,85.203 446.3,85.203 446.464,80.593 				"/>
			</g>
			<circle fill="#F99746" cx="451.172" cy="82.146" r="0.596"/>
		</g>
	</g>
</g>
<g>
	<path fill="#C0D8FB" d="M280.354,68.134h-34.473c-1.583,0-2.877-1.295-2.877-2.877V31.984c0-1.582,1.294-2.877,2.877-2.877h34.473
		c1.583,0,2.877,1.295,2.877,2.877v33.273C283.231,66.839,281.937,68.134,280.354,68.134z"/>
	<path fill="#DFEBFD" d="M278.86,66.444h-31.486c-1.445,0-2.628-1.183-2.628-2.628v-30.39c0-1.445,1.183-2.628,2.628-2.628h31.486
		c1.446,0,2.628,1.183,2.628,2.628v30.39C281.489,65.261,280.306,66.444,278.86,66.444z"/>
	<g>
		<g>
			<circle fill="#B7D3F3" cx="263.117" cy="34.36" r="0.833"/>
			<circle fill="#B7D3F3" cx="269.736" cy="35.942" r="0.833"/>
			<circle fill="#B7D3F3" cx="275.22" cy="40.814" r="0.833"/>
			<circle fill="#B7D3F3" cx="277.622" cy="48.031" r="0.833"/>
			<circle fill="#B7D3F3" cx="275.575" cy="56.008" r="0.833"/>
			<circle fill="#B7D3F3" cx="270.343" cy="61.254" r="0.833"/>
			<circle fill="#B7D3F3" cx="263.117" cy="63.369" r="0.833"/>
		</g>
		<g>
			<circle fill="#B7D3F3" cx="256.472" cy="35.942" r="0.833"/>
			<circle fill="#B7D3F3" cx="250.988" cy="40.814" r="0.833"/>
			<circle fill="#B7D3F3" cx="248.586" cy="48.031" r="0.833"/>
			<circle fill="#B7D3F3" cx="250.632" cy="56.008" r="0.833"/>
			<circle fill="#B7D3F3" cx="255.865" cy="61.254" r="0.833"/>
		</g>
	</g>
	<g>
		<circle fill="#B7D3F3" cx="263.726" cy="48.031" r="0.833"/>
		<g>
			<rect x="263.612" y="37.621" fill="#B7D3F3" width="0.228" height="10.41"/>
		</g>
		<g>
			
				<rect x="266.039" y="42.342" transform="matrix(0.6177 0.7864 -0.7864 0.6177 137.8958 -191.9575)" fill="#B7D3F3" width="0.683" height="7.016"/>
		</g>
	</g>
</g>
<g>
	<g>
		<path fill="#FFB27D" d="M492.573,338.854c-0.165,2.239-3.323,2.262-6.908,1.847c-3.584-0.416-2.632,0.491-7.649,0.562
			c-5.02,0.069-6.749-1.59-6.992-2.307c-0.217-0.636,2.2-1.172,4.786-1.802c0.325-0.078,0.652-0.16,0.979-0.242
			c2.916-0.742,4.846-2.924,7.341-4.83c2.363-1.804,5.411-8.337,5.411-8.337l6.855-0.31c0,0-2.887,5.855-3.972,8.381
			c-0.638,1.484-0.366,3.309-0.089,4.709C492.484,337.287,492.632,338.065,492.573,338.854z"/>
		<path fill="#233862" d="M485.665,340.701c-3.584-0.416-2.632,0.491-7.649,0.562c-5.02,0.069-6.749-1.59-6.992-2.307
			c-0.217-0.636,2.2-1.172,4.786-1.802l0.031,0.048c0,0,3.231,1.734,7.365,1.318c3.368-0.337,6.805-1.743,9.129-1.995
			c0.148,0.762,0.297,1.54,0.238,2.329C492.408,341.093,489.25,341.116,485.665,340.701z"/>
	</g>
	<g>
		<path fill="#FFB27D" d="M539.923,339.318c-0.162,2.238-3.32,2.266-6.905,1.854s-2.631,0.494-7.65,0.569
			c-5.019,0.075-6.75-1.581-6.994-2.3c-0.217-0.636,2.2-1.173,4.786-1.806c0.324-0.078,0.65-0.16,0.977-0.243
			c2.915-0.744,4.845-2.929,7.337-4.837c2.361-1.808,0.003-12.508,0.003-12.508l7.54-0.734c0,0-0.361,9.011-0.356,13.106
			c0.002,1.616,0.745,3.17,1.023,4.569C539.832,337.75,539.981,338.529,539.923,339.318z"/>
		<path fill="#233862" d="M533.018,341.171c-3.585-0.412-2.631,0.494-7.65,0.569c-5.019,0.075-6.75-1.581-6.994-2.3
			c-0.217-0.636,2.2-1.173,4.786-1.806l0.03,0.047c0,0,3.233,1.731,7.366,1.312c3.368-0.34,6.804-1.75,9.127-2.005
			c0.149,0.762,0.298,1.54,0.24,2.329C539.761,341.556,536.603,341.583,533.018,341.171z"/>
	</g>
	<path fill="#A9453D" d="M517.916,154.38c-1.299-5.339,0.584-7.826,2.281-9.15c0.806-1.965,1.725-3.381,2.664-3.916
		c1.714-0.974,3.768-1.08,5.204-0.995c-0.37-0.382-1.098-0.521-1.098-0.521c0.891-0.133,2.879,0.75,2.879,0.75
		c12.392-4.774,14.339,13.471,14.078,17.709c-0.258,4.238-0.224,9.23,6.224,12.57c12.3,6.372-4.088,30.385-4.088,30.385
		c0.312-3.425-15.493-21.501-23.738-26.914c-2.007-2.955-2.721-8.176-2.773-8.587c0.347,4.14,1.055,6.462,1.688,7.769
		C517.479,170.022,516.921,161.716,517.916,154.38z"/>
	<path fill="#FFB27D" d="M522.811,174.568c-0.042,0.019,3.981,2.107,7.007,1.28c2.847-0.776,4.706-4.467,4.667-4.475
		c-1.206-0.24-1.553-1.896-1.528-9.013l-0.544,0.107l-9.162,1.814c0,0,0.209,2.883,0.215,5.6
		C523.472,172.162,523.333,174.325,522.811,174.568z"/>
	<path fill="#ED975D" d="M523.25,164.282c0,0,0.209,2.883,0.215,5.6c5.127-0.145,7.836-4.821,8.947-7.414L523.25,164.282z"/>
	<path fill="#2A4E96" d="M485.975,327.375c-0.448,1.408,0.562,2.859,2.038,2.929l3.579,0.167l3.787,0.116
		c0.946,0.029,1.852-0.384,2.45-1.119c3.023-3.708,12.327-16.067,17.972-34.025c0.158-0.503,0.326-1.013,0.503-1.529
		c3.728-10.868,11.455-24.51,15.527-36.858c0.647-1.967,1.229-3.817,1.752-5.57c0.167-0.561,0.33-1.111,0.484-1.654
		c3.001-10.428,3.87-17.273,4.671-24.588l-29.404,0.236C509.334,225.478,503.145,273.591,485.975,327.375z"/>
	<path fill="#FFFFFF" d="M513.451,208.581c0.074,13.993-2.054,19.996-2.054,19.996s12.591,6.397,27.554,1.688
		c0.176-0.056,12.389-2.842,12.389-2.842c-0.25-0.567-2.477-9.996-2.721-10.516c-3.159-6.784-5.558-9.76-5.933-11.845
		c-0.694-3.895-0.71-7.923-0.363-11.724c0.912-10.058,3.628-18.408,3.628-18.408c-4.077-0.928-7.896-2.558-12.139-4.148
		c-0.977,1.215-3.96,2.486-6.549,2.429c-2.979-0.065-3.946-1.342-3.792-2.735c-3.177,1.768-5.711,3.438-5.711,3.438
		c-2.699,4.688-8.174,9.243-8.57,16.435C509.092,192.117,513.449,208.189,513.451,208.581z"/>
	<path fill="#5F9AA8" d="M538.739,210.141c1.286,1.82,3.75,12.876,9.881,14.267c-3.159-7.881-5.558-11.336-5.933-13.759
		c-0.694-4.522-0.71-9.203-0.363-13.617c-2.053-3.597-3.585-6.063-3.585-6.063c-0.161-0.581-3.262-10.168-4.255-1.599
		C533.492,197.94,537.303,208.106,538.739,210.141z"/>
	<path fill="#FFB27D" d="M521.539,166.854c0,0,12.128,0.2,12.138-7.355c0.008-7.556,1.579-12.618-6.165-13.065
		c-7.744-0.448-9.252,2.434-9.868,4.955C517.028,153.91,518.384,166.607,521.539,166.854z"/>
	<path fill="#A9453D" d="M521.988,146.248c0,0,3.321,8.864,8.418,10.175c5.097,1.31,7.308-0.055,7.308-0.055
		s-3.91-3.106-4.721-8.527C532.992,147.841,524.492,142.029,521.988,146.248z"/>
	<path fill="#A9453D" d="M522.811,146.967c0,0-2.48,1.979-3.085,3.903c-0.604,1.924-0.876,5.885-2.03,5.75
		c0,0-2.502-6.025,0.309-9.433C520.987,143.573,522.811,146.967,522.811,146.967z"/>
	<polygon fill="#FFB27D" points="502.453,218.292 496.724,235.759 499.992,237.07 509.464,221.638 	"/>
	<path fill="#F99746" d="M517.899,172.883c0,0-6.755,2.682-8.71,6.86c-1.954,4.18-4.915,32.212-6.094,35.091
		s-2.065,5.158-2.065,5.158s3.406,2.869,6.83,3.08C511.285,223.285,517.899,172.883,517.899,172.883z"/>
	<path fill="#F99746" d="M523.472,170.475c0,0-7.018,17.337-7.224,20.846c-0.207,3.509-0.826,57.375-0.826,57.375
		s0.413,2.478-4.334,1.445s-5.985-2.064-5.985-2.064s4.54-33.228,3.303-44.785c-1.239-11.558,9.493-30.408,9.493-30.408
		L523.472,170.475z"/>
	<path fill="#1E3D70" d="M491.592,330.47l4.111,0.125c0.734,0.023,1.438-0.293,1.906-0.86c2.765-3.347,12.403-15.875,18.191-34.293
		c0.158-0.503,0.326-1.013,0.503-1.529c3.728-10.868,11.455-24.51,15.527-36.858c0.647-1.967,1.229-3.817,1.752-5.57
		c0.167-0.561,0.33-1.111,0.484-1.654l-4.33-3.286c0,0-13,21.052-17.024,40.862C509.217,304.614,495.216,325.321,491.592,330.47z"/>
	<path fill="#2A4E96" d="M529.286,289.251c-0.071,9.113,0.361,29.428,1.471,39.358c0.102,0.908,0.87,1.594,1.784,1.594h3.068
		c1.293,0,2.26-0.009,2.903-0.019c0.557-0.008,1.03-0.408,1.138-0.952c3.051-15.526,5.235-28.425,6.833-39.568
		c1.338-9.329,2.526-17.328,3.44-24.212c0.921-6.929,1.561-12.73,1.79-17.632c0.035-0.772,0.062-1.523,0.076-2.252
		c0.015-0.732,0.019-1.444,0.013-2.136l-25.406-2.477C526.716,257.836,529.327,283.652,529.286,289.251z"/>
	<path fill="#1E3D70" d="M535.61,330.204c1.161,0,2.061-0.007,2.697-0.016c0.676-0.009,1.254-0.493,1.384-1.156
		c3.03-15.436,5.201-28.271,6.793-39.367c1.338-9.329,2.526-17.328,3.44-24.212c0.921-6.929,1.561-12.73,1.79-17.632l-9.322,5.483
		c0,0,5.95,2.1,3.68,17.991C543.801,287.186,538.77,327.954,535.61,330.204z"/>
	<path fill="#F99746" d="M534.409,247.665c0,0,1.79,6.465,7.981,5.64c6.192-0.825,14.996-4.54,14.996-4.54
		s-2.646-8.361-5.936-19.345c-3.983-13.297-8.914-30.439-11.237-41.252c-0.652-3.03-1.099-5.561-1.264-7.373l-5.137-9.966
		c0,0-7.659,17.19-8.071,21.523C525.329,196.686,534.409,247.665,534.409,247.665z"/>
	<path fill="#FFB27D" d="M540.593,191.707l-6.78-20.878c0.018,0.009,8.563,2.542,12.86,4.714c0,0,2.687,3.464,4.349,11.454
		c0,0,1.756,19.185-2.164,26.201c0,0-12.384,2.477-32.196-4.334v-4.541c0,0,21.67,1.136,26.107,1.651L540.593,191.707z"/>
	<path fill="#ED7D2B" d="M534.684,201.433c0.276,7.019,1.929,20.64,16.65,27.931c0.038,0.019,0.078,0.039,0.117,0.056
		c-3.983-13.297-8.914-30.439-11.237-41.252C537.51,192.208,534.534,197.57,534.684,201.433z"/>
	<path fill="#F99746" d="M533.813,170.829c0,0,12.567,0.886,15.595,7.628s3.99,29.169,0.138,35.772c0,0-5.305,1.511-14.685-0.243
		c-0.115-0.021-0.231-0.043-0.348-0.065c0,0-2.992-7.327-0.31-8.772c0,0,7.912,0.414,7.086-2.201
		C540.464,200.333,533.813,170.829,533.813,170.829z"/>
	<g>
		<path fill="#A9453D" d="M502.303,207.129l0.37,1.188l20.622-6.415c0,0,0.275-0.313,0.14-0.729c-0.15-0.46-0.51-0.461-0.51-0.461
			L502.303,207.129z"/>
		<polygon fill="#A9453D" points="500.812,208.253 502.303,207.129 502.673,208.318 		"/>
	</g>
	<path fill="#FFB27D" d="M497.538,235.283c0,0-5.231,2.89-5.92,5.093s-0.216,6.815,0.615,6.746c0.831-0.068,2.069-4.956,2.758-5.301
		c0.688-0.343,1.651-1.375,1.651-0.618s-0.688,2.133-0.344,2.34c0.344,0.206,1.445-1.926,2.203-2.34
		c0.757-0.414,1.075-3.816,1.812-4.731C501.048,235.557,497.538,235.283,497.538,235.283z"/>
	<path fill="#FFB27D" d="M516.661,204.323c0,0-4.679-2.881-6.642-2.438s-6.965,4.066-4.559,4.85
		c2.406,0.785,4.354-0.038,5.279,0.532c0.926,0.568,1.608,1.61,5.921,1.597C520.973,208.849,516.661,204.323,516.661,204.323z"/>
</g>
<g>
	<path fill="#163560" d="M148.732,173.368c-0.784-1.513,17.11-6.959,17.394,7.968c0,0,33.521-0.824,17.516-19.508
		c-5.541-6.468-4.971-11.816-4.805-16.795c0.168-4.979-3.452-19.449-15.859-17.992c0,0-3.249-1.322-7.305,0.782
		C146.451,132.607,125.792,178.873,148.732,173.368z"/>
	<path fill="#FFB27D" d="M203.535,190.056c0,0,2.182-3.321,3.94-3.387c1.759-0.065,5.015-0.977,4.754-0.325
		c-0.26,0.65-2.279,0.717-2.475,1.107c-0.195,0.39,2.996,0.978,3.907,1.042c0.913,0.064,3.062,0,2.997,0.455
		c-0.065,0.456-3.874,2.346-6.561,2.084c-2.688-0.26-6.009,0.782-6.009,0.782L203.535,190.056z"/>
	<path fill="#B0D0FF" d="M171.979,191.131c0,0,1.186,2.348,3.337,5.047c2.593,3.247,6.591,7,11.611,7.74
		c2.397,0.354,4.742-0.163,6.897-1.12c0.006-0.002,0.008-0.002,0.008-0.002c6.096-2.707,10.681-8.93,10.681-8.93
		c1.074-2.931-0.684-4.919-0.684-4.919s-12.31,2.769-13.482,2.184c-1.172-0.586-8.012-20.288-9.639-22.764
		c-1.63-2.476-7.179-3.762-7.179-3.762L171.979,191.131z"/>
	<path fill="#98BAF4" d="M175.316,196.178c2.593,3.247,6.591,7,11.611,7.74c2.397,0.354,4.742-0.163,6.897-1.12
		c-0.238,0.031-6.327,0.783-8.753-3.559c-2.476-4.43-5.153-11.463-8.83-9.119C174.654,191.133,174.724,193.648,175.316,196.178z"/>
	<path fill="#233862" d="M126.052,324.011c0,0-3.756,3.428-3.023,5.864c0.732,2.436,4.123,4.06,4.58,7.036
		c0.458,2.978,2.291,4.601,3.94,4.601s7.862,0,7.862,0s1.213-2.095-1.718-2.726c-2.932-0.632-4.037-4.131-3.854-7.378
		s-0.275-7.577-0.275-7.577l-6.23-1.444L126.052,324.011z"/>
	<path fill="#233862" d="M157.845,325.466c0,0-1.352,14.522,0.297,15.334l21.105-0.043c0,0,0-2.436-3.39-2.977
		c-3.39-0.542-9.345-2.526-10.353-6.946C164.497,326.414,157.845,325.466,157.845,325.466z"/>
	<path fill="#FFB27D" d="M142.805,221.282c4.343-9.739,7-12.534,6.493-15.558c-0.377-2.25,1.15-41.95,1.15-41.95
		c0.515-0.159,1.548-0.303,2.113-0.428c1.782-0.396,3.256-1.646,3.87-3.365c0.739-2.07,1.327-5.127,1.313-8.958l0.557,0.109
		l9.354,1.853c0,0-0.212,2.944-0.219,5.717c0,0.023,0,0.046,0,0.069c-0.011,2.409,1.568,4.534,3.883,5.203
		c1.182,0.341,2.209,0.632,2.209,0.632s3.435,9.806,4.091,19.88c0.656,10.074-6.246,14.45,0.052,34.582
		C184.1,239.629,140.406,226.665,142.805,221.282z"/>
	<path fill="#E8945B" d="M167.654,152.985c0,0-0.212,2.944-0.219,5.717c-5.234-0.147-8.001-4.923-9.135-7.57L167.654,152.985z"/>
	<path fill="#FFB27D" d="M169.402,155.612c0,0-12.384,0.204-12.393-7.51c-0.009-7.714-1.613-12.884,6.294-13.34
		s9.446,2.485,10.076,5.06C174.008,142.395,172.624,155.359,169.402,155.612z"/>
	<path fill="#163560" d="M168.944,134.572c0,0-3.391,9.05-8.595,10.389c-5.204,1.338-7.461-0.056-7.461-0.056
		s3.991-3.171,4.82-8.706C157.708,136.199,166.386,130.265,168.944,134.572z"/>
	<path fill="#163560" d="M168.104,135.307c0,0,2.514,0.94,3.549,2.774c1.012,1.793,1.875,4.168,1.674,7.082
		c0,0,2.555-6.151-0.316-9.631C169.967,131.841,168.104,135.307,168.104,135.307z"/>
	<path fill="#EBF3FA" d="M166.708,150.826c0,0,0.854,1.125,2.564,1.043c1.377-0.065,1.908-1.26,1.908-1.26
		S168.651,150.001,166.708,150.826z"/>
	<path fill="#B0D0FF" d="M141.61,181.335c0,0-0.314,4.435,0,9.755c0.209,3.527,3.777,8.252,4.283,9.419
		c1.271,2.932,2.703,3.409,2.703,3.409l11.081,2.716l3.896,0.953l12.286-3.669c0,0,5.596-15.62,3.349-24.413
		s-5.68-14.899-5.68-14.899s-10.026,9.816-23.08-0.833L141.61,181.335z"/>
	<path fill="#F2CCAA" d="M144.853,192.531c0.209,3.525,0.534,6.812,1.04,7.979c1.271,2.932,2.703,3.409,2.703,3.409l11.081,2.716
		l4.813-1.415c0,0-16.066-2.435-14.286-16.257L144.853,192.531z"/>
	<path fill="#ED7D2B" d="M175.078,206.289c0,0,6.084,18.939,6.476,25.388c0.391,6.447-11.631,91.601-12.115,94.572
		c-0.456,2.801-3.933,4.586-3.933,4.586s-1.6,0.943-3.882,0.299c-3.167-0.895-4.169-1.966-4.169-1.966s-4.736-60.73-1.805-82.425
		c2.931-21.693,2.965-40.454,2.965-40.454H175.078z"/>
	<path fill="#F99746" d="M149.299,205.724c0,0-9.281,12.453-10.146,20.872c-0.865,8.418-1.358,37.988-3.201,46.194
		c-1.843,8.207-8.616,24-8.616,49.597c0,0,0.704,1.468,2.878,2.249c0.695,0.25,1.626,0.492,2.53,0.7
		c1.793,0.411,3.632-0.466,4.45-2.112c4.579-9.22,19.165-38.955,19.913-45.128c0.529-4.367,5.134-33.277,15.18-50.239
		c2.412-4.074-1.48-20.27-1.48-20.27L149.299,205.724z"/>
	<path fill="#FFFFFF" d="M166.983,151.032c0,0,0.214,0.909,2.476,0.769c0,0,1.899-0.118,1.841-1.116
		C171.3,150.685,169.458,149.974,166.983,151.032z"/>
	<path fill="#233862" d="M176.05,203.365c0,0-2.443,1.933-7.296,2.029c-5.796,0.118-20.158-1.477-20.158-1.477
		s-0.638,1.783-0.612,3.666c0,0,17.542,4.424,27.705,0.646C175.688,208.229,176.999,205.763,176.05,203.365z"/>
	<g>
		<path fill="#FFFFFF" d="M167.5,207.396c0-1.65,1.186-2.993,2.645-2.993c1.458,0,2.645,1.343,2.645,2.993
			c0,1.651-1.186,2.994-2.645,2.994C168.686,210.39,167.5,209.047,167.5,207.396z M168.377,207.396c0,1.168,0.793,2.117,1.768,2.117
			s1.768-0.949,1.768-2.117c0-1.167-0.793-2.117-1.768-2.117S168.377,206.229,168.377,207.396z"/>
	</g>
	
		<rect x="137.494" y="186.006" transform="matrix(-0.7542 -0.6567 0.6567 -0.7542 129.232 453.0091)" fill="#B5453C" width="23.83" height="32.62"/>
	<path fill="#FFB27D" d="M152.649,206.848c0,0,6.585,0.77,6.564,2.333s-1.641,4.774-2.454,4.917
		c-0.813,0.144-5.359-4.343-5.359-4.343L152.649,206.848z"/>
	<path fill="#B0D0FF" d="M150.448,163.773c0,0-8.792,0.617-12.161,8.809c-3.371,8.19-9.764,21.946-9.764,24.26
		s3.571,9.446,22.752,13.548c0,0,1.984-2.088,1.864-3.737c0,0-11.973-10.284-11.941-11.486c0.061-2.274,1.963-5.275,12.476-15.791
		C156.531,176.516,150.448,163.773,150.448,163.773z"/>
</g>
<g>
	<g>
		<g>
			<path fill="#B0D4FF" d="M247.576,341.065h-0.083c-0.491,0-0.886-0.404-0.875-0.896l1.327-57.504l3.908-0.457l-3.333,57.965
				C248.491,340.673,248.077,341.065,247.576,341.065z"/>
		</g>
		<g>
			<path fill="#95C0F4" d="M224.802,341.065h-0.083c-0.491,0-0.886-0.404-0.875-0.896l1.327-57.504l3.908-0.457l-3.332,57.965
				C225.717,340.673,225.303,341.065,224.802,341.065z"/>
		</g>
		<g>
			<path fill="#B0D4FF" d="M287.645,341.065h0.083c0.491,0,0.886-0.404,0.875-0.896l-1.327-57.504l-3.908-0.457l3.333,57.965
				C286.731,340.673,287.144,341.065,287.645,341.065z"/>
		</g>
		<path fill="#B0D4FF" d="M222.212,279.099v-39.404c0-6.935,5.621-12.556,12.555-12.556h28.39c6.934,0,12.554,5.621,12.554,12.556
			v40.91L222.212,279.099z"/>
		<path fill="#95C0F4" d="M280.798,285.319h-54.815c-2.082,0-3.77-1.687-3.77-3.769v-2.451h58.585V285.319z"/>
		<path fill="#B0D4FF" d="M287.366,285.319h-41.471c-1.539,0-2.787-1.247-2.787-2.786v-0.647c0-1.539,1.248-2.786,2.787-2.786
			h41.471c1.539,0,2.787,1.247,2.787,2.786v0.647C290.154,284.072,288.906,285.319,287.366,285.319z"/>
	</g>
	<g>
		<path fill="#233862" d="M285.756,269.28c-4.067,7.079-9.182,9.811-9.182,9.811h-21.281
			C255.293,279.09,288.859,263.879,285.756,269.28z"/>
		<g>
			<path fill="#FFB27D" d="M269.411,324.048c-0.554,0.636-0.625,1.346-0.351,2.104c0,0.005,0.002,0.009,0.005,0.012
				c0.507,1.402,2.185,2.969,4.132,4.533c0.249,0.2,0.47,0.383,0.663,0.552c0.051,0.046,0.102,0.089,0.149,0.134
				c0.039,0.034,0.077,0.07,0.115,0.104c1.816,1.675,1.133,2.059,4.396,5.455c3.721,3.872,6.283,3.942,7.011,3.589
				c0.617-0.301-0.636-2.354-2.024-4.661c-0.067-0.111-0.133-0.225-0.202-0.337c-0.185-0.307-0.369-0.618-0.552-0.927
				c-1.626-2.777-1.209-4.08-0.823-8.214c0.313-3.359,5.226-18.766,5.226-18.766l-7.131-1.229c0,0-2.147,12.269-4.513,14.158
				c-1.266,1.006-2.682,1.02-3.897,1.766c-0.086,0.052-0.17,0.105-0.253,0.16C270.672,322.938,269.968,323.412,269.411,324.048z"/>
			<path fill="#233862" d="M269.411,324.048c-0.554,0.636-0.625,1.346-0.351,2.104c0,0.005,0.002,0.009,0.005,0.012
				c0.621,1.401,2.256,2.96,4.139,4.518c0.246,0.205,0.463,0.393,0.656,0.567c0.051,0.046,0.102,0.089,0.149,0.134
				c0.039,0.034,0.077,0.07,0.115,0.104c1.816,1.675,1.133,2.059,4.396,5.455c3.721,3.872,6.283,3.942,7.011,3.589
				c0.617-0.301-0.636-2.354-2.024-4.661c-0.725-0.266-4.089-1.633-6.633-4.888c-2.24-2.859-3.734-6.532-5.26-8.66
				c-0.086,0.052-0.17,0.105-0.253,0.16C270.672,322.938,269.968,323.412,269.411,324.048z"/>
			<path fill="#FFB27D" d="M326.908,319.595c0.44,2.201,3.578,1.833,7.083,0.977c3.506-0.856,2.672,0.162,7.661-0.39
				c4.989-0.553,6.5-2.413,6.652-3.155c0.136-0.658-2.329-0.89-4.973-1.193c-0.333-0.038-0.667-0.079-1.001-0.121
				c-2.985-0.373-5.171-2.301-7.882-3.882c-2.569-1.499-6.402-7.604-6.402-7.604l-6.841,0.543c0,0,3.59,5.452,4.979,7.823
				c0.816,1.394,0.773,3.239,0.671,4.662C326.803,318.029,326.753,318.819,326.908,319.595z"/>
			<path fill="#233862" d="M333.991,320.572c3.506-0.856,2.672,0.162,7.661-0.39c4.989-0.553,6.5-2.413,6.652-3.155
				c0.136-0.658-2.329-0.89-4.973-1.193l-0.025,0.05c0,0-2.992,2.122-7.145,2.221c-3.384,0.082-6.969-0.888-9.307-0.85
				c-0.052,0.774-0.103,1.564,0.053,2.341C327.349,321.796,330.487,321.428,333.991,320.572z"/>
			<path fill="#233862" d="M300.69,275.848l-6.396,17.21l-8.35,22.472c0,0-2.266,0.219-4.436-0.406
				c-1.998-0.577-4.29-2.088-4.29-2.088s2.318-24.128,6.644-37.978c1.108-3.556,2.351-6.432,3.721-8.051
				C294.288,259.084,300.69,275.848,300.69,275.848z"/>
			<path fill="#2B478B" d="M294.187,248.516c-4.19-1.351-16.141,0.384-28.145,2.733l-2.514-4.145l-25.93-2.025
				c0,0-8.557,18.975-3.872,31.064c0.688,1.777,2.057,2.917,4.389,2.955c0.001,0.001,0.377-0.001,0.378,0
				c0,0,15.433-0.01,20.444-0.01c12.896,0,27.291-8.863,29.153-9.236c3.048-0.609,4.268,5.486,7.315,11.888
				c3.048,6.4,28.652,28.347,28.652,28.347s3.935,0.04,5.561-0.569c1.748-0.656,2.388-1.508,2.388-1.508
				S303.636,251.565,294.187,248.516z"/>
			<path fill="#233862" d="M262.508,171.602c-3.322-1.745-8.375-1.981-9.197-2.091c-9.826-1.32-15.739,12.958-16.087,17.284
				c-0.641,7.974-4.859,9.19-10.797,14.185c-11.906,10.013-8.415,21.648-1.904,25.973c3.906,2.594,10.791,0,10.791,0
				c0.098,0.067,18.829-10.473,28.063-15.557C277.219,209.427,270.973,176.046,262.508,171.602z"/>
			<path fill="#FFB27D" d="M255.637,207.068c0.041,0.026-4.543,1.591-7.608,0.233c-2.883-1.274-5.068-6.018-5.025-6.02
				c1.312-0.062,2.751-1.207,3.86-8.732l0.559,0.2l9.391,3.38c0,0-0.681,3.013-1.121,5.882
				C255.323,204.419,255.124,206.727,255.637,207.068z"/>
			<path fill="#ED975D" d="M256.814,196.129c0,0-0.681,3.013-1.121,5.882c-5.394-0.971-7.511-6.346-8.27-9.262L256.814,196.129z"/>
			<path fill="#FFB27D" d="M258.212,199.12c0,0-12.848-1.725-11.651-9.71c1.197-7.984,0.345-13.584,8.599-12.821
				c8.254,0.763,9.387,4.049,9.636,6.812C265.045,186.162,261.586,199.363,258.212,199.12z"/>
			<path fill="#233862" d="M264.328,179.023c0,0-8.225,7.088-13.82,7.659c-5.594,0.571-7.712-1.224-7.712-1.224
				s3.298-2.738,5.282-7.158c0.585-1.302,1.821-2.195,3.243-2.318C255.316,175.637,262.889,175.48,264.328,179.023z"/>
			<path fill="#233862" d="M259.186,178.388c0,0,2.752,2.66,3.619,4.633c0.836,1.904,1.087,6.46,0.421,8.269
				c0,0,4.287-8.337,1.859-12.387C262.512,174.608,259.186,178.388,259.186,178.388z"/>
			<path fill="#FFFFFF" d="M266.456,225.995c-0.388,26.009-0.106,20.574-2.952,23.042c-0.685,0.595-2.612,0.948-5.149,1.115
				c-7.975,0.53-21.994-0.784-22.527-2.258c-1.84-5.099-0.541-6.684-2.076-14.492c-0.16-0.83-0.358-1.729-0.59-2.707
				c-1.279-5.362-2.525-7.188,2.014-15.803c4.117-7.803,8.395-14.137,8.779-13.908c10.862,6.448,11.738,1.028,11.738,1.028
				S266.647,213.309,266.456,225.995z"/>
			<path fill="#2B478B" d="M294.294,293.058l-8.35,22.472c0,0-2.266,0.219-4.436-0.406c-1.998-0.577-4.29-2.088-4.29-2.088
				s2.318-24.128,6.644-37.978L294.294,293.058z"/>
			<path fill="#FFFFFF" d="M255.694,202.011c0,0,11.177,1.895,12.489,6.706c1.312,4.813,9.036,33.102,9.036,33.102
				s-5.682,1.021-8.307-1.603c-2.625-2.626-9.133-24.353-9.133-24.353L255.694,202.011z"/>
			<path fill="#EBF3FF" d="M258.355,250.152c-7.975,0.53-21.994-0.784-22.527-2.258c-1.84-5.099-0.541-6.684-2.076-14.492
				l3.847-10.831c0,0-0.636,12.062,2.921,15.234c3.554,3.172,14.564,6.124,16.293,8.774
				C257.647,247.852,258.195,249.127,258.355,250.152z"/>
			<path fill="#FFB27D" d="M249.218,245.08c0,0,7.868-1.752,9.138-1.054s4.372,3.24,4.761,4.126
				c0.388,0.885-2.826-0.672-3.872-0.952c-0.677-0.183-2.46,0.438-3.342,0.732c-3.713,1.237-5.989,0.601-5.989,0.601L249.218,245.08
				z"/>
			<path fill="#FFFFFF" d="M243.948,200.979c0,0-10.564,0.649-14.222,5.751c-5.148,7.181-15.361,37.781-9.508,41.863
				c6.591,4.596,29.999,1.201,29.999,1.201s0.779-3.641-0.305-5.401c-1.083-1.761-18.696-4.606-19.509-5.42
				c-0.813-0.813,10.161-15.851,10.161-18.289S243.948,200.979,243.948,200.979z"/>
			<path fill="#FFB27D" d="M258.736,246.215c0,0,1.649,2.127,2.189,2.381c0.541,0.254,0.89,0.19,0.89,0.19l-1.111-1.999
				L258.736,246.215z"/>
			<path fill="#FFB27D" d="M258.355,244.026l4.793,2.327c0,0-0.204,0.333-0.794,0.307c-0.59-0.027-2.079-0.57-2.079-0.57
				L258.355,244.026z"/>
		</g>
		<g>
			<g>
				<polygon fill="#F99746" points="260.925,251.853 298.84,251.853 310.244,223.492 272.389,223.492 				"/>
				<polygon fill="#ED7D2B" points="299.284,250.749 249.218,250.749 249.218,251.853 298.84,251.853 				"/>
			</g>
			<path fill="#FFFFFF" d="M289.269,237.672c0.286-0.997-0.291-1.805-1.288-1.805c-0.997,0-2.037,0.808-2.323,1.805
				c-0.286,0.997,0.291,1.806,1.287,1.806C287.943,239.478,288.983,238.669,289.269,237.672z"/>
		</g>
	</g>
</g>
<g>
	<g>
		<path fill="#78ACEA" d="M458.948,342.115h0.11c0.65,0,1.173-0.566,1.157-1.254l-1.755-80.514l-5.168-0.638l4.408,81.156
			C457.738,341.567,458.285,342.115,458.948,342.115z"/>
	</g>
	<g>
		<path fill="#78ACEA" d="M249.406,342.115h-0.11c-0.649,0-1.172-0.566-1.157-1.254l1.754-80.514l5.169-0.638l-4.408,81.156
			C250.616,341.567,250.069,342.115,249.406,342.115z"/>
	</g>
	<path fill="#78ACEA" d="M465.171,261.829H244.05c-1.812,0-3.28-1.469-3.28-3.28v-3.156c0-1.812,1.468-3.279,3.28-3.279h221.122
		c1.812,0,3.279,1.468,3.279,3.279v3.156C468.45,260.36,466.983,261.829,465.171,261.829z"/>
</g>
<path fill="#DFEDFB" d="M195.86,114.123c-0.835-20.673,16.492-29.858,34.209-29.858c17.718,0,36.998,4.59,38.669,32.08
	c1.075,17.685-8.353,28.567-35.5,28.567c-9.155,0-16.271-1.444-21.721-4.02l-13.57,12.058l6.668-16.667
	C198.709,130.791,196.22,123.043,195.86,114.123z"/>
<g>
	<path fill="#233862" d="M598.546,342.026c0,0,0.5-3.884,1.654-6.192c1.154-2.31,8.501-0.84,8.501-0.84s1.47,1.259,1.784,7.137
		L598.546,342.026z"/>
	<path fill="#233862" d="M573.515,341.974c1.727-1.055,0.744-8.915,0.744-8.915s-8.045-6.436-9.151-1.509
		c-1.106,4.928-7.643,7.14-11.362,7.743c-2.568,0.416-3.363,1.839-3.61,2.681H573.515z"/>
	<path fill="#213F7A" d="M590.177,284.798c-0.328,1.804-0.535,3.284-0.59,4.346c-0.748,14.587-12.278,47.939-14.341,48.717
		c-3.192,1.204-8.218-1.355-10.847-2.193c-1.09-0.348-1.825-1.447-1.582-2.562c5.71-26.252,7.809-64.053,8.572-86.434
		c0.386-11.272,2.321-19.06,2.321-19.06s28.123-7.504,28.29,1.988C602.15,238,592.686,270.943,590.177,284.798z"/>
	<path fill="#233862" d="M590.177,284.798l-18.787-38.126c0.386-11.272,2.321-19.06,2.321-19.06s28.123-7.504,28.29,1.988
		C602.15,238,592.686,270.943,590.177,284.798z"/>
	<path fill="#213F7A" d="M583.92,229.634l14.867,107.754c0,0,6.529,1.574,11.607,0.314c0,0,4.352-57.308,3.989-71.163
		c-0.362-13.854,3.124-37.072-0.796-39.633S583.92,229.634,583.92,229.634z"/>
	<path fill="#B0D0FF" d="M616.487,227.839c0.071,0.973-0.552,1.859-1.489,2.131c-2.074,0.602-4.465,1.021-9.076,1.976
		c-4.332,0.9-10.159,1.696-17.319,1.741c-11.389,0.072-15.7-3.854-15.7-3.854c-0.49,0.01,0.26-2.374,0.935-13.707
		c0.229-3.839,0.45-8.705,0.608-14.854c0.145-5.533,0.241-12.107,0.251-19.906c0.012-9.383,14.533-19.476,14.802-19.476l0.003,0.004
		c0,1.351,2.129,3.843,5.408,4.059c3.892,0.254,8.666-1.683,8.666-3.924c0-0.023,7.036,11.255,9.535,23.272
		C614.372,191.35,613.862,191.188,616.487,227.839z"/>
	<path fill="#B0D0FF" d="M589.497,161.891c0,0-13.504-0.114-16.754,4.443c-3.249,4.558-10.374,29.077-6.657,37.235
		c3.72,8.158,10.677-3.375,14.538-8.372S589.497,161.891,589.497,161.891z"/>
	<path fill="#FFB27D" d="M589.36,159.83l0.008,1.396c0,0-0.381,4.366,4.995,5.003c5.376,0.64,9.365-0.815,9.22-4.184
		c-0.484-2.608-0.933-5.287-0.97-7.445c-0.013-0.802,0.042-1.653,0.191-2.614l-10.416-0.208l-3.068,0.501L589.36,159.83z"/>
	<path fill="#E2915A" d="M589.32,152.279l0.04,7.551c1.106,0.514,2.354,0.829,3.755,0.829c4.787,0,7.881-3.51,9.498-6.059
		c-0.013-0.802,0.042-1.653,0.191-2.614l-10.416-0.208L589.32,152.279z"/>
	<path fill="#FFB27D" d="M603.602,150.309c-1.208,6.504-9.601,6.292-13.228,5.882c-1.021-0.113-1.663-0.244-1.663-0.244
		c-1.151-0.307-1.793-2.12-2.092-4.495c-0.593-4.699,0.156-11.597,0.95-13.362c1.194-2.654,3.445-5.526,11.897-3.454
		C607.92,136.71,605.154,141.976,603.602,150.309z"/>
	<path fill="#98BAF4" d="M575.689,180.164c0,0-5.223,11.534-5.071,14.99c0,0,2.586-0.088,5.071,0.652
		C579.771,197.024,575.689,180.164,575.689,180.164z"/>
	<path fill="#233862" d="M584.976,131.9c0,0,3.721-0.286,8.107-2.194c3.562-1.549,8.056,0.157,9.514,0.925
		c-0.039-0.235-0.133-0.555-0.355-0.877c0,0,0.655,0.464,0.751,1.113c0.067,0.05,0.098,0.084,0.08,0.096c0,0,0.742-0.136,1.22,0.079
		c0,0-0.334-0.048-0.453,0.167c-0.013,0.023-0.031,0.042-0.054,0.059c5.556,2.685,6.068,11.464,4.281,13.496
		c-2.15,2.444-5.399,7.975-5.399,7.975s-0.271-1.327,0.12-3.478c0.391-2.151-1.467-2.151-3.813-3.129
		c-2.347-0.978-0.391-3.715-2.444-5.377c-2.053-1.662-9.581-0.684-9.484-1.955C584.252,137.782,584.976,132.186,584.976,131.9z"/>
	<path fill="#98BAF4" d="M605.304,201.769c-2.204,8.854-26.047,13.428-31.468,14.357c0.229-3.839,0.45-8.705,0.608-14.854
		L605.304,201.769z"/>
	<path fill="#FFB27D" d="M600.071,204.646c0.228,0,5.301-0.756,6.209-1.211s5.064-6.361,2.343-7.875
		c-2.722-1.515-10.027,4.543-10.027,4.543L600.071,204.646z"/>
	<path fill="#B0D0FF" d="M569.214,206.401c0,0,19.621,1.065,32.788-1.755c0,0,0.332-3.804-3.805-5.493c0,0-20.523-4.35-25.454-3.139
		C567.814,197.226,569.214,206.401,569.214,206.401z"/>
	<path fill="#B0D0FF" d="M614.274,191.002c-4.071,4.91-9.395,8.919-15.264,9.857l-0.001-0.001c-0.049-0.073-1.777-2.697-1.453-6.553
		c0.151-1.783,0.739-3.833,2.138-6.016c0.431-0.671,0.813-1.455,1.153-2.326c3.205-8.176,2.728-23.935,2.728-23.935
		s13.609,1.425,17.849,7.483C624.021,173.222,620.708,183.24,614.274,191.002z"/>
	<path fill="#E2915A" d="M590.374,156.191c-1.021-0.113-1.663-0.244-1.663-0.244c-1.151-0.307-1.793-2.12-2.092-4.495
		c2.159,0.531,3.147,2.199,3.56,2.91C590.365,154.682,590.403,155.397,590.374,156.191z"/>
	<path fill="#FFB27D" d="M584.891,159.871c0,0-4.699-7.755-1.045-8.093c3.655-0.337,5.124,2.136,5.651,3.045
		c0.528,0.909-0.138,5.007-0.138,5.007L584.891,159.871z"/>
	<path fill="#B0D0FF" d="M602.804,194.045c-0.144,0.983-0.438,1.888-0.801,2.692c-1.148,2.549-2.993,4.122-2.993,4.122l-0.001-0.001
		c-12.206-5.509-14.676-24.43-15.089-34.824c-0.167-4.178,0-6.98,0-6.98c5.506-1.823,7.054,1.345,7.054,1.345
		s6.501,15.461,9.873,25.565C602.138,189.832,602.969,192.915,602.804,194.045z"/>
	<path fill="#98BAF4" d="M614.274,191.002c-4.071,4.91-9.395,8.919-15.264,9.857l-0.001-0.001
		c-12.206-5.509-14.676-24.43-15.089-34.824c0,0,5.775,20.949,13.636,28.271c1.421,1.325,2.911,2.203,4.447,2.432
		c0,0,9.913-2.802,11.992-5.439C614.144,191.109,614.236,191.015,614.274,191.002z"/>
</g>
<g>
	<g>
		<polygon fill="#2B478B" points="391.954,252.113 354.04,252.113 342.635,223.75 380.491,223.75 		"/>
		<polygon fill="#2B478B" points="353.596,251.008 403.662,251.008 403.662,252.113 354.04,252.113 		"/>
	</g>
	<path fill="#FFFFFF" d="M363.612,237.931c-0.287-0.996,0.29-1.805,1.287-1.805s2.037,0.809,2.322,1.805
		c0.286,0.998-0.29,1.806-1.286,1.806C364.937,239.737,363.897,238.929,363.612,237.931z"/>
</g>
<path fill="#2E3552" d="M699.526,341.396v0.24c0,0.387-0.356,0.704-0.79,0.704H3.233c-0.434,0-0.791-0.317-0.791-0.704v-0.24
	c0-0.386,0.357-0.703,0.791-0.703h695.503C699.169,340.693,699.526,341.01,699.526,341.396z"/>
</svg>
