<?xml version="1.0" encoding="utf-8"?>
<!-- Generator: Adobe Illustrator 16.0.0, SVG Export Plug-In . SVG Version: 6.00 Build 0)  -->
<!DOCTYPE svg PUBLIC "-//W3C//DTD SVG 1.1//EN" "http://www.w3.org/Graphics/SVG/1.1/DTD/svg11.dtd">
<svg version="1.1" id="Layer_1" xmlns="http://www.w3.org/2000/svg" xmlns:xlink="http://www.w3.org/1999/xlink" x="0px" y="0px"
	 width="60px" height="58.982px" viewBox="0 0 60 58.982" enable-background="new 0 0 60 58.982" xml:space="preserve">
<g transform="translate(0 -4.339)">
	<path d="M48.814,47.051l8.904,8.905c0.81,0.809,1.264,1.906,1.264,3.051l0,0c0.001,2.382-1.93,4.314-4.313,4.314l0,0
		c-1.145,0-2.242-0.454-3.051-1.264l-8.905-8.905L48.814,47.051z"/>
	<rect x="38.907" y="43.962" transform="matrix(0.7071 -0.7071 0.7071 0.7071 -20.9685 44.4915)" width="8.629" height="7.19"/>
	<path d="M47.288,49.085c1.276,0.002,2.552,0.088,3.817,0.258l-2.291-2.292l-2.047,2.047C46.939,49.095,47.113,49.085,47.288,49.085
		z"/>
	<path d="M48.813,47.051l-5.084-5.085l-6.101,6.1l2.034,2.034c2.316-0.628,4.701-0.966,7.1-1.007L48.813,47.051z"/>
	<circle cx="24.407" cy="28.746" r="20.339"/>
	<g transform="translate(4.068 8.407)">
		<rect x="13.22" y="18.058" transform="matrix(0.7071 -0.7071 0.7071 0.7071 -11.6495 16.6199)" width="2.034" height="8.629"/>
		<rect x="19.671" y="20.339" transform="matrix(0.7071 -0.7071 0.7071 0.7071 -7.6546 24.2315)" width="11.506" height="2.034"/>
		<rect x="48.814" y="0" width="7.119" height="2.034"/>
		<rect x="0" y="16.271" width="6.102" height="2.034"/>
		<rect x="38.817" y="4.07" transform="matrix(0.7071 -0.7071 0.7071 0.7071 8.6149 30.9722)" width="5.754" height="2.034"/>
	</g>
	<g transform="translate(9.153 5.356)">
		<path d="M4.068,24.407C1.821,24.407,0,22.586,0,20.339c0-2.246,1.821-4.067,4.068-4.067c2.247,0,4.068,1.821,4.068,4.067l0,0
			C8.136,22.586,6.315,24.407,4.068,24.407z M4.068,18.307c-1.124,0-2.034,0.91-2.034,2.033c0,1.124,0.911,2.034,2.034,2.034
			c1.123,0,2.034-0.91,2.034-2.034l0,0c0-1.122-0.909-2.033-2.032-2.033C4.069,18.307,4.069,18.307,4.068,18.307z"/>
		<path d="M14.237,34.577c-2.247,0-4.068-1.821-4.068-4.068c0-2.246,1.821-4.067,4.068-4.067c2.247,0,4.068,1.821,4.068,4.067l0,0
			C18.305,32.756,16.484,34.577,14.237,34.577z M14.237,28.477c-1.124,0-2.034,0.91-2.034,2.033c0,1.124,0.911,2.034,2.034,2.034
			c1.123,0,2.034-0.91,2.034-2.034l0,0c0.002-1.122-0.907-2.034-2.03-2.035c-0.001,0-0.003,0-0.004,0V28.477z"/>
		<path d="M40.678,8.136c-2.247,0-4.067-1.821-4.067-4.067c0-2.247,1.82-4.068,4.067-4.068s4.067,1.821,4.067,4.068l0,0
			C44.745,6.314,42.925,8.136,40.678,8.136z M40.678,2.036c-1.124,0-2.034,0.911-2.034,2.034s0.91,2.034,2.034,2.034
			s2.034-0.911,2.034-2.034l0,0c0.002-1.123-0.907-2.034-2.03-2.036c-0.001,0-0.003,0-0.004,0V2.036z"/>
	</g>
	<path d="M32.211,9.964c8.686,7.122,9.954,19.938,2.832,28.624c-5.687,6.934-15.243,9.326-23.525,5.889
		c8.686,7.122,21.501,5.854,28.625-2.831c7.121-8.687,5.854-21.502-2.832-28.624C35.77,11.758,34.051,10.728,32.211,9.964z"/>
	<rect x="36.783" y="18.58" transform="matrix(0.707 -0.7072 0.7072 0.707 -2.2398 33.7886)" width="5.753" height="2.035"/>
	<path d="M40.921,16.895L38.6,19.216c0.247,0.741,0.451,1.496,0.61,2.261l2.839-2.839C41.703,18.038,41.326,17.456,40.921,16.895z"
		/>
	<g transform="translate(0 4.339)">
		<path d="M24.407,0C10.927,0,0,10.927,0,24.407c0,13.479,10.927,24.406,24.407,24.406c13.479,0,24.407-10.927,24.407-24.406
			C48.814,10.927,37.887,0,24.407,0L24.407,0z M24.407,44.746c-11.233,0-20.339-9.106-20.339-20.339
			c0-11.233,9.106-20.34,20.339-20.34c11.233,0,20.339,9.106,20.339,20.34l0,0C44.746,35.64,35.641,44.746,24.407,44.746z"/>
		<path d="M35.593,23.39c-2.247,0-4.067-1.821-4.067-4.068c0-2.246,1.82-4.067,4.067-4.067s4.068,1.821,4.068,4.067l0,0
			C39.661,21.569,37.84,23.39,35.593,23.39z M35.593,17.29c-1.123,0-2.034,0.91-2.034,2.034c0,1.123,0.911,2.033,2.034,2.033
			c1.124,0,2.034-0.91,2.034-2.033l0,0c0.002-1.123-0.907-2.035-2.029-2.036c-0.002,0-0.004,0-0.005,0V17.29z"/>
	</g>
</g>
</svg>
