<svg xmlns="http://www.w3.org/2000/svg" width="41.953" height="72.967" viewBox="0 0 41.953 72.967"><defs><style>.a{fill:#e6e7e8;}.b{fill:#6dc9f7;}.c{fill:#0089ef;}.d{fill:#d4fbff;}.e{fill:#fff;}.f{fill:#fa759e;}.g{fill:#3a2c60;}</style></defs><g transform="translate(-30.364 -5.5)"><path class="a" d="M39.376,9.5H68.812a5.011,5.011,0,0,1,5.011,5.011v60.45a5.012,5.012,0,0,1-5.011,5.012H39.376a5.012,5.012,0,0,1-5.012-5.012V14.512A5.012,5.012,0,0,1,39.376,9.5Z" transform="translate(-1.505 -1.505)"/><rect class="b" width="38.214" height="69.225" rx="7.035" transform="translate(30.986 6.124)"/><g transform="translate(35.853 67.713)"><path class="c" d="M44.935,107.34H40.673a1.507,1.507,0,1,0,0,3.014h4.262a1.507,1.507,0,1,0,0-3.014Z" transform="translate(-39.166 -106.04)"/><path class="c" d="M78.935,107.34H74.673a1.507,1.507,0,1,0,0,3.014h4.262a1.507,1.507,0,1,0,0-3.014Z" transform="translate(-51.962 -106.04)"/><circle class="c" cx="2.806" cy="2.806" r="2.806" transform="translate(11.434)"/></g><path class="d" d="M31.362,16.929H69.576v52.8H31.362Z" transform="translate(-0.376 -4.301)"/><path class="e" d="M31.362,98.586H69.576v1.871H31.362Z" transform="translate(-0.376 -35.033)"/><rect class="c" width="11.929" height="1.415" rx="0.708" transform="translate(44.129 8.734)"/><path class="c" d="M75.631,10.575a.777.777,0,1,0,.776.777A.777.777,0,0,0,75.631,10.575Z" transform="translate(-16.744 -1.91)"/><circle class="f" cx="14.306" cy="14.306" r="14.306" transform="translate(36.062 25.182)"/><path class="g" d="M92.262,30.9a.624.624,0,0,0-.624.624v5.039a.624.624,0,0,0,1.247,0V31.524A.624.624,0,0,0,92.262,30.9Z" transform="translate(-23.061 -9.559)"/><path class="g" d="M64.812,5.5H35.376a5.017,5.017,0,0,0-5.012,5.012V70.961a5.017,5.017,0,0,0,5.012,5.012H64.812a5.018,5.018,0,0,0,5.012-5.012V30.021a.624.624,0,1,0-1.247,0V64.8H31.61V13.251H68.577v5.7a.624.624,0,0,0,1.247,0V10.512A5.018,5.018,0,0,0,64.812,5.5Zm3.764,60.547v4.913a3.769,3.769,0,0,1-3.764,3.764H35.376a3.769,3.769,0,0,1-3.764-3.764V66.047ZM31.61,12V10.512a3.769,3.769,0,0,1,3.766-3.764H64.812a3.769,3.769,0,0,1,3.764,3.764V12Z"/><path class="g" d="M38.5,50.99A14.931,14.931,0,1,0,53.43,36.06,14.931,14.931,0,0,0,38.5,50.99Zm28.614,0A13.683,13.683,0,1,1,53.43,37.307,13.684,13.684,0,0,1,67.114,50.99Z" transform="translate(-3.062 -11.501)"/><path class="e" d="M47.667,57.389a2.68,2.68,0,0,1-.678-1.979V52.147a.576.576,0,0,1,.154-.42.626.626,0,0,1,.832,0,.578.578,0,0,1,.154.42v3.326a1.773,1.773,0,0,0,.388,1.243,1.475,1.475,0,0,0,1.139.42,1.454,1.454,0,0,0,1.13-.424,1.775,1.775,0,0,0,.387-1.239V52.147a.578.578,0,0,1,.154-.42.626.626,0,0,1,.832,0,.578.578,0,0,1,.154.42V55.41a2.814,2.814,0,0,1-4.647,1.979Z" transform="translate(-3.149 -11.128)"/><path class="e" d="M47.711,57.759a2.85,2.85,0,0,1-.721-2.1v-3.47a.612.612,0,0,1,.164-.447.666.666,0,0,1,.884,0,.615.615,0,0,1,.164.447v3.537a1.885,1.885,0,0,0,.413,1.322,1.569,1.569,0,0,0,1.211.447,1.546,1.546,0,0,0,1.2-.451,1.888,1.888,0,0,0,.411-1.318V52.184a.615.615,0,0,1,.164-.447.666.666,0,0,1,.884,0,.615.615,0,0,1,.164.447v3.47a2.993,2.993,0,0,1-4.942,2.1Z" transform="translate(-3.149 -22.006)"/><path class="e" d="M68.465,57.5a.516.516,0,0,1-.167.38.537.537,0,0,1-.385.163.514.514,0,0,1-.4-.2L65.68,55.564l-1.844,2.278a.5.5,0,0,1-.389.19.543.543,0,0,1-.385-.158.5.5,0,0,1-.167-.375.529.529,0,0,1,.135-.343L65,54.75l-1.888-2.3a.485.485,0,0,1-.136-.343.5.5,0,0,1,.163-.375.528.528,0,0,1,.379-.158.513.513,0,0,1,.4.2l1.763,2.178,1.765-2.178a.487.487,0,0,1,.389-.2.544.544,0,0,1,.385.158.5.5,0,0,1,.167.375.483.483,0,0,1-.136.343l-1.888,2.3,1.962,2.4a.535.535,0,0,1,.141.343Z" transform="translate(-12.93 -11.128)"/><rect class="e" width="1" height="6" rx="0.5" transform="translate(53.317 29.983)"/></g></svg>