<svg xmlns="http://www.w3.org/2000/svg" width="60.288" height="60.29" viewBox="0 0 60.288 60.29"><defs><style>.a{fill:#1c769b;}.b{fill:#2795b7;}.c{fill:#3fb5d1;}</style></defs><g transform="translate(-0.008)"><g transform="translate(0.008)"><path class="a" d="M.008,159.34A30.144,30.144,0,0,0,17,186.467l-14.38-39.4A30.053,30.053,0,0,0,.008,159.34Z" transform="translate(-0.008 -129.196)"/><path class="a" d="M186.989,269.688l-9.045,26.282a30.16,30.16,0,0,0,18.526-.48,2.783,2.783,0,0,1-.215-.415Z" transform="translate(-156.316 -236.908)"/><path class="a" d="M86.343,28.624a15.881,15.881,0,0,0-2.485-8.313c-1.53-2.486-2.963-4.589-2.963-7.07a5.221,5.221,0,0,1,5.062-5.352c.134,0,.261.018.389.025a30.133,30.133,0,0,0-45.538,5.672c.708.022,1.374.037,1.939.037,3.152,0,8.035-.383,8.035-.383a1.245,1.245,0,0,1,.191,2.483s-1.633.193-3.45.289L58.5,48.661l6.6-19.784L60.4,16.011c-1.626-.1-3.164-.289-3.164-.289a1.245,1.245,0,0,1,.193-2.483s4.978.383,7.94.383c3.152,0,8.034-.383,8.034-.383a1.245,1.245,0,0,1,.192,2.483s-1.635.193-3.449.289l10.894,32.4,3.01-10.046C85.349,34.2,86.343,31.2,86.343,28.624Z" transform="translate(-35.849)"/><path class="a" d="M384.2,132.116a28.425,28.425,0,0,1-2.294,10.8L372.7,169.533a30.149,30.149,0,0,0,11.3-40.517A22.852,22.852,0,0,1,384.2,132.116Z" transform="translate(-327.396 -113.334)"/></g><path class="b" d="M80.9,13.24a5.22,5.22,0,0,1,5.062-5.352c.134,0,.261.018.389.025a30.135,30.135,0,0,0-45.539,5.673c.708.022,1.374.037,1.939.037,3.152,0,8.035-.383,8.035-.383a1.245,1.245,0,0,1,.191,2.483s-1.633.193-3.45.289l4.186,12.45a27.471,27.471,0,0,0,9.156,1.559,27.937,27.937,0,0,0,3.947-.28l.287-.863L60.4,16.012c-1.626-.1-3.164-.289-3.164-.289a1.245,1.245,0,0,1,.193-2.483s4.978.383,7.94.383c3.152,0,8.034-.383,8.034-.383a1.245,1.245,0,0,1,.192,2.483s-1.635.193-3.449.289L73.776,26.8a25.583,25.583,0,0,0,9.075-8.129A10.621,10.621,0,0,1,80.9,13.24Z" transform="translate(-35.841)"/><path class="c" d="M78.818,0a30.066,30.066,0,0,0-23.41,11.181,77.893,77.893,0,0,0,15.77,1.567c10.587,0,20.234-2,27.487-5.281A30.015,30.015,0,0,0,78.818,0Z" transform="translate(-48.666)"/></g></svg>