<svg xmlns="http://www.w3.org/2000/svg" width="40.223" height="73.092" viewBox="0 0 40.223 73.092"><defs><style>.a,.i{fill:#2626bc;}.a{opacity:0.1;}.b{fill:#6583fe;}.c{fill:#2d58e0;}.d{fill:#1f50c9;}.e{fill:#fff;}.f{fill:#ff7eb8;}.g{fill:#02ffb3;}.h{fill:#9fb0fe;}.j{fill:#b7c5ff;}.k{fill:#00d890;}.l{fill:#ff5ba8;}</style></defs><g transform="translate(-70.646 -23.724)"><g transform="translate(70.646 23.724)"><g transform="translate(0 0)"><path class="a" d="M165.766,121.3H136.437a4.669,4.669,0,0,1-4.669-4.669V57.392a4.669,4.669,0,0,1,4.669-4.669h29.329a4.669,4.669,0,0,1,4.669,4.669v59.242a4.669,4.669,0,0,1-4.669,4.669Z" transform="translate(-130.99 -48.21)"/><path class="b" d="M165.766,97.3H136.437a4.669,4.669,0,0,1-4.669-4.669V33.392a4.669,4.669,0,0,1,4.669-4.669h29.329a4.669,4.669,0,0,1,4.669,4.669V92.633a4.669,4.669,0,0,1-4.669,4.669Z" transform="translate(-130.99 -27.945)"/><path class="c" d="M131.77,71.632h38.666v55.224H131.77Z" transform="translate(-130.992 -64.176)"/><path class="d" d="M187.766,145.332h-7.928a1.556,1.556,0,0,1-1.556-1.556V136.46a1.556,1.556,0,0,1,1.556-1.556h7.928a1.556,1.556,0,0,1,1.556,1.556v7.316A1.556,1.556,0,0,1,187.766,145.332Z" transform="translate(-170.265 -117.602)"/><path class="d" d="M272.685,145.05h-7.928a1.556,1.556,0,0,1-1.556-1.556v-7.316a1.556,1.556,0,0,1,1.556-1.556h7.928a1.556,1.556,0,0,1,1.556,1.556v7.316A1.556,1.556,0,0,1,272.685,145.05Z" transform="translate(-241.969 -117.364)"/><g transform="translate(34.49 17.258)"><path class="d" d="M353.308,134.622V145.05h-3.354a1.557,1.557,0,0,1-1.556-1.556v-7.316a1.557,1.557,0,0,1,1.556-1.556Z" transform="translate(-348.398 -134.622)"/></g><g transform="translate(10.954 10.79)"><path class="e" d="M214.7,93.061H197.938a.778.778,0,0,0,0,1.556H214.7a.778.778,0,1,0,0-1.556Z" transform="translate(-197.16 -93.061)"/></g><g transform="translate(8.017 15.622)"><g transform="translate(0 0.044)"><path class="f" d="M187.766,134.82h-7.928a1.556,1.556,0,0,1-1.556-1.556v-7.316a1.556,1.556,0,0,1,1.556-1.556h7.928a1.556,1.556,0,0,1,1.556,1.556v7.316A1.556,1.556,0,0,1,187.766,134.82Z" transform="translate(-178.282 -124.392)"/><g transform="translate(3.833 4.635)"><path class="e" d="M206.91,170.507h-3.218a.778.778,0,1,0,0,1.556h3.218a.778.778,0,1,0,0-1.556Z" transform="translate(-202.913 -167.966)"/><path class="e" d="M219.575,154.177h-.884a.778.778,0,1,0,0,1.556h.884a.778.778,0,1,0,0-1.556Z" transform="translate(-215.579 -154.177)"/></g></g><g transform="translate(13.215)"><path class="g" d="M272.685,134.538h-7.928a1.556,1.556,0,0,1-1.556-1.556v-7.316a1.556,1.556,0,0,1,1.556-1.556h7.928a1.556,1.556,0,0,1,1.556,1.556v7.316A1.556,1.556,0,0,1,272.685,134.538Z" transform="translate(-263.201 -124.11)"/><g transform="translate(3.833 4.635)"><path class="e" d="M291.828,170.226H288.61a.778.778,0,1,0,0,1.556h3.218a.778.778,0,1,0,0-1.556Z" transform="translate(-287.832 -167.685)"/><path class="e" d="M304.494,153.9h-.884a.778.778,0,1,0,0,1.556h.884a.778.778,0,1,0,0-1.556Z" transform="translate(-300.498 -153.895)"/></g></g><g transform="translate(26.474 0)"><path class="h" d="M353.308,124.111v10.428h-3.354a1.557,1.557,0,0,1-1.556-1.556v-7.316a1.557,1.557,0,0,1,1.556-1.556Z" transform="translate(-348.398 -124.111)"/></g></g><path class="e" d="M131.77,249.392V220.643a3.891,3.891,0,0,1,3.891-3.891h30.885a3.891,3.891,0,0,1,3.891,3.891v28.749Z" transform="translate(-130.992 -186.713)"/><path class="i" d="M161.544,93.859H132.215a5.453,5.453,0,0,1-5.447-5.447V29.171a5.453,5.453,0,0,1,5.447-5.447h29.329a5.453,5.453,0,0,1,5.447,5.447V88.412A5.453,5.453,0,0,1,161.544,93.859ZM132.215,25.28a3.9,3.9,0,0,0-3.891,3.891V88.412a3.9,3.9,0,0,0,3.891,3.891h29.329a3.9,3.9,0,0,0,3.891-3.891V29.171a3.9,3.9,0,0,0-3.891-3.891Z" transform="translate(-126.768 -23.724)"/><g transform="translate(16.612 3.481)"><path class="j" d="M239.737,47.65H234.3a.778.778,0,1,1,0-1.556h5.441a.778.778,0,1,1,0,1.556Z" transform="translate(-233.517 -46.094)"/></g><circle class="j" cx="0.778" cy="0.778" r="0.778" transform="translate(25.684 3.481)"/><g transform="translate(5.118 35.067)"><g transform="translate(7.666)"><path class="k" d="M212.909,249.062h-3.218a.778.778,0,1,0,0,1.556h3.218a.778.778,0,1,0,0-1.556Z" transform="translate(-208.913 -249.062)"/><path class="h" d="M228.783,269.335H209.691a.778.778,0,1,0,0,1.556h19.092a.778.778,0,1,0,0-1.556Z" transform="translate(-208.913 -266.18)"/></g><path class="g" d="M163.587,253.774h-3.155a.778.778,0,0,1-.778-.778v-3.155a.778.778,0,0,1,.778-.778h3.155a.778.778,0,0,1,.778.778V253A.778.778,0,0,1,163.587,253.774Z" transform="translate(-159.654 -249.063)"/></g><g transform="translate(5.118 44.707)"><g transform="translate(7.666)"><path class="l" d="M212.909,311.006h-3.218a.778.778,0,1,0,0,1.556h3.218a.778.778,0,1,0,0-1.556Z" transform="translate(-208.913 -311.006)"/><path class="h" d="M228.783,331.278H209.691a.778.778,0,0,0,0,1.556h19.092a.778.778,0,0,0,0-1.556Z" transform="translate(-208.913 -328.123)"/></g><path class="f" d="M163.587,315.717h-3.155a.778.778,0,0,1-.778-.778v-3.155a.778.778,0,0,1,.778-.778h3.155a.778.778,0,0,1,.778.778v3.155A.778.778,0,0,1,163.587,315.717Z" transform="translate(-159.654 -311.006)"/></g><g transform="translate(5.118 54.347)"><g transform="translate(7.666)"><path class="b" d="M212.909,372.949h-3.218a.778.778,0,0,0,0,1.556h3.218a.778.778,0,1,0,0-1.556Z" transform="translate(-208.913 -372.949)"/><path class="h" d="M228.783,393.221H209.691a.778.778,0,0,0,0,1.556h19.092a.778.778,0,0,0,0-1.556Z" transform="translate(-208.913 -390.066)"/></g><path class="h" d="M163.587,377.66h-3.155a.778.778,0,0,1-.778-.778v-3.155a.778.778,0,0,1,.778-.778h3.155a.778.778,0,0,1,.778.778v3.155A.778.778,0,0,1,163.587,377.66Z" transform="translate(-159.654 -372.949)"/></g></g></g></g></svg>