<svg xmlns="http://www.w3.org/2000/svg" width="62.333" height="80.475" viewBox="0 0 62.333 80.475"><defs><style>.a{fill:#ffdfba;}.b{fill:#fe4f60;}.c{fill:#ffebd2;}.d{fill:#42434d;}.e{fill:#ff6d7a;}.f{fill:#fff3e4;}.g{fill:#4d4e59;}.h{fill:#2c2c33;}.i{fill:#d6f4fc;}.j{fill:#bdeffc;}.k{fill:#e8f8fc;}.l{fill:#ffd6a6;}</style></defs><g transform="translate(-52.3)"><path class="a" d="M112.522,61.653c-.04.04-4.062,4.069-4.11,4.1a12.876,12.876,0,0,1,1.766,6.526v6.809a1.387,1.387,0,0,1-1.387,1.387H58.146a1.387,1.387,0,0,1-1.387-1.387V72.278a12.876,12.876,0,0,1,1.766-6.526c-.047-.028.282.294-4.11-4.1a4.546,4.546,0,0,1-.354-6.03,4.551,4.551,0,0,0-.331-6.275,4.547,4.547,0,0,1-.439-6.138l2-2.511a4.546,4.546,0,0,0,.8-4.116L54.8,32.207a4.544,4.544,0,0,1,2.636-5.493l1.7-.7a4.544,4.544,0,0,0,2.822-4.206V17.344A17.343,17.343,0,0,1,79.305,0H87.63a17.342,17.342,0,0,1,17.344,17.344V21.81a4.544,4.544,0,0,0,2.822,4.206l1.7.7a4.544,4.544,0,0,1,2.636,5.493l-1.29,4.376a4.546,4.546,0,0,0,.8,4.116l2,2.511a4.546,4.546,0,0,1-.439,6.138,4.544,4.544,0,0,0-.449,6.124,4.555,4.555,0,0,1-.236,6.181Z" transform="translate(-0.001 0)"/><path class="a" d="M54.413,61.653c.04.04,4.062,4.069,4.11,4.1a12.876,12.876,0,0,0-1.766,6.526v6.809a1.387,1.387,0,0,0,1.387,1.387h50.644a1.387,1.387,0,0,0,1.387-1.387V72.278a12.876,12.876,0,0,0-1.766-6.526c.047-.028-.282.294,4.11-4.1a4.546,4.546,0,0,0,.354-6.03,4.551,4.551,0,0,1,.331-6.275,4.547,4.547,0,0,0,.439-6.138l-2-2.511a4.546,4.546,0,0,1-.8-4.116l1.29-4.376a4.544,4.544,0,0,0-2.636-5.493l-1.7-.7a4.544,4.544,0,0,1-2.822-4.206V17.344A17.343,17.343,0,0,0,87.629,0H79.3A17.342,17.342,0,0,0,61.961,17.344V21.81a4.544,4.544,0,0,1-2.822,4.206l-1.7.7A4.544,4.544,0,0,0,54.8,32.207l1.29,4.376a4.546,4.546,0,0,1-.8,4.116l-2,2.511a4.546,4.546,0,0,0,.439,6.138,4.544,4.544,0,0,1,.449,6.124,4.555,4.555,0,0,0,.236,6.181Z" transform="translate(0 0)"/><path class="b" d="M67.528,31.017a1.386,1.386,0,0,0-1.23,1.378v2.662A17.174,17.174,0,0,0,76.9,50.926l-.026.064v1.185a7.176,7.176,0,0,1-7.1,7.17,12.927,12.927,0,0,0-11.251,6.407c-.048-.03-4.07-4.058-4.11-4.1a4.546,4.546,0,0,1-.354-6.03,4.551,4.551,0,0,0-.331-6.275,4.547,4.547,0,0,1-.439-6.138l2-2.511a4.546,4.546,0,0,0,.8-4.116L54.8,32.207a4.544,4.544,0,0,1,2.636-5.493l1.7-.7a4.544,4.544,0,0,0,2.822-4.206V17.344A17.344,17.344,0,0,1,79.305,0H87.63a17.342,17.342,0,0,1,17.344,17.344V21.81a4.544,4.544,0,0,0,2.822,4.206l1.7.7a4.544,4.544,0,0,1,2.636,5.493l-1.29,4.376a4.546,4.546,0,0,0,.8,4.116l2,2.511a4.546,4.546,0,0,1-.439,6.138,4.551,4.551,0,0,0-.331,6.275,4.546,4.546,0,0,1-.354,6.03c-.04.04-4.062,4.069-4.11,4.1a12.927,12.927,0,0,0-11.251-6.407,7.176,7.176,0,0,1-7.1-7.17V50.99l-.026-.066a17.17,17.17,0,0,0,10.606-15.868V26.5a1.384,1.384,0,0,0-.912-1.3,13.718,13.718,0,0,1-7.2-6,1.388,1.388,0,0,0-2.248-.2A35.207,35.207,0,0,1,67.528,31.017Z" transform="translate(-0.001)"/><path class="c" d="M166.429,113.447a1.384,1.384,0,0,1,.912,1.3V123.3a17.17,17.17,0,1,1-34.34,0v-2.662a1.386,1.386,0,0,1,1.23-1.378,35.207,35.207,0,0,0,22.747-12.016,1.388,1.388,0,0,1,2.248.2A13.716,13.716,0,0,0,166.429,113.447Z" transform="translate(-66.703 -88.246)"/><path class="d" d="M131.419,352.037v6.809a1.387,1.387,0,0,1-1.387,1.388H79.387A1.387,1.387,0,0,1,78,358.846v-6.809A12.934,12.934,0,0,1,90.933,339.1a7.176,7.176,0,0,0,2.98-.643l.043.094,9.9,7.668a1.39,1.39,0,0,0,1.7,0l9.9-7.668.043-.094a7.183,7.183,0,0,0,2.9.643A12.929,12.929,0,0,1,131.419,352.037Z" transform="translate(-21.243 -279.759)"/><path class="e" d="M93.723,1.1a2.121,2.121,0,0,1-.786,4.1H84.509A17.344,17.344,0,0,0,67.165,22.547v4.466a4.544,4.544,0,0,1-2.822,4.206l-1.7.7A4.544,4.544,0,0,0,60,37.41l1.29,4.376a4.546,4.546,0,0,1-.8,4.116l-2,2.511a4.547,4.547,0,0,0,.439,6.138,4.545,4.545,0,0,1,.449,6.124,4.565,4.565,0,0,0-.736,4.74.17.17,0,0,1-.275.189c-.743-.731-3.921-3.914-3.957-3.95a4.552,4.552,0,0,1-.236-6.181,4.545,4.545,0,0,0-.449-6.124,4.547,4.547,0,0,1-.439-6.138l2-2.511a4.546,4.546,0,0,0,.8-4.116L54.8,32.207a4.544,4.544,0,0,1,2.636-5.493l1.7-.7a4.544,4.544,0,0,0,2.822-4.206V17.344A17.344,17.344,0,0,1,79.305,0H87.63a17.332,17.332,0,0,1,6.093,1.1Z" transform="translate(-0.001 0)"/><path class="f" d="M146.263,192.426a2.732,2.732,0,0,1-2.472,4.846A17.174,17.174,0,0,1,133,181.328v-2.662a1.385,1.385,0,0,1,1.23-1.377c.644-.074,1.339-.172,2.076-.3a1.687,1.687,0,0,1,1.974,1.52A17.669,17.669,0,0,0,146.263,192.426Z" transform="translate(-66.703 -146.271)"/><path class="g" d="M96.175,340.272a1.187,1.187,0,0,1-.7,2.126,12.93,12.93,0,0,0-12.963,12.933v4.9H79.387A1.388,1.388,0,0,1,78,358.846v-6.809A12.929,12.929,0,0,1,91.016,339.1a7.183,7.183,0,0,0,2.9-.643l.043.094Z" transform="translate(-21.243 -279.759)"/><path class="h" d="M279,340.272a1.186,1.186,0,0,0,.7,2.126,12.93,12.93,0,0,1,12.963,12.933v4.9h3.122a1.388,1.388,0,0,0,1.388-1.388v-6.809A12.929,12.929,0,0,0,284.159,339.1a7.183,7.183,0,0,1-2.9-.643l-.043.094Z" transform="translate(-187 -279.759)"/><path class="i" d="M165.894,346.221a1.388,1.388,0,0,0,1.7,0l9.9-7.667.043-.094a7.183,7.183,0,0,0,2.9.643l-6.062,21.13H159.112L153.05,339.1a7.183,7.183,0,0,0,2.9-.643l.043.094Z" transform="translate(-83.276 -279.759)"/><path class="j" d="M226.775,380.81v11.653a1.387,1.387,0,0,1-2.775,0V380.81l.538.416a1.39,1.39,0,0,0,1.7,0Z" transform="translate(-141.921 -314.764)"/><path class="k" d="M155.923,342.492a12.011,12.011,0,0,0-1.8.345L153.05,339.1a7.183,7.183,0,0,0,2.9-.643l.043.094.851.659A1.838,1.838,0,0,1,155.923,342.492Z" transform="translate(-83.276 -279.759)"/><path class="j" d="M286.6,342.492a12.012,12.012,0,0,1,1.8.345l1.072-3.734a7.183,7.183,0,0,1-2.9-.643l-.043.094-.851.659A1.838,1.838,0,0,0,286.6,342.492Z" transform="translate(-192.315 -279.759)"/><path class="l" d="M206.443,296.542a17.217,17.217,0,0,1-13.573,0,10.748,10.748,0,0,0,.2-2.848l.026-.064a17.206,17.206,0,0,0,13.129,0l.026.064a10.745,10.745,0,0,0,.2,2.848Z" transform="translate(-116.19 -242.704)"/></g></svg>