<svg xmlns="http://www.w3.org/2000/svg" width="58.005" height="78.155" viewBox="0 0 58.005 78.155"><defs><style>.a{fill:#9d5e5e;}.b{fill:#865151;}.c{fill:#fff5f5;}.d{fill:#eee1dd;}.e{fill:#fed1a3;}.f{fill:#ffbc85;}.g{fill:#da7e4a;}.h{fill:#cb6c35;}.i{fill:#ffe5c1;}</style></defs><g transform="translate(-66.003 0)"><path class="a" d="M152.717,33.38a7.072,7.072,0,0,0-2.067-5.005,3.7,3.7,0,0,1-1.032-2.848q.011-.174.011-.35a5.55,5.55,0,0,0-2.509-4.646,3.6,3.6,0,0,1-1.664-3V15.627a15.433,15.433,0,1,0-30.865-.194v2.1a3.6,3.6,0,0,1-1.664,3,5.55,5.55,0,0,0-2.509,4.646q0,.176.011.35a3.7,3.7,0,0,1-1.032,2.848,7.094,7.094,0,0,0,.024,10.035,3.487,3.487,0,0,1,1.014,2.75,5.652,5.652,0,0,0,.016,1.025,5.545,5.545,0,0,0,2.279,3.9l.9.87H145.9l1.42-.868a5.545,5.545,0,0,0,2.28-3.9,5.651,5.651,0,0,0,.016-1.025,3.487,3.487,0,0,1,1.014-2.75A7.071,7.071,0,0,0,152.717,33.38Z" transform="translate(-35.018 0)"/><path class="b" d="M117.955,42.185a5.638,5.638,0,0,1-.016-1.025,3.487,3.487,0,0,0-1.014-2.75,7.094,7.094,0,0,1-.024-10.035,3.7,3.7,0,0,0,1.033-2.848q-.011-.174-.011-.35a5.55,5.55,0,0,1,2.509-4.646,3.6,3.6,0,0,0,1.664-3v-2.1A15.439,15.439,0,0,1,133.76.464,15.219,15.219,0,0,0,130.139,0a15.432,15.432,0,0,0-15.549,15.432v2.1a3.6,3.6,0,0,1-1.664,3,5.55,5.55,0,0,0-2.509,4.646q0,.176.011.35a3.7,3.7,0,0,1-1.033,2.848,7.094,7.094,0,0,0,.024,10.035,3.487,3.487,0,0,1,1.014,2.75,5.65,5.65,0,0,0,.016,1.025,5.545,5.545,0,0,0,2.279,3.9l.9.87h7.505l-.9-.87a5.544,5.544,0,0,1-2.278-3.9Z" transform="translate(-35.018 0)"/><path class="c" d="M204.583,284.805l-.186-.072-1.313.579-9.593,7.968-9.252-8.256-.991-.26-.108.042-.466.743,6.033,32.237,1.372,1.64h7.563l.658-.735,7.037-32.932Z" transform="translate(-98.862 -241.269)"/><path class="d" d="M192.875,294.144V292.9l-8.635-7.706-.991-.26-.108.042-.466.743,6.033,32.237,1.372,1.64h7.563l.464-.519Z" transform="translate(-98.862 -241.436)"/><path class="e" d="M204.053,247.952a1.135,1.135,0,0,1-.725-1.056l0-3.691-1.644-.267H191.546l-.778.29v3.661c0,.869-.775,1.078-1.105,1.206h0l-3.231,1.253,7.717,8.12a3.734,3.734,0,0,0,5.281,0l8.15-8.15Z" transform="translate(-102.046 -205.854)"/><path class="f" d="M196.058,258.489V242.938h-4.512l-.778.29v3.661c0,.869-.775,1.078-1.105,1.206h0l-3.231,1.253,7.717,8.12A3.715,3.715,0,0,0,196.058,258.489Z" transform="translate(-102.046 -205.854)"/><path class="g" d="M84.279,285.2l-12.136,4.705A10.512,10.512,0,0,0,66,299.431v18.347a2.046,2.046,0,0,0,2.046,2.046H91.219Z" transform="translate(-0.001 -241.668)"/><path class="g" d="M287.673,285.2l-6.94,34.619h23.181a2.046,2.046,0,0,0,2.046-2.046V299.432a10.479,10.479,0,0,0-6.139-9.522Z" transform="translate(-181.952 -241.669)"/><path class="h" d="M122.661,385.565v-21.6a1.179,1.179,0,0,0-2.359,0v21.6Z" transform="translate(-46.01 -307.41)"/><path class="h" d="M378.6,385.565v-21.6a1.179,1.179,0,0,0-2.359,0v21.6Z" transform="translate(-262.885 -307.41)"/><path class="i" d="M244.408,73.172a28.152,28.152,0,0,1-5.542-8.211.8.8,0,0,0-1.558.2c-.194,1.221-1.189,5.346-6.034,9.317v8.134A11.674,11.674,0,0,0,238.4,93.326a11.212,11.212,0,0,0,7.84-10.657V77.615A6.25,6.25,0,0,0,244.408,73.172Z" transform="translate(-140.043 -54.565)"/><path class="e" d="M190.39,137.273v-8.438a26.115,26.115,0,0,1-4.414,3,6.326,6.326,0,0,0-3.3,5.55,11.042,11.042,0,0,0,11.307,11.033,10.794,10.794,0,0,0,3.743-.656A11.217,11.217,0,0,1,190.39,137.273Z" transform="translate(-98.862 -109.169)"/><path class="h" d="M71.146,318.194a16.505,16.505,0,0,1,4.405-10.826l-3.409,1.322A10.512,10.512,0,0,0,66,318.212v18.347a2.046,2.046,0,0,0,2.046,2.046h3.1c0-5.853,0-15.025,0-20.41Z" transform="translate(0 -260.449)"/></g></svg>