<?xml version="1.0" encoding="utf-8"?>
<!-- Generator: Adobe Illustrator 16.0.0, SVG Export Plug-In . SVG Version: 6.00 Build 0)  -->
<!DOCTYPE svg PUBLIC "-//W3C//DTD SVG 1.1//EN" "http://www.w3.org/Graphics/SVG/1.1/DTD/svg11.dtd">
<svg version="1.1" id="Layer_1" xmlns="http://www.w3.org/2000/svg" xmlns:xlink="http://www.w3.org/1999/xlink" x="0px" y="0px"
	 width="56.953px" height="115px" viewBox="0 -28.768 56.953 115" enable-background="new 0 -28.768 56.953 115"
	 xml:space="preserve">
<g>
	<g>
		<g>
			<path fill="#FFFFFF" d="M39.881,30.797H8.3c-3.39,0.004-6.136,2.751-6.141,6.141v31.507c0.005,3.389,2.751,6.137,6.141,6.141
				h9.649V72.83H8.3c-2.421-0.002-4.383-1.963-4.387-4.385V53.604h5.634c0.52-0.038,0.911-0.489,0.872-1.01
				c-0.007-0.101-0.03-0.199-0.068-0.292c-0.781-1.773,0.026-3.844,1.8-4.624c1.774-0.778,3.844,0.026,4.624,1.8
				c0.396,0.9,0.396,1.924,0,2.824c-0.217,0.453-0.025,0.996,0.429,1.213c0.117,0.057,0.245,0.086,0.375,0.088h5.633v5.264
				c-0.29-0.049-0.583-0.074-0.877-0.072c-2.907-0.002-5.264,2.354-5.265,5.262c-0.001,2.092,1.24,3.988,3.16,4.826l0.702-1.607
				c-1.777-0.773-2.591-2.842-1.818-4.617c0.558-1.281,1.823-2.11,3.222-2.108c0.484,0,0.961,0.101,1.404,0.297
				c0.444,0.192,0.961-0.011,1.155-0.453c0.048-0.11,0.073-0.229,0.073-0.353v-6.438h4.46c-0.05,0.29-0.074,0.583-0.074,0.877
				c0.006,2.5,1.764,4.652,4.213,5.16l0.35-1.72c-1.632-0.339-2.803-1.774-2.807-3.44c0-0.482,0.101-0.961,0.297-1.402
				c0.193-0.444-0.01-0.961-0.454-1.155c-0.11-0.048-0.229-0.072-0.351-0.072h-5.634v-4.461c0.29,0.049,0.583,0.074,0.877,0.074
				c2.906,0,5.264-2.356,5.264-5.265c0-2.906-2.357-5.263-5.264-5.263c-0.294,0-0.587,0.024-0.877,0.074v-4.459h14.913
				c2.421,0.004,4.383,1.966,4.387,4.387v14.913h-5.635c-0.484,0-0.877,0.393-0.877,0.877c0,0.121,0.025,0.24,0.074,0.352
				c0.195,0.441,0.296,0.92,0.296,1.402h1.755c0-0.294-0.025-0.587-0.074-0.877h5.338c0.483,0,0.877-0.393,0.877-0.877v-15.79
				C46.018,33.548,43.27,30.801,39.881,30.797z M25.845,38.693c1.937,0,3.508,1.57,3.508,3.508c0,1.938-1.571,3.51-3.508,3.51
				c-0.483,0-0.962-0.102-1.403-0.297c-0.444-0.193-0.961,0.009-1.156,0.453c-0.048,0.11-0.073,0.229-0.073,0.351v5.562h-4.454
				c0.043-0.267,0.066-0.535,0.068-0.806c0-0.017,0-0.03,0-0.045s0-0.019,0-0.026c0-2.908-2.356-5.264-5.263-5.264
				c-2.907,0-5.263,2.355-5.263,5.264c0,0.008,0,0.019,0,0.026s0,0.028,0,0.045c0.001,0.271,0.024,0.539,0.068,0.806H3.914V36.938
				c0.003-2.422,1.965-4.384,4.386-4.387h14.913v5.634c0,0.484,0.394,0.877,0.878,0.877c0.121,0,0.239-0.025,0.351-0.074
				C24.883,38.792,25.361,38.693,25.845,38.693z"/>
		</g>
	</g>
	<g>
		<g>
			<path fill="#FFFFFF" d="M52.917,68.503l-7.375-5.08l-2.832-7.566c-0.169-0.455-0.675-0.686-1.129-0.518
				c-0.017,0.006-0.031,0.014-0.048,0.02l-5.702,2.522c-0.427,0.188-0.632,0.679-0.465,1.116c0.094,0.246,0.184,0.43,0.276,0.625
				c0.094,0.19,0.182,0.373,0.287,0.658c0.68,1.819-0.234,3.848-2.052,4.539c-1.815,0.678-3.837-0.244-4.517-2.06
				c-0.17-0.455-0.243-0.938-0.217-1.427c0.024-0.483-0.348-0.896-0.831-0.922c-0.122-0.006-0.243,0.015-0.357,0.056l-6.095,2.295
				c-0.453,0.172-0.681,0.676-0.512,1.129l2.188,5.847c-0.29,0.053-0.575,0.131-0.851,0.233c-2.73,1.019-4.119,4.056-3.101,6.785
				s4.055,4.116,6.785,3.103c0.281-0.105,0.553-0.234,0.812-0.386l1.569,4.188c0.169,0.453,0.674,0.685,1.128,0.515
				c0.001,0,0.001,0,0.002,0l8.691-3.274c0.546,1.174,1.551,2.069,2.778,2.479l0.553-1.666c-0.723-0.244-1.323-0.759-1.676-1.435
				l2.645-0.996c0.869,2.443,3.184,4.074,5.775,4.07v-1.752c-2.414-0.016-4.371-1.971-4.385-4.389c0-0.23-0.094-0.455-0.258-0.619
				l-3.055-3.055c-0.453-0.457-0.504-1.176-0.12-1.691c0.226-0.301,0.569-0.49,0.942-0.516c0.375-0.031,0.744,0.109,1.008,0.377
				l6.123,6.125l1.242-1.24l-1.813-1.811c0.446-1.336,0.419-2.785-0.078-4.103l-1.646-4.394l5.303,3.65
				c0.702,0.494,1.121,1.299,1.121,2.156v11.332h1.756V72.099C54.792,70.666,54.092,69.324,52.917,68.503z M46.616,71.298
				c0.241,0.645,0.331,1.336,0.258,2.02l-2.849-2.844c-1.176-1.207-3.105-1.23-4.312-0.057c-1.206,1.176-1.229,3.105-0.054,4.311
				c0.017,0.02,0.035,0.037,0.054,0.057l2.774,2.773l-12.396,4.67l-1.672-4.469c-0.104-0.277-0.342-0.484-0.631-0.549
				c-0.063-0.012-0.126-0.02-0.19-0.02c-0.229-0.003-0.45,0.09-0.614,0.25c-1.409,1.332-3.629,1.268-4.96-0.142
				c-1.331-1.41-1.268-3.629,0.141-4.961c0.331-0.313,0.72-0.56,1.146-0.724c0.279-0.104,0.571-0.17,0.868-0.197
				c0.183-0.02,0.367-0.026,0.55-0.018c0.484,0.025,0.897-0.348,0.922-0.83c0.007-0.121-0.012-0.24-0.054-0.354l-2.291-6.117
				l4.177-1.574c0.548,2.855,3.308,4.725,6.163,4.176c0.291-0.055,0.578-0.137,0.855-0.24c2.721-1.032,4.098-4.067,3.077-6.793
				c-0.081-0.215-0.154-0.387-0.224-0.538l4.035-1.788L46.616,71.298z"/>
		</g>
	</g>
</g>
<g>
	<g>
		<g>
			<path d="M39.881-26.453H8.3c-3.39,0.004-6.136,2.751-6.141,6.141v31.507c0.005,3.389,2.751,6.137,6.141,6.141h9.649V15.58H8.3
				c-2.421-0.002-4.383-1.963-4.387-4.385V-3.646h5.634c0.52-0.038,0.911-0.489,0.872-1.01c-0.007-0.101-0.03-0.199-0.068-0.292
				c-0.781-1.773,0.026-3.844,1.8-4.624c1.774-0.778,3.844,0.026,4.624,1.8c0.396,0.9,0.396,1.924,0,2.824
				c-0.217,0.453-0.025,0.996,0.429,1.213c0.117,0.057,0.245,0.086,0.375,0.088h5.633v5.264c-0.29-0.049-0.583-0.074-0.877-0.072
				c-2.907-0.002-5.264,2.354-5.265,5.262c-0.001,2.092,1.24,3.988,3.16,4.826l0.702-1.607c-1.777-0.773-2.591-2.842-1.818-4.617
				c0.558-1.281,1.823-2.11,3.222-2.108c0.484,0,0.961,0.101,1.404,0.297c0.444,0.192,0.961-0.011,1.155-0.453
				c0.048-0.11,0.073-0.229,0.073-0.353v-6.438h4.46c-0.05,0.29-0.074,0.583-0.074,0.877c0.006,2.5,1.764,4.652,4.213,5.16
				l0.35-1.72c-1.632-0.339-2.803-1.774-2.807-3.44c0-0.482,0.101-0.961,0.297-1.402c0.193-0.444-0.01-0.961-0.454-1.155
				C30.842-5.375,30.723-5.4,30.602-5.4h-5.634v-4.461c0.29,0.049,0.583,0.074,0.877,0.074c2.906,0,5.264-2.356,5.264-5.265
				c0-2.906-2.357-5.263-5.264-5.263c-0.294,0-0.587,0.024-0.877,0.074v-4.459h14.913c2.421,0.004,4.383,1.966,4.387,4.387v14.913
				h-5.635c-0.484,0-0.877,0.393-0.877,0.877c0,0.121,0.025,0.24,0.074,0.352c0.195,0.441,0.296,0.92,0.296,1.402h1.755
				c0-0.294-0.025-0.587-0.074-0.877h5.338c0.483,0,0.877-0.393,0.877-0.877v-15.79C46.018-23.702,43.27-26.449,39.881-26.453z
				 M25.845-18.557c1.937,0,3.508,1.57,3.508,3.508c0,1.938-1.571,3.51-3.508,3.51c-0.483,0-0.962-0.102-1.403-0.297
				c-0.444-0.193-0.961,0.009-1.156,0.453c-0.048,0.11-0.073,0.229-0.073,0.351v5.562h-4.454c0.043-0.267,0.066-0.535,0.068-0.806
				c0-0.017,0-0.03,0-0.045s0-0.019,0-0.026c0-2.908-2.356-5.264-5.263-5.264c-2.907,0-5.263,2.355-5.263,5.264
				c0,0.008,0,0.019,0,0.026s0,0.028,0,0.045c0.001,0.271,0.024,0.539,0.068,0.806H3.914v-14.841
				c0.003-2.422,1.965-4.384,4.386-4.387h14.913v5.634c0,0.484,0.394,0.877,0.878,0.877c0.121,0,0.239-0.025,0.351-0.074
				C24.883-18.458,25.361-18.557,25.845-18.557z"/>
		</g>
	</g>
	<g>
		<g>
			<path d="M52.917,11.253l-7.375-5.08L42.71-1.393c-0.169-0.455-0.675-0.686-1.129-0.518c-0.017,0.006-0.031,0.014-0.048,0.02
				l-5.702,2.522c-0.427,0.188-0.632,0.679-0.465,1.116c0.094,0.246,0.184,0.43,0.276,0.625c0.094,0.19,0.182,0.373,0.287,0.658
				c0.68,1.819-0.234,3.848-2.052,4.539c-1.815,0.678-3.837-0.244-4.517-2.06c-0.17-0.455-0.243-0.938-0.217-1.427
				c0.024-0.483-0.348-0.896-0.831-0.922c-0.122-0.006-0.243,0.015-0.357,0.056l-6.095,2.295c-0.453,0.172-0.681,0.676-0.512,1.129
				l2.188,5.847c-0.29,0.053-0.575,0.131-0.851,0.233c-2.73,1.019-4.119,4.056-3.101,6.785s4.055,4.116,6.785,3.103
				c0.281-0.105,0.553-0.234,0.812-0.386l1.569,4.188c0.169,0.453,0.674,0.685,1.128,0.515c0.001,0,0.001,0,0.002,0l8.691-3.274
				c0.546,1.174,1.551,2.069,2.778,2.479l0.553-1.666c-0.723-0.244-1.323-0.759-1.676-1.435l2.645-0.996
				c0.869,2.443,3.184,4.074,5.775,4.07v-1.752c-2.414-0.016-4.371-1.971-4.385-4.389c0-0.23-0.094-0.455-0.258-0.619l-3.055-3.055
				c-0.453-0.457-0.504-1.176-0.12-1.691c0.226-0.301,0.569-0.49,0.942-0.516c0.375-0.031,0.744,0.109,1.008,0.377l6.123,6.125
				l1.242-1.24l-1.813-1.811c0.446-1.336,0.419-2.785-0.078-4.103l-1.646-4.394l5.303,3.65c0.702,0.494,1.121,1.299,1.121,2.156
				v11.332h1.756V14.849C54.792,13.416,54.092,12.074,52.917,11.253z M46.616,14.048c0.241,0.645,0.331,1.336,0.258,2.02
				l-2.849-2.844c-1.176-1.207-3.105-1.23-4.312-0.057c-1.206,1.176-1.229,3.105-0.054,4.311c0.017,0.02,0.035,0.037,0.054,0.057
				l2.774,2.773l-12.396,4.67l-1.672-4.469c-0.104-0.277-0.342-0.484-0.631-0.549c-0.063-0.012-0.126-0.02-0.19-0.02
				c-0.229-0.003-0.45,0.09-0.614,0.25c-1.409,1.332-3.629,1.268-4.96-0.142c-1.331-1.41-1.268-3.629,0.141-4.961
				c0.331-0.313,0.72-0.56,1.146-0.724c0.279-0.104,0.571-0.17,0.868-0.197c0.183-0.02,0.367-0.026,0.55-0.018
				c0.484,0.025,0.897-0.348,0.922-0.83c0.007-0.121-0.012-0.24-0.054-0.354l-2.291-6.117l4.177-1.574
				C28.032,8.13,30.792,10,33.646,9.451c0.291-0.055,0.578-0.137,0.855-0.24c2.721-1.032,4.098-4.067,3.077-6.793
				c-0.081-0.215-0.154-0.387-0.224-0.538l4.035-1.788L46.616,14.048z"/>
		</g>
	</g>
</g>
</svg>
