<?xml version="1.0" encoding="utf-8"?>
<!-- Generator: Adobe Illustrator 16.0.0, SVG Export Plug-In . SVG Version: 6.00 Build 0)  -->
<!DOCTYPE svg PUBLIC "-//W3C//DTD SVG 1.1//EN" "http://www.w3.org/Graphics/SVG/1.1/DTD/svg11.dtd">
<svg version="1.1" id="Layer_1" xmlns="http://www.w3.org/2000/svg" xmlns:xlink="http://www.w3.org/1999/xlink" x="0px" y="0px"
	 width="56.953px" height="115px" viewBox="0 -28.768 56.953 115" enable-background="new 0 -28.768 56.953 115"
	 xml:space="preserve">
<path d="M41.437,9.246V0.309c-0.006-4.442-3.604-8.041-8.045-8.046H19.089c-4.44,0.004-8.04,3.604-8.045,8.046v11.619h1.788V0.309
	c0.003-3.456,2.803-6.255,6.257-6.259h1.417l5.101,5.102c0.35,0.349,0.915,0.349,1.264,0l5.101-5.102h1.417
	c3.454,0.004,6.252,2.804,6.258,6.259v8.937H41.437z M26.24-2.744L23.034-5.95h6.411L26.24-2.744z"/>
<path d="M17.3,2.096h1.788v8.043H17.3V2.096z"/>
<path d="M33.392,2.096h1.787v6.257h-1.787V2.096z"/>
<path d="M52.162,11.928h-11.4c-1.969-1.08-4.175-1.659-6.419-1.689c-0.066-0.007-0.138-0.009-0.2-0.009
	c-2.315,0-4.593,0.58-6.624,1.687l-6.641,0.011c-1.975,0-3.576,1.6-3.576,3.575c-0.001,0.07,0.004,0.141,0.013,0.213
	c0.013,0.245,0.053,0.487,0.117,0.725l-5.04-2.309l-0.081-0.041l-3.01-1.375c-1.18-0.542-2.558-0.446-3.65,0.255
	c-1.095,0.702-1.757,1.914-1.756,3.214v0.195c-0.007,1.447,0.813,2.77,2.11,3.409l11.559,5.787c0.87,0.429,1.826,0.654,2.795,0.656
	h31.805c0.494,0,0.894-0.401,0.894-0.896V12.822C53.056,12.328,52.654,11.928,52.162,11.928z M39.647,24.443h-19.29
	c-0.695-0.004-1.38-0.162-2.003-0.47L6.802,18.186c-0.688-0.34-1.122-1.039-1.121-1.806v-0.197c0-0.691,0.351-1.332,0.933-1.706
	c0.581-0.373,1.313-0.423,1.94-0.135l2.984,1.362l0.08,0.041l7.096,3.253c0.118,0.054,0.245,0.083,0.374,0.083h9.833V17.29h-8.044
	c-0.956,0.004-1.741-0.75-1.78-1.706c-0.001-0.028-0.003-0.06-0.009-0.087c0.005-0.986,0.804-1.782,1.789-1.782h6.856
	c0.153,0,0.304-0.039,0.437-0.113l0.214-0.123c1.76-0.955,3.727-1.46,5.729-1.471c0.055,0.011,0.108,0.019,0.164,0.019
	c1.87,0.019,3.708,0.474,5.371,1.33v11.086H39.647z M51.267,24.443h-9.83V13.715h9.832v10.728H51.267z"/>
<path d="M43.222,20.866h1.787v1.79h-1.787V20.866z"/>
<path d="M26.24-9.524c3.947-0.005,7.146-3.204,7.151-7.151v-3.575c0-3.95-3.202-7.151-7.151-7.151c-3.951,0-7.151,3.201-7.151,7.151
	v3.575C19.094-12.729,22.292-9.529,26.24-9.524z M20.877-20.25c0-2.962,2.401-5.363,5.363-5.363s5.362,2.401,5.362,5.363v3.575
	c0,2.962-2.4,5.363-5.362,5.363s-5.363-2.4-5.363-5.363V-20.25L20.877-20.25z"/>
<path d="M24.452-20.25c0.002-0.758,0.479-1.433,1.192-1.687l-0.596-1.685c-1.427,0.507-2.381,1.855-2.384,3.371v0.893h1.788V-20.25z
	"/>
<path fill="#FFFFFF" d="M41.437,67.129v-8.937c-0.006-4.441-3.604-8.041-8.045-8.047H19.089c-4.44,0.004-8.04,3.604-8.045,8.047
	v11.619h1.788V58.193c0.003-3.455,2.803-6.255,6.257-6.26h1.417l5.101,5.103c0.35,0.349,0.915,0.349,1.264,0l5.101-5.103h1.417
	c3.454,0.005,6.252,2.805,6.258,6.26v8.937H41.437z M26.24,55.14l-3.206-3.207h6.411L26.24,55.14z"/>
<path fill="#FFFFFF" d="M17.3,59.98h1.788v8.043H17.3V59.98z"/>
<path fill="#FFFFFF" d="M33.392,59.98h1.787v6.258h-1.787V59.98z"/>
<path fill="#FFFFFF" d="M52.162,69.812h-11.4c-1.969-1.08-4.175-1.659-6.419-1.689c-0.066-0.007-0.138-0.009-0.2-0.009
	c-2.315,0-4.593,0.579-6.624,1.687l-6.641,0.012c-1.975,0-3.576,1.6-3.576,3.574c-0.001,0.07,0.004,0.142,0.013,0.214
	c0.013,0.245,0.053,0.487,0.117,0.725l-5.04-2.31l-0.081-0.041l-3.01-1.375c-1.18-0.542-2.558-0.445-3.65,0.256
	c-1.095,0.701-1.757,1.913-1.756,3.213v0.195c-0.007,1.447,0.813,2.771,2.11,3.41l11.559,5.787c0.87,0.429,1.826,0.653,2.795,0.655
	h31.805c0.494,0,0.894-0.401,0.894-0.896V70.706C53.056,70.211,52.654,69.812,52.162,69.812z M39.647,82.327h-19.29
	c-0.695-0.004-1.38-0.161-2.003-0.47L6.802,76.07c-0.688-0.34-1.122-1.039-1.121-1.807v-0.197c0-0.69,0.351-1.332,0.933-1.705
	c0.581-0.373,1.313-0.424,1.94-0.135l2.984,1.361l0.08,0.041l7.096,3.253c0.118,0.054,0.245,0.083,0.374,0.083h9.833v-1.791h-8.044
	c-0.956,0.004-1.741-0.75-1.78-1.705c-0.001-0.027-0.003-0.06-0.009-0.088c0.005-0.986,0.804-1.781,1.789-1.781h6.856
	c0.153,0,0.304-0.039,0.437-0.113l0.214-0.123c1.76-0.955,3.727-1.46,5.729-1.471c0.055,0.011,0.108,0.019,0.164,0.019
	c1.87,0.019,3.708,0.474,5.371,1.33v11.086H39.647z M51.267,82.327h-9.83V71.599h9.832v10.728H51.267z"/>
<path fill="#FFFFFF" d="M43.222,78.75h1.787v1.79h-1.787V78.75z"/>
<path fill="#FFFFFF" d="M26.24,48.359c3.947-0.004,7.146-3.203,7.151-7.15v-3.575c0-3.95-3.202-7.151-7.151-7.151
	c-3.951,0-7.151,3.201-7.151,7.151v3.575C19.094,45.156,22.292,48.355,26.24,48.359z M20.877,37.633
	c0-2.962,2.401-5.363,5.363-5.363s5.362,2.401,5.362,5.363v3.575c0,2.962-2.4,5.362-5.362,5.362s-5.363-2.4-5.363-5.362V37.633
	L20.877,37.633z"/>
<path fill="#FFFFFF" d="M24.452,37.633c0.002-0.758,0.479-1.433,1.192-1.687l-0.596-1.685c-1.427,0.507-2.381,1.855-2.384,3.371
	v0.894h1.788V37.633z"/>
</svg>
