<?xml version="1.0" encoding="utf-8"?>
<!-- Generator: Adobe Illustrator 16.0.0, SVG Export Plug-In . SVG Version: 6.00 Build 0)  -->
<!DOCTYPE svg PUBLIC "-//W3C//DTD SVG 1.1//EN" "http://www.w3.org/Graphics/SVG/1.1/DTD/svg11.dtd">
<svg version="1.1" id="Layer_1" xmlns="http://www.w3.org/2000/svg" xmlns:xlink="http://www.w3.org/1999/xlink" x="0px" y="0px"
	 width="56.953px" height="115px" viewBox="0 -28.768 56.953 115" enable-background="new 0 -28.768 56.953 115"
	 xml:space="preserve">
<g>
	<path d="M28.689,6.391c-2.077,1.661-4.136,3.306-6.193,4.952c-2.046,1.633-4.085,3.277-6.142,4.897
		c-0.24,0.189-0.598,0.373-0.868,0.333c-0.262-0.038-0.577-0.323-0.699-0.579c-0.192-0.404,0.037-0.76,0.383-1.034
		c1.708-1.359,3.409-2.728,5.114-4.09c2.387-1.907,4.771-3.816,7.167-5.713c0.284-0.225,0.395-0.459,0.395-0.824
		c-0.016-3.057-0.009-6.113-0.009-9.17c0-0.182-0.016-0.367,0.019-0.544c0.078-0.397,0.321-0.65,0.73-0.701
		c0.426-0.053,0.763,0.116,0.909,0.529c0.075,0.215,0.085,0.463,0.085,0.695c0.006,3.057,0.011,6.114-0.004,9.17
		c-0.002,0.386,0.116,0.627,0.416,0.866c4.055,3.228,8.103,6.467,12.15,9.703c0.016,0.011,0.031,0.021,0.045,0.032
		c0.543,0.435,0.654,0.918,0.313,1.357c-0.343,0.444-0.851,0.458-1.39,0.028c-1.096-0.873-2.188-1.752-3.28-2.625
		c-2.912-2.329-5.822-4.659-8.735-6.987C28.969,6.587,28.836,6.498,28.689,6.391z"/>
	<path d="M41.795,23.043c0.079-0.975,0.055-1.975,0.258-2.924c0.541-2.521,2.79-4.319,5.376-4.366
		c1.248-0.019,2.505-0.125,3.724,0.321c2.144,0.788,3.68,2.82,3.752,5.093c0.045,1.361,0.021,2.726,0.015,4.09
		c-0.002,0.589-0.374,0.979-0.88,0.971c-0.505-0.007-0.858-0.397-0.864-0.988c-0.008-1.219,0.004-2.438-0.002-3.655
		c-0.015-2.417-1.669-4.083-4.084-4.09c-0.814-0.001-1.648-0.028-2.44,0.125c-1.653,0.319-2.848,1.714-2.99,3.393
		c-0.063,0.76-0.035,1.525-0.043,2.289c-0.006,0.583,0.006,1.165,0.002,1.747c-0.004,0.769-0.329,1.194-0.895,1.183
		c-0.545-0.011-0.854-0.423-0.857-1.164c-0.003-0.671,0-1.346,0-2.019C41.841,23.047,41.816,23.045,41.795,23.043z"/>
	<path d="M15.57,23.078c0,0.637,0.002,1.274,0,1.911c-0.002,0.818-0.315,1.253-0.891,1.244c-0.558-0.009-0.857-0.427-0.86-1.215
		c-0.003-1.092,0.004-2.183-0.003-3.275c-0.016-2.642-1.624-4.25-4.255-4.247c-0.689,0-1.393-0.047-2.067,0.07
		c-1.905,0.336-3.202,1.907-3.228,3.838c-0.017,1.238,0,2.476-0.002,3.712c-0.002,0.677-0.337,1.095-0.87,1.1
		c-0.535,0.004-0.886-0.412-0.876-1.086c0.024-1.563-0.065-3.14,0.124-4.682c0.316-2.595,2.702-4.629,5.316-4.686
		c1.285-0.028,2.592-0.174,3.832,0.323c2.227,0.888,3.506,2.521,3.733,4.921c0.063,0.685,0.009,1.382,0.009,2.072
		C15.544,23.078,15.557,23.078,15.57,23.078z"/>
	<path d="M35.237-10.834c0,0.637,0.006,1.273-0.003,1.909c-0.007,0.699-0.321,1.089-0.865,1.1c-0.55,0.008-0.873-0.376-0.879-1.073
		c-0.006-1.164,0.006-2.328-0.006-3.491c-0.024-2.523-1.668-4.164-4.181-4.174c-0.654-0.003-1.315-0.043-1.96,0.044
		c-1.996,0.273-3.389,1.882-3.419,3.905c-0.019,1.218-0.002,2.438-0.004,3.655c-0.002,0.724-0.337,1.138-0.894,1.12
		c-0.534-0.017-0.859-0.425-0.85-1.116c0.02-1.526-0.065-3.065,0.112-4.574c0.31-2.642,2.702-4.701,5.363-4.773
		c0.854-0.023,1.72-0.07,2.561,0.048c3.01,0.423,4.963,2.706,5.021,5.782c0.01,0.544,0,1.09,0,1.636L35.237-10.834L35.237-10.834z"
		/>
	<path d="M51.878,11.396c-0.003,1.926-1.592,3.495-3.515,3.479c-1.889-0.017-3.463-1.599-3.47-3.487
		c-0.006-1.915,1.583-3.497,3.506-3.497C50.334,7.893,51.882,9.452,51.878,11.396z M50.131,11.369
		c-0.004-0.969-0.749-1.718-1.719-1.726c-0.987-0.007-1.772,0.771-1.766,1.747c0.009,0.951,0.782,1.728,1.731,1.739
		C49.348,13.14,50.134,12.35,50.131,11.369z"/>
	<path d="M9.043,7.893c1.923,0.002,3.508,1.587,3.499,3.5c-0.011,1.909-1.622,3.497-3.531,3.481
		c-1.904-0.017-3.451-1.578-3.454-3.485C5.552,9.451,7.108,7.889,9.043,7.893z M7.308,11.371c-0.003,0.989,0.773,1.769,1.752,1.758
		c0.943-0.011,1.727-0.799,1.734-1.741c0.007-0.971-0.786-1.752-1.77-1.747C8.053,9.649,7.312,10.397,7.308,11.371z"/>
	<path d="M28.709-19.178c-1.919-0.002-3.495-1.59-3.486-3.514c0.009-1.895,1.578-3.463,3.476-3.473
		c1.918-0.009,3.512,1.573,3.515,3.489C32.216-20.756,30.631-19.174,28.709-19.178z M28.685-20.928
		c0.976,0.014,1.776-0.771,1.778-1.741c0.002-0.957-0.76-1.732-1.716-1.749c-0.978-0.017-1.773,0.764-1.775,1.743
		C26.97-21.716,27.729-20.941,28.685-20.928z"/>
</g>
<g>
	<path fill="#FFFFFF" d="M28.689,63.037c-2.077,1.662-4.136,3.307-6.193,4.952c-2.046,1.634-4.085,3.277-6.142,4.897
		c-0.24,0.188-0.598,0.372-0.868,0.332c-0.262-0.037-0.577-0.322-0.699-0.578c-0.192-0.404,0.037-0.76,0.383-1.033
		c1.708-1.359,3.409-2.729,5.114-4.091c2.387-1.907,4.771-3.815,7.167-5.714c0.284-0.225,0.395-0.459,0.395-0.823
		c-0.016-3.057-0.009-6.112-0.009-9.17c0-0.182-0.016-0.367,0.019-0.544c0.078-0.397,0.321-0.65,0.73-0.701
		c0.426-0.053,0.763,0.116,0.909,0.529c0.075,0.215,0.085,0.463,0.085,0.695c0.006,3.057,0.011,6.113-0.004,9.17
		c-0.002,0.385,0.116,0.627,0.416,0.865c4.055,3.229,8.103,6.467,12.15,9.703c0.016,0.012,0.031,0.021,0.045,0.032
		c0.543,0.435,0.654,0.919,0.313,1.356c-0.343,0.445-0.851,0.458-1.39,0.029c-1.096-0.873-2.188-1.752-3.28-2.625
		c-2.912-2.329-5.822-4.66-8.735-6.988C28.969,63.234,28.836,63.144,28.689,63.037z"/>
	<path fill="#FFFFFF" d="M41.795,79.69c0.079-0.976,0.055-1.976,0.258-2.924c0.541-2.521,2.79-4.319,5.376-4.366
		c1.248-0.019,2.505-0.125,3.724,0.322c2.144,0.787,3.68,2.819,3.752,5.093c0.045,1.36,0.021,2.726,0.015,4.091
		c-0.002,0.589-0.374,0.979-0.88,0.971c-0.505-0.008-0.858-0.396-0.864-0.988c-0.008-1.219,0.004-2.438-0.002-3.655
		c-0.015-2.417-1.669-4.083-4.084-4.091c-0.814-0.001-1.648-0.027-2.44,0.125c-1.653,0.32-2.848,1.715-2.99,3.393
		c-0.063,0.76-0.035,1.525-0.043,2.289c-0.006,0.582,0.006,1.164,0.002,1.746c-0.004,0.77-0.329,1.195-0.895,1.184
		c-0.545-0.012-0.854-0.424-0.857-1.164c-0.003-0.671,0-1.346,0-2.019C41.841,79.694,41.816,79.692,41.795,79.69z"/>
	<path fill="#FFFFFF" d="M15.57,79.724c0,0.637,0.002,1.273,0,1.91c-0.002,0.818-0.315,1.254-0.891,1.244
		c-0.558-0.01-0.857-0.428-0.86-1.215c-0.003-1.093,0.004-2.184-0.003-3.275c-0.016-2.643-1.624-4.251-4.255-4.247
		c-0.689,0-1.393-0.048-2.067,0.069c-1.905,0.337-3.202,1.907-3.228,3.839c-0.017,1.238,0,2.476-0.002,3.712
		c-0.002,0.677-0.337,1.095-0.87,1.1c-0.535,0.004-0.886-0.412-0.876-1.086c0.024-1.563-0.065-3.14,0.124-4.682
		c0.316-2.596,2.702-4.629,5.316-4.686c1.285-0.028,2.592-0.174,3.832,0.323c2.227,0.888,3.506,2.521,3.733,4.921
		c0.063,0.686,0.009,1.383,0.009,2.072C15.544,79.724,15.557,79.724,15.57,79.724z"/>
	<path fill="#FFFFFF" d="M35.237,45.812c0,0.637,0.006,1.273-0.003,1.91c-0.007,0.698-0.321,1.089-0.865,1.1
		c-0.55,0.008-0.873-0.377-0.879-1.073c-0.006-1.163,0.006-2.328-0.006-3.491c-0.024-2.523-1.668-4.164-4.181-4.174
		c-0.654-0.003-1.315-0.043-1.96,0.045c-1.996,0.273-3.389,1.881-3.419,3.904c-0.019,1.219-0.002,2.438-0.004,3.654
		c-0.002,0.725-0.337,1.139-0.894,1.121c-0.534-0.018-0.859-0.426-0.85-1.116c0.02-1.526-0.065-3.065,0.112-4.574
		c0.31-2.642,2.702-4.701,5.363-4.772c0.854-0.023,1.72-0.07,2.561,0.048c3.01,0.423,4.963,2.706,5.021,5.782
		c0.01,0.545,0,1.09,0,1.637H35.237L35.237,45.812z"/>
	<path fill="#FFFFFF" d="M51.878,68.042c-0.003,1.926-1.592,3.494-3.515,3.479c-1.889-0.017-3.463-1.599-3.47-3.486
		c-0.006-1.915,1.583-3.497,3.506-3.497C50.334,64.54,51.882,66.099,51.878,68.042z M50.131,68.015
		c-0.004-0.969-0.749-1.718-1.719-1.726c-0.987-0.007-1.772,0.771-1.766,1.747c0.009,0.95,0.782,1.727,1.731,1.738
		C49.348,69.787,50.134,68.996,50.131,68.015z"/>
	<path fill="#FFFFFF" d="M9.043,64.54c1.923,0.002,3.508,1.587,3.499,3.501c-0.011,1.908-1.622,3.496-3.531,3.48
		c-1.904-0.017-3.451-1.578-3.454-3.484C5.552,66.097,7.108,64.536,9.043,64.54z M7.308,68.017c-0.003,0.988,0.773,1.77,1.752,1.758
		c0.943-0.012,1.727-0.799,1.734-1.74c0.007-0.972-0.786-1.752-1.77-1.747C8.053,66.295,7.312,67.044,7.308,68.017z"/>
	<path fill="#FFFFFF" d="M28.709,37.468c-1.919-0.002-3.495-1.59-3.486-3.514c0.009-1.895,1.578-3.463,3.476-3.473
		c1.918-0.008,3.512,1.574,3.515,3.49C32.216,35.89,30.631,37.472,28.709,37.468z M28.685,35.718c0.976,0.015,1.776-0.77,1.778-1.74
		c0.002-0.957-0.76-1.732-1.716-1.749c-0.978-0.017-1.773,0.765-1.775,1.743C26.97,34.93,27.729,35.705,28.685,35.718z"/>
</g>
</svg>
