<?xml version="1.0" encoding="utf-8"?>
<!-- Generator: Adobe Illustrator 16.0.0, SVG Export Plug-In . SVG Version: 6.00 Build 0)  -->
<!DOCTYPE svg PUBLIC "-//W3C//DTD SVG 1.1//EN" "http://www.w3.org/Graphics/SVG/1.1/DTD/svg11.dtd">
<svg version="1.1" id="Layer_1" xmlns="http://www.w3.org/2000/svg" xmlns:xlink="http://www.w3.org/1999/xlink" x="0px" y="0px"
	 width="60px" height="60px" viewBox="0 0 60 60" enable-background="new 0 0 60 60" xml:space="preserve">
<path fill="#010101" d="M36.744,40.049c-0.611,0-1.107,0.495-1.107,1.106s0.496,1.106,1.107,1.106c0.61,0,1.106-0.495,1.106-1.106
	S37.354,40.049,36.744,40.049z"/>
<path fill="#010101" d="M52.902,1.754H7.303c-3.051,0-5.534,2.482-5.534,5.534v33.868c0,3.051,2.482,5.534,5.534,5.534h17.266v5.091
	h-1.107c-1.478,0-2.867,0.576-3.913,1.622c-1.044,1.045-1.621,2.435-1.621,3.912c0,0.611,0.496,1.106,1.107,1.106h22.135
	c0.611,0,1.106-0.495,1.106-1.106c0-3.052-2.482-5.534-5.533-5.534h-1.107v-5.091h17.266c3.052,0,5.534-2.483,5.534-5.534V7.288
	C58.437,4.236,55.954,1.754,52.902,1.754z M36.744,53.994c1.442,0,2.674,0.925,3.13,2.213H20.331
	c0.163-0.461,0.428-0.884,0.784-1.241c0.629-0.627,1.462-0.972,2.348-0.972H36.744z M26.783,51.78v-5.091h6.64v5.091H26.783z
	 M56.223,41.155c0,1.831-1.489,3.32-3.32,3.32H7.303c-1.831,0-3.32-1.489-3.32-3.32v-3.32h52.239V41.155z M11.972,17.913
	l2.636-5.273l2.637,5.273H11.972z M17.929,20.126v15.495h-2.214V20.126H17.929z M13.501,20.126v15.495h-2.213V20.126H13.501z
	 M47.812,15.699h1.106v3.32h-1.106c-0.611,0-1.106,0.496-1.106,1.107s0.495,1.106,1.106,1.106h1.106v3.321h-1.106
	c-0.611,0-1.106,0.496-1.106,1.107c0,0.611,0.495,1.106,1.106,1.106h1.106v4.427h-1.106c-0.611,0-1.106,0.495-1.106,1.106
	s0.495,1.106,1.106,1.106h1.106v2.214h-6.641V11.272h6.641v2.213h-1.106c-0.611,0-1.106,0.496-1.106,1.106
	C46.705,15.204,47.2,15.699,47.812,15.699z M56.223,35.621h-5.091V10.166c0-0.611-0.495-1.107-1.106-1.107h-8.854
	c-0.611,0-1.106,0.496-1.106,1.107v25.456h-5.54c-0.001-0.056-0.003-0.11-0.003-0.167c-0.738-0.014-1.477-0.031-2.214-0.051
	c0.001,0.073,0.003,0.145,0.004,0.218h-4.416c0-0.044,0.002-0.086,0.002-0.13c-0.702,0.036-1.404,0.063-2.107,0.05
	c-0.038,0-0.072-0.009-0.107-0.013c0,0.031-0.001,0.063-0.002,0.093h-5.54V19.02c0-0.175-0.042-0.335-0.109-0.478
	c-0.003-0.005-0.005-0.011-0.007-0.017L15.598,9.67c-0.188-0.375-0.571-0.611-0.99-0.611s-0.802,0.237-0.99,0.611l-4.427,8.854
	c-0.002,0.006-0.004,0.012-0.007,0.017c-0.069,0.144-0.11,0.307-0.11,0.478v16.602H3.983V7.288c0-1.831,1.489-3.32,3.32-3.32h45.599
	c1.831,0,3.32,1.489,3.32,3.32V35.621z"/>
<path fill="#E79536" d="M33.569,23.398c2.284-1.681,2.907-4.797,1.513-7.218l-3.837-6.645c-0.198-0.342-0.563-0.553-0.958-0.553
	c-0.395,0-0.761,0.211-0.958,0.553l-3.838,6.646c-1.316,2.282-0.85,5.238,1.218,6.984c-0.24,1.323-0.723,4.451-0.933,9.087
	c-0.019,0.418-0.032,0.845-0.046,1.269c0.021-0.001,0.04-0.005,0.062-0.004c0.718,0.012,1.436-0.017,2.153-0.053
	c0.001-0.019,0.001-0.038,0.001-0.057h1.075c0.813-0.042,1.626-0.075,2.441-0.052c1.004,0.028,2.01,0.055,3.016,0.073
	c-0.013-0.394-0.025-0.79-0.041-1.176C34.241,27.746,33.8,24.726,33.569,23.398z M28.047,31.194
	c0.187-3.202,0.503-5.567,0.722-6.929c0.49,0.14,1,0.212,1.518,0.212c0.402,0,0.803-0.046,1.194-0.133
	c0.206,1.316,0.507,3.646,0.687,6.85H28.047z M30.287,22.263c-2.53,0-4.16-2.753-2.879-4.977l2.879-4.984l2.877,4.984
	C34.441,19.501,32.833,22.263,30.287,22.263z"/>
<path fill="#010101" d="M32.316,40.049h-6.64c-0.611,0-1.107,0.495-1.107,1.106s0.496,1.106,1.107,1.106h6.64
	c0.611,0,1.106-0.495,1.106-1.106S32.928,40.049,32.316,40.049z"/>
</svg>
