<svg id="eij2urjmy3nc1" xmlns="http://www.w3.org/2000/svg" xmlns:xlink="http://www.w3.org/1999/xlink" viewBox="0 0 62.625000 60" shape-rendering="geometricPrecision" text-rendering="geometricPrecision"><style><![CDATA[#eij2urjmy3nc1{pointer-events: all}#eij2urjmy3nc1:hover #eij2urjmy3nc6_to {animation: eij2urjmy3nc6_to__to 3000ms linear 1 normal forwards}@keyframes eij2urjmy3nc6_to__to { 0% {transform: translate(0px,0px)} 33.333333% {transform: translate(0px,0px)} 50% {transform: translate(2.728883px,3.038650px)} 100% {transform: translate(2.728883px,3.038650px)} }#eij2urjmy3nc1:hover #eij2urjmy3nc7_to {animation: eij2urjmy3nc7_to__to 3000ms linear 1 normal forwards}@keyframes eij2urjmy3nc7_to__to { 0% {transform: translate(0px,0px)} 16.666667% {transform: translate(0px,0px)} 33.333333% {transform: translate(1.692194px,0.055000px)} 100% {transform: translate(1.692194px,0.055000px)} }#eij2urjmy3nc1:hover #eij2urjmy3nc9_to {animation: eij2urjmy3nc9_to__to 3000ms linear 1 normal forwards}@keyframes eij2urjmy3nc9_to__to { 0% {transform: translate(0px,0px)} 16.666667% {transform: translate(2.728883px,-3.922918px)} 100% {transform: translate(2.728883px,-3.922918px)} }]]></style><g id="eij2urjmy3nc2"><g id="eij2urjmy3nc3"><g id="eij2urjmy3nc4"><path id="eij2urjmy3nc5" d="M53.072000,29.739000C53.072000,26.865000,50.904000,24.489000,48.118000,24.155000L48.118000,9.727000C48.118000,8.844000,47.545000,8.096000,46.691000,7.866000C45.838000,7.636000,44.966000,7.994000,44.523000,8.758000C41.476000,14.002000,36.675000,17.586000,30.256000,19.410000C25.402000,20.790000,21.396000,20.590000,21.358000,20.588000C21.299000,20.585000,21.240000,20.588000,21.182000,20.593000L10.919000,20.593000C5.763000,20.593000,1.568000,24.788000,1.568000,29.945000C1.568000,34.801000,5.290000,38.805000,10.031000,39.253000L13.127000,51.982000C13.537000,53.668000,15.035000,54.844000,16.770000,54.844000L18.918000,54.844000C20.076000,54.844000,21.150000,54.323000,21.866000,53.412000C22.581000,52.502000,22.834000,51.334000,22.561000,50.209000L19.906000,39.294000L21.181000,39.294000C21.240000,39.300000,21.298000,39.302000,21.357000,39.299000C21.397000,39.297000,25.402000,39.097000,30.256000,40.478000C36.675000,42.302000,41.475000,45.886000,44.524000,51.129000C44.878000,51.738000,45.504000,52.090000,46.176000,52.090000C46.348000,52.090000,46.520000,52.068000,46.692000,52.023000C47.545000,51.793000,48.118000,51.044000,48.118000,50.162000L48.118000,35.734000C50.903000,35.400000,53.071000,33.023000,53.071000,30.150000L53.071000,29.739000L53.072000,29.739000ZM20.036000,49.287000L20.389000,50.739000C20.500000,51.193000,20.398000,51.665000,20.109000,52.032000C19.820000,52.398000,19.386000,52.611000,18.919000,52.611000L16.770000,52.611000C16.069000,52.611000,15.464000,52.133000,15.299000,51.455000L12.342000,39.296000L17.606000,39.296000L18.396000,42.541000L17.862000,42.541000C17.244000,42.541000,16.744000,43.042000,16.744000,43.659000C16.744000,44.275000,17.244000,44.775000,17.862000,44.775000L18.940000,44.775000L19.494000,47.051000L19.143000,47.051000C18.526000,47.051000,18.026000,47.551000,18.026000,48.168000C18.026000,48.785000,18.526000,49.285000,19.143000,49.285000L20.036000,49.287000L20.036000,49.287000ZM20.178000,32.318000L13.234000,32.318000C12.617000,32.318000,12.116000,32.818000,12.116000,33.435000C12.116000,34.052000,12.616000,34.551000,13.234000,34.551000L20.178000,34.551000L20.178000,37.060000L18.546000,37.060000C18.525000,37.058000,18.505000,37.056000,18.484000,37.056000L10.920000,37.056000C10.910000,37.056000,10.899000,37.058000,10.889000,37.060000C6.979000,37.041000,3.804000,33.857000,3.804000,29.943000C3.804000,26.019000,6.997000,22.827000,10.920000,22.827000L20.178000,22.827000L20.178000,32.318000L20.178000,32.318000ZM45.884000,25.230000L45.884000,34.658000L45.884000,49.070000C42.534000,43.861000,37.341000,40.152000,30.793000,38.306000C27.168000,37.285000,24.037000,37.080000,22.413000,37.054000L22.413000,33.435000L22.413000,22.833000C24.037000,22.807000,27.168000,22.603000,30.793000,21.582000C37.341000,19.738000,42.534000,16.027000,45.884000,10.819000L45.884000,25.230000ZM50.837000,30.150000C50.837000,31.789000,49.668000,33.161000,48.118000,33.475000L48.118000,26.415000C49.668000,26.728000,50.837000,28.099000,50.837000,29.739000L50.837000,30.150000ZM0,0" fill="rgb(1,1,1)" stroke="none" stroke-width="1"/><g id="eij2urjmy3nc6_to" transform="translate(0,0)"><path id="eij2urjmy3nc6" d="M54.159000,36.756000C53.702000,36.339000,52.996000,36.373000,52.581000,36.829000C52.164000,37.285000,52.197000,37.992000,52.654000,38.408000L55.877000,41.343000C56.092000,41.538000,56.361000,41.634000,56.629000,41.634000C56.934000,41.634000,57.234000,41.511000,57.455000,41.270000C57.870000,40.815000,57.838000,40.108000,57.382000,39.692000L54.159000,36.756000Z" transform="translate(0,0)" fill="rgb(145,102,172)" stroke="none" stroke-width="1"/></g><g id="eij2urjmy3nc7_to" transform="translate(0,0)"><path id="eij2urjmy3nc7" d="M57.665000,28.827000L55.189000,28.827000C54.573000,28.827000,54.073000,29.327000,54.073000,29.945000C54.073000,30.561000,54.573000,31.063000,55.189000,31.063000L57.665000,31.063000C58.282000,31.063000,58.783000,30.563000,58.783000,29.945000C58.783000,29.328000,58.282000,28.827000,57.665000,28.827000Z" transform="translate(0,0)" fill="rgb(145,102,172)" stroke="none" stroke-width="1"/></g><path id="eij2urjmy3nc8" d="M9.661000,33.010000C9.633000,32.942000,9.599000,32.875000,9.558000,32.817000C9.516000,32.754000,9.471000,32.699000,9.419000,32.647000C9.366000,32.594000,9.309000,32.548000,9.248000,32.507000C9.188000,32.467000,9.123000,32.432000,9.056000,32.404000C8.988000,32.376000,8.917000,32.355000,8.847000,32.341000C8.702000,32.313000,8.554000,32.313000,8.409000,32.341000C8.338000,32.356000,8.267000,32.376000,8.200000,32.404000C8.133000,32.431000,8.067000,32.467000,8.007000,32.507000C7.945000,32.548000,7.888000,32.594000,7.837000,32.647000C7.785000,32.699000,7.738000,32.754000,7.698000,32.817000C7.658000,32.877000,7.623000,32.942000,7.595000,33.010000C7.567000,33.076000,7.546000,33.147000,7.531000,33.219000C7.517000,33.289000,7.509000,33.365000,7.509000,33.436000C7.509000,33.509000,7.517000,33.582000,7.531000,33.656000C7.546000,33.727000,7.567000,33.798000,7.595000,33.865000C7.622000,33.932000,7.658000,33.997000,7.698000,34.057000C7.738000,34.120000,7.785000,34.175000,7.837000,34.227000C7.888000,34.278000,7.945000,34.326000,8.007000,34.367000C8.067000,34.408000,8.133000,34.440000,8.200000,34.470000C8.267000,34.498000,8.338000,34.521000,8.409000,34.534000C8.482000,34.548000,8.555000,34.555000,8.627000,34.555000C8.701000,34.555000,8.773000,34.547000,8.846000,34.534000C8.917000,34.518000,8.987000,34.498000,9.055000,34.470000C9.122000,34.443000,9.187000,34.408000,9.247000,34.367000C9.308000,34.326000,9.365000,34.278000,9.418000,34.227000C9.469000,34.175000,9.515000,34.120000,9.557000,34.057000C9.598000,33.995000,9.632000,33.932000,9.660000,33.865000C9.688000,33.798000,9.709000,33.727000,9.724000,33.656000C9.739000,33.584000,9.745000,33.510000,9.745000,33.436000C9.745000,33.365000,9.738000,33.290000,9.724000,33.219000C9.710000,33.146000,9.689000,33.076000,9.661000,33.010000Z" fill="rgb(1,1,1)" stroke="none" stroke-width="1"/><g id="eij2urjmy3nc9_to" transform="translate(0,0)"><path id="eij2urjmy3nc9" d="M57.382000,21.352000C57.838000,20.936000,57.870000,20.229000,57.455000,19.774000C57.234000,19.533000,56.934000,19.410000,56.629000,19.410000C56.361000,19.410000,56.092000,19.506000,55.877000,19.701000L52.654000,22.636000C52.197000,23.052000,52.164000,23.759000,52.581000,24.215000C52.996000,24.671000,53.702000,24.705000,54.159000,24.288000L57.382000,21.352000Z" transform="translate(0,0)" fill="rgb(145,102,172)" stroke="none" stroke-width="1"/></g></g></g></g></svg>