<?xml version="1.0" encoding="utf-8"?>
<!-- Generator: Adobe Illustrator 16.0.0, SVG Export Plug-In . SVG Version: 6.00 Build 0)  -->
<!DOCTYPE svg PUBLIC "-//W3C//DTD SVG 1.1//EN" "http://www.w3.org/Graphics/SVG/1.1/DTD/svg11.dtd">
<svg version="1.1" id="Layer_1" xmlns="http://www.w3.org/2000/svg" xmlns:xlink="http://www.w3.org/1999/xlink" x="0px" y="0px"
	 width="60px" height="60px" viewBox="0 0 60 60" enable-background="new 0 0 60 60" xml:space="preserve">
<path fill="#61C7F2" d="M42.714,14.145c-0.75-0.042-1.495-0.045-2.217,0.057v0.144H23.863c-1.837,0-3.327,1.489-3.327,3.327v15.524
	c0,1.838,1.489,3.326,3.327,3.326H39.6c0.208-0.087,0.445-0.127,0.71-0.088c0.797,0.118,1.599,0.159,2.404,0.167v-0.079h9.98
	c1.837,0,3.327-1.488,3.327-3.326V17.673c0-1.795-1.422-3.253-3.2-3.32h-6.761c-0.131,0-0.263-0.002-0.395-0.007h-2.952V14.145z
	 M52.694,16.564c0.613,0,1.109,0.497,1.109,1.109v15.524c0,0.612-0.496,1.109-1.109,1.109H23.863c-0.612,0-1.108-0.497-1.108-1.109
	V17.673c0-0.612,0.497-1.109,1.108-1.109H52.694z"/>
<path fill="#010101" d="M40.497,38.947v10.884H9.447V9.911h31.05v1.804c0.736-0.06,1.477-0.049,2.217-0.016V4.366
	c0-1.837-1.488-3.327-3.326-3.327H10.557c-1.838,0-3.327,1.489-3.327,3.327v51.009c0,1.839,1.489,3.327,3.327,3.327h28.831
	c1.838,0,3.326-1.488,3.326-3.327V39.037C41.975,39.035,41.234,39.015,40.497,38.947z M9.447,4.366c0-0.612,0.497-1.108,1.109-1.108
	h28.831c0.612,0,1.109,0.496,1.109,1.108v3.327H9.447V4.366z M40.497,55.375c0,0.613-0.497,1.109-1.109,1.109H10.557
	c-0.613,0-1.109-0.496-1.109-1.109v-3.326h31.05V55.375z"/>
<path fill="#61C7F2" d="M48.26,21h-8.872c-0.612,0-1.108,0.497-1.108,1.109s0.496,1.108,1.108,1.108h8.872
	c0.611,0,1.108-0.496,1.108-1.108S48.871,21,48.26,21z"/>
<path fill="#61C7F2" d="M48.26,25.435h-8.872c-0.612,0-1.108,0.497-1.108,1.109s0.496,1.109,1.108,1.109h8.872
	c0.611,0,1.108-0.497,1.108-1.109S48.871,25.435,48.26,25.435z"/>
<path fill="#61C7F2" d="M33.843,21h-4.436c-1.225,0-2.217,0.993-2.217,2.217v4.437c0,1.225,0.993,2.217,2.217,2.217h4.436
	c1.226,0,2.219-0.993,2.219-2.217v-4.437C36.062,21.992,35.068,21,33.843,21z M33.843,27.653h-4.436v-4.437h4.436V27.653z"/>
</svg>
