<?xml version="1.0" encoding="utf-8"?>
<!-- Generator: Adobe Illustrator 16.0.0, SVG Export Plug-In . SVG Version: 6.00 Build 0)  -->
<!DOCTYPE svg PUBLIC "-//W3C//DTD SVG 1.1//EN" "http://www.w3.org/Graphics/SVG/1.1/DTD/svg11.dtd">
<svg version="1.1" id="Layer_1" xmlns="http://www.w3.org/2000/svg" xmlns:xlink="http://www.w3.org/1999/xlink" x="0px" y="0px"
	 width="35px" height="35px" viewBox="0 0 35 35" enable-background="new 0 0 35 35" xml:space="preserve">
<g>
	<path fill="#38A7DF" d="M2344.182,1850.476c0,3.729,3.033,6.763,6.762,6.763c3.729,0,6.765-3.033,6.765-6.763
		c0-3.729-3.035-6.763-6.765-6.763C2347.215,1843.713,2344.182,1846.746,2344.182,1850.476z M2354.242,1850.476
		c0,1.818-1.48,3.298-3.299,3.298c-1.819,0-3.298-1.479-3.298-3.298c0-1.817,1.479-3.298,3.298-3.298
		C2352.761,1847.178,2354.242,1848.657,2354.242,1850.476z"/>
	<path fill="#38A7DF" d="M2373.953,1850.476c0-3.729-3.033-6.763-6.762-6.763c-3.729,0-6.764,3.033-6.764,6.763
		s3.034,6.763,6.764,6.763C2370.92,1857.238,2373.953,1854.204,2373.953,1850.476z M2363.893,1850.476c0-1.817,1.48-3.298,3.3-3.298
		s3.297,1.479,3.297,3.298c0,1.819-1.479,3.298-3.297,3.298C2365.374,1853.773,2363.893,1852.294,2363.893,1850.476
		L2363.893,1850.476z"/>
	<path fill="#38A7DF" d="M2390.201,1850.476c0-3.729-3.034-6.763-6.764-6.763c-3.729,0-6.763,3.033-6.763,6.763
		s3.033,6.763,6.763,6.763C2387.167,1857.237,2390.201,1854.204,2390.201,1850.476z M2380.141,1850.476
		c0-1.817,1.479-3.298,3.298-3.298c1.817,0,3.299,1.479,3.299,3.298c0,1.819-1.479,3.298-3.299,3.298
		S2380.141,1852.294,2380.141,1850.476L2380.141,1850.476z"/>
	<path fill="#38A7DF" d="M2406.447,1850.476c0-3.729-3.033-6.763-6.762-6.763c-3.729,0-6.764,3.033-6.764,6.763
		s3.034,6.763,6.764,6.763C2403.414,1857.238,2406.447,1854.204,2406.447,1850.476z M2396.387,1850.476
		c0-1.817,1.479-3.298,3.299-3.298c1.817,0,3.298,1.479,3.298,3.298c0,1.819-1.479,3.298-3.298,3.298
		C2397.866,1853.771,2396.387,1852.294,2396.387,1850.476z"/>
	<path fill="#010101" d="M2429.574,1791.252h-63.92c-9.313,0-16.892,7.577-16.892,16.892v2.732h-3.674
		c-9.313,0-16.892,7.577-16.892,16.891v42.95c0,9.313,7.577,16.891,16.892,16.891h18.06c0.957,0,1.731-0.774,1.731-1.731
		s-0.774-1.732-1.731-1.732h-18.06c-7.402,0-13.426-6.022-13.426-13.426v-42.95c0-7.401,6.022-13.426,13.426-13.426h63.92
		c7.402,0,13.426,6.023,13.426,13.426v42.95c0,7.402-6.022,13.426-13.426,13.426c-1.974,0-3.815,0.868-5.055,2.382
		c-6.795,8.306-14.888,14.174-20.479,17.634c-0.521,0.321-1.122-0.223-0.848-0.781c2.197-4.482,3.882-9.186,5.007-13.974
		c0.63-2.685-1.416-5.261-4.184-5.261h-12.219c-0.959,0-1.732,0.775-1.732,1.732s0.773,1.731,1.732,1.731h12.219
		c0.531,0,0.931,0.491,0.811,1.004c-1.064,4.535-2.662,8.99-4.745,13.24c-1.796,3.666,2.315,7.397,5.782,5.252
		c5.816-3.6,14.238-9.711,21.336-18.385c0.578-0.706,1.443-1.111,2.373-1.111c9.313,0,16.891-7.576,16.891-16.891v-2.732h3.675
		c9.313,0,16.891-7.577,16.891-16.892v-17.433c0-0.956-0.774-1.732-1.731-1.732s-1.732,0.776-1.732,1.732v17.433
		c0,7.403-6.021,13.426-13.426,13.426h-3.674v-36.752c0-9.313-7.577-16.891-16.892-16.891h-56.78v-2.732
		c0-7.402,6.022-13.427,13.426-13.427h63.92c7.402,0,13.426,6.023,13.426,13.427v17.434c0,0.956,0.775,1.73,1.732,1.73
		s1.731-0.774,1.731-1.73v-17.434C2446.465,1798.829,2438.888,1791.252,2429.574,1791.252L2429.574,1791.252z"/>
</g>
<g>
	<g>
		<path d="M17.5,1.112C8.464,1.112,1.112,8.464,1.112,17.5c0,9.035,7.352,16.388,16.388,16.388c9.035,0,16.388-7.353,16.388-16.388
			C33.888,8.464,26.535,1.112,17.5,1.112z M17.5,31.839c-7.907,0-14.339-6.432-14.339-14.339S9.593,3.161,17.5,3.161
			S31.839,9.593,31.839,17.5S25.407,31.839,17.5,31.839z"/>
	</g>
</g>
<g>
	<g>
		<path fill="#38A7DF" d="M17.5,16.476c-1.665,0-3.073-0.938-3.073-2.048s1.408-2.048,3.073-2.048c0.942,0,1.815,0.295,2.393,0.807
			c0.423,0.375,1.067,0.34,1.447-0.086c0.375-0.422,0.337-1.07-0.087-1.447c-0.718-0.636-1.681-1.067-2.729-1.237v-1.11
			c0-0.565-0.459-1.024-1.024-1.024s-1.024,0.458-1.024,1.024v1.106c-2.335,0.381-4.097,2.036-4.097,4.015
			c0,2.26,2.298,4.097,5.121,4.097c1.665,0,3.072,0.938,3.072,2.048c0,1.111-1.407,2.049-3.072,2.049
			c-0.942,0-1.815-0.295-2.393-0.808c-0.422-0.376-1.069-0.34-1.446,0.087c-0.377,0.421-0.338,1.069,0.086,1.445
			c0.717,0.64,1.68,1.067,2.728,1.24v1.107c0,0.565,0.459,1.024,1.024,1.024s1.024-0.459,1.024-1.024v-1.105
			c2.335-0.382,4.097-2.037,4.097-4.016C22.621,18.313,20.322,16.476,17.5,16.476z"/>
	</g>
</g>
</svg>
