<?xml version="1.0" encoding="utf-8"?>
<!-- Generator: Adobe Illustrator 16.0.0, SVG Export Plug-In . SVG Version: 6.00 Build 0)  -->
<!DOCTYPE svg PUBLIC "-//W3C//DTD SVG 1.1//EN" "http://www.w3.org/Graphics/SVG/1.1/DTD/svg11.dtd">
<svg version="1.1" id="Layer_1" xmlns="http://www.w3.org/2000/svg" xmlns:xlink="http://www.w3.org/1999/xlink" x="0px" y="0px"
	 width="35px" height="35px" viewBox="0 0 35 35" enable-background="new 0 0 35 35" xml:space="preserve">
<g>
	<path fill="#38A7DF" d="M2344.182,1850.476c0,3.729,3.033,6.763,6.762,6.763c3.729,0,6.765-3.033,6.765-6.763
		c0-3.729-3.035-6.763-6.765-6.763C2347.215,1843.713,2344.182,1846.746,2344.182,1850.476z M2354.242,1850.476
		c0,1.818-1.48,3.298-3.299,3.298c-1.819,0-3.298-1.479-3.298-3.298c0-1.817,1.479-3.298,3.298-3.298
		C2352.761,1847.178,2354.242,1848.657,2354.242,1850.476z"/>
	<path fill="#38A7DF" d="M2373.953,1850.476c0-3.729-3.033-6.763-6.762-6.763c-3.729,0-6.764,3.033-6.764,6.763
		s3.034,6.763,6.764,6.763C2370.92,1857.238,2373.953,1854.204,2373.953,1850.476z M2363.893,1850.476c0-1.817,1.48-3.298,3.3-3.298
		s3.297,1.479,3.297,3.298c0,1.819-1.479,3.298-3.297,3.298C2365.374,1853.773,2363.893,1852.294,2363.893,1850.476
		L2363.893,1850.476z"/>
	<path fill="#38A7DF" d="M2390.201,1850.476c0-3.729-3.034-6.763-6.764-6.763c-3.729,0-6.763,3.033-6.763,6.763
		s3.033,6.763,6.763,6.763C2387.167,1857.237,2390.201,1854.204,2390.201,1850.476z M2380.141,1850.476
		c0-1.817,1.479-3.298,3.298-3.298c1.817,0,3.299,1.479,3.299,3.298c0,1.819-1.479,3.298-3.299,3.298
		S2380.141,1852.294,2380.141,1850.476L2380.141,1850.476z"/>
	<path fill="#38A7DF" d="M2406.447,1850.476c0-3.729-3.033-6.763-6.762-6.763c-3.729,0-6.764,3.033-6.764,6.763
		s3.034,6.763,6.764,6.763C2403.414,1857.238,2406.447,1854.204,2406.447,1850.476z M2396.387,1850.476
		c0-1.817,1.479-3.298,3.299-3.298c1.817,0,3.298,1.479,3.298,3.298c0,1.819-1.479,3.298-3.298,3.298
		C2397.866,1853.771,2396.387,1852.294,2396.387,1850.476z"/>
	<path fill="#010101" d="M2429.574,1791.252h-63.92c-9.313,0-16.892,7.577-16.892,16.892v2.732h-3.674
		c-9.313,0-16.892,7.577-16.892,16.891v42.95c0,9.313,7.577,16.891,16.892,16.891h18.06c0.957,0,1.731-0.774,1.731-1.731
		s-0.774-1.732-1.731-1.732h-18.06c-7.402,0-13.426-6.022-13.426-13.426v-42.95c0-7.401,6.022-13.426,13.426-13.426h63.92
		c7.402,0,13.426,6.023,13.426,13.426v42.95c0,7.402-6.022,13.426-13.426,13.426c-1.974,0-3.815,0.868-5.055,2.382
		c-6.795,8.306-14.888,14.174-20.479,17.634c-0.521,0.321-1.122-0.223-0.848-0.781c2.197-4.482,3.882-9.186,5.007-13.974
		c0.63-2.685-1.416-5.261-4.184-5.261h-12.219c-0.959,0-1.732,0.775-1.732,1.732s0.773,1.731,1.732,1.731h12.219
		c0.531,0,0.931,0.491,0.811,1.004c-1.064,4.535-2.662,8.99-4.745,13.24c-1.796,3.666,2.315,7.397,5.782,5.252
		c5.816-3.6,14.238-9.711,21.336-18.385c0.578-0.706,1.443-1.111,2.373-1.111c9.313,0,16.891-7.576,16.891-16.891v-2.732h3.675
		c9.313,0,16.891-7.577,16.891-16.892v-17.433c0-0.956-0.774-1.732-1.731-1.732s-1.732,0.776-1.732,1.732v17.433
		c0,7.403-6.021,13.426-13.426,13.426h-3.674v-36.752c0-9.313-7.577-16.891-16.892-16.891h-56.78v-2.732
		c0-7.402,6.022-13.427,13.426-13.427h63.92c7.402,0,13.426,6.023,13.426,13.427v17.434c0,0.956,0.775,1.73,1.732,1.73
		s1.731-0.774,1.731-1.73v-17.434C2446.465,1798.829,2438.888,1791.252,2429.574,1791.252L2429.574,1791.252z"/>
</g>
<g>
	<path fill="#38A7DF" d="M17.337,18.496c2.108,0,3.816-1.709,3.816-3.818c0-2.108-1.708-3.817-3.816-3.817
		c-2.109,0-3.818,1.709-3.818,3.817C13.521,16.785,15.229,18.492,17.337,18.496z M17.337,12.344c1.293,0,2.34,1.048,2.34,2.341
		c0,1.293-1.047,2.341-2.34,2.341c-1.292,0-2.341-1.048-2.341-2.341C14.996,13.393,16.044,12.345,17.337,12.344z"/>
	<path fill="#38A7DF" d="M17.337,19.906c-1.562-0.012-3.061,0.615-4.15,1.734c-1.108,1.13-1.713,2.666-1.713,4.335
		c0.001,0.407,0.332,0.736,0.739,0.738h10.249c0.408-0.002,0.737-0.331,0.738-0.738c0-1.669-0.605-3.205-1.713-4.335
		C20.397,20.521,18.898,19.895,17.337,19.906z M13.002,25.236c0.126-0.965,0.562-1.863,1.241-2.562
		c0.816-0.827,1.931-1.292,3.094-1.292c1.162,0,2.276,0.465,3.093,1.292c0.678,0.698,1.113,1.597,1.241,2.562H13.002z"/>
	<path d="M26.198,0.7H8.476C6.437,0.701,4.784,2.353,4.784,4.392v26.139c0,2.038,1.653,3.691,3.692,3.692h17.722
		c2.038-0.001,3.69-1.654,3.691-3.692V4.392C29.889,2.353,28.236,0.701,26.198,0.7z M28.413,30.531
		c-0.004,1.222-0.994,2.212-2.215,2.215H8.476c-1.222-0.003-2.212-0.993-2.215-2.215V4.392C6.264,3.17,7.254,2.18,8.476,2.177
		h17.722c1.221,0.003,2.211,0.993,2.215,2.215V30.531z"/>
	<path d="M14.257,5.654h5.908c0.407,0,0.737-0.33,0.737-0.738c0-0.408-0.33-0.738-0.737-0.738h-5.908
		c-0.408,0-0.738,0.331-0.738,0.738C13.519,5.324,13.85,5.654,14.257,5.654z"/>
</g>
</svg>
