<?xml version="1.0" encoding="utf-8"?>
<!-- Generator: Adobe Illustrator 16.0.0, SVG Export Plug-In . SVG Version: 6.00 Build 0)  -->
<!DOCTYPE svg PUBLIC "-//W3C//DTD SVG 1.1//EN" "http://www.w3.org/Graphics/SVG/1.1/DTD/svg11.dtd">
<svg version="1.1" id="Layer_1" xmlns="http://www.w3.org/2000/svg" xmlns:xlink="http://www.w3.org/1999/xlink" x="0px" y="0px"
	 width="35px" height="35px" viewBox="0 0 35 35" enable-background="new 0 0 35 35" xml:space="preserve">
<g>
	<path fill="#38A7DF" d="M2344.182,1850.476c0,3.729,3.033,6.765,6.762,6.765c3.729,0,6.767-3.033,6.767-6.765
		c0-3.729-3.035-6.763-6.767-6.763C2347.215,1843.713,2344.182,1846.746,2344.182,1850.476z M2354.242,1850.476
		c0,1.818-1.48,3.298-3.299,3.298c-1.819,0-3.3-1.479-3.3-3.298c0-1.815,1.479-3.298,3.3-3.298
		C2352.761,1847.178,2354.242,1848.657,2354.242,1850.476z"/>
	<path fill="#38A7DF" d="M2373.953,1850.476c0-3.729-3.033-6.763-6.762-6.763c-3.729,0-6.766,3.033-6.766,6.763
		c0,3.73,3.034,6.765,6.766,6.765C2370.92,1857.238,2373.953,1854.204,2373.953,1850.476z M2363.893,1850.476
		c0-1.815,1.48-3.298,3.302-3.298s3.297,1.479,3.297,3.298c0,1.819-1.479,3.298-3.297,3.298
		C2365.374,1853.773,2363.893,1852.294,2363.893,1850.476L2363.893,1850.476z"/>
	<path fill="#38A7DF" d="M2390.201,1850.476c0-3.729-3.034-6.763-6.764-6.763c-3.73,0-6.765,3.033-6.765,6.763
		c0,3.73,3.033,6.765,6.765,6.765C2387.167,1857.237,2390.201,1854.204,2390.201,1850.476z M2380.141,1850.476
		c0-1.815,1.479-3.298,3.3-3.298c1.815,0,3.299,1.479,3.299,3.298c0,1.819-1.479,3.298-3.299,3.298
		C2381.62,1853.773,2380.141,1852.294,2380.141,1850.476L2380.141,1850.476z"/>
	<path fill="#38A7DF" d="M2406.447,1850.476c0-3.729-3.033-6.763-6.762-6.763c-3.729,0-6.766,3.033-6.766,6.763
		c0,3.73,3.034,6.765,6.766,6.765C2403.414,1857.238,2406.447,1854.204,2406.447,1850.476z M2396.387,1850.476
		c0-1.815,1.479-3.298,3.299-3.298c1.817,0,3.3,1.479,3.3,3.298c0,1.819-1.479,3.298-3.3,3.298
		C2397.866,1853.771,2396.387,1852.294,2396.387,1850.476z"/>
	<path fill="#010101" d="M2429.574,1791.252h-63.92c-9.313,0-16.894,7.577-16.894,16.892v2.732h-3.674
		c-9.313,0-16.894,7.577-16.894,16.891v42.95c0,9.313,7.577,16.891,16.894,16.891h18.062c0.957,0,1.729-0.772,1.729-1.729
		s-0.772-1.732-1.729-1.732h-18.062c-7.402,0-13.426-6.021-13.426-13.426v-42.95c0-7.399,6.021-13.426,13.426-13.426h63.92
		c7.402,0,13.426,6.023,13.426,13.426v42.95c0,7.402-6.021,13.426-13.426,13.426c-1.976,0-3.813,0.868-5.055,2.384
		c-6.795,8.306-14.89,14.174-20.479,17.634c-0.521,0.321-1.122-0.224-0.848-0.781c2.197-4.481,3.882-9.187,5.007-13.974
		c0.63-2.687-1.416-5.262-4.184-5.262h-12.22c-0.959,0-1.731,0.774-1.731,1.731s0.772,1.73,1.731,1.73h12.22
		c0.53,0,0.931,0.49,0.811,1.005c-1.063,4.534-2.662,8.988-4.745,13.238c-1.796,3.666,2.315,7.397,5.782,5.252
		c5.815-3.6,14.238-9.711,21.336-18.385c0.578-0.706,1.443-1.11,2.373-1.11c9.313,0,16.892-7.575,16.892-16.892v-2.731h3.676
		c9.313,0,16.891-7.576,16.891-16.893v-17.433c0-0.956-0.772-1.732-1.729-1.732s-1.732,0.776-1.732,1.732v17.433
		c0,7.403-6.021,13.427-13.426,13.427h-3.674v-36.752c0-9.313-7.577-16.892-16.894-16.892h-56.779v-2.731
		c0-7.401,6.021-13.428,13.427-13.428h63.92c7.401,0,13.426,6.023,13.426,13.428v17.435c0,0.956,0.774,1.729,1.731,1.729
		s1.73-0.773,1.73-1.729v-17.435C2446.465,1798.829,2438.888,1791.252,2429.574,1791.252L2429.574,1791.252z"/>
</g>
<path d="M29.383,28.766V10.65c0-0.343-0.277-0.622-0.621-0.622h-8.317V7.583c0-0.344-0.279-0.623-0.622-0.623h-1.207V4.019
	c0-0.344-0.277-0.623-0.621-0.623h-4.062V1.477c0-0.344-0.279-0.622-0.622-0.622c-0.344,0-0.623,0.278-0.623,0.622v1.919H8.666
	c-0.344,0-0.623,0.279-0.623,0.623V6.96H6.836c-0.344,0-0.622,0.278-0.622,0.623v21.024v1.547v3.021c0,0.342,0.278,0.62,0.622,0.62
	h21.926c0.344,0,0.621-0.278,0.621-0.62v-2.877V28.766z M9.288,4.641h8.084V6.96H9.288V4.641z M19.2,32.553H7.458V8.205H19.2V32.553
	z M28.14,32.553h-7.695V11.271h7.695V32.553z"/>
<path fill="#38A7DF" d="M9.896,15.865h6.867c0.343,0,0.621-0.278,0.621-0.622s-0.278-0.622-0.621-0.622H9.896
	c-0.344,0-0.623,0.278-0.623,0.622S9.552,15.865,9.896,15.865z"/>
<path fill="#38A7DF" d="M21.998,21.916h4.427c0.344,0,0.624-0.278,0.624-0.622c0-0.343-0.28-0.623-0.624-0.623h-4.427
	c-0.344,0-0.622,0.28-0.622,0.623C21.376,21.638,21.654,21.916,21.998,21.916z"/>
<path fill="#38A7DF" d="M9.896,19.474h6.867c0.343,0,0.621-0.279,0.621-0.623c0-0.343-0.278-0.623-0.621-0.623H9.896
	c-0.344,0-0.623,0.28-0.623,0.623C9.273,19.194,9.552,19.474,9.896,19.474z"/>
<path fill="#38A7DF" d="M9.896,23.08h6.867c0.343,0,0.621-0.278,0.621-0.622c0-0.345-0.278-0.624-0.621-0.624H9.896
	c-0.344,0-0.623,0.279-0.623,0.624C9.273,22.802,9.552,23.08,9.896,23.08z"/>
<path fill="#38A7DF" d="M9.896,26.685h6.867c0.343,0,0.621-0.276,0.621-0.62s-0.278-0.623-0.621-0.623H9.896
	c-0.344,0-0.623,0.279-0.623,0.623S9.552,26.685,9.896,26.685z"/>
<path fill="#38A7DF" d="M9.896,30.295h6.867c0.343,0,0.621-0.281,0.621-0.624c0-0.344-0.278-0.622-0.621-0.622H9.896
	c-0.344,0-0.623,0.278-0.623,0.622C9.273,30.014,9.552,30.295,9.896,30.295z"/>
<path fill="#38A7DF" d="M21.998,25.45h4.427c0.344,0,0.624-0.278,0.624-0.62c0-0.345-0.28-0.625-0.624-0.625h-4.427
	c-0.344,0-0.622,0.28-0.622,0.625C21.376,25.172,21.654,25.45,21.998,25.45z"/>
<path fill="#38A7DF" d="M21.998,28.985h4.427c0.344,0,0.624-0.278,0.624-0.622c0-0.346-0.28-0.622-0.624-0.622h-4.427
	c-0.344,0-0.622,0.276-0.622,0.622C21.376,28.707,21.654,28.985,21.998,28.985z"/>
<path fill="#38A7DF" d="M21.998,18.382h4.427c0.344,0,0.624-0.278,0.624-0.622s-0.28-0.623-0.624-0.623h-4.427
	c-0.344,0-0.622,0.279-0.622,0.623S21.654,18.382,21.998,18.382z"/>
<path fill="#38A7DF" d="M21.998,14.847h4.427c0.344,0,0.624-0.278,0.624-0.622s-0.28-0.622-0.624-0.622h-4.427
	c-0.344,0-0.622,0.278-0.622,0.622S21.654,14.847,21.998,14.847z"/>
<path fill="#38A7DF" d="M9.896,12.259h6.867c0.343,0,0.621-0.279,0.621-0.623c0-0.343-0.278-0.622-0.621-0.622H9.896
	c-0.344,0-0.623,0.279-0.623,0.622C9.273,11.98,9.552,12.259,9.896,12.259z"/>
</svg>
