<?xml version="1.0" encoding="utf-8"?>
<!-- Generator: Adobe Illustrator 16.0.0, SVG Export Plug-In . SVG Version: 6.00 Build 0)  -->
<!DOCTYPE svg PUBLIC "-//W3C//DTD SVG 1.1//EN" "http://www.w3.org/Graphics/SVG/1.1/DTD/svg11.dtd">
<svg version="1.1" id="Layer_1" xmlns="http://www.w3.org/2000/svg" xmlns:xlink="http://www.w3.org/1999/xlink" x="0px" y="0px"
	 width="35px" height="35px" viewBox="0 0 35 35" enable-background="new 0 0 35 35" xml:space="preserve">
<g>
	<path fill="#38A7DF" d="M2344.182,1850.476c0,3.729,3.033,6.764,6.762,6.764c3.729,0,6.766-3.033,6.766-6.764
		c0-3.729-3.035-6.763-6.766-6.763C2347.215,1843.713,2344.182,1846.746,2344.182,1850.476z M2354.242,1850.476
		c0,1.818-1.48,3.298-3.299,3.298c-1.819,0-3.299-1.479-3.299-3.298c0-1.816,1.479-3.298,3.299-3.298
		C2352.761,1847.178,2354.242,1848.657,2354.242,1850.476z"/>
	<path fill="#38A7DF" d="M2373.953,1850.476c0-3.729-3.033-6.763-6.762-6.763c-3.729,0-6.765,3.033-6.765,6.763
		c0,3.73,3.034,6.764,6.765,6.764C2370.92,1857.238,2373.953,1854.204,2373.953,1850.476z M2363.893,1850.476
		c0-1.816,1.48-3.298,3.301-3.298s3.297,1.479,3.297,3.298c0,1.819-1.479,3.298-3.297,3.298
		C2365.374,1853.773,2363.893,1852.294,2363.893,1850.476L2363.893,1850.476z"/>
	<path fill="#38A7DF" d="M2390.201,1850.476c0-3.729-3.034-6.763-6.764-6.763s-6.764,3.033-6.764,6.763
		c0,3.73,3.033,6.764,6.764,6.764C2387.167,1857.237,2390.201,1854.204,2390.201,1850.476z M2380.141,1850.476
		c0-1.816,1.479-3.298,3.299-3.298c1.816,0,3.299,1.479,3.299,3.298c0,1.819-1.479,3.298-3.299,3.298
		S2380.141,1852.294,2380.141,1850.476L2380.141,1850.476z"/>
	<path fill="#38A7DF" d="M2406.447,1850.476c0-3.729-3.033-6.763-6.762-6.763c-3.729,0-6.765,3.033-6.765,6.763
		c0,3.73,3.034,6.764,6.765,6.764C2403.414,1857.238,2406.447,1854.204,2406.447,1850.476z M2396.387,1850.476
		c0-1.816,1.479-3.298,3.299-3.298c1.817,0,3.299,1.479,3.299,3.298c0,1.819-1.479,3.298-3.299,3.298
		C2397.866,1853.771,2396.387,1852.294,2396.387,1850.476z"/>
	<path fill="#010101" d="M2429.574,1791.252h-63.92c-9.313,0-16.893,7.577-16.893,16.892v2.732h-3.674
		c-9.313,0-16.893,7.577-16.893,16.891v42.95c0,9.313,7.577,16.891,16.893,16.891h18.061c0.957,0,1.73-0.773,1.73-1.73
		s-0.773-1.732-1.73-1.732h-18.061c-7.402,0-13.426-6.021-13.426-13.426v-42.95c0-7.4,6.021-13.426,13.426-13.426h63.92
		c7.402,0,13.426,6.023,13.426,13.426v42.95c0,7.402-6.021,13.426-13.426,13.426c-1.975,0-3.814,0.868-5.055,2.383
		c-6.795,8.306-14.889,14.174-20.479,17.634c-0.521,0.321-1.122-0.224-0.848-0.781c2.197-4.482,3.882-9.187,5.007-13.974
		c0.63-2.686-1.416-5.262-4.184-5.262h-12.219c-0.959,0-1.732,0.775-1.732,1.732s0.773,1.73,1.732,1.73h12.219
		c0.531,0,0.931,0.491,0.811,1.005c-1.063,4.534-2.662,8.989-4.745,13.239c-1.796,3.666,2.315,7.397,5.782,5.252
		c5.816-3.6,14.238-9.711,21.336-18.385c0.578-0.706,1.443-1.111,2.373-1.111c9.313,0,16.891-7.575,16.891-16.891v-2.732h3.676
		c9.313,0,16.891-7.576,16.891-16.892v-17.433c0-0.956-0.773-1.732-1.73-1.732s-1.732,0.776-1.732,1.732v17.433
		c0,7.403-6.021,13.426-13.426,13.426h-3.674v-36.752c0-9.313-7.577-16.891-16.893-16.891h-56.779v-2.732
		c0-7.401,6.021-13.427,13.426-13.427h63.92c7.402,0,13.426,6.023,13.426,13.427v17.435c0,0.956,0.775,1.729,1.732,1.729
		s1.73-0.773,1.73-1.729v-17.435C2446.465,1798.829,2438.888,1791.252,2429.574,1791.252L2429.574,1791.252z"/>
</g>
<g>
	<g>
		<g>
			<path fill="#010101" d="M29.374,8.107H6.22c-1.277,0.002-2.313,1.038-2.314,2.315v13.892c0.001,1.277,1.038,2.314,2.315,2.315
				h23.152c1.279-0.001,2.314-1.038,2.316-2.315V10.422C31.688,9.145,30.652,8.109,29.374,8.107z M30.763,24.314
				c0,0.767-0.623,1.39-1.389,1.39H6.22c-0.767,0-1.389-0.624-1.389-1.39V10.422c0-0.767,0.622-1.39,1.389-1.39h23.154
				c0.767,0,1.389,0.622,1.389,1.39V24.314z"/>
		</g>
	</g>
	<g>
		<g>
			<path fill="#38A7DF" d="M28.242,11.1c-0.115-0.19-0.364-0.252-0.554-0.138l-8.852,5.309c-0.641,0.386-1.439,0.386-2.079,0
				l-8.851-5.308c-0.193-0.111-0.441-0.045-0.551,0.148c-0.109,0.188-0.049,0.428,0.135,0.543l8.854,5.312
				c0.895,0.538,2.014,0.538,2.908,0l8.854-5.312C28.294,11.54,28.355,11.292,28.242,11.1z"/>
		</g>
	</g>
	<g>
		<g>
			<path fill="#38A7DF" d="M7.698,12.521c-0.223,0-0.404,0.182-0.404,0.404v10.502c0,0.224,0.182,0.404,0.404,0.404
				c0.224,0,0.403-0.181,0.403-0.404V12.925C8.103,12.702,7.923,12.521,7.698,12.521z"/>
		</g>
	</g>
	<g>
		<g>
			<path fill="#38A7DF" d="M27.896,12.521c-0.222,0-0.402,0.182-0.402,0.404v10.502c0,0.224,0.181,0.404,0.402,0.404
				c0.225,0,0.405-0.181,0.405-0.404V12.925C28.301,12.702,28.12,12.521,27.896,12.521z"/>
		</g>
	</g>
</g>
</svg>
