<?xml version="1.0" encoding="utf-8"?>
<!-- Generator: Adobe Illustrator 16.0.0, SVG Export Plug-In . SVG Version: 6.00 Build 0)  -->
<!DOCTYPE svg PUBLIC "-//W3C//DTD SVG 1.1//EN" "http://www.w3.org/Graphics/SVG/1.1/DTD/svg11.dtd">
<svg version="1.1" id="Layer_1" xmlns="http://www.w3.org/2000/svg" xmlns:xlink="http://www.w3.org/1999/xlink" x="0px" y="0px"
	 width="35px" height="35px" viewBox="0 0 35 35" enable-background="new 0 0 35 35" xml:space="preserve">
<g>
	<path fill="#010101" d="M27.33,25.166l-4.745-3.165c-0.603-0.398-1.409-0.267-1.855,0.302l-1.382,1.776
		c-0.178,0.235-0.501,0.304-0.758,0.16l-0.263-0.146c-0.872-0.476-1.957-1.067-4.142-3.252C12,18.655,11.407,17.571,10.933,16.7
		l-0.145-0.263c-0.145-0.258-0.078-0.581,0.156-0.76l1.776-1.382c0.568-0.445,0.699-1.252,0.301-1.854L9.858,7.694
		C9.451,7.082,8.632,6.897,8.001,7.277L6.017,8.469c-0.624,0.367-1.082,0.96-1.276,1.656c-0.714,2.604-0.177,7.097,6.441,13.717
		c5.266,5.267,9.186,6.682,11.879,6.682c0.622,0.003,1.237-0.079,1.836-0.241c0.696-0.194,1.291-0.652,1.658-1.275l1.192-1.984
		C28.128,26.392,27.944,25.574,27.33,25.166z M27.075,26.623l-1.19,1.984c-0.264,0.448-0.69,0.782-1.191,0.924
		c-2.404,0.66-6.604,0.114-12.958-6.24c-6.354-6.357-6.901-10.555-6.241-12.959c0.143-0.502,0.473-0.93,0.924-1.194l1.984-1.19
		C8.677,7.784,9.033,7.864,9.208,8.13l1.719,2.581l1.443,2.165c0.173,0.261,0.117,0.611-0.13,0.804l-1.776,1.382
		c-0.541,0.413-0.695,1.162-0.361,1.754l0.14,0.257c0.5,0.915,1.12,2.056,3.387,4.321s3.406,2.887,4.32,3.386l0.257,0.142
		c0.594,0.334,1.342,0.181,1.756-0.362l1.381-1.777c0.194-0.246,0.544-0.302,0.806-0.129l4.746,3.164
		C27.16,25.993,27.24,26.351,27.075,26.623z"/>
	<path fill="#38A7DF" d="M18.356,6.081c5.716,0.007,10.352,4.64,10.357,10.36c0,0.336,0.274,0.609,0.608,0.609
		c0.339,0,0.61-0.273,0.61-0.609C29.927,10.05,24.746,4.869,18.354,4.862c-0.336,0-0.609,0.272-0.609,0.609
		C17.746,5.809,18.02,6.081,18.356,6.081z"/>
	<path fill="#38A7DF" d="M18.356,9.738c3.699,0.004,6.697,3.003,6.702,6.704c0,0.336,0.273,0.609,0.609,0.609
		c0.335,0,0.608-0.273,0.608-0.609c-0.006-4.374-3.55-7.917-7.922-7.922c-0.336,0-0.609,0.272-0.609,0.609
		C17.746,9.464,18.02,9.738,18.356,9.738z"/>
	<path fill="#38A7DF" d="M18.356,13.395c1.681,0.002,3.043,1.365,3.046,3.047c0,0.336,0.272,0.609,0.608,0.609
		c0.335,0,0.607-0.273,0.607-0.609c-0.001-2.355-1.909-4.263-4.264-4.267c-0.336,0-0.609,0.273-0.609,0.609
		C17.746,13.122,18.02,13.395,18.356,13.395z"/>
</g>
</svg>
