<?xml version="1.0" encoding="utf-8"?>
<!-- Generator: Adobe Illustrator 16.0.0, SVG Export Plug-In . SVG Version: 6.00 Build 0)  -->
<!DOCTYPE svg PUBLIC "-//W3C//DTD SVG 1.1//EN" "http://www.w3.org/Graphics/SVG/1.1/DTD/svg11.dtd">
<svg version="1.1" id="Layer_1" xmlns="http://www.w3.org/2000/svg" xmlns:xlink="http://www.w3.org/1999/xlink" x="0px" y="0px"
	 width="35px" height="35px" viewBox="0 0 35 35" enable-background="new 0 0 35 35" xml:space="preserve">
<g>
	<path fill="#38A7DF" d="M2344.182,1850.476c0,3.729,3.033,6.762,6.762,6.762c3.729,0,6.764-3.033,6.764-6.762
		c0-3.729-3.035-6.763-6.764-6.763S2344.182,1846.746,2344.182,1850.476z M2354.242,1850.476c0,1.818-1.48,3.297-3.299,3.297
		s-3.297-1.479-3.297-3.297s1.479-3.298,3.297-3.298S2354.242,1848.657,2354.242,1850.476z"/>
	<path fill="#38A7DF" d="M2373.953,1850.476c0-3.729-3.033-6.763-6.762-6.763c-3.729,0-6.763,3.033-6.763,6.763
		c0,3.729,3.034,6.762,6.763,6.762S2373.953,1854.204,2373.953,1850.476z M2363.893,1850.476c0-1.818,1.48-3.298,3.299-3.298
		s3.297,1.479,3.297,3.298s-1.479,3.297-3.297,3.297S2363.893,1852.294,2363.893,1850.476L2363.893,1850.476z"/>
	<path fill="#38A7DF" d="M2390.201,1850.476c0-3.729-3.034-6.763-6.763-6.763c-3.729,0-6.763,3.033-6.763,6.763
		c0,3.729,3.033,6.762,6.763,6.762C2387.167,1857.237,2390.201,1854.204,2390.201,1850.476z M2380.141,1850.476
		c0-1.818,1.479-3.298,3.297-3.298s3.299,1.479,3.299,3.298s-1.48,3.297-3.299,3.297S2380.141,1852.294,2380.141,1850.476
		L2380.141,1850.476z"/>
	<path fill="#38A7DF" d="M2406.447,1850.476c0-3.729-3.033-6.763-6.762-6.763c-3.729,0-6.763,3.033-6.763,6.763
		c0,3.729,3.034,6.762,6.763,6.762S2406.447,1854.204,2406.447,1850.476z M2396.387,1850.476c0-1.818,1.479-3.298,3.299-3.298
		c1.817,0,3.297,1.479,3.297,3.298s-1.479,3.297-3.297,3.297C2397.866,1853.772,2396.387,1852.294,2396.387,1850.476z"/>
	<path fill="#010101" d="M2429.574,1791.252h-63.92c-9.313,0-16.891,7.577-16.891,16.892v2.732h-3.674
		c-9.313,0-16.891,7.577-16.891,16.891v42.95c0,9.313,7.577,16.891,16.891,16.891h18.059c0.957,0,1.732-0.775,1.732-1.732
		s-0.775-1.732-1.732-1.732h-18.059c-7.402,0-13.426-6.023-13.426-13.426v-42.95c0-7.402,6.023-13.426,13.426-13.426h63.92
		c7.402,0,13.426,6.023,13.426,13.426v42.95c0,7.402-6.023,13.426-13.426,13.426c-1.974,0-3.815,0.868-5.055,2.382
		c-6.795,8.305-14.887,14.173-20.478,17.633c-0.521,0.322-1.122-0.222-0.848-0.781c2.197-4.482,3.882-9.185,5.007-13.974
		c0.63-2.684-1.416-5.26-4.184-5.26h-12.219c-0.958,0-1.732,0.775-1.732,1.732s0.774,1.732,1.732,1.732h12.219
		c0.532,0,0.931,0.491,0.811,1.003c-1.065,4.536-2.662,8.991-4.745,13.241c-1.796,3.666,2.315,7.397,5.782,5.252
		c5.816-3.6,14.238-9.711,21.336-18.385c0.578-0.706,1.443-1.111,2.373-1.111c9.313,0,16.891-7.577,16.891-16.891v-2.733h3.674
		c9.313,0,16.891-7.577,16.891-16.891v-17.433c0-0.956-0.775-1.732-1.732-1.732s-1.732,0.776-1.732,1.732v17.433
		c0,7.403-6.022,13.426-13.426,13.426h-3.674v-36.752c0-9.313-7.577-16.891-16.891-16.891h-56.781v-2.732
		c0-7.403,6.023-13.427,13.426-13.427h63.92c7.403,0,13.426,6.023,13.426,13.427v17.433c0,0.956,0.775,1.731,1.732,1.731
		s1.732-0.775,1.732-1.731v-17.433C2446.465,1798.829,2438.888,1791.252,2429.574,1791.252L2429.574,1791.252z"/>
</g>
<g>
	<path fill="#010101" d="M6.796,26.487c-0.461,0-0.904,0.115-1.298,0.329c-2.071-2.654-3.209-5.953-3.209-9.334
		c0-8.374,6.811-15.185,15.186-15.185c1.017,0,2.034,0.101,3.023,0.3c0.348,0.071,0.688-0.154,0.758-0.503
		c0.07-0.348-0.154-0.687-0.503-0.758C19.68,1.121,18.577,1.01,17.475,1.01c-4.401,0-8.537,1.713-11.648,4.824
		c-3.111,3.112-4.824,7.248-4.824,11.648c0,3.701,1.257,7.313,3.544,10.208c-0.294,0.438-0.453,0.956-0.453,1.498
		c0,0.723,0.281,1.399,0.792,1.911c0.509,0.51,1.188,0.791,1.91,0.791c0.722,0,1.4-0.281,1.911-0.791
		c0.51-0.512,0.791-1.188,0.791-1.911c0-0.722-0.281-1.401-0.791-1.91C8.196,26.769,7.518,26.487,6.796,26.487z M7.797,30.189
		c-0.267,0.268-0.623,0.415-1.001,0.415s-0.733-0.147-1.001-0.415c-0.267-0.267-0.415-0.622-0.415-1.001
		c0-0.378,0.147-0.733,0.415-1.001c0.268-0.267,0.623-0.414,1.001-0.414s0.733,0.147,1.001,0.414
		c0.268,0.268,0.414,0.623,0.414,1.001C8.211,29.567,8.064,29.923,7.797,30.189z"/>
	<path fill="#010101" d="M30.399,7.273c0.699-1.049,0.589-2.484-0.337-3.409c-0.512-0.51-1.189-0.792-1.912-0.792
		c-0.721,0-1.4,0.281-1.909,0.792c-0.512,0.51-0.792,1.189-0.792,1.911s0.28,1.4,0.792,1.911c0.509,0.511,1.188,0.792,1.909,0.792
		c0.463,0,0.905-0.115,1.299-0.331c2.071,2.657,3.209,5.956,3.209,9.336c0,8.373-6.812,15.185-15.184,15.185
		c-1.009,0-2.017-0.099-2.996-0.295c-0.349-0.071-0.688,0.155-0.757,0.503c-0.069,0.351,0.156,0.688,0.504,0.759
		c1.063,0.212,2.156,0.319,3.249,0.319c4.398,0,8.534-1.713,11.646-4.825c3.111-3.109,4.825-7.247,4.825-11.646
		C33.945,13.78,32.688,10.169,30.399,7.273z M27.149,6.776c-0.268-0.267-0.414-0.623-0.414-1.001c0-0.378,0.146-0.733,0.414-1.001
		c0.269-0.267,0.624-0.415,1.001-0.415c0.379,0,0.734,0.148,1.002,0.415c0.552,0.552,0.552,1.451,0,2.002
		C28.885,7.043,28.529,7.19,28.15,7.19C27.773,7.19,27.418,7.043,27.149,6.776z"/>
	<path fill="#38A7DF" d="M14.818,28.548c0,0.355,0.289,0.646,0.644,0.646h4.023c0.355,0,0.644-0.29,0.644-0.646V27.3
		c0.846-0.227,1.654-0.562,2.414-0.999l0.881,0.88c0.12,0.121,0.284,0.188,0.455,0.188c0.17,0,0.335-0.067,0.455-0.188l2.844-2.845
		c0.251-0.253,0.251-0.659,0-0.91l-0.88-0.88c0.438-0.761,0.773-1.569,1.001-2.414h1.242c0.355,0,0.645-0.289,0.645-0.646v-4.022
		c0-0.355-0.289-0.643-0.645-0.643h-1.242c-0.228-0.846-0.563-1.655-1.001-2.415l0.875-0.875c0.12-0.121,0.188-0.285,0.188-0.455
		c0-0.171-0.068-0.334-0.188-0.456l-2.846-2.844c-0.252-0.251-0.658-0.251-0.91,0l-0.874,0.874c-0.76-0.437-1.568-0.773-2.414-1.001
		V6.415c0-0.355-0.288-0.644-0.644-0.644h-4.023c-0.355,0-0.644,0.288-0.644,0.644v1.236c-0.846,0.228-1.654,0.563-2.415,1
		L11.53,7.777c-0.25-0.25-0.659-0.251-0.91,0l-2.845,2.844c-0.121,0.121-0.189,0.284-0.189,0.455c0,0.17,0.068,0.334,0.189,0.455
		l0.875,0.875c-0.438,0.76-0.773,1.569-1.001,2.415h-1.24c-0.355,0-0.644,0.288-0.644,0.643l-0.002,4.022
		c0,0.172,0.068,0.336,0.188,0.455c0.121,0.123,0.284,0.19,0.456,0.19h1.243c0.228,0.845,0.563,1.653,1.001,2.414l-0.88,0.88
		c-0.25,0.251-0.251,0.657,0,0.91l2.844,2.845c0.121,0.121,0.284,0.188,0.455,0.188l0,0c0.17,0,0.334-0.067,0.455-0.188l0.88-0.88
		c0.761,0.438,1.569,0.772,2.415,0.999V28.548z M12.656,24.948c-0.254-0.166-0.589-0.129-0.804,0.085l-0.784,0.782l-1.934-1.935
		l0.782-0.783c0.214-0.214,0.25-0.55,0.085-0.805c-0.583-0.901-0.993-1.893-1.218-2.94c-0.064-0.297-0.326-0.509-0.629-0.509H7.049
		l0.001-2.736h1.104c0.303,0,0.565-0.212,0.629-0.508c0.225-1.049,0.635-2.038,1.218-2.941c0.165-0.254,0.129-0.59-0.085-0.805
		L9.14,11.077l1.935-1.934l0.777,0.777c0.214,0.214,0.549,0.25,0.804,0.085c0.903-0.583,1.892-0.993,2.941-1.218
		c0.296-0.064,0.508-0.326,0.508-0.63V7.058h2.737v1.099c0,0.304,0.211,0.565,0.508,0.629c1.049,0.226,2.039,0.635,2.941,1.219
		c0.254,0.165,0.59,0.129,0.805-0.085l0.776-0.777l1.935,1.934l-0.777,0.777c-0.214,0.215-0.25,0.55-0.085,0.805
		c0.584,0.903,0.993,1.892,1.219,2.941c0.064,0.296,0.326,0.508,0.63,0.508h1.105v2.736h-1.105c-0.304,0-0.565,0.212-0.63,0.509
		c-0.226,1.048-0.635,2.039-1.219,2.94c-0.165,0.255-0.129,0.591,0.085,0.805l0.784,0.783l-1.935,1.935l-0.783-0.782
		c-0.215-0.214-0.551-0.251-0.805-0.085c-0.902,0.582-1.893,0.993-2.941,1.218c-0.297,0.064-0.508,0.325-0.508,0.629v1.109h-2.737
		v-1.109c0-0.304-0.212-0.564-0.508-0.629C14.548,25.941,13.559,25.53,12.656,24.948z"/>
	<path fill="#38A7DF" d="M22.79,17.482c0-2.932-2.384-5.316-5.315-5.316c-2.933,0-5.317,2.385-5.317,5.316
		c0,2.93,2.384,5.317,5.317,5.317C20.406,22.799,22.79,20.412,22.79,17.482z M13.444,17.482c0-2.222,1.808-4.03,4.031-4.03
		c2.222,0,4.029,1.808,4.029,4.03c0,2.223-1.808,4.031-4.029,4.031C15.251,21.513,13.444,19.705,13.444,17.482z"/>
	<path fill="#010101" d="M23.398,3.444c0.169,0,0.335-0.069,0.455-0.188c0.118-0.121,0.188-0.286,0.188-0.456
		c0-0.168-0.069-0.334-0.188-0.455c-0.12-0.119-0.286-0.188-0.455-0.188c-0.171,0-0.336,0.069-0.455,0.188
		c-0.12,0.121-0.188,0.286-0.188,0.455c0,0.17,0.068,0.335,0.188,0.456C23.063,3.375,23.228,3.444,23.398,3.444z"/>
	<path fill="#010101" d="M11.577,31.532c-0.169,0-0.335,0.067-0.455,0.188c-0.121,0.119-0.188,0.285-0.188,0.455
		s0.068,0.336,0.188,0.455c0.119,0.119,0.286,0.188,0.455,0.188s0.335-0.068,0.455-0.188c0.12-0.119,0.189-0.287,0.189-0.455
		c0-0.17-0.069-0.336-0.189-0.455C11.913,31.6,11.746,31.532,11.577,31.532z"/>
</g>
</svg>
