<?xml version="1.0" encoding="utf-8"?>
<!-- Generator: Adobe Illustrator 16.0.0, SVG Export Plug-In . SVG Version: 6.00 Build 0)  -->
<!DOCTYPE svg PUBLIC "-//W3C//DTD SVG 1.1//EN" "http://www.w3.org/Graphics/SVG/1.1/DTD/svg11.dtd">
<svg version="1.1" id="Layer_1" xmlns="http://www.w3.org/2000/svg" xmlns:xlink="http://www.w3.org/1999/xlink" x="0px" y="0px"
	 width="35px" height="35px" viewBox="0 0 35 35" enable-background="new 0 0 35 35" xml:space="preserve">
<g>
	<path fill="#38A7DF" d="M2344.182,1850.476c0,3.729,3.033,6.763,6.762,6.763c3.729,0,6.765-3.033,6.765-6.763
		c0-3.729-3.035-6.763-6.765-6.763C2347.215,1843.713,2344.182,1846.746,2344.182,1850.476z M2354.242,1850.476
		c0,1.818-1.48,3.298-3.299,3.298c-1.819,0-3.298-1.479-3.298-3.298c0-1.817,1.479-3.298,3.298-3.298
		C2352.761,1847.178,2354.242,1848.657,2354.242,1850.476z"/>
	<path fill="#38A7DF" d="M2373.953,1850.476c0-3.729-3.033-6.763-6.762-6.763c-3.729,0-6.764,3.033-6.764,6.763
		s3.034,6.763,6.764,6.763C2370.92,1857.238,2373.953,1854.204,2373.953,1850.476z M2363.893,1850.476c0-1.817,1.48-3.298,3.3-3.298
		s3.297,1.479,3.297,3.298c0,1.819-1.479,3.298-3.297,3.298C2365.374,1853.773,2363.893,1852.294,2363.893,1850.476
		L2363.893,1850.476z"/>
	<path fill="#38A7DF" d="M2390.201,1850.476c0-3.729-3.034-6.763-6.764-6.763c-3.729,0-6.763,3.033-6.763,6.763
		s3.033,6.763,6.763,6.763C2387.167,1857.237,2390.201,1854.204,2390.201,1850.476z M2380.141,1850.476
		c0-1.817,1.479-3.298,3.298-3.298c1.817,0,3.299,1.479,3.299,3.298c0,1.819-1.479,3.298-3.299,3.298
		S2380.141,1852.294,2380.141,1850.476L2380.141,1850.476z"/>
	<path fill="#38A7DF" d="M2406.447,1850.476c0-3.729-3.033-6.763-6.762-6.763c-3.729,0-6.764,3.033-6.764,6.763
		s3.034,6.763,6.764,6.763C2403.414,1857.238,2406.447,1854.204,2406.447,1850.476z M2396.387,1850.476
		c0-1.817,1.479-3.298,3.299-3.298c1.817,0,3.298,1.479,3.298,3.298c0,1.819-1.479,3.298-3.298,3.298
		C2397.866,1853.771,2396.387,1852.294,2396.387,1850.476z"/>
	<path fill="#010101" d="M2429.574,1791.252h-63.92c-9.313,0-16.892,7.577-16.892,16.892v2.732h-3.674
		c-9.313,0-16.892,7.577-16.892,16.891v42.95c0,9.313,7.577,16.891,16.892,16.891h18.06c0.957,0,1.731-0.774,1.731-1.731
		s-0.774-1.732-1.731-1.732h-18.06c-7.402,0-13.426-6.022-13.426-13.426v-42.95c0-7.401,6.022-13.426,13.426-13.426h63.92
		c7.402,0,13.426,6.023,13.426,13.426v42.95c0,7.402-6.022,13.426-13.426,13.426c-1.974,0-3.815,0.868-5.055,2.382
		c-6.795,8.306-14.888,14.174-20.479,17.634c-0.521,0.321-1.122-0.223-0.848-0.781c2.197-4.482,3.882-9.186,5.007-13.974
		c0.63-2.685-1.416-5.261-4.184-5.261h-12.219c-0.959,0-1.732,0.775-1.732,1.732s0.773,1.731,1.732,1.731h12.219
		c0.531,0,0.931,0.491,0.811,1.004c-1.064,4.535-2.662,8.99-4.745,13.24c-1.796,3.666,2.315,7.397,5.782,5.252
		c5.816-3.6,14.238-9.711,21.336-18.385c0.578-0.706,1.443-1.111,2.373-1.111c9.313,0,16.891-7.576,16.891-16.891v-2.732h3.675
		c9.313,0,16.891-7.577,16.891-16.892v-17.433c0-0.956-0.774-1.732-1.731-1.732s-1.732,0.776-1.732,1.732v17.433
		c0,7.403-6.021,13.426-13.426,13.426h-3.674v-36.752c0-9.313-7.577-16.891-16.892-16.891h-56.78v-2.732
		c0-7.402,6.022-13.427,13.426-13.427h63.92c7.402,0,13.426,6.023,13.426,13.427v17.434c0,0.956,0.775,1.73,1.732,1.73
		s1.731-0.774,1.731-1.73v-17.434C2446.465,1798.829,2438.888,1791.252,2429.574,1791.252L2429.574,1791.252z"/>
</g>
<g>
	<path fill="#38A7DF" d="M29.89-46.074c2.108,0,3.816-1.709,3.816-3.818c0-2.108-1.708-3.817-3.816-3.817
		c-2.109,0-3.817,1.709-3.817,3.817C26.074-47.785,27.782-46.078,29.89-46.074z M29.89-52.226c1.293,0,2.34,1.048,2.34,2.341
		c0,1.293-1.047,2.341-2.34,2.341c-1.292,0-2.341-1.048-2.341-2.341C27.549-51.177,28.598-52.225,29.89-52.226z"/>
	<path fill="#38A7DF" d="M29.89-44.664c-1.562-0.012-3.061,0.615-4.149,1.734c-1.108,1.13-1.714,2.666-1.714,4.335
		c0.001,0.407,0.331,0.736,0.739,0.738h10.248c0.408-0.002,0.737-0.331,0.738-0.738c0-1.669-0.605-3.205-1.713-4.335
		C32.95-44.048,31.451-44.675,29.89-44.664z M25.555-39.333c0.127-0.965,0.563-1.863,1.241-2.562
		c0.816-0.827,1.931-1.292,3.094-1.292c1.162,0,2.276,0.465,3.093,1.292c0.678,0.698,1.113,1.597,1.241,2.562H25.555z"/>
	<path d="M38.751-63.87H21.029c-2.039,0.001-3.692,1.653-3.692,3.692v26.139c0,2.038,1.653,3.691,3.692,3.692h17.722
		c2.038-0.001,3.69-1.654,3.691-3.692v-26.139C42.441-62.217,40.789-63.869,38.751-63.87z M40.966-34.039
		c-0.004,1.222-0.994,2.212-2.215,2.215H21.029c-1.223-0.003-2.213-0.993-2.216-2.215v-26.139c0.003-1.222,0.993-2.212,2.216-2.215
		h17.722c1.221,0.003,2.211,0.993,2.215,2.215V-34.039z"/>
	<path d="M26.811-58.916h5.907c0.407,0,0.737-0.33,0.737-0.738c0-0.408-0.33-0.738-0.737-0.738h-5.907
		c-0.408,0-0.738,0.331-0.738,0.738C26.072-59.246,26.402-58.916,26.811-58.916z"/>
</g>
<g>
	<g>
		<g>
			<path fill="#38A7DF" d="M29.371,15.086c-1.357-3.208-4.727-3.955-7.986-4.676c-0.516-0.115-1.051-0.233-1.566-0.359
				c-0.492-0.12-1.636-0.478-1.541-1.236c0.088-0.683,1.158-1.623,2.711-1.602c1.475,0.027,2.547,0.957,3.498,1.777
				c0.805,0.696,1.504,1.299,2.326,1.197c0.895-0.107,1.678-0.794,1.951-1.703c0.34-1.121-0.119-2.324-1.262-3.3
				c-2.127-1.815-4.682-2.518-8.047-2.212c-1.563,0.14-3.02,0.736-4.1,1.681c-1.234,1.078-1.971,2.58-2.13,4.343
				c-0.167,1.78,0.675,3.345,2.436,4.525c1.788,1.193,3.958,1.655,5.097,1.823c1.838,0.272,3.285,0.905,3.521,1.541
				c0.098,0.27-0.029,0.609-0.383,1.013c-1.383,1.574-4.197,0.611-5.014,0.098c-0.203-0.125-0.463-0.409-0.74-0.714
				c-0.696-0.763-1.648-1.807-3.027-1.719c-0.929,0.065-1.699,0.644-2.008,1.513c-0.412,1.15,0.039,2.491,1.205,3.586
				c1.659,1.553,3.466,2.531,7.045,2.531c0.369,0,0.756-0.011,1.164-0.03l0,0c2.607-0.138,5.119-1.544,6.395-3.585
				C29.824,18.133,29.984,16.539,29.371,15.086z M27.885,18.931c-1.057,1.686-3.238,2.899-5.426,3.014
				c-3.955,0.206-5.677-0.642-7.313-2.172c-0.8-0.754-1.133-1.607-0.892-2.286c0.149-0.412,0.5-0.678,0.942-0.708
				c0.028-0.001,0.056-0.001,0.081-0.001c0.755,0,1.37,0.674,1.964,1.326c0.337,0.368,0.654,0.716,0.999,0.928
				c0.561,0.351,1.686,0.787,2.828,0.912c1.582,0.176,2.877-0.256,3.746-1.245c0.832-0.954,0.789-1.741,0.609-2.233
				c-0.586-1.587-3.332-2.156-4.488-2.327c-1.762-0.26-3.435-0.856-4.596-1.63c-1.388-0.929-2.028-2.072-1.901-3.4
				c0.301-3.316,2.848-4.719,5.129-4.923c3.053-0.276,5.26,0.318,7.145,1.926c0.766,0.657,1.084,1.375,0.887,2.022
				c-0.137,0.448-0.521,0.796-0.934,0.845c-0.291,0.036-0.867-0.467-1.385-0.908c-0.994-0.861-2.355-2.041-4.275-2.074
				c-0.943-0.013-1.877,0.256-2.619,0.758c-0.748,0.505-1.228,1.201-1.317,1.91c-0.056,0.451-0.047,1.968,2.46,2.574
				c0.531,0.127,1.07,0.248,1.592,0.363c3.094,0.684,6.018,1.333,7.131,3.961C28.83,16.938,28.373,18.152,27.885,18.931z"/>
		</g>
	</g>
</g>
<path d="M71.3,26.414c0,4.504-3.68,8.154-8.22,8.154c-1.44,0-2.794-0.368-3.973-1.014L54.558,35l1.483-4.377
	c-0.748-1.229-1.178-2.671-1.178-4.211c0-4.504,3.678-8.154,8.218-8.154C67.62,18.259,71.3,21.91,71.3,26.414z M63.079,19.559
	c-3.81,0-6.909,3.075-6.909,6.856c0,1.5,0.489,2.89,1.316,4.02l-0.862,2.545l2.654-0.843c1.092,0.716,2.398,1.133,3.801,1.133
	c3.811,0,6.91-3.075,6.91-6.855C69.99,22.634,66.89,19.559,63.079,19.559z"/>
<path d="M20.924,28.231c-0.102-0.161-0.363-0.259-0.76-0.456c-0.393-0.193-2.333-1.142-2.696-1.271
	c-0.363-0.131-0.628-0.195-0.89,0.194c-0.26,0.393-1.017,1.274-1.249,1.538c-0.229,0.264-0.46,0.298-0.855,0.103
	c-0.396-0.2-1.668-0.611-3.176-1.941c-1.174-1.042-1.968-2.322-2.194-2.717c-0.233-0.391-0.025-0.603,0.171-0.797
	c0.177-0.176,0.395-0.458,0.592-0.688c0.197-0.227,0.265-0.392,0.396-0.652c0.129-0.262,0.063-0.488-0.035-0.688
	c-0.095-0.196-0.885-2.122-1.215-2.906c-0.328-0.783-0.657-0.653-0.888-0.653c-0.23,0-0.495-0.031-0.756-0.031
	c-0.265,0-0.693,0.094-1.051,0.487c-0.361,0.392-1.381,1.338-1.381,3.266c0,1.93,1.412,3.791,1.611,4.053
	c0.197,0.26,2.731,4.344,6.744,5.912c4.017,1.566,4.017,1.045,4.739,0.979c0.724-0.066,2.335-0.946,2.665-1.858
	C21.023,29.183,21.023,28.397,20.924,28.231z"/>
<g>
	<g>
		<path d="M73.756-0.148c-0.175-0.174-0.459-0.174-0.635,0c-0.177,0.177-0.177,0.461,0,0.638c0,0,0,0.002,0.002,0.002
			c0.088,0.088,0.202,0.13,0.316,0.13s0.231-0.044,0.318-0.132C73.934,0.314,73.933,0.029,73.756-0.148z"/>
	</g>
</g>
<g>
	<g>
		<path d="M76.979,9.716c-0.114-0.242-0.159-0.51-0.125-0.772c0.07-0.53,0.1-1.072,0.09-1.608c-0.034-2.087-0.671-4.105-1.834-5.839
			c-0.14-0.207-0.418-0.262-0.626-0.123c-0.205,0.138-0.26,0.417-0.122,0.624c1.066,1.59,1.648,3.442,1.683,5.354
			c0.008,0.492-0.02,0.989-0.082,1.476c-0.058,0.436,0.013,0.876,0.204,1.275c0.365,0.768,0.547,1.591,0.539,2.448
			c-0.021,3.058-2.522,5.563-5.578,5.588c-0.865,0.008-1.691-0.173-2.463-0.543c-0.385-0.181-0.816-0.249-1.248-0.189
			c-0.44,0.061-0.889,0.09-1.334,0.09c-5.494,0-9.965-4.471-9.965-9.965c0-0.439,0.029-0.886,0.089-1.321
			c0.058-0.436-0.011-0.871-0.195-1.255c-0.372-0.773-0.558-1.603-0.552-2.467c0.017-3.073,2.531-5.583,5.602-5.594
			c0.862-0.006,1.688,0.182,2.459,0.552c0.398,0.191,0.838,0.262,1.271,0.207c0.485-0.063,0.981-0.091,1.473-0.082
			c1.918,0.035,3.775,0.62,5.367,1.694c0.206,0.139,0.485,0.083,0.625-0.123c0.139-0.206,0.084-0.486-0.122-0.625
			c-1.737-1.17-3.762-1.81-5.855-1.847c-0.534-0.01-1.073,0.021-1.603,0.088c-0.262,0.034-0.527-0.009-0.766-0.125
			c-0.887-0.424-1.836-0.641-2.825-0.641c-0.008,0-0.017,0-0.026,0c-3.564,0.015-6.48,2.926-6.5,6.49
			c-0.006,1.002,0.209,1.965,0.641,2.863c0.109,0.227,0.148,0.485,0.115,0.746c-0.064,0.476-0.096,0.96-0.096,1.441
			c0,2.902,1.128,5.629,3.181,7.683c2.053,2.052,4.78,3.181,7.683,3.181c0.484,0,0.973-0.031,1.453-0.096
			c0.26-0.035,0.516,0.006,0.741,0.111c0.88,0.416,1.823,0.631,2.802,0.631c0.02,0,0.037,0,0.056,0
			c3.546-0.029,6.449-2.938,6.473-6.484C77.611,11.563,77.4,10.608,76.979,9.716z"/>
	</g>
</g>
</svg>
