<?xml version="1.0" encoding="utf-8"?>
<!-- Generator: Adobe Illustrator 16.0.0, SVG Export Plug-In . SVG Version: 6.00 Build 0)  -->
<!DOCTYPE svg PUBLIC "-//W3C//DTD SVG 1.1//EN" "http://www.w3.org/Graphics/SVG/1.1/DTD/svg11.dtd">
<svg version="1.1" id="Capa_1" xmlns="http://www.w3.org/2000/svg" xmlns:xlink="http://www.w3.org/1999/xlink" x="0px" y="0px"
	 width="487px" height="500px" viewBox="257.5 0 487 500" enable-background="new 257.5 0 487 500" xml:space="preserve">
<g>
	<g>
		<path fill="#FFFFFF" d="M621.125,130.344l-109.375-125C508.781,1.969,504.5,0,500,0s-8.781,1.969-11.75,5.344l-109.375,125
			c-4.031,4.625-5.031,11.156-2.469,16.75c2.531,5.563,8.094,9.156,14.219,9.156h62.5v203.125c0,8.625,7,15.625,15.625,15.625h62.5
			c8.625,0,15.625-7,15.625-15.625V156.25h62.5c6.125,0,11.688-3.563,14.219-9.156S625.188,134.938,621.125,130.344z"/>
	</g>
</g>
<g>
	<g>
		<path fill="#FFFFFF" d="M671.875,343.75v93.75h-343.75v-93.75h-62.5v125c0,17.281,14,31.25,31.25,31.25h406.25
			c17.281,0,31.25-13.969,31.25-31.25v-125H671.875z"/>
	</g>
</g>
</svg>
