<?xml version="1.0" encoding="utf-8"?>
<!-- Generator: Adobe Illustrator 16.0.0, SVG Export Plug-In . SVG Version: 6.00 Build 0)  -->
<!DOCTYPE svg PUBLIC "-//W3C//DTD SVG 1.1//EN" "http://www.w3.org/Graphics/SVG/1.1/DTD/svg11.dtd">
<svg version="1.1" id="Layer_1" xmlns="http://www.w3.org/2000/svg" xmlns:xlink="http://www.w3.org/1999/xlink" x="0px" y="0px"
	 width="35px" height="35px" viewBox="0 0 35 35" enable-background="new 0 0 35 35" xml:space="preserve">
<g>
	<path fill="#010101" d="M8.149,13.427c0,1.083,0.758,1.995,1.776,2.239c0.106,2.896,1.842,5.38,4.315,6.563v0.019
		c0.009,0.002,0.018,0.005,0.027,0.008c0.368,0.134,0.729,0.283,1.093,0.429c0.001-0.009,0.002-0.018,0.002-0.025
		c4.901,1.442,9.717-2.302,9.717-7.23v-4.64c0-2.188-1.779-3.967-3.967-3.967h-7.226c-2.188,0-3.967,1.78-3.967,3.967v3.674
		c-0.379-0.196-0.638-0.587-0.638-1.037v-2.944c0-7.913,6.309-10.199,12.21-8.142l-0.454,0.186
		c-0.541,0.223-0.427,1.026,0.155,1.088l0.996,0.107c1.918,0.205,3.612,1.205,4.699,2.758c-0.713,0.867-1.101,1.945-1.101,3.081
		v3.866c0,0.313,0.254,0.567,0.567,0.567c0.312,0,0.565-0.254,0.565-0.567V9.561c0-0.986,0.382-1.914,1.072-2.614
		c0.104-0.107,0.146-0.223,0.162-0.359c0.026-0.22-0.075-0.358-0.13-0.446c-1.074-1.704-2.744-2.895-4.681-3.368
		c0.309-0.26,0.253-0.764-0.12-0.944C19.4-0.01,14.2-0.209,10.957,2.917c-2.626,2.532-2.839,6.134-2.808,7.572V13.427z
		 M11.053,10.79c0-1.563,1.271-2.834,2.833-2.834h7.226c1.563,0,2.834,1.271,2.834,2.834v4.596c0,3.555-2.892,6.446-6.447,6.446
		c-3.554,0-6.446-2.892-6.446-6.446V10.79z"/>
	<g>
		<path fill="#38A7DF" d="M23.237,31.601h-1.7c-0.313,0-0.566,0.254-0.566,0.565c0,0.313,0.254,0.567,0.566,0.567h1.7
			c0.313,0,0.567-0.254,0.567-0.567C23.805,31.854,23.551,31.601,23.237,31.601z"/>
		<path fill="#38A7DF" d="M18.412,24.476c-1.189,0.26-2.393-0.005-3.346-0.66c0.079-0.176,0.144-0.358,0.193-0.545
			c-0.355-0.143-0.708-0.289-1.065-0.421c-0.219,1.081-1.175,1.891-2.321,1.891c-3.234,0-5.85,2.616-5.85,5.85v3.348
			c0,0.313,0.254,0.566,0.566,0.566c0.313,0,0.567-0.253,0.567-0.566V30.59c0-2.606,2.109-4.716,4.716-4.716
			c-0.212,0,1.368,0.166,2.563-1.115c1.208,0.824,2.725,1.149,4.216,0.824c0.307-0.065,0.501-0.368,0.434-0.674
			S18.718,24.41,18.412,24.476z"/>
		<path fill="#38A7DF" d="M23.126,24.74c-0.835,0-1.592-0.424-2.025-1.138c-0.163-0.267-0.512-0.351-0.778-0.188
			c-0.269,0.163-0.353,0.512-0.189,0.778c0.641,1.054,1.76,1.682,2.993,1.682c2.606,0,4.717,2.109,4.717,4.716v3.348
			c0,0.313,0.254,0.566,0.566,0.566s0.566-0.253,0.566-0.566V30.59C28.976,27.356,26.359,24.74,23.126,24.74z"/>
	</g>
</g>
</svg>
