<?xml version="1.0" encoding="utf-8"?>
<!-- Generator: Adobe Illustrator 16.0.0, SVG Export Plug-In . SVG Version: 6.00 Build 0)  -->
<!DOCTYPE svg PUBLIC "-//W3C//DTD SVG 1.1//EN" "http://www.w3.org/Graphics/SVG/1.1/DTD/svg11.dtd">
<svg version="1.1" id="Layer_1" xmlns="http://www.w3.org/2000/svg" xmlns:xlink="http://www.w3.org/1999/xlink" x="0px" y="0px"
	 width="697.475px" height="515px" viewBox="0 -86.198 697.475 515" enable-background="new 0 -86.198 697.475 515"
	 xml:space="preserve">
<g id="health_fitness-graphic" transform="translate(-619.079 -118.368)">
	<g id="Symbols" transform="translate(1072 215.731)">
		<g id="Scene_Plants" transform="translate(-495 -14)">
			<g id="Top-Leaves" transform="translate(495)">
				<path id="Leaf" fill="#F2F2F2" d="M214.634,203.828c-2.983-9.951-9.988-17.74-17.26-24.877
					c-14.154-13.893-21.768-22.482-26.813-42.809c-2.967-11.952-5.986-24.618-15.396-33.29c-6.853-6.314-18.645-11.62-27.808-7.099
					c-14.098,8.414-17.882,25.684-16.461,41.143c1.762,19.164,10.713,30.979,27.91,38.037c9.689,3.976,16.131,9.221,21.391,18.36
					c4.207,7.309,6.66,16.461,11.947,23.086c7.904,9.904,17.792,14.309,29.988,12.662c-11.42-21.012-24.759-42.222-40.854-59.907
					c-1.507-1.778-10.392-8.586-8.6-11.617c1.974-3.338,11.096,9.199,11.031,9.124c4.677,5.368,9.004,11.073,13.25,16.834
					c-0.011,0.004-0.023,0.008-0.036,0.012c4.374,5.91,8.699,11.903,12.975,17.979c1.722,2.569,3.397,5.17,5.003,7.838
					c2.354,3.913,6.091,15.019,9.944,17.425c0.697,0.456,1.478,0.77,2.297,0.921c2.629,4.305,5.187,8.644,7.619,13.034
					c6.354,11.465,11.807,23.572,14.309,36.518c0.73,3.778,0.214,17.91,2.793,20.639c4.715,4.987,3.336-4.619,3.052-7.518
					c-2.342-24.014-10.963-44.473-23.479-64.66c3.845-5.022,4.4-17.805,3.192-21.836"/>
				<path id="Leaf-2" fill="#F2F2F2" d="M53.13,215.43c4.971-5.855,16.922-6.851,24.23-6.459c9.043,0.484,18.334,2.687,26.938,5.348
					c14.174,4.386,27.943,12.391,40.429,20.132c1.505,0.933,20.038,12.078,18.396,14.034c-1.622,1.934-19.821-11.304-23.873-13.583
					c-8.652-4.87-16.588-10.631-26.125-13.849c-9.908-3.221-20.285-4.763-30.702-4.563c-1.332,0.011-5.677-0.916-5.773,1.054
					c-0.092,1.929,7.102,0.923,8.371,0.935c5.256,0.053,10.498,0.537,15.674,1.449c9.616,1.646,18.813,5.174,27.062,10.383
					c-2.312,5.377-7.856,7.855-13.672,6.511c-5.024-1.164-9.925-4.032-14.847-4.861c-3.368-0.525-6.812-0.278-10.069,0.724
					c-8.671,2.52-13.671,7.681-23.202,4.09c-7.474-2.814-19.972-12.927-12.836-21.352"/>
				<path id="Leaf-Me-Alone_" fill="#F2F2F2" d="M58.753,160.001h2.353c-0.125-2.986-0.42-5.963-0.885-8.915
					c-1.891-11.063-7.8-27.311-20.766-29.105c-1.456-0.079-2.915-0.064-4.369,0.045c-1.025-0.566-2.164-0.899-3.334-0.974
					c-11.038-0.806-23.365,8-28.688,17.172c-4.292,7.391-3.569,17.1-0.918,24.95c1.775,5.258,5.649,12.753,12.111,12.827
					c8.084,0.091,8.475-9.794,8.63-15.571c0.208-7.683,1.189-14.374,7.309-19.611c1.426-1.22,2.984-2.293,4.425-3.5
					c2.256-1.883,4.748-3.811,5.039-6.926c0.4-4.3-2.051-5.071-5.8-4.272c-0.639,0.137-7.067,2.99-6.115,0.734
					c0.291-0.689,1.352-1.235,2.692-1.644c3.467-0.373,7.6-0.807,8.79-0.548c12.832,2.787,17.825,20.365,19.152,31.537
					C58.529,157.46,58.649,158.729,58.753,160.001z"/>
			</g>
		</g>
	</g>
	<g id="Group_40" transform="translate(619.079 118.368)">
		<path id="Path_344" fill="#28AAE1" d="M627.841,401.177c0-18.7-9.489-33.859-21.192-33.859c-7.357,0-13.836,5.991-17.637,15.083
			c-1.283-0.533-2.659-0.809-4.05-0.813c-3.543,0-6.819,1.814-9.49,4.888c-3.425-11.337-10.688-19.158-19.1-19.158
			c-7.861,0-14.717,6.844-18.376,17c-2.033-1.715-4.595-2.679-7.254-2.728c-8.983,0-16.266,11.633-16.266,25.984
			c-0.037,4.783,0.833,9.531,2.563,13.991h106.524C626.46,415.163,627.92,408.204,627.841,401.177z"/>
		<path id="Path_345" fill="#F2F2F2" d="M551.862,205.656c-16.69-36.105-49.354-66.906-88.812-71.927
			c-10.433-1.327-21.326-0.795-31.005,3.317c-12.706,5.4-22.07,16.292-31.535,26.342c-20.039,21.272-42.464,40.164-66.831,56.3
			c-12.025,7.962-24.925,15.392-39.2,17.429c-28.628,4.085-56.945-15.438-70-41.241c-8.156-16.118-11.925-35.043-18.518-51.809
			c-7.593-0.015-16.639-0.012-26.372,0.033c-26.9,0.124-48.8,0.521-48.8,0.521s26.028-34.478,48.7-21.7
			c7.246,4.082,14.835,7.725,21.81,10.793c-3.812-7.707-9.209-14.522-15.839-19.998c-13.557-10.872-31.92-13.922-49.279-13.112
			c-18.229,0.851-36.625,5.731-51.437,16.39c-26.387,18.987-37.284,52.408-46.61,83.551l22.543,11.3
			c9.669-8.36,23.809-16.629,36.842-9.287c22.672,12.778,48.717,21.259,48.717,21.259s-21.72-0.199-48.622-0.071
			c-4.518,0.021-8.89,0.05-13.046,0.083l250.28,125.468c82.551,1.163,144.792-3.3,223.233,0
			c4.091,0.172,13.293-21.272,13.323-26.916C571.621,282.604,568.552,241.761,551.862,205.656z M471.706,216.478
			c-26.9,0.124-48.8,0.521-48.8,0.521s26.027-34.478,48.7-21.7c22.672,12.777,48.72,21.255,48.72,21.255s-21.72-0.2-48.623-0.072
			L471.706,216.478z"/>
		<path id="Path_346" opacity="0.3" fill="#28AAE1" enable-background="new    " d="M541.805,334.471
			c0-13.6-8.418-24.619-18.8-24.619c-6.526,0-12.274,4.356-15.646,10.967c-1.158-0.391-2.371-0.59-3.594-0.591
			c-3.159,0.054-6.176,1.327-8.419,3.555c-3.039-8.243-9.482-13.931-16.941-13.931c-6.975,0-13.058,4.976-16.3,12.359
			c-1.904-1.278-4.143-1.968-6.436-1.983c-7.969,0-14.43,8.459-14.43,18.894c-0.023,3.52,0.754,6.998,2.272,10.173h94.505
			c2.534-4.526,3.842-9.637,3.792-14.824L541.805,334.471z"/>
		<path id="Path_347" fill="#2F2E41" d="M627.841,422.544H47.669v-1.163H627.26L627.841,422.544z"/>
		<path id="Path_348" fill="#2F2E41" d="M580.172,350.459H0v-1.163h579.591L580.172,350.459z"/>
		<path id="Path_349" fill="#FFB8B8" d="M246.271,243.435c0,0,3.654-26.8,9.744-19.488c6.09,7.313,0,18.271,0,18.271l-4.872,6.09
			l-4.872-3.654V243.435z"/>
		<path id="Path_350" fill="#1D99CE" d="M231.655,251.96c0,0,12.18-13.4,14.616-10.962c2.436,2.438,9.744,3.653,8.526,8.525
			c-1.218,4.872-26.798,20.711-26.798,20.711L231.655,251.96z"/>
		<path id="Path_351" opacity="0.1" fill="#28AAE1" enable-background="new    " d="M231.655,251.96c0,0,12.18-13.4,14.616-10.962
			c2.436,2.438,9.744,3.653,8.526,8.525c-1.218,4.872-26.798,20.711-26.798,20.711L231.655,251.96z"/>
		<path id="Path_352" fill="#FFB8B8" d="M162.229,250.742v9.743c0,0-1.218,21.925,6.09,20.706
			c7.308-1.218,3.654-19.487,3.654-19.487l-1.218-10.962H162.229z"/>
		<path id="Path_353" fill="#FFB8B8" d="M165.883,321.386c0,0-10.962,17.052-14.616,18.271c-3.654,1.218-23.142,12.18-25.578,23.142
			l-17.052,21.924l8.526,10.962c0,0,38.976-41.411,49.938-45.065c10.962-3.655,21.924-21.925,21.924-21.925L165.883,321.386z"/>
		<path id="Path_354" fill="#FFB8B8" d="M252.361,293.372c0,0,23.142,3.653,19.488,18.27c-3.654,14.616-38.976,45.062-38.976,45.062
			l-1.218,7.308l-13.4,2.436l-6.09-6.09l1.218-3.653c0,0,14.616-13.4,15.834-18.271c1.218-4.87,14.616-24.36,20.706-25.578
			l-8.526-4.872L252.361,293.372z"/>
		<path id="Path_355" fill="#2F2E41" d="M112.292,384.721c0,0,4.872-7.308-2.436-6.09s-12.18,2.436-12.18,7.308
			s6.09,38.977,13.4,36.54c7.31-2.436,1.218-13.399,1.218-13.399s3.654-9.744,6.09-10.962c2.436-1.219,2.436-7.309,0-7.309
			S111.074,387.157,112.292,384.721z"/>
		<path id="Path_356" fill="#2F2E41" d="M215.821,357.926c0,0,0-6.09-4.872,0c-4.872,6.09-7.308,10.962-2.436,14.616
			c4.872,3.654,21.924,12.18,21.924,12.18s18.27,3.654,15.834-4.872c0,0-12.18-6.09-12.18-10.962s0-13.399-3.654-10.962
			C226.783,360.365,215.821,361.58,215.821,357.926z"/>
		<path id="Path_357" fill="#2F2E41" d="M192.68,266.576c0,0-17.052,2.436-15.834,26.8c0,0-21.924,21.924-15.834,29.231
			c6.09,7.309,19.488,20.706,24.36,17.053c4.872-3.654,19.488-31.668,19.488-31.668s34.1,12.18,40.194,6.09
			c6.094-6.09,12.18-20.706,12.18-20.706l-30.45-15.834L192.68,266.576z"/>
		<circle id="Ellipse_32" fill="#FFB8B8" cx="240.181" cy="182.535" r="14.616"/>
		<path id="Path_358" fill="#FFB8B8" d="M229.219,183.749c0,0-8.526,13.399-10.962,14.615c-2.436,1.217,17.052,13.4,17.052,13.4
			s0-15.834,6.09-19.488L229.219,183.749z"/>
		<path id="Path_359" fill="#28AAE1" d="M227.996,197.154c0,0-19.488-6.09-23.142,3.654s-12.18,28.014-10.962,40.194
			c1.218,12.18,3.654,9.744,0,13.399c-3.654,3.656-6.09,1.219-4.872,6.091c1.218,4.871,2.436,4.871,1.218,7.308
			c-1.218,2.436,14.616,10.962,28.014,12.18l13.4,1.218c0,0,0-21.924,2.436-26.8c2.436-4.876,7.308-14.615,7.308-18.27v-9.674
			c0-6.436-1.679-12.759-4.872-18.347l0,0C236.524,208.108,229.218,197.154,227.996,197.154z"/>
		<path id="Path_360" fill="#259ACB" d="M213.385,202.023c0,0-45.066,3.654-49.937,15.834c-4.871,12.181-7.308,36.54-2.436,36.54
			c4.872,0,10.962,2.437,12.18,0c1.218-2.436,6.09-26.8,7.308-26.8c1.218,0,37.758-3.654,37.758-3.654
			S234.091,204.459,213.385,202.023z"/>
		<path id="Path_361" fill="#2F2E41" d="M240.768,178.912c0,0,3.879-6.74,8.727-0.887c4.848,5.854,12.735-4.899,11.525-7.199
			c-1.21-2.301-5.486,0.1-12.814-2.292c-7.328-2.393-21.442-7.275-23.806,8.643c-2.364,15.918,3.266,14.249,3.266,14.249
			s2.581-14.105,4.913-10.054l2.332,4.052l2.023,0.5L240.768,178.912z"/>
		<circle id="Ellipse_33" fill="#2F2E41" cx="378.629" cy="123.782" r="17.832"/>
		<path id="Path_362" fill="#9F616A" d="M372.929,136.982c0,0,0.923,16.61-0.923,16.61s11.534,7.843,11.534,7.843l8.3-4.614v-5.532
			c0,0-11.073-1.385-6.459-13.38C389.995,125.912,372.929,136.982,372.929,136.982z"/>
		<path id="Path_363" fill="#9F616A" d="M334.172,319.229l-1.384,13.843l4.614,1.384l3.69-3.691l1.384-11.535H334.172z"/>
		<path id="Path_364" fill="#9F616A" d="M400.612,327.073l2.307,8.766l6.459,4.153l6.921-3.691l-7.844-12.919L400.612,327.073z"/>
		<circle id="Ellipse_34" fill="#9F616A" cx="377.312" cy="130.752" r="13.38"/>
		<path id="Path_365" fill="#9F616A" d="M369.237,180.813l-3.23-1.384c0,0-5.537-3.229-6-9.688s4.614-14.765,4.614-14.765
			l7.382-2.307l8.673,7.059l0.094,11.4L369.237,180.813z"/>
		<path id="Path_366" fill="#9F616A" d="M366.008,155.898l-1.846-0.923c0,0-9.229-0.461-10.151,10.612s-4.151,29.529-4.151,29.529
			s-7.383,12.919-6.922,26.76l-3.69,12c0,0-5.075,17.533,0.923,17.533s5.537-18.917,5.537-18.917s11.073-26.761,12-31.374
			c0.927-4.614,8.766-26.301,6.459-32.301S366.008,155.898,366.008,155.898z"/>
		<path id="Path_367" fill="#9F616A" d="M372.928,184.966v5.075c0,0,3.23,3.69,1.846,6c-1.135,2.216-2.062,4.533-2.769,6.921
			l6.459,10.15l21.685,1.847l4.313-28.893L372.928,184.966z"/>
		<path id="Path_368" fill="#9F616A" d="M393.23,152.668l3.69-1.847c0,0,7.844-5.536,14.3-6.459l19.84-13.38l12.92-30.913
			c0,0-0.462-16.609,3.229-14.764s3.229,16.149,3.229,16.149s-6.921,28.605-12.919,36.449c-5.997,7.845-27.683,20.763-27.683,20.763
			s-6,6.921-5.537,10.15C404.764,172.048,393.23,152.668,393.23,152.668z"/>
		<path id="Path_369" fill="#2F2E41" d="M376.158,202.96c-2.67-1.728-6.234-0.963-7.961,1.706c-0.125,0.193-0.238,0.395-0.339,0.601
			c-3.23,5.537-9.229,6.921-12.919,23.531c-3.691,16.61-12.457,42.909-14.765,44.755c-2.307,1.846-12,21.224-6.46,48.446h9.229
			l7.844-39.218c0,0,25.376-31.374,27.222-44.293l8.3,48.445c0,0,0.461,18.455,7.383,27.223l7.382,17.532l9.688-4.613
			l-11.072-44.293c0,0,5.536-44.756,1.846-57.213l-0.53-16.332C401.005,209.238,385.847,209.88,376.158,202.96z"/>
		<path id="Path_370" fill="#2F2E41" d="M337.402,330.764h-5.537c-0.923,0-8.3,6-5.075,9.229c3.225,3.228,8.3,9.228,8.3,9.228
			s17.994,2.289,18.455-0.94c0.461-3.23-7.844-10.133-7.844-10.133l-2.307-7.382C343.395,330.765,338.786,325.689,337.402,330.764z"
			/>
		<path id="Path_371" fill="#2F2E41" d="M410.762,335.378c0,0-7.844-0.461-9.228-0.923s-4.153,12,0,12.919
			s21.224,2.307,21.224,2.307s13.38-0.461,12.457-4.151c-0.923-3.691-18.912-11.074-18.912-11.074S413.992,329.841,410.762,335.378z
			"/>
		<path id="Path_372" fill="#28AAE1" d="M374.309,152.207l-2.307-1.384l-2.768,2.307c0,0,8.3,5.537,6.459,10.612
			c-1.842,5.074-9.689,15.687-9.689,15.687s6.921,7.844,6.921,10.612c0,0,17.994-6.459,31.374,0c0,0,0-9.229,1.845-11.073
			c1.846-1.845,2.769-8.3-1.845-13.842c-3.25-4.074-6.181-8.394-8.766-12.919l-4.614-2.769l-2.376,0.754
			c0,0,4.683,5.244,0.069,5.706C383.998,156.361,376.62,154.976,374.309,152.207z"/>
		<path id="Path_373" fill="#2F2E41" d="M391.662,93.38c-1.568,1.75-3.715,2.874-6.046,3.167c-4.031,0.576-0.864,6.91-0.864,6.91
			c-0.648-1.533-0.175-3.312,1.152-4.318C388.207,97.123,391.662,95.971,391.662,93.38z"/>
		<circle id="Ellipse_35" fill="#2F2E41" cx="383.891" cy="104.781" r="4.97"/>
		<path id="Path_374" fill="#28AAE1" d="M389.692,109.675c-3.839-2.005-10.444-3.583-13.953-3.47l0.888-3.395
			c3.107,2.111,9.677,3.717,13.953,3.471L389.692,109.675z"/>
		<path id="Path_375" fill="#2F2E41" d="M381.76,109.973c-4.706,5.253-11.151,8.629-18.149,9.507
			c-12.101,1.729-2.594,20.742-2.594,20.742s-3.457-6.914,3.457-12.964S381.76,117.751,381.76,109.973z"/>
		<path id="Path_376" fill="#2F2E41" d="M382.222,109.516c0,0,3.457,12.101,8.644,13.828c5.186,1.729,2.593,19.878-6.05,21.607
			c0,0,7.346-9.939,3.024-17.719C383.52,119.454,380.926,113.401,382.222,109.516z"/>
		<rect id="Rectangle_81" x="431.755" y="89.228" fill="#2F2E41" width="31.836" height="3.691"/>
		<ellipse id="Ellipse_36" fill="#2F2E41" cx="463.591" cy="91.073" rx="2.769" ry="11.073"/>
		<ellipse id="Ellipse_37" fill="#2F2E41" cx="431.755" cy="91.073" rx="2.769" ry="11.073"/>
		<rect id="Rectangle_82" x="447.904" y="337.463" fill="#2F2E41" width="31.836" height="3.69"/>
		<ellipse id="Ellipse_38" fill="#2F2E41" cx="479.739" cy="339.308" rx="2.768" ry="11.073"/>
		<ellipse id="Ellipse_39" fill="#2F2E41" cx="447.904" cy="339.308" rx="2.768" ry="11.073"/>
		<path id="Path_377" opacity="0.3" fill="#28AAE1" enable-background="new    " d="M112.779,334.471
			c0-13.6-8.418-24.619-18.8-24.619c-6.527,0-12.275,4.356-15.646,10.967c-1.158-0.391-2.371-0.59-3.593-0.591
			c-3.16,0.054-6.177,1.327-8.419,3.555c-3.039-8.243-9.483-13.931-16.942-13.931c-6.974,0-13.057,4.976-16.3,12.359
			c-1.904-1.278-4.142-1.968-6.435-1.983c-7.969,0-14.43,8.459-14.43,18.894c-0.023,3.52,0.754,6.998,2.273,10.173h94.505
			c2.534-4.526,3.841-9.637,3.792-14.824L112.779,334.471z"/>
	</g>
</g>
</svg>
