<?xml version="1.0" encoding="utf-8"?>
<!-- Generator: Adobe Illustrator 16.0.0, SVG Export Plug-In . SVG Version: 6.00 Build 0)  -->
<!DOCTYPE svg PUBLIC "-//W3C//DTD SVG 1.1//EN" "http://www.w3.org/Graphics/SVG/1.1/DTD/svg11.dtd">
<svg version="1.1" id="Layer_1" xmlns="http://www.w3.org/2000/svg" xmlns:xlink="http://www.w3.org/1999/xlink" x="0px" y="0px"
	 width="760px" height="515.25px" viewBox="0 0 760 515.25" enable-background="new 0 0 760 515.25" xml:space="preserve">
<g id="Group_39" transform="translate(750.181 112.064)">
	<path id="Path_230" opacity="0.1" fill="#6C63FF" enable-background="new    " d="M-653.63,153.64
		c21.753,27.659,13.301,68.056-0.518,100.421c-4.633,10.837-9.862,22.296-7.932,33.914c2.39,14.2,15.064,24.595,28.378,30.1
		c24.771,9.995,52.811,7.686,75.611-6.23c19.264-11.99,33.072-31.484,52.669-42.925c32.803-19.146,74.55-11.917,110.166,1.274
		c25.2,9.329,52.749,21.465,77.782,11.716c17.616-6.864,29.796-23.564,36.434-41.271c3.203-8.542,5.528-17.799,11.648-24.576
		c3.798-3.897,8.291-7.051,13.246-9.299c44.401-22.016,100.476-10.228,143.602-34.639c29.123-16.477,47.77-47.594,56.024-80.029
		c8.256-32.435,7.322-66.447,5.203-99.848c-1.488-23.741-4.162-49.082-19.329-67.404c-16.048-19.378-43.589-26.59-68.477-22.905
		c-24.888,3.686-47.448,16.813-67.3,32.269c-24.804,19.33-47.807,43.394-78.266,51.252c-20.745,5.333-42.56,2.441-63.951,1.406
		c-35.762-1.687-71.536,2.068-107.102,6.175c-34.047,3.938-68.335,8.269-100.773,19.343c-22.949,7.809-41.339,22.039-63.012,31.954
		c-14.126,6.479-29.527,8.268-42.913,16.523c-16.477,10.169-31.586,27.85-27.368,48.544
		C-685.785,129.09-665.174,138.959-653.63,153.64z"/>
	<path id="Path_231" fill="none" stroke="#535461" stroke-width="2" stroke-miterlimit="10" d="M-574.718,274.549
		c0,0-2.013-59.651-34.284-93.355c-13.627-14.046-22.329-32.134-24.797-51.547c-1.102-9.226-1.354-18.534-0.757-27.805"/>
	<path id="Path_232" fill="#6C63FF" d="M-654.771,80.499c2.209,6.663,20.67,21.966,20.67,21.966s5.656-23.314,3.448-29.971
		c-2.209-6.661-9.399-10.27-16.06-8.06c-6.661,2.208-10.27,9.399-8.06,16.059L-654.771,80.499z"/>
	<path id="Path_233" fill="#6C63FF" d="M-662.447,123.999c5.492,4.394,29.287,7.206,29.287,7.206s-7.933-22.638-13.423-27.031
		c-5.653-4.156-13.605-2.943-17.762,2.71c-3.916,5.327-3.092,12.769,1.896,17.109L-662.447,123.999z"/>
	<path id="Path_234" fill="#6C63FF" d="M-640.694,186.753c6.944,1.025,28.928-8.542,28.928-8.542s-18.268-15.547-25.212-16.571
		c-6.943-1.027-13.402,3.768-14.429,10.711c-1.025,6.942,3.771,13.401,10.712,14.429L-640.694,186.753z"/>
	<path id="Path_235" fill="#6C63FF" d="M-613.53,230.526c6.669,2.185,29.959-3.553,29.959-3.553s-15.382-18.407-22.051-20.592
		c-6.676-2.166-13.842,1.489-16.008,8.165c-2.153,6.641,1.453,13.775,8.075,15.979L-613.53,230.526z"/>
	<path id="Path_236" fill="#6C63FF" d="M-607.428,124.101c-3.233,6.224-23.903,18.42-23.903,18.42s-1.88-23.912,1.361-30.142
		c3.206-6.24,10.866-8.7,17.106-5.494c6.239,3.207,8.7,10.865,5.492,17.106c-0.019,0.038-0.038,0.077-0.059,0.115L-607.428,124.101z
		"/>
	<path id="Path_237" fill="#6C63FF" d="M-576.304,175.696c-4.955,4.974-28.312,10.415-28.312,10.415s5.362-23.382,10.313-28.354
		c4.991-4.931,13.035-4.882,17.966,0.109c4.876,4.936,4.89,12.87,0.032,17.823L-576.304,175.696z"/>
	<path id="Path_238" fill="#6C63FF" d="M-552.935,229.996c-4.04,5.735-26.146,15.054-26.146,15.054s1.331-23.947,5.376-29.691
		c3.85-5.864,11.725-7.498,17.591-3.647c5.864,3.85,7.499,11.726,3.648,17.592c-0.157,0.239-0.322,0.473-0.495,0.7L-552.935,229.996
		z"/>
	<path id="Path_239" fill="#6C63FF" d="M-291.127,234.046c0,0-9.688-3.283-14.351,5.254c-2.499,4.703-2.421,10.358,0.208,14.991
		c3.051,5.534,9.371,12.723,21.355,12.081c10.141-0.542,13.484-8.281,14.413-15.479c1.131-8.708-5.011-16.686-13.721-17.817
		c-2.493-0.324-5.029-0.052-7.397,0.794L-291.127,234.046z"/>
	<path id="Path_240" opacity="0.1" fill="#FFFFFF" enable-background="new    " d="M-303.22,255.061
		c-2.628-4.633-2.707-10.287-0.207-14.992c4.66-8.542,14.35-5.252,14.35-5.252l0.493-0.179c3.696-1.337,7.759-1.246,11.391,0.257
		c-4.058-2.415-8.984-2.885-13.426-1.281l-0.494,0.178c0,0-9.688-3.283-14.351,5.252c-2.499,4.704-2.421,10.358,0.209,14.992
		c2.398,4.589,6.266,8.239,10.982,10.372C-298.054,262.169-301.15,258.937-303.22,255.061z"/>
	<path id="Path_241" opacity="0.2" enable-background="new    " d="M-296.131,238.154c0,0,3.596,2.823,12.314,0"/>
	<path id="Path_242" fill="#6C63FF" d="M-296.9,217.626c0,0,6.157,16.677,5.645,21.038l4.882-0.514c0,0-8.213-14.643-6.155-20.528
		L-296.9,217.626z"/>
	<path id="Path_243" opacity="0.2" enable-background="new    " d="M-296.9,217.626c0,0,6.157,16.677,5.645,21.038l4.882-0.514
		c0,0-8.213-14.643-6.155-20.528L-296.9,217.626z"/>
	<path id="Path_244" fill="#6C63FF" d="M-271.767,219.019c0,0-9.689-4.955-14.034-0.861c-4.346,4.095-5.003,14.559-5.003,14.559
		S-274.995,234.888-271.767,219.019z"/>
	<path id="Path_245" opacity="0.1" fill="#FFFFFF" enable-background="new    " d="M-271.767,219.019c0,0-9.689-4.955-14.034-0.861
		c-4.346,4.095-5.003,14.559-5.003,14.559S-274.995,234.888-271.767,219.019z"/>
	<path id="Path_246" fill="none" stroke="#6C63FF" stroke-miterlimit="10" d="M-290.797,232.716c0,0,2.546-12.148,19.031-13.697"/>
	<path id="Path_247" fill="none" stroke="#535461" stroke-width="2" stroke-miterlimit="10" d="M-569.318,160.021
		c0,0,1.977-32.252-13.685-52.071c-6.623-8.271-10.385-18.465-10.72-29.055c-0.118-5.03,0.224-10.061,1.023-15.028"/>
	<path id="Path_248" fill="#6C63FF" d="M-602.493,51.321c0.845,3.704,10.013,12.905,10.013,12.905s4.272-12.276,3.398-15.975
		c-1.005-3.669-4.796-5.829-8.465-4.823c-3.443,0.944-5.595,4.361-4.958,7.875L-602.493,51.321z"/>
	<path id="Path_249" fill="#6C63FF" d="M-608.875,74.372c2.729,2.647,15.419,5.394,15.419,5.394s-3.106-12.613-5.833-15.254
		c-2.76-2.611-7.113-2.49-9.725,0.27c-2.561,2.708-2.5,6.964,0.139,9.597V74.372z"/>
	<path id="Path_250" fill="#6C63FF" d="M-600.356,109.318c3.655,0.91,16.028-3.13,16.028-3.13s-9.047-9.316-12.733-10.227
		c-3.688-0.91-7.416,1.343-8.327,5.032c-0.909,3.688,1.343,7.416,5.033,8.326L-600.356,109.318z"/>
	<path id="Path_251" fill="#6C63FF" d="M-587.971,134.299c3.485,1.52,16.328-0.378,16.328-0.378s-7.322-10.714-10.827-12.204
		c-3.474-1.534-7.533,0.039-9.067,3.513c-1.534,3.474,0.039,7.534,3.513,9.066c0.021,0.009,0.041,0.019,0.062,0.027
		L-587.971,134.299z"/>
	<path id="Path_252" fill="#6C63FF" d="M-579.214,77.262c-2.064,3.192-13.826,8.695-13.826,8.695s0.213-12.983,2.281-16.17
		c2.112-3.158,6.384-4.006,9.542-1.894c3.093,2.068,3.98,6.223,2.003,9.375V77.262z"/>
	<path id="Path_253" fill="#6C63FF" d="M-565.096,106.663c-2.923,2.441-15.798,4.162-15.798,4.162s4.088-12.326,7.017-14.754
		c2.924-2.424,7.261-2.019,9.685,0.906c2.425,2.925,2.02,7.262-0.906,9.686H-565.096z"/>
	<path id="Path_254" fill="#6C63FF" d="M-555.285,137.128c-2.47,2.887-14.864,6.773-14.864,6.773s1.947-12.813,4.424-15.724
		c2.473-2.884,6.816-3.217,9.701-0.744c2.885,2.473,3.217,6.817,0.744,9.701L-555.285,137.128z"/>
	<path id="Path_255" opacity="0.5" fill="#FFFFFF" enable-background="new    " d="M-602.493,51.321
		c0.845,3.704,10.013,12.905,10.013,12.905s4.272-12.276,3.398-15.975c-1.005-3.669-4.796-5.829-8.465-4.823
		c-3.443,0.944-5.595,4.361-4.958,7.875L-602.493,51.321z"/>
	<path id="Path_256" opacity="0.5" fill="#FFFFFF" enable-background="new    " d="M-608.875,74.372
		c2.729,2.647,15.419,5.394,15.419,5.394s-3.106-12.613-5.833-15.254c-2.76-2.611-7.113-2.49-9.725,0.27
		c-2.561,2.708-2.5,6.964,0.139,9.597V74.372z"/>
	<path id="Path_257" opacity="0.5" fill="#FFFFFF" enable-background="new    " d="M-600.356,109.318
		c3.655,0.91,16.028-3.13,16.028-3.13s-9.047-9.316-12.733-10.227c-3.688-0.91-7.416,1.343-8.327,5.032
		c-0.909,3.688,1.343,7.416,5.033,8.326L-600.356,109.318z"/>
	<path id="Path_258" opacity="0.5" fill="#FFFFFF" enable-background="new    " d="M-587.971,134.299
		c3.485,1.52,16.328-0.378,16.328-0.378s-7.322-10.714-10.827-12.204c-3.474-1.534-7.533,0.039-9.067,3.513
		c-1.534,3.474,0.039,7.534,3.513,9.066c0.021,0.009,0.041,0.019,0.062,0.027L-587.971,134.299z"/>
	<path id="Path_259" opacity="0.5" fill="#FFFFFF" enable-background="new    " d="M-579.214,77.262
		c-2.064,3.192-13.826,8.695-13.826,8.695s0.213-12.983,2.281-16.17c2.112-3.158,6.384-4.006,9.542-1.894
		c3.093,2.068,3.98,6.223,2.003,9.375V77.262z"/>
	<path id="Path_260" opacity="0.5" fill="#FFFFFF" enable-background="new    " d="M-565.096,106.663
		c-2.923,2.441-15.798,4.162-15.798,4.162s4.088-12.326,7.017-14.754c2.924-2.424,7.261-2.019,9.685,0.906
		c2.425,2.925,2.02,7.262-0.906,9.686H-565.096z"/>
	<path id="Path_261" opacity="0.5" fill="#FFFFFF" enable-background="new    " d="M-555.285,137.128
		c-2.47,2.887-14.864,6.773-14.864,6.773s1.947-12.813,4.424-15.724c2.473-2.884,6.816-3.217,9.701-0.744
		c2.885,2.473,3.217,6.817,0.744,9.701L-555.285,137.128z"/>
	
		<linearGradient id="Path_262_1_" gradientUnits="userSpaceOnUse" x1="-670.0616" y1="564.3647" x2="-670.0616" y2="565.7709" gradientTransform="matrix(219.108 0 0 -149.26 146587.25 84360.3203)">
		<stop  offset="0" style="stop-color:#808080;stop-opacity:0.251"/>
		<stop  offset="0.54" style="stop-color:#808080;stop-opacity:0.122"/>
		<stop  offset="1" style="stop-color:#808080;stop-opacity:0.102"/>
	</linearGradient>
	<path id="Path_262" fill="url(#Path_262_1_)" d="M-382.688-86.556v209.871h308.083V-86.556H-382.688z"/>
	<rect id="Rectangle_62" x="-378.117" y="-77.039" fill="#FFFFFF" width="300.249" height="196.552"/>
	<rect id="Rectangle_63" x="-378.117" y="-86.386" fill="#EEEEEE" width="300.249" height="14.462"/>
	<circle id="Ellipse_22" fill="#FF5252" cx="-366.695" cy="-79.375" r="3.508"/>
	<circle id="Ellipse_23" fill="#FFFF00" cx="-357.048" cy="-79.375" r="3.508"/>
	<circle id="Ellipse_24" fill="#69F0AE" cx="-347.408" cy="-79.375" r="3.508"/>
	
		<rect id="Rectangle_64" x="-366.61" y="-48.764" opacity="0.5" fill="#6C63FF" enable-background="new    " width="111.887" height="4.661"/>
	
		<rect id="Rectangle_65" x="-366.61" y="-39.44" opacity="0.5" fill="#6C63FF" enable-background="new    " width="111.887" height="4.662"/>
	
		<rect id="Rectangle_66" x="-366.61" y="-30.116" opacity="0.5" fill="#6C63FF" enable-background="new    " width="111.887" height="4.661"/>
	
		<rect id="Rectangle_67" x="-328.048" y="-20.794" opacity="0.5" fill="#6C63FF" enable-background="new    " width="73.317" height="4.661"/>
	
		<rect id="Rectangle_68" x="-366.61" y="-11.464" opacity="0.5" fill="#6C63FF" enable-background="new    " width="58.911" height="4.661"/>
	
		<rect id="Rectangle_69" x="-334.826" y="-2.141" opacity="0.5" fill="#6C63FF" enable-background="new    " width="45.347" height="4.661"/>
	
		<rect id="Rectangle_70" x="-239.892" y="-16.126" opacity="0.5" fill="#6C63FF" enable-background="new    " width="131.808" height="75.861"/>
	<rect id="Rectangle_71" x="-224.21" y="-8.925" fill="#EEEEEE" width="131.808" height="75.861"/>
	<path id="Path_263" fill="#6C63FF" d="M-150.465,66.917h-73.745V53.042C-206.193,44.622-178.472,39.893-150.465,66.917z"/>
	<g id="Group_35" transform="translate(359.36 103.451)" opacity="0.1">
		<path id="Path_264" d="M-452.611-38.499v1.968h-91.97v-0.421C-544.581-36.953-499.325-80.992-452.611-38.499z"/>
	</g>
	<path id="Path_265" fill="#6C63FF" d="M-92.402,64.952v1.968h-91.971v-0.421C-184.373,66.498-139.116,22.459-92.402,64.952z"/>
	<circle id="Ellipse_25" fill="#6C63FF" cx="-208.95" cy="4.638" r="6.779"/>
	<path id="Path_266" fill="#F4F4F4" d="M-151.222-0.5c-0.774,0-1.641,0-2.228,0.049c-0.265,0.014-0.525,0.068-0.774,0.159
		l-3.99,1.434c3.222,0.078,6.583,0.055,9.879,0l18.512-0.141c1.886,0,3.875-0.031,5.449-0.141c1.056-0.073,1.827-0.189,2.801-0.281
		c3.503-0.311,8.615-0.25,13.18-0.238c3.9,0.129,7.808-0.059,11.678-0.563h-9.793c-1.056,0-2.167,0-3.094-0.054
		c-1.093-0.061-1.758-0.184-2.715-0.269c-1.586-0.14-3.771-0.152-5.808-0.159C-129.287-0.707-140.313-0.438-151.222-0.5z"/>
	<path id="Path_267" fill="#F4F4F4" d="M-140.234,7.731h-0.481c-0.057,0.004-0.111,0.017-0.165,0.037l-0.866,0.311h2.138
		l4.009-0.031c0.408,0,0.837,0,1.179-0.032l0.61-0.06c0.756-0.067,1.867-0.055,2.855-0.049c0.846,0.028,1.692-0.013,2.531-0.123
		h-2.79c-0.201,0-0.378-0.042-0.61-0.054c-0.342,0-0.818-0.031-1.258-0.036C-135.487,7.683-137.872,7.731-140.234,7.731z"/>
	<path id="Path_268" fill="#F4F4F4" d="M-168.63,19.595h-0.483c-0.056,0.004-0.111,0.016-0.164,0.036l-0.866,0.311h2.141l4.01-0.031
		c0.409,0,0.835,0,1.178-0.03l0.61-0.062c0.756-0.067,1.867-0.054,2.855-0.048c0.847,0.028,1.692-0.013,2.531-0.123h-2.793
		c-0.202,0-0.379-0.042-0.611-0.055c-0.342,0-0.817-0.031-1.257-0.037C-163.872,19.551-166.263,19.605-168.63,19.595z"/>
	<path id="Path_269" fill="#6C63FF" d="M-184.58,63.176h-3.167c0,0-0.994-34.853,3.186-45.61h0.8
		C-183.762,17.566-186.568,57.007-184.58,63.176z"/>
	<path id="Path_270" fill="#6C63FF" d="M-186.771,15.78c0,0-2.587,7.171-1.391,10.373c0,0,1.794-6.573,3.887-7.567
		c2.092-0.994,4.271,7.567,4.271,7.567c0.671-3.28,0.324-6.686-0.994-9.763c2.802,1.659,5.08,4.074,6.572,6.969
		c0,0,0.396-2.989-4.781-9.152c2.773,0.785,5.352,2.142,7.566,3.985c0,0,0.994-2.191-5.18-5.778c0,0,0.799-2.587,5.576-1.391
		c0,0,0-3.386-7.566-2.788c0,0,0-2.191,4.979-1.794c0,0,0-2.788-5.778-1.794c0.542-0.833,1.214-1.572,1.989-2.191
		c-0.996-0.092-1.99,0.193-2.787,0.798c0.098-2.056-0.984-3.988-2.789-4.979l-0.396,4.979c0,0-3.349-3.948-2.587-3.185
		c0.48,1.2,0.689,2.492,0.611,3.782c-2.275-1.657-5.383-1.575-7.567,0.201c0,0,5.181,0.397,5.973,2.191c0,0-4.38-0.798-5.374-0.201
		c0,0,3.386,1.221,3.184,1.99c0,0-5.973,0-6.773,2.191c0,0,6.175,0.798,6.573,1.39c0,0-7.172,5.18-7.567,6.573
		c0,0,7.371-4.382,8.543-4.382c1.171,0-5.376,6.377-4.979,7.968C-193.539,21.766-188.163,15.376-186.771,15.78z"/>
	<path id="Path_271" fill="#6C63FF" d="M-145.268,61.878h2.441c0,0,0.762-26.627-2.441-34.847h-0.61
		C-145.878,27.031-143.749,57.155-145.268,61.878z"/>
	<path id="Path_272" fill="#6C63FF" d="M-143.596,25.659c0,0,1.978,5.492,1.067,7.932c0,0-1.366-5.021-2.965-5.785
		c-1.6-0.764-3.271,5.785-3.271,5.785c-0.503-2.504-0.236-5.102,0.762-7.453c-2.142,1.268-3.882,3.114-5.021,5.326
		c0,0-0.305-2.282,3.655-6.998c-2.123,0.592-4.096,1.633-5.783,3.051c0,0-0.763-1.672,3.953-4.411c0,0-0.609-1.977-4.271-1.067
		c0,0,0-2.587,5.784-2.129c0,0,0-1.671-3.796-1.366c0,0,0-2.129,4.41-1.367c-0.408-0.639-0.922-1.204-1.518-1.672
		c0.761-0.07,1.521,0.147,2.129,0.61c-0.073-1.568,0.754-3.041,2.128-3.797l0.307,3.797c0,0,2.555-3.015,1.976-2.44
		c-0.365,0.918-0.521,1.906-0.459,2.892c1.74-1.266,4.114-1.204,5.785,0.152c0,0-3.953,0.305-4.564,1.672
		c0,0,3.351-0.61,4.105-0.152c0,0-2.587,0.916-2.439,1.52c0,0,4.563,0,5.174,1.671c0,0-4.717,0.61-5.021,1.068
		c0,0,5.492,3.954,5.785,5.021c0,0-5.632-3.349-6.542-3.349c-0.909,0,4.107,4.881,3.797,6.101
		C-138.422,30.223-142.527,25.353-143.596,25.659z"/>
	<path id="Path_273" fill="#6C63FF" d="M-116.137,56.673h1.506c0,0,0.47-16.476-1.506-21.583h-0.379
		C-116.516,35.091-115.199,53.749-116.137,56.673z"/>
	<path id="Path_274" fill="#6C63FF" d="M-115.132,34.243c0,0,1.221,3.393,0.659,4.881c0,0-0.843-3.111-1.828-3.581
		c-0.984-0.47-2.026,3.581-2.026,3.581c-0.311-1.552-0.146-3.161,0.47-4.619c-1.326,0.786-2.406,1.93-3.111,3.302
		c0,0-0.189-1.417,2.264-4.332c-1.313,0.365-2.536,1.008-3.581,1.885c0,0-0.47-1.038,2.44-2.733c0,0-0.378-1.221-2.637-0.66
		c0,0,0-1.604,3.581-1.317c0,0,0-1.038-2.354-0.844c0,0,0-1.318,2.733-0.843c-0.252-0.397-0.569-0.748-0.938-1.038
		c0.471-0.042,0.94,0.093,1.317,0.378c-0.046-0.972,0.465-1.886,1.317-2.355l0.188,2.355c0,0,1.586-1.868,1.221-1.507
		c-0.226,0.567-0.322,1.178-0.282,1.787c1.077-0.786,2.548-0.749,3.581,0.092c0,0-2.441,0.189-2.824,1.037
		c0.836-0.185,1.698-0.216,2.544-0.091c0,0-1.604,0.563-1.506,0.939c0,0,2.824,0,3.203,1.038c-1.06,0.104-2.104,0.324-3.112,0.659
		c0,0,3.393,2.441,3.582,3.112c-1.289-0.806-2.645-1.5-4.052-2.074c-0.562,0,2.546,3.014,2.354,3.771
		C-111.899,37.068-114.443,34.053-115.132,34.243z"/>
	
		<linearGradient id="Path_275_1_" gradientUnits="userSpaceOnUse" x1="-768.3395" y1="560.0043" x2="-768.3395" y2="561.4124" gradientTransform="matrix(6.0887 0 0 -16.633 4502.6768 9368.9766)">
		<stop  offset="0" style="stop-color:#808080;stop-opacity:0.251"/>
		<stop  offset="0.54" style="stop-color:#808080;stop-opacity:0.122"/>
		<stop  offset="1" style="stop-color:#808080;stop-opacity:0.102"/>
	</linearGradient>
	<path id="Path_275" fill="url(#Path_275_1_)" d="M-171.266,38.027L-171.266,38.027l-0.318-1.696
		c0.002-0.25-0.101-0.491-0.281-0.666l-1.471-0.719l0,0c-0.11-0.132-0.197-0.28-0.263-0.439v-0.036
		c0.081-0.103,0.141-0.221,0.171-0.348c0.003-0.032,0.003-0.064,0-0.098l0,0c0.288,0.042,0.558-0.152,0.609-0.438v-0.036
		c-0.058,0.229-0.258,0.396-0.494,0.409c0.407-0.273,0.656-0.729,0.664-1.221v-0.061c0.132-0.081,0.223-0.214,0.25-0.365v-0.037
		c-0.035,0.146-0.132,0.269-0.262,0.342c-0.011-0.14-0.043-0.277-0.092-0.409h0.037c0.299,0,0.542-0.243,0.542-0.542V31.63
		c-0.02,0.286-0.257,0.507-0.542,0.507h-0.067c0.325-0.105,0.563-0.387,0.609-0.726v-0.037c-0.007,0.106-0.045,0.208-0.109,0.292
		c0.043-0.298-0.162-0.575-0.461-0.619c-0.298-0.044-0.575,0.162-0.619,0.46l-0.098-0.055c0.063-0.224,0.262-0.384,0.495-0.396
		h-0.037c-0.236-0.004-0.448,0.143-0.524,0.366c-0.678-0.316-1.483-0.084-1.892,0.542c-0.115,0.085-0.264,0.208-0.257,0.31
		c-0.046,0.049-0.09,0.102-0.127,0.159c-0.159,0.352-0.219,0.742-0.169,1.125c0.042,0.389-0.104,0.774-0.392,1.038
		c0.128,0.054,0.273,0.054,0.402,0c0.126-0.053,0.246-0.124,0.354-0.208c0.099-0.06,0.186-0.141,0.25-0.238l0,0
		c0.071,0.047,0.146,0.085,0.227,0.116c0.03,0.256,0.037,0.55-0.073,0.641l0,0v-0.049c-0.273,0.209-0.615,0.311-0.958,0.281
		c-0.409,0.025-0.78,0.254-0.984,0.61l-0.458,1.959l0,0v0.031l0,0v0.031l0,0c0.012,0.055,0.054,0.099,0.11,0.11l0.14,0.037
		c0.05,0.311,0.05,0.628,0,0.939c-0.096,0.475-0.15,0.957-0.164,1.44c0.036,0.245,0.097,1.502,0.122,2.1
		c-0.051,0.201-0.093,0.405-0.122,0.61l-0.685,4.094c0,0-0.505,3.276-0.481,4.272l-0.092,0.574c0,0-1.385,1.739-0.976,1.983
		c0.409,0.243,1.03,0.354,1.63-0.574c0.08-0.218,0.209-0.415,0.378-0.574c0.136-0.119,0.207-0.296,0.189-0.477l-0.041-0.402h0.116
		c0.377-1.235,0.581-2.516,0.61-3.808c0,0,1.266-4.499,2.227-5.21l0,0l0.092-0.042l0.208,4.359l-0.222,4.795l-0.042,0.282
		c0,0-1.386,1.739-0.977,1.982c0.409,0.244,1.031,0.354,1.63-0.573c0.08-0.218,0.209-0.415,0.378-0.574
		c0.137-0.12,0.207-0.297,0.189-0.477l-0.061-0.61c0.477-1.447,0.684-2.969,0.611-4.491l0.421-2.874
		c0.283-0.516,0.409-1.102,0.365-1.688c0.264-1.128,0.401-2.282,0.409-3.441l0.087-1.354h0.255l0.032-0.037l0,0V38.11l0,0
		L-171.266,38.027z M-172.45,40.778c-0.037-0.096-0.08-0.19-0.128-0.281h-0.035v-0.104c0.019-0.046,0.035-0.093,0.048-0.141
		c0.055-0.088,0.082-0.189,0.079-0.292c0.061,0.269,0.081,0.544,0.061,0.818H-172.45z M-172.578,39.62l-0.085-0.91v-0.073
		l0.117,1.152L-172.578,39.62z M-176.599,39.743c-0.058,0.067-0.084,0.156-0.072,0.244l0,0c-0.002,0.095,0.011,0.189,0.035,0.281
		l-0.14,0.563v-1.085c0.085-0.115,0.162-0.237,0.225-0.366c0.03,0.121,0.022,0.249-0.022,0.366L-176.599,39.743z"/>
	<path id="Path_276" fill="#72351C" d="M-175.714,32.748c-0.155,0.339-0.213,0.715-0.165,1.085c0.045,0.375-0.097,0.75-0.378,1.001
		c0.122,0.051,0.261,0.051,0.384,0c0.122-0.051,0.237-0.119,0.342-0.201c0.095-0.058,0.176-0.138,0.237-0.232
		c0.059-0.147,0.078-0.307,0.055-0.464c0.002-0.276,0.026-0.551,0.073-0.824c0-0.172,0.189-0.61,0-0.72
		C-175.356,32.284-175.629,32.615-175.714,32.748z"/>
	<path id="Path_277" fill="#333333" d="M-178.516,50.755l-0.128,0.836c0,0-1.336,1.677-0.938,1.909
		c0.396,0.232,0.994,0.342,1.567-0.55c0.077-0.209,0.202-0.397,0.365-0.549l0,0c0.131-0.115,0.198-0.284,0.184-0.458l-0.128-1.293
		L-178.516,50.755z"/>
	<path id="Path_278" fill="#333333" d="M-174.493,51.091l-0.129,0.837c0,0-1.335,1.677-0.939,1.909
		c0.396,0.232,0.994,0.341,1.568-0.55c0.078-0.209,0.203-0.398,0.365-0.55l0,0c0.13-0.114,0.198-0.284,0.184-0.456l-0.129-1.294
		L-174.493,51.091z"/>
	<path id="Path_279" fill="#4D8AF0" d="M-176.575,40.954c-0.521,0.552-0.826,1.273-0.861,2.032l-0.658,3.938
		c-0.238,1.413-0.389,2.839-0.452,4.271l1.11,0.378c0.37-1.185,0.576-2.415,0.611-3.656c0,0,1.336-4.752,2.269-5.088l0.196,4.198
		l-0.207,4.74l0.953,0.189c0.495-1.481,0.719-3.04,0.658-4.6l0.493-3.386c0.32-1.116,0.243-2.309-0.218-3.375L-176.575,40.954z"/>
	<g id="Group_36" transform="translate(364.845 99.27)" opacity="0.1">
		<path id="Path_280" d="M-539.51-56.38v-0.073c-0.934,0.336-2.27,5.089-2.27,5.089c-0.023,1.229-0.217,2.449-0.574,3.625
			l0.122,0.042c0.369-1.185,0.574-2.415,0.611-3.656C-541.62-51.354-540.437-55.696-539.51-56.38z"/>
		<path id="Path_281" d="M-537.508-58.693h-0.128c0.456,1.063,0.531,2.25,0.213,3.362l-0.493,3.385
			c0.064,1.553-0.154,3.104-0.646,4.578h0.122c0.496-1.482,0.72-3.041,0.659-4.601l0.494-3.386c0.313-1.105,0.235-2.284-0.218-3.338
			H-537.508z"/>
	</g>
	<path id="Path_282" fill="#F55F44" d="M-177.429,37.868c-0.002,0.066,0.045,0.125,0.109,0.14c0.308,0.072,0.595,0.209,0.845,0.402
		c0.47,0.366-0.496-0.732-0.496-0.732l-0.322,0.073L-177.429,37.868z"/>
	<path id="Path_283" opacity="0.1" enable-background="new    " d="M-177.429,37.868c-0.002,0.066,0.045,0.125,0.109,0.14
		c0.308,0.072,0.595,0.209,0.845,0.402c0.47,0.366-0.496-0.732-0.496-0.732l-0.322,0.073L-177.429,37.868z"/>
	<path id="Path_284" fill="#F55F44" d="M-172.84,38.851c0.391-0.28,0.846-0.46,1.323-0.524c0.068,0,0.124-0.054,0.124-0.123l0,0
		c-0.532-0.241-1.158-0.007-1.399,0.524C-172.81,38.768-172.826,38.809-172.84,38.851L-172.84,38.851z"/>
	<path id="Path_285" opacity="0.1" enable-background="new    " d="M-171.396,38.185c-0.53-0.241-1.156-0.007-1.398,0.524
		c-0.018,0.04-0.034,0.081-0.046,0.123c0.397-0.31,0.88-0.494,1.384-0.524"/>
	<circle id="Ellipse_26" fill="#72351C" cx="-174.128" cy="33.078" r="1.445"/>
	<path id="Path_286" fill="#FDB797" d="M-175.128,34.091c0,0,0.207,0.844,0,1.025c-0.209,0.181-0.611,0.493-0.305,0.743
		c0.305,0.251,1.416,0.671,1.781,0.47s0.786-0.141,0.688-0.563c-0.099-0.421-0.903-0.336-0.921-2.441L-175.128,34.091z"/>
	<path id="Path_287" opacity="0.1" enable-background="new    " d="M-177.173,37.63c0.032,0.459,0.003,0.92-0.086,1.372
		c-0.092,0.457-0.146,0.92-0.158,1.385c0.043,0.305,0.141,2.324,0.141,2.324s-0.158,1.769,0.703,1.604
		c0.861-0.165-0.141-2.014-0.141-2.014l0.043-2.441c0.237-0.315,0.39-0.688,0.438-1.08C-176.196,38.24-177.173,37.63-177.173,37.63z
		"/>
	<path id="Path_288" fill="#FDB797" d="M-177.191,37.63c0.03,0.459,0.002,0.92-0.086,1.372c-0.093,0.457-0.146,0.92-0.158,1.385
		c0.041,0.305,0.14,2.324,0.14,2.324s-0.159,1.769,0.703,1.604c0.862-0.165-0.14-2.014-0.14-2.014l0.041-2.441
		c0.239-0.315,0.392-0.688,0.44-1.08C-176.21,38.24-177.191,37.63-177.191,37.63z"/>
	<path id="Path_289" opacity="0.1" enable-background="new    " d="M-171.687,37.745l-0.115,1.886
		c-0.01,1.115-0.144,2.227-0.397,3.313c0,0,0.085,1.828-0.775,1.828c-0.859,0,0.142-2.032,0.142-2.032
		c0.224-0.888,0.301-1.808,0.227-2.721l-0.227-2.264L-171.687,37.745z"/>
	<path id="Path_290" fill="#FDB797" d="M-171.669,37.745l-0.117,1.886c-0.009,1.115-0.143,2.227-0.396,3.313
		c0,0,0.087,1.828-0.774,1.828c-0.86,0,0.14-2.032,0.14-2.032c0.226-0.888,0.303-1.808,0.227-2.721l-0.227-2.264L-171.669,37.745z"
		/>
	<path id="Path_291" opacity="0.1" enable-background="new    " d="M-174.469,35.915c0,0,0.696,0.323,1.079-0.61l1.423,0.696
		c0.177,0.167,0.28,0.397,0.28,0.642l0.306,1.635c-0.536-0.211-1.143,0.052-1.353,0.588c-0.003,0.007-0.005,0.015-0.008,0.021
		l0.085,0.921l0,0c0.068,0.228,0.055,0.472-0.043,0.689c-0.016,0.039-0.016,0.083,0,0.123c0.088,0.233-0.03,0.493-0.262,0.581
		c-0.047,0.018-0.097,0.027-0.147,0.029c-0.381,0.003-0.762,0.032-1.14,0.086c-0.306,0.086-1.221-0.177-1.53,0
		c-0.313,0.177-0.953-0.141-0.953-0.141l0.177-0.744c0,0-0.114-0.366,0-0.495c0.111-0.528,0.087-1.077-0.072-1.593
		c0,0-0.524-0.495-0.83-0.409l0.439-1.885c0.188-0.357,0.55-0.588,0.952-0.61c0.328,0.029,0.656-0.064,0.921-0.263
		C-175.145,35.175-175.493,35.798-174.469,35.915z"/>
	<path id="Path_292" opacity="0.1" enable-background="new    " d="M-174.398,35.884c0.189,0.049,0.703,0.109,1.008-0.66
		l1.421,0.696c0.178,0.166,0.279,0.397,0.282,0.641l0.305,1.635c-0.537-0.211-1.143,0.052-1.354,0.589
		c-0.002,0.007-0.005,0.014-0.008,0.021l0.087,0.921l0.055,0.183c0.051,0.158,0.023,0.33-0.073,0.464
		c-0.032,0.053-0.032,0.119,0,0.172c0.088,0.233-0.03,0.494-0.264,0.582c-0.046,0.018-0.096,0.027-0.146,0.029
		c-0.383,0.003-0.763,0.032-1.143,0.086c-0.305,0.086-1.221-0.177-1.53,0c-0.311,0.177-0.952-0.141-0.952-0.141l0.178-0.744
		c0,0-0.115-0.366,0-0.495c0.111-0.529,0.086-1.077-0.073-1.593c0,0-0.524-0.495-0.831-0.409l0.439-1.886
		c0.188-0.356,0.55-0.588,0.952-0.61c0.329,0.03,0.657-0.063,0.921-0.263c0,0-0.342,0.61,0.562,0.762L-174.398,35.884z"/>
	<path id="Path_293" fill="#F55F44" d="M-174.396,35.916c0.19,0.049,0.702,0.109,1.006-0.66l1.423,0.696
		c0.177,0.166,0.28,0.398,0.28,0.641l0.306,1.635c-0.536-0.211-1.143,0.053-1.353,0.589c-0.003,0.007-0.005,0.014-0.008,0.021
		l0.085,0.921l0,0c0.068,0.228,0.055,0.473-0.043,0.689c-0.016,0.038-0.016,0.083,0,0.122c0.088,0.233-0.03,0.494-0.262,0.582
		c-0.047,0.017-0.097,0.027-0.147,0.029c-0.381,0.003-0.762,0.032-1.14,0.086c-0.306,0.085-1.221-0.177-1.53,0
		c-0.313,0.177-0.953-0.141-0.953-0.141l0.177-0.744c0,0-0.114-0.366,0-0.496c0.111-0.528,0.087-1.077-0.072-1.593
		c0,0-0.524-0.495-0.83-0.409l0.439-1.886c0.188-0.356,0.55-0.588,0.952-0.61c0.328,0.03,0.656-0.063,0.921-0.263
		c0,0-0.342,0.61,0.562,0.762L-174.396,35.916z"/>
	<path id="Path_294" opacity="0.1" enable-background="new    " d="M-173.859,33.39l-1.221,0.774
		c0.03,0.132,0.056,0.267,0.073,0.402c0.142,0.056,0.292,0.085,0.444,0.086c0.306-0.02,0.592-0.15,0.807-0.366
		C-173.818,33.991-173.854,33.691-173.859,33.39z"/>
	<circle id="Ellipse_27" fill="#FDB797" cx="-174.609" cy="33.384" r="1.196"/>
	<circle id="Ellipse_28" fill="#72351C" cx="-172.84" cy="31.937" r="0.524"/>
	<path id="Path_295" fill="#72351C" d="M-172.744,32.492c-0.274,0.001-0.505-0.212-0.524-0.487v0.037
		c0.003,0.29,0.24,0.522,0.53,0.52c0.285-0.003,0.518-0.233,0.519-0.52c0,0,0,0,0-0.037
		C-172.239,32.28-172.467,32.493-172.744,32.492z"/>
	<path id="Path_296" fill="#72351C" d="M-173.042,33.017c-0.268-0.052-0.452-0.302-0.422-0.574v0.037
		c-0.052,0.286,0.138,0.561,0.425,0.614c0.287,0.052,0.562-0.137,0.613-0.424v-0.036C-172.495,32.905-172.766,33.075-173.042,33.017
		z"/>
	<path id="Path_297" fill="#72351C" d="M-173.45,34.274c-0.269-0.052-0.453-0.301-0.423-0.574v0.037
		c-0.052,0.287,0.138,0.561,0.425,0.613c0.287,0.053,0.562-0.137,0.613-0.423V33.89C-172.903,34.162-173.175,34.331-173.45,34.274z"
		/>
	<path id="Path_298" fill="#72351C" d="M-172.744,32.217c-0.274,0-0.505-0.213-0.524-0.488v0.036c0.003,0.29,0.24,0.522,0.53,0.521
		c0.285-0.003,0.518-0.234,0.519-0.521c0,0,0,0,0-0.036C-172.239,32.004-172.467,32.218-172.744,32.217z"/>
	<path id="Path_299" fill="#72351C" d="M-173.475,31.931c0.003-0.276,0.219-0.502,0.494-0.519h-0.037
		c-0.289,0-0.524,0.234-0.524,0.524c0,0.29,0.235,0.524,0.524,0.524h0.037C-173.261,32.445-173.478,32.211-173.475,31.931z"/>
	<path id="Path_300" opacity="0.1" enable-background="new    " d="M-172.944,36.891c0.055,0.259,0.055,0.528,0,0.788
		c0,0-0.073,0.688,0.042,0.805"/>
	<path id="Path_301" opacity="0.1" enable-background="new    " d="M-176.495,37.02c0.056,0.26,0.056,0.528,0,0.788
		c0,0-0.073,0.689,0.042,0.805"/>
	<path id="Path_302" opacity="0.1" enable-background="new    " d="M-176.526,39.869c0.112,0.039,0.234,0.039,0.347,0
		c0.138-0.041,0.285-0.041,0.422,0"/>
	<path id="Path_303" opacity="0.1" enable-background="new    " d="M-176.349,38.851c0.416,0.021,0.831-0.043,1.221-0.188
		c0,0,1.488,0.365,1.917,0.104"/>
	<path id="Rectangle_72" fill="#FDB797" d="M-177.145,45.129h0.353c0.158,0,0.284,0.127,0.284,0.283l0,0
		c0,0.157-0.126,0.284-0.284,0.284h-0.353c-0.157,0-0.284-0.127-0.284-0.284l0,0C-177.429,45.256-177.302,45.129-177.145,45.129z"/>
	<path id="Path_304" fill="#F0E4E4" d="M-177.429,45.275h0.495l0.422,0.068h-0.154L-177.429,45.275z"/>
	<path id="Path_305" fill="#F0E4E4" d="M-174.116,42.908h0.493l0.423,0.042h-0.152L-174.116,42.908z"/>
	<path id="Path_306" fill="#F0E4E4" d="M-174.116,43.011h0.493l0.423,0.042h-0.152L-174.116,43.011z"/>
	<path id="Path_307" fill="#F0E4E4" d="M-174.116,43.121h0.493l0.423,0.042h-0.152L-174.116,43.121z"/>
	<path id="Path_308" fill="#F0E4E4" d="M-174.116,43.212h0.493l0.423,0.042h-0.152L-174.116,43.212z"/>
	<path id="Path_309" fill="#F0E4E4" d="M-177.429,45.677h0.495l0.422,0.049h-0.154L-177.429,45.677z"/>
	<path id="Path_310" fill="#F0E4E4" d="M-177.429,45.629h0.495l0.422,0.049h-0.154L-177.429,45.629z"/>
	<path id="Path_311" fill="#F0E4E4" d="M-177.429,45.562h0.495l0.422,0.049h-0.154L-177.429,45.562z"/>
	<path id="Path_312" fill="#F0E4E4" d="M-177.429,45.525h0.495l0.422,0.049h-0.154L-177.429,45.525z"/>
	<path id="Path_313" fill="#F0E4E4" d="M-177.429,45.207h0.495l0.422,0.067h-0.154L-177.429,45.207z"/>
	<path id="Path_314" fill="#F0E4E4" d="M-177.429,45.122h0.495l0.422,0.068h-0.154L-177.429,45.122z"/>
	<path id="Path_315" opacity="0.1" enable-background="new    " d="M-174.408,32.613c-0.048,0.446,0.008,0.897,0.165,1.317
		c0.15,0.411,0.125,0.867-0.073,1.257c0.131,0.031,0.271-0.003,0.372-0.092c0.104-0.092,0.195-0.199,0.27-0.317
		c0.078-0.096,0.135-0.209,0.164-0.329c0.012-0.188-0.018-0.378-0.086-0.556c-0.081-0.323-0.142-0.652-0.178-0.984
		c0-0.2,0-0.787-0.227-0.843C-174.228,32.01-174.366,32.443-174.408,32.613z"/>
	<path id="Path_316" fill="#72351C" d="M-174.377,32.602c-0.048,0.446,0.009,0.897,0.163,1.317c0.157,0.413,0.133,0.872-0.066,1.266
		c0.132,0.031,0.271-0.003,0.373-0.091c0.104-0.093,0.193-0.2,0.268-0.318c0.078-0.096,0.135-0.209,0.165-0.329
		c0.013-0.189-0.017-0.379-0.085-0.555c-0.083-0.324-0.142-0.652-0.178-0.985c0-0.201,0-0.787-0.227-0.844
		C-174.191,32.008-174.317,32.432-174.377,32.602z"/>
	<path id="Path_317" opacity="0.1" enable-background="new    " d="M-174.889,32.913c0.096,0.104,0.122,0.264,0.208,0.384
		c0.155,0.168,0.381,0.255,0.61,0.238c0.059-0.003,0.118,0.009,0.171,0.036c0.091,0.061,0.098,0.196,0.158,0.281
		c0.125,0.139,0.338,0.15,0.476,0.026c0.01-0.008,0.018-0.017,0.025-0.026c0.101-0.147,0.15-0.323,0.142-0.5
		c0.019-0.203,0.019-0.408,0-0.61c-0.007-0.242-0.102-0.473-0.269-0.647c-0.139-0.102-0.3-0.171-0.47-0.201
		c-0.233-0.083-0.483-0.102-0.726-0.055c-0.118,0.039-0.228,0.094-0.329,0.165l-0.422,0.281c-0.159,0.11-0.451,0.329-0.164,0.451
		C-175.276,32.791-175.044,32.748-174.889,32.913z"/>
	<path id="Path_318" fill="#72351C" d="M-174.861,32.901c0.098,0.104,0.122,0.263,0.209,0.384c0.156,0.168,0.381,0.256,0.609,0.238
		c0.059-0.003,0.118,0.01,0.17,0.036c0.092,0.061,0.098,0.196,0.159,0.282c0.124,0.139,0.337,0.15,0.476,0.026
		c0.008-0.008,0.017-0.017,0.024-0.026c0.124-0.147,0.191-0.333,0.191-0.524c0.018-0.203,0.018-0.407,0-0.61
		c-0.007-0.242-0.102-0.472-0.27-0.647c-0.139-0.103-0.299-0.171-0.47-0.201c-0.231-0.082-0.483-0.101-0.725-0.054
		c-0.117,0.039-0.229,0.094-0.33,0.164l-0.421,0.282c-0.16,0.109-0.452,0.329-0.165,0.451
		C-175.206,32.715-175.018,32.784-174.861,32.901z"/>
	<path id="Path_319" fill="#F0E4E4" d="M-174.084,42.908h0.493l0.421,0.042h-0.152L-174.084,42.908z"/>
	<path id="Path_320" fill="#F0E4E4" d="M-174.084,43.011h0.493l0.421,0.042h-0.152L-174.084,43.011z"/>
	<path id="Path_321" fill="#F0E4E4" d="M-174.084,43.121h0.493l0.421,0.042h-0.152L-174.084,43.121z"/>
	<path id="Path_322" fill="#F0E4E4" d="M-174.084,43.212h0.493l0.421,0.042h-0.152L-174.084,43.212z"/>
	<path id="Path_323" fill="#F0E4E4" d="M-174.317,48.843h0.494l0.422,0.043h-0.152L-174.317,48.843z"/>
	<path id="Path_324" fill="#F0E4E4" d="M-174.317,48.942h0.494l0.422,0.042h-0.152L-174.317,48.942z"/>
	<path id="Path_325" fill="#F0E4E4" d="M-174.317,49.046h0.494l0.422,0.042h-0.152L-174.317,49.046z"/>
	<path id="Path_326" fill="#F0E4E4" d="M-174.317,49.149h0.494l0.422,0.042h-0.152L-174.317,49.149z"/>
	<path id="Path_327" opacity="0.2" fill="#6C63FF" enable-background="new    " d="M-451.1,324.877h-48.532v-27.349h48.532V324.877z
		 M-497.579,322.821h44.419v-23.242h-44.419V322.821z"/>
	
		<linearGradient id="Path_328_1_" gradientUnits="userSpaceOnUse" x1="-672.1295" y1="564.3002" x2="-672.1295" y2="565.7065" gradientTransform="matrix(143.2616 0 0 -198.3136 95792.8281 112194.1719)">
		<stop  offset="0" style="stop-color:#808080;stop-opacity:0.251"/>
		<stop  offset="0.54" style="stop-color:#808080;stop-opacity:0.122"/>
		<stop  offset="1" style="stop-color:#808080;stop-opacity:0.102"/>
	</linearGradient>
	<path id="Path_328" fill="url(#Path_328_1_)" d="M-531.933,283.878c2.826,1.879,6.345,2.394,9.591,1.406
		c0.865-0.291,1.7-0.66,2.496-1.104c31.118,0.659,59.936,0.354,61.053-2.996c1.828-5.554-9.763-32.903-15.607-46.121
		c1.721-1.17,3.176-2.688,4.272-4.46c8.126,9.294,23.246,21.283,32.234,21.881c0,0,13.119,31.162,27.879,26.237
		c14.758-4.924,16.399-31.161,9.017-34.438l-49.196-31.162v-51.705c1.496-2.963,2.203-6.261,2.056-9.578c0-0.61,0.03-1.221,0-1.828
		l-1.641-14.764c0,0-0.086-0.488-0.312-1.373c-3.655-14.222-11.818-23.796-23.32-25.218c0.56-1.023,0.902-2.151,1.001-3.313
		c0.239-2.757-0.909-5.571-0.262-8.262c0.757-3.135,3.655-5.162,6.046-7.321c5.094-4.661,8.305-10.983,11.404-17.154
		c2.952-5.876,5.948-11.904,6.71-18.433c0.762-6.528-1.219-13.779-6.56-17.621c-4.148-2.997-9.982-3.782-12.972-7.932
		c-1.151-1.986-2.093-4.086-2.812-6.267c-2.654-6.046-8.377-10.336-14.59-12.576c-21.794-7.848-48.532,1.158-62.438,19.263
		c-4.54,5.906-7.816,12.668-11.055,19.374l-11.715,24.216c-2.02,4.167-3.973,9.372-1.276,13.138c1.317,1.828,3.576,2.965,4.49,5.033
		c1.221,2.746-0.305,6.34,1.49,8.756c0.984,1.335,2.702,1.867,4.173,2.647c1.975,1.124,3.694,2.647,5.046,4.472l-25.731,19.935
		c-3.757,2.91-6.153,7.237-6.627,11.966l-2.544,25.357c-0.812,2.883-1.197,5.866-1.147,8.859c-0.213,2.735,0.325,5.479,1.556,7.932
		l0.563-0.141c0.611,17.785,1.672,43.376,2.72,48.105c0.611,2.812,4.461,7.755,9.647,12.856l-1.828,5.186h0.609l-0.609,1.63h1.221
		c-5.174,18.701-19.251,32.784-19.251,32.784S-565.602,282.914-531.933,283.878z M-562.528,197.493v-19.936
		c3.003,0.465,5.216,1.503,5.926,3.394L-562.528,197.493z M-553.839,110.736l0.096,0.141h-0.036L-553.839,110.736z"/>
	<path id="Path_329" fill="#FDB797" d="M-479.819,156c0,0,1.557,55.293,3.117,62.304c1.562,7.011,24.148,28.061,35.818,28.844
		c0,0,12.458,29.592,26.48,24.918c14.021-4.673,15.578-29.593,8.541-32.711l-46.692-29.597v-59.183L-479.819,156z"/>
	<path id="Path_330" fill="#565171" d="M-478.648,223.784c0,0,20.248,43.615,17.915,50.643c-2.333,7.03-132.405,0-132.405,0
		s24.144-24.143,19.47-50.643H-478.648z"/>
	<path id="Path_331" fill="#FDB797" d="M-494.226,94.503c0,0-3.117,30.372,2.337,37.385c5.454,7.014-21.807,10.897-24.121,10.897
		c-2.312,0-27.255-8.542-31.929-10.904c-4.673-2.363-8.541-19.47-8.541-19.47s23.362,4.674,30.371-22.576L-494.226,94.503z"/>
	<path id="Path_332" fill="#8F5A6A" d="M-486.061,16.591c5.904,2.124,11.336,6.2,13.856,11.941c0.686,2.07,1.581,4.066,2.672,5.954
		c2.83,3.954,8.377,4.698,12.318,7.548c5.061,3.656,6.931,10.538,6.229,16.732s-3.551,11.929-6.351,17.506
		c-2.954,5.863-5.991,11.862-10.827,16.291c-2.259,2.068-5.028,3.991-5.748,6.969c-0.611,2.556,0.475,5.224,0.244,7.847
		c-0.562,6.468-8.295,9.488-14.764,10.208c-2.813,0.311-6.022,0.329-7.999-1.688c-0.913-1.128-1.645-2.391-2.167-3.745
		c-4.395-8.891-15.166-12.535-24.056-8.139c-3.42,1.69-6.212,4.425-7.972,7.81c-1.513,2.917-2.397,6.45-5.156,8.231
		c-4.218,2.728-9.867-0.476-12.973-4.418c-3.106-3.941-5.369-8.896-9.806-11.257c-1.398-0.744-3.051-1.221-3.958-2.514
		c-1.703-2.294-0.257-5.704-1.406-8.317c-0.874-1.968-3.016-3.051-4.272-4.781c-2.563-3.575-0.703-8.542,1.221-12.478l11.128-23.003
		c2.849-6.484,6.369-12.652,10.501-18.403C-532.158,17.689-506.76,9.135-486.061,16.591z"/>
	<path id="Path_333" opacity="0.1" enable-background="new    " d="M-514.47,137.337c0,0-30.372,0-38.161-28.038l-25.565,19.812
		c-3.566,2.768-5.84,6.877-6.29,11.367l-2.441,24.121c0,0-2.729,8.957,0.391,14.405c0,0,32.34-8.177,33.102,1.166l-22.564,63.084
		c0,0,35.049,0.781,44.39-5.448c0,0,38.159,7.785,47.507-0.78c9.349-8.565,18.69-7.785,10.904-27.255
		c0,0,15.578-15.578,8.542-37.385c-7.036-21.807-0.391,0.392-0.391,0.392s15.185-7.403,14.405-21.417l-1.556-14.034
		c0,0-0.086-0.464-0.301-1.3c-4.747-18.475-17.504-28.684-35.432-22.173c-3.467,1.078-7.194,0.979-10.599-0.282
		C-498.528,113.571-492.67,138.917-514.47,137.337z"/>
	<path id="Path_334" fill="#B45181" d="M-514.47,135.78c0,0-30.372,0-38.161-28.037l-25.566,19.812
		c-3.564,2.766-5.838,6.873-6.29,11.361l-2.441,24.12c0,0-2.729,8.957,0.391,14.405c0,0,32.34-8.177,33.102,1.166l-22.577,63.085
		c0,0,35.047,0.78,44.39-5.448c0,0,38.159,7.784,47.507-0.781c9.347-8.565,18.69-7.786,10.904-27.255
		c0,0,15.578-15.578,8.542-37.385c-7.036-21.807-0.391,0.391-0.391,0.391s15.185-7.4,14.405-21.418l-1.557-14.033
		c0,0-0.085-0.464-0.299-1.299c-4.747-18.476-17.506-28.684-35.434-22.174c-3.467,1.079-7.194,0.98-10.599-0.281
		C-498.543,112.007-492.67,137.335-514.47,135.78z"/>
	<path id="Path_335" fill="#FDB797" d="M-586.512,162.262c0,0,1.557,55.293,3.117,62.303c1.561,7.012,24.144,28.038,35.823,28.825
		c0,0,12.458,29.594,26.481,24.919c14.021-4.674,15.578-29.594,8.541-32.71l-46.726-29.594v-59.198L-586.512,162.262z"/>
	<path id="Path_336" opacity="0.1" enable-background="new    " d="M-553.026,164.208c0,0-17.897,12.154-33.486,11.141
		c0,0-1.557-20.872,3.117-22.038C-578.721,152.147-558.474,153.304-553.026,164.208z"/>
	<path id="Path_337" fill="#B45181" d="M-553.026,163.426c0,0-17.897,12.154-33.486,11.135c0,0-1.557-20.874,3.117-22.038
		C-578.721,151.357-558.474,152.523-553.026,163.426z"/>
	<path id="Path_338" opacity="0.1" enable-background="new    " d="M-527.711,91.384l31.929,4.674c0,0-0.721,7.03-0.861,15.102
		c-12.66,5.337-27.259,2.967-37.58-6.102C-531.089,101.025-528.867,96.36-527.711,91.384z"/>
	<circle id="Ellipse_29" fill="#FDB797" cx="-509.021" cy="76.588" r="35.823"/>
	<path id="Path_339" opacity="0.1" enable-background="new    " d="M-518.448,69.706c1.527,0.577,3.161,0.81,4.79,0.684
		c6.337-0.041,12.668-0.274,18.994-0.703c4.796-0.323,9.909-0.884,13.606-3.954c4.979-4.131,5.765-11.875,3.198-17.811
		c-2.568-5.937-7.812-10.312-13.344-13.656c-3.131-1.984-6.523-3.523-10.08-4.57c-10.264-2.788-21.624,0.61-29.783,7.475
		c-8.158,6.864-13.357,16.706-16.106,26.987c-0.953,3.557-2.174,7.791-5.694,8.873c2.342,3.899,8.06,4.515,12.172,2.563
		c6.046-2.879,9.152-13.899,14.59-15.632C-520.06,58.052-523.586,67.351-518.448,69.706z"/>
	<path id="Path_340" fill="#8F5A6A" d="M-518.448,68.93c1.527,0.577,3.161,0.81,4.79,0.683c6.337-0.041,12.668-0.275,18.994-0.703
		c4.796-0.323,9.909-0.884,13.606-3.954c4.979-4.131,5.765-11.874,3.197-17.811c-2.566-5.936-7.809-10.313-13.343-13.656
		c-3.126-1.973-6.514-3.501-10.062-4.541c-10.264-2.788-21.624,0.61-29.782,7.475c-8.159,6.864-13.358,16.706-16.108,26.988
		c-0.952,3.557-2.172,7.791-5.693,8.872c2.341,3.9,8.059,4.515,12.171,2.563c6.046-2.879,9.153-13.899,14.589-15.633
		C-520.06,57.276-523.586,66.568-518.448,68.93z"/>
	<path id="Path_341" opacity="0.1" enable-background="new    " d="M-472.808,207.816c-11.686-3.12-23.729-4.692-35.824-4.673"/>
	<path id="Path_342" opacity="0.1" enable-background="new    " d="M-553.026,165.764c0,0,11.684,8.542,8.541,13.24"/>
	<g id="Group_37" transform="translate(55.49 251.103)" opacity="0.7">
		
			<linearGradient id="Path_343_1_" gradientUnits="userSpaceOnUse" x1="-725.1962" y1="312.1133" x2="-725.1962" y2="313.5195" gradientTransform="matrix(271.953 0 0 -98.592 196742.5469 30913.5371)">
			<stop  offset="0" style="stop-color:#808080;stop-opacity:0.251"/>
			<stop  offset="0.54" style="stop-color:#808080;stop-opacity:0.122"/>
			<stop  offset="1" style="stop-color:#808080;stop-opacity:0.102"/>
		</linearGradient>
		<path id="Path_343" fill="url(#Path_343_1_)" d="M-285.59,2.964h-382.387v33.432h22.257v105.196h338.665V36.395h21.465V2.964z"/>
	</g>
	<rect id="Rectangle_73" x="-586.787" y="273.537" fill="#E0E0E0" width="331.763" height="119.158"/>
	<rect id="Rectangle_74" x="-586.787" y="279.765" opacity="0.1" enable-background="new    " width="331.763" height="18.69"/>
	<rect id="Rectangle_75" x="-608.593" y="260.296" fill="#E0E0E0" width="374.602" height="31.928"/>
	<path id="Rectangle_76" fill="#535461" d="M-532.753,252.437h61.527c2.796,0,5.062,2.266,5.062,5.062l0,0
		c0,2.795-2.266,5.061-5.062,5.061h-61.527c-2.796,0-5.063-2.266-5.063-5.061l0,0C-537.816,254.703-535.549,252.437-532.753,252.437
		z"/>
	<g id="Group_38" transform="translate(139.61 169.664)" opacity="0.7">
		
			<linearGradient id="Rectangle_77_1_" gradientUnits="userSpaceOnUse" x1="-812.178" y1="393.7485" x2="-812.178" y2="395.1548" gradientTransform="matrix(126.647 0 0 -87.57 102315.1016 34573.6953)">
			<stop  offset="0" style="stop-color:#808080;stop-opacity:0.251"/>
			<stop  offset="0.54" style="stop-color:#808080;stop-opacity:0.122"/>
			<stop  offset="1" style="stop-color:#808080;stop-opacity:0.102"/>
		</linearGradient>
		<path id="Rectangle_77" fill="url(#Rectangle_77_1_)" d="M-594.137-30.107h98.717c21.914,0,39.679,17.765,39.679,39.68v43.771
			c0,21.915-17.765,39.679-39.679,39.679h-98.717c-21.915,0-39.679-17.764-39.679-39.679V9.573
			C-633.817-12.342-616.052-30.107-594.137-30.107z"/>
	</g>
	<path id="Rectangle_78" fill="#3E3F49" d="M-453.289,141.833h93.213c20.843,0,37.738,16.896,37.738,37.74v45.376
		c0,20.843-16.896,37.739-37.738,37.739h-93.213c-20.843,0-37.739-16.896-37.739-37.739v-45.376
		C-491.028,158.729-474.131,141.833-453.289,141.833z"/>
	<path id="Rectangle_79" fill="#535461" d="M-450.952,141.833h93.213c20.843,0,37.739,16.896,37.739,37.74v45.376
		c0,20.843-16.896,37.739-37.739,37.739h-93.213c-20.843,0-37.739-16.896-37.739-37.739v-45.376
		C-488.691,158.729-471.795,141.833-450.952,141.833z"/>
	<circle id="Ellipse_30" fill="#E0E0E0" cx="-396.465" cy="201.428" r="5.449"/>
</g>
</svg>
