<?xml version="1.0" encoding="utf-8"?>
<!-- Generator: Adobe Illustrator 16.0.0, SVG Export Plug-In . SVG Version: 6.00 Build 0)  -->
<!DOCTYPE svg PUBLIC "-//W3C//DTD SVG 1.1//EN" "http://www.w3.org/Graphics/SVG/1.1/DTD/svg11.dtd">
<svg version="1.1" id="Layer_1" xmlns="http://www.w3.org/2000/svg" xmlns:xlink="http://www.w3.org/1999/xlink" x="0px" y="0px"
	 width="50px" height="50px" viewBox="0 0 50 50" enable-background="new 0 0 50 50" xml:space="preserve">
<path id="Path_379" fill="#515E69" d="M24.574,47.212C12.307,47.212,2.362,37.268,2.362,25S12.307,2.788,24.574,2.788
	c12.267,0,22.212,9.944,22.212,22.212S36.841,47.212,24.574,47.212L24.574,47.212z M24.574,5.788C13.963,5.788,5.362,14.39,5.362,25
	s8.601,19.212,19.212,19.212c10.61,0,19.212-8.602,19.212-19.212l0,0C43.786,14.39,35.185,5.788,24.574,5.788L24.574,5.788z"/>
<path fill="#29AAE1" d="M36.312,23.5h-5.869c-0.828,0-1.5,0.672-1.5,1.5s0.672,1.5,1.5,1.5h5.869c0.829,0,1.5-0.672,1.5-1.5
	S37.141,23.5,36.312,23.5z"/>
<path id="Path_381" fill="#29AAE1" d="M24.574,26.5H12.836c-0.828,0-1.5-0.672-1.5-1.5s0.672-1.5,1.5-1.5h11.738
	c0.828,0,1.5,0.672,1.5,1.5S25.402,26.5,24.574,26.5z"/>
</svg>
