<?xml version="1.0" encoding="utf-8"?>
<!-- Generator: Adobe Illustrator 16.0.0, SVG Export Plug-In . SVG Version: 6.00 Build 0)  -->
<!DOCTYPE svg PUBLIC "-//W3C//DTD SVG 1.1//EN" "http://www.w3.org/Graphics/SVG/1.1/DTD/svg11.dtd">
<svg version="1.1" id="Layer_1" xmlns="http://www.w3.org/2000/svg" xmlns:xlink="http://www.w3.org/1999/xlink" x="0px" y="0px"
	 width="50px" height="50px" viewBox="0 0 50 50" enable-background="new 0 0 50 50" xml:space="preserve">
<g id="Group_41" transform="translate(427.212 1994.212)">
	<path id="Path_379" fill="#515E69" d="M-402.638-1947c-12.268,0-22.212-9.944-22.212-22.212s9.944-22.212,22.212-22.212
		c12.267,0,22.212,9.944,22.212,22.212S-390.371-1947-402.638-1947L-402.638-1947z M-402.638-1988.424
		c-10.611,0-19.212,8.602-19.212,19.212s8.601,19.212,19.212,19.212c10.61,0,19.212-8.602,19.212-19.212l0,0
		C-383.426-1979.822-392.027-1988.424-402.638-1988.424L-402.638-1988.424z"/>
	<path id="Path_380" fill="#29AAE1" d="M-402.638-1955.974c-0.829,0-1.5-0.672-1.5-1.5v-23.477c0-0.828,0.671-1.5,1.5-1.5
		c0.828,0,1.5,0.672,1.5,1.5v23.477C-401.138-1956.646-401.81-1955.974-402.638-1955.974z M-390.9-1967.712h-5.869
		c-0.828,0-1.5-0.672-1.5-1.5s0.672-1.5,1.5-1.5h5.869c0.829,0,1.5,0.672,1.5,1.5S-390.071-1967.712-390.9-1967.712z"/>
	<path id="Path_381" fill="#29AAE1" d="M-402.638-1967.712h-11.738c-0.828,0-1.5-0.672-1.5-1.5s0.672-1.5,1.5-1.5h11.738
		c0.828,0,1.5,0.672,1.5,1.5S-401.81-1967.712-402.638-1967.712z"/>
</g>
</svg>
