<?xml version="1.0" encoding="utf-8"?>
<!-- Generator: Adobe Illustrator 16.0.0, SVG Export Plug-In . SVG Version: 6.00 Build 0)  -->
<!DOCTYPE svg PUBLIC "-//W3C//DTD SVG 1.1//EN" "http://www.w3.org/Graphics/SVG/1.1/DTD/svg11.dtd">
<svg version="1.1" id="Layer_1" xmlns="http://www.w3.org/2000/svg" xmlns:xlink="http://www.w3.org/1999/xlink" x="0px" y="0px"
	 width="645.362px" height="381.687px" viewBox="0 0 645.362 381.687" enable-background="new 0 0 645.362 381.687"
	 xml:space="preserve">
<path fill="#EEF6FC" d="M6.401,280.75c0,0-8.422-75.095,55.578-129.095s154.34-65.578,207.088-85.571
	c35.636-13.507,90-64.668,154.245-63.763c43.819,0.618,60.667,18,70.667,23.333s16.666,8.667,34.666,12.667s64.666,5.333,70,59.333
	c0,0,0,20.667-7.333,34s-5.334,40,7.333,50.667s42.854,43.763,42.423,83.096c-0.413,37.621-3.088,62.237-59.755,70.237
	s-75.333,4.667-101.333,18s-105.578,33.763-186.245,13.096s-89.756-25.763-146.422-21.097S6.385,363.415,6.401,280.75z"/>
</svg>
