<?xml version="1.0" encoding="utf-8"?>
<!-- Generator: Adobe Illustrator 16.0.0, SVG Export Plug-In . SVG Version: 6.00 Build 0)  -->
<!DOCTYPE svg PUBLIC "-//W3C//DTD SVG 1.1//EN" "http://www.w3.org/Graphics/SVG/1.1/DTD/svg11.dtd">
<svg version="1.1" id="Layer_1" xmlns="http://www.w3.org/2000/svg" xmlns:xlink="http://www.w3.org/1999/xlink" x="0px" y="0px"
	 width="645.362px" height="381.687px" viewBox="0 0 645.362 381.687" enable-background="new 0 0 645.362 381.687"
	 xml:space="preserve">
<path fill="#EEF6FC" d="M7.733,284.75c0,0-4-74,60-128s155.251-57.34,208-77.333C311.37,65.909,359.067,1.415,423.312,2.32
	c43.819,0.618,60.667,18,70.667,23.333s16.666,8.667,34.666,12.667s64.666,5.333,70,59.333c0,0,0,20.667-7.333,34
	s-18.912,48.523-6.245,59.19s46.111,39.902,46,73.235c-0.126,37.623,6.913,63.575-49.754,71.575s-75.333,4.667-101.333,18
	s-109.58,28.428-190.247,7.762s-87.334-26-144-21.333S30.4,357.416,7.733,284.75z"/>
</svg>
