<?xml version="1.0" encoding="utf-8"?>
<!-- Generator: Adobe Illustrator 16.0.0, SVG Export Plug-In . SVG Version: 6.00 Build 0)  -->
<!DOCTYPE svg PUBLIC "-//W3C//DTD SVG 1.1//EN" "http://www.w3.org/Graphics/SVG/1.1/DTD/svg11.dtd">
<svg version="1.1" id="Layer_1" xmlns="http://www.w3.org/2000/svg" xmlns:xlink="http://www.w3.org/1999/xlink" x="0px" y="0px"
	 width="645.363px" height="381.688px" viewBox="0 0 645.363 381.688" enable-background="new 0 0 645.363 381.688"
	 xml:space="preserve">
<path fill="#EEF6FC" d="M6.401,280.75c0,0-8.422-75.095,55.578-129.095s161.088-46.238,213.837-66.231
	C311.452,71.916,359.068,1.415,423.312,2.32c43.818,0.618,60.666,18,70.666,23.333s9.203,12.69,27.203,16.69s59,9,68,55
	c0,0,9.463,20.977,2.131,34.31c-7.334,13.333-5.334,40,7.332,50.667c12.668,10.667,42.855,43.763,42.424,83.096
	c-0.412,37.621-3.088,62.237-59.756,70.237c-56.666,8-75.332,4.667-101.332,18s-105.578,33.763-186.245,13.096
	s-89.756-25.763-146.422-21.097S6.385,363.415,6.401,280.75z"/>
</svg>
