<svg id="efta13frz1ze1" xmlns="http://www.w3.org/2000/svg" xmlns:xlink="http://www.w3.org/1999/xlink" viewBox="0 0 60 60" shape-rendering="geometricPrecision" text-rendering="geometricPrecision"><style><![CDATA[#efta13frz1ze4_tr {animation: efta13frz1ze4_tr__tr 2000ms linear 1 alternate forwards}@keyframes efta13frz1ze4_tr__tr { 0% {transform: translate(30px,19.961500px) rotate(0deg)} 15% {transform: translate(30px,19.961500px) rotate(7.933585deg)} 30% {transform: translate(30px,19.961500px) rotate(-0.069013deg)} 45% {transform: translate(30px,19.961500px) rotate(-7.572161deg)} 60% {transform: translate(30px,19.961500px) rotate(-0.038924deg)} 100% {transform: translate(30px,19.961500px) rotate(-0.038924deg)} }]]></style><path id="efta13frz1ze2" d="M32.580000,56.841000C32.120000,56.841000,31.747000,56.468000,31.747000,56.008000L31.747000,53.792000C31.747000,53.476000,31.489000,53.218000,31.172000,53.218000L28.936000,53.218000C28.619000,53.218000,28.360000,53.476000,28.360000,53.792000L28.360000,56.008000C28.360000,56.468000,27.987000,56.841000,27.527000,56.841000C27.067000,56.841000,26.694000,56.468000,26.694000,56.008000L26.694000,53.792000C26.694000,52.558000,27.699000,51.551000,28.936000,51.551000L31.172000,51.551000C32.408000,51.551000,33.413000,52.558000,33.413000,53.792000L33.413000,56.008000C33.413000,56.468000,33.040000,56.841000,32.580000,56.841000L32.580000,56.841000Z" fill="rgb(1,1,1)" stroke="none" stroke-width="1"/><path id="efta13frz1ze3" d="M38.063000,26.388000C37.791000,26.018000,37.269000,25.941000,36.898000,26.214000C36.529000,26.488000,36.451000,27.009000,36.725000,27.380000L40.860000,32.967000C41.322000,33.589000,41.288000,34.526000,40.787000,35.098000L36.330000,40.185000L23.778000,40.185000L19.321000,35.098000C18.819000,34.526000,18.785000,33.589000,19.245000,32.967000L27.458000,21.874000L27.458000,28.195000C26.417000,28.995000,25.808000,30.219000,25.808000,31.555000C25.808000,33.895000,27.712000,35.797000,30.053000,35.797000C32.393000,35.797000,34.296000,33.895000,34.296000,31.555000C34.296000,30.279000,33.729000,29.087000,32.757000,28.284000L32.757000,22.024000L34.587000,24.494000C34.862000,24.864000,35.383000,24.942000,35.753000,24.668000C36.122000,24.394000,36.200000,23.872000,35.927000,23.502000L32.354000,18.676000C31.792000,17.916000,30.953000,17.481000,30.053000,17.481000C29.153000,17.481000,28.315000,17.916000,27.753000,18.676000L17.906000,31.975000C16.982000,33.221000,17.052000,35.037000,18.068000,36.195000L21.785000,40.438000C20.857000,40.870000,20.212000,41.810000,20.212000,42.902000L20.212000,46.875000C20.212000,48.092000,21.016000,49.125000,22.120000,49.472000L22.348000,56.036000C22.364000,56.487000,22.733000,56.842000,23.180000,56.842000C23.190000,56.842000,23.200000,56.842000,23.210000,56.841000C23.670000,56.825000,24.030000,56.440000,24.014000,55.980000L23.792000,49.594000L36.426000,49.594000L36.206000,55.980000C36.188000,56.440000,36.549000,56.826000,37.009000,56.841000C37.019000,56.842000,37.029000,56.842000,37.039000,56.842000C37.484000,56.842000,37.854000,56.488000,37.870000,56.036000L38.099000,49.433000C39.145000,49.054000,39.894000,48.050000,39.894000,46.874000L39.894000,42.901000C39.894000,41.809000,39.248000,40.869000,38.322000,40.437000L42.039000,36.194000C43.055000,35.036000,43.123000,33.220000,42.200000,31.974000L38.063000,26.388000ZM30.054000,19.147000C30.425000,19.147000,30.766000,19.332000,31.015000,19.667000L31.093000,19.773000L31.093000,28.703000C31.093000,28.983000,31.235000,29.245000,31.467000,29.399000C32.197000,29.878000,32.631000,30.683000,32.631000,31.553000C32.631000,32.974000,31.475000,34.131000,30.054000,34.131000C28.633000,34.131000,27.476000,32.974000,27.476000,31.553000C27.476000,30.642000,27.942000,29.816000,28.724000,29.345000C28.974000,29.194000,29.126000,28.924000,29.126000,28.633000L29.126000,19.627000C29.371000,19.318000,29.698000,19.147000,30.054000,19.147000L30.054000,19.147000ZM38.229000,46.875000C38.229000,47.456000,37.755000,47.927000,37.176000,47.927000L22.930000,47.927000C22.350000,47.927000,21.879000,47.456000,21.879000,46.875000L21.879000,42.902000C21.879000,42.321000,22.351000,41.849000,22.930000,41.849000L37.177000,41.849000C37.756000,41.849000,38.230000,42.321000,38.230000,42.902000L38.230000,46.875000Z" fill="rgb(1,1,1)" stroke="none" stroke-width="1"/><g id="efta13frz1ze4_tr" transform="translate(30,19.961500) rotate(0)"><g id="efta13frz1ze4" transform="translate(-30,-19.961500)"><path id="efta13frz1ze5" d="M56.650000,6.747000L53.973000,6.747000C52.998000,6.747000,52.207000,7.538000,52.207000,8.511000L52.207000,9.017000L33.212000,9.017000L33.212000,8.510000C33.212000,7.537000,32.420000,6.746000,31.447000,6.746000L28.770000,6.746000C27.797000,6.746000,27.006000,7.537000,27.006000,8.510000L27.006000,9.016000L8.009000,9.016000L8.009000,8.510000C8.009000,7.537000,7.218000,6.746000,6.246000,6.746000L3.568000,6.746000C2.596000,6.746000,1.805000,7.537000,1.805000,8.510000L1.805000,11.187000C1.805000,12.160000,2.596000,12.951000,3.568000,12.951000L6.246000,12.951000C7.218000,12.951000,8.009000,12.160000,8.009000,11.187000L8.009000,10.682000L22.471000,10.682000C20.158000,11.744000,18.071000,13.288000,16.357000,15.235000C16.052000,15.580000,16.086000,16.107000,16.432000,16.411000C16.590000,16.550000,16.786000,16.619000,16.982000,16.619000C17.212000,16.619000,17.442000,16.523000,17.608000,16.335000C20.071000,13.537000,23.380000,11.656000,27.007000,10.972000L27.007000,11.187000C27.007000,12.160000,27.798000,12.951000,28.771000,12.951000L31.448000,12.951000C32.421000,12.951000,33.213000,12.160000,33.213000,11.187000L33.213000,10.972000C40.776000,12.397000,46.427000,18.919000,46.744000,26.642000C45.322000,27.017000,44.271000,28.315000,44.271000,29.855000C44.271000,31.688000,45.760000,33.177000,47.592000,33.177000C49.425000,33.177000,50.915000,31.688000,50.915000,29.855000C50.915000,28.305000,49.849000,27,48.411000,26.634000C48.145000,19.626000,43.888000,13.509000,37.747000,10.681000L52.208000,10.681000L52.208000,11.186000C52.208000,12.159000,52.999000,12.951000,53.974000,12.951000L56.651000,12.951000C57.623000,12.951000,58.415000,12.159000,58.415000,11.186000L58.415000,8.510000C58.414000,7.538000,57.622000,6.747000,56.650000,6.747000L56.650000,6.747000ZM6.343000,11.188000C6.343000,11.242000,6.299000,11.286000,6.246000,11.286000L3.568000,11.286000C3.515000,11.286000,3.471000,11.242000,3.471000,11.188000L3.471000,8.510000C3.471000,8.456000,3.515000,8.412000,3.568000,8.412000L6.246000,8.412000C6.299000,8.412000,6.343000,8.456000,6.343000,8.510000L6.343000,11.188000ZM49.249000,29.855000C49.249000,30.769000,48.506000,31.511000,47.592000,31.511000C46.680000,31.511000,45.936000,30.769000,45.936000,29.855000C45.936000,28.941000,46.680000,28.198000,47.592000,28.198000C48.506000,28.199000,49.249000,28.941000,49.249000,29.855000ZM31.545000,11.188000C31.545000,11.242000,31.500000,11.286000,31.447000,11.286000L28.770000,11.286000C28.716000,11.286000,28.672000,11.242000,28.672000,11.188000L28.672000,8.510000C28.672000,8.456000,28.716000,8.412000,28.770000,8.412000L31.447000,8.412000C31.500000,8.412000,31.545000,8.456000,31.545000,8.510000L31.545000,11.188000ZM56.747000,11.188000C56.747000,11.242000,56.703000,11.286000,56.650000,11.286000L53.973000,11.286000C53.918000,11.286000,53.874000,11.242000,53.874000,11.188000L53.874000,8.510000C53.874000,8.456000,53.918000,8.412000,53.973000,8.412000L56.650000,8.412000C56.703000,8.412000,56.747000,8.456000,56.747000,8.510000L56.747000,11.188000Z" fill="rgb(187,193,72)" stroke="none" stroke-width="1"/><path id="efta13frz1ze6" d="M13.475000,26.643000C13.584000,24.003000,14.319000,21.419000,15.618000,19.129000C15.845000,18.729000,15.704000,18.220000,15.305000,17.993000C14.905000,17.766000,14.396000,17.906000,14.169000,18.306000C12.729000,20.844000,11.919000,23.709000,11.808000,26.634000C10.370000,26.999000,9.304000,28.305000,9.304000,29.854000C9.304000,31.687000,10.794000,33.176000,12.627000,33.176000C14.459000,33.176000,15.950000,31.687000,15.950000,29.854000C15.948000,28.316000,14.896000,27.019000,13.475000,26.643000L13.475000,26.643000ZM12.625000,31.512000C11.711000,31.512000,10.968000,30.770000,10.968000,29.856000C10.968000,28.942000,11.711000,28.199000,12.625000,28.199000C13.539000,28.199000,14.282000,28.942000,14.282000,29.856000C14.282000,30.770000,13.540000,31.512000,12.625000,31.512000Z" fill="rgb(187,193,72)" stroke="none" stroke-width="1"/></g></g></svg>