<svg id="eqarayhdgqsd1" xmlns="http://www.w3.org/2000/svg" xmlns:xlink="http://www.w3.org/1999/xlink" viewBox="0 0 60 60" shape-rendering="geometricPrecision" text-rendering="geometricPrecision"><style><![CDATA[#eqarayhdgqsd2_to {animation: eqarayhdgqsd2_to__to 1000ms linear 1 normal forwards}@keyframes eqarayhdgqsd2_to__to { 0% {transform: translate(3.979000px,0.184672px)} 50% {transform: translate(-9.021000px,0px)} 100% {transform: translate(0.979000px,0px)} }]]></style><g id="eqarayhdgqsd2_to" transform="translate(3.979000,0.184672)"><g id="eqarayhdgqsd2" transform="translate(0,0)"><path id="eqarayhdgqsd3" d="M42.714000,14.145000C41.964000,14.103000,41.219000,14.100000,40.497000,14.202000L40.497000,14.346000L23.863000,14.346000C22.026000,14.346000,20.536000,15.835000,20.536000,17.673000L20.536000,33.197000C20.536000,35.035000,22.025000,36.523000,23.863000,36.523000L39.600000,36.523000C39.808000,36.436000,40.045000,36.396000,40.310000,36.435000C41.107000,36.553000,41.909000,36.594000,42.714000,36.602000L42.714000,36.523000L52.694000,36.523000C54.531000,36.523000,56.021000,35.035000,56.021000,33.197000L56.021000,17.673000C56.021000,15.878000,54.599000,14.420000,52.821000,14.353000L46.060000,14.353000C45.929000,14.353000,45.797000,14.351000,45.665000,14.346000L42.713000,14.346000L42.713000,14.145000ZM52.694000,16.564000C53.307000,16.564000,53.803000,17.061000,53.803000,17.673000L53.803000,33.197000C53.803000,33.809000,53.307000,34.306000,52.694000,34.306000L23.863000,34.306000C23.251000,34.306000,22.755000,33.809000,22.755000,33.197000L22.755000,17.673000C22.755000,17.061000,23.252000,16.564000,23.863000,16.564000L52.694000,16.564000Z" fill="rgb(97,199,242)" stroke="none" stroke-width="1"/><path id="eqarayhdgqsd4" d="M48.260000,21L39.388000,21C38.776000,21,38.280000,21.497000,38.280000,22.109000C38.280000,22.721000,38.776000,23.217000,39.388000,23.217000L48.260000,23.217000C48.871000,23.217000,49.368000,22.721000,49.368000,22.109000C49.368000,21.497000,48.871000,21,48.260000,21Z" fill="rgb(97,199,242)" stroke="none" stroke-width="1"/><path id="eqarayhdgqsd5" d="M48.260000,25.435000L39.388000,25.435000C38.776000,25.435000,38.280000,25.932000,38.280000,26.544000C38.280000,27.156000,38.776000,27.653000,39.388000,27.653000L48.260000,27.653000C48.871000,27.653000,49.368000,27.156000,49.368000,26.544000C49.368000,25.932000,48.871000,25.435000,48.260000,25.435000Z" fill="rgb(97,199,242)" stroke="none" stroke-width="1"/><path id="eqarayhdgqsd6" d="M33.843000,21L29.407000,21C28.182000,21,27.190000,21.993000,27.190000,23.217000L27.190000,27.654000C27.190000,28.879000,28.183000,29.871000,29.407000,29.871000L33.843000,29.871000C35.069000,29.871000,36.062000,28.878000,36.062000,27.654000L36.062000,23.217000C36.062000,21.992000,35.068000,21,33.843000,21ZM33.843000,27.653000L29.407000,27.653000L29.407000,23.216000L33.843000,23.216000L33.843000,27.653000Z" fill="rgb(97,199,242)" stroke="none" stroke-width="1"/></g></g><path id="eqarayhdgqsd7" d="M40.497000,38.947000L40.497000,49.831000L9.447000,49.831000L9.447000,9.911000L40.497000,9.911000L40.497000,11.715000C41.233000,11.655000,41.974000,11.666000,42.714000,11.699000L42.714000,4.366000C42.714000,2.529000,41.226000,1.039000,39.388000,1.039000L10.557000,1.039000C8.719000,1.039000,7.230000,2.528000,7.230000,4.366000L7.230000,55.375000C7.230000,57.214000,8.719000,58.702000,10.557000,58.702000L39.388000,58.702000C41.226000,58.702000,42.714000,57.214000,42.714000,55.375000L42.714000,39.037000C41.975000,39.035000,41.234000,39.015000,40.497000,38.947000ZM9.447000,4.366000C9.447000,3.754000,9.944000,3.258000,10.556000,3.258000L39.387000,3.258000C39.999000,3.258000,40.496000,3.754000,40.496000,4.366000L40.496000,7.693000L9.447000,7.693000L9.447000,4.366000ZM40.497000,55.375000C40.497000,55.988000,40,56.484000,39.388000,56.484000L10.557000,56.484000C9.944000,56.484000,9.448000,55.988000,9.448000,55.375000L9.448000,52.049000L40.498000,52.049000L40.498000,55.375000Z" fill="rgb(1,1,1)" stroke="none" stroke-width="1"/></svg>