<svg id="ezaqvfkgfmw91" xmlns="http://www.w3.org/2000/svg" xmlns:xlink="http://www.w3.org/1999/xlink" viewBox="0 0 60 60" shape-rendering="geometricPrecision" text-rendering="geometricPrecision"><style><![CDATA[#ezaqvfkgfmw911_ts {animation: ezaqvfkgfmw911_ts__ts 1000ms linear 1 normal forwards}@keyframes ezaqvfkgfmw911_ts__ts { 0% {transform: translate(21.947000px,29.106000px) scale(1,1)} 50% {transform: translate(21.947000px,29.106000px) scale(0.050453,0.063527)} 100% {transform: translate(21.947000px,29.106000px) scale(0.858080,0.848919)} }]]></style><g id="ezaqvfkgfmw92"><g id="ezaqvfkgfmw93"><rect id="ezaqvfkgfmw94" width="17.894000" height="1.789000" rx="0" ry="0" transform="matrix(1 0 0 1 21.05400000000000 7.63400000000000)" fill="rgb(1,1,1)" stroke="none" stroke-width="1"/></g></g><g id="ezaqvfkgfmw95"><g id="ezaqvfkgfmw96"><path id="ezaqvfkgfmw97" d="M47.445000,36.711000C47.445000,34.984000,46.042000,33.578000,44.314000,33.578000L42.525000,33.578000L42.525000,21.054000L40.735000,21.054000L40.735000,33.578000L38.500000,33.578000C36.773000,33.578000,35.368000,34.984000,35.368000,36.711000C35.368000,37.588000,35.732000,38.377000,36.314000,38.947000C35.732000,39.515000,35.368000,40.306000,35.368000,41.183000C35.368000,41.787000,35.547000,42.345000,35.844000,42.824000C34.776000,43.322000,34.027000,44.400000,34.027000,45.656000C34.027000,46.138000,34.146000,46.592000,34.341000,46.998000L27.316000,46.998000C27.316000,44.264000,25.945000,41.842000,23.855000,40.387000C25.877000,39.616000,27.316000,37.657000,27.316000,35.367000C27.316000,34.875000,26.916000,34.472000,26.421000,34.472000L19.264000,34.472000L19.264000,25.526000L17.474000,25.526000L17.474000,34.472000C15.995000,34.472000,14.790000,35.677000,14.790000,37.158000L14.790000,56.840000L16.579000,56.840000L16.579000,37.158000C16.579000,36.664000,16.980000,36.262000,17.474000,36.262000L25.412000,36.262000C25.015000,37.805000,23.611000,38.948000,21.947000,38.948000L19.263000,38.948000C18.769000,38.948000,18.368000,39.348000,18.368000,39.843000C18.368000,40.338000,18.769000,40.738000,19.263000,40.738000C22.716000,40.738000,25.525000,43.547000,25.525000,47L25.525000,47.895000C25.525000,48.389000,25.925000,48.790000,26.420000,48.790000L31.655000,48.790000C31.459000,49.200000,31.342000,49.651000,31.342000,50.134000C31.342000,51.859000,32.747000,53.265000,34.472000,53.265000L34.472000,56.843000L36.262000,56.843000L36.262000,53.265000L39.841000,53.265000L40.288000,53.265000C42.015000,53.265000,43.419000,51.859000,43.419000,50.134000C43.419000,49.646000,43.298000,49.191000,43.098000,48.779000C44.766000,48.711000,46.104000,47.343000,46.104000,45.660000C46.104000,45.056000,45.924000,44.500000,45.627000,44.019000C46.697000,43.521000,47.444000,42.443000,47.444000,41.187000C47.444000,40.310000,47.081000,39.519000,46.499000,38.951000C47.082000,38.377000,47.445000,37.588000,47.445000,36.711000ZM40.289000,51.473000L39.842000,51.473000L35.368000,51.473000L34.472000,51.473000C33.734000,51.473000,33.131000,50.869000,33.131000,50.131000C33.131000,49.391000,33.734000,48.787000,34.472000,48.787000L37.157000,48.787000L40.289000,48.787000C41.029000,48.787000,41.630000,49.391000,41.630000,50.131000C41.630000,50.869000,41.029000,51.473000,40.289000,51.473000ZM42.974000,46.998000L40.289000,46.998000L37.157000,46.998000C36.417000,46.998000,35.816000,46.396000,35.816000,45.656000C35.816000,44.916000,36.417000,44.314000,37.157000,44.314000L38.500000,44.314000L42.974000,44.314000C43.713000,44.314000,44.315000,44.916000,44.315000,45.656000C44.315000,46.396000,43.713000,46.998000,42.974000,46.998000ZM44.314000,42.525000L42.973000,42.525000L38.500000,42.525000C37.759000,42.525000,37.157000,41.923000,37.157000,41.183000C37.157000,40.443000,37.759000,39.841000,38.500000,39.841000L44.314000,39.841000C45.055000,39.841000,45.657000,40.443000,45.657000,41.183000C45.657000,41.923000,45.056000,42.525000,44.314000,42.525000ZM44.314000,38.053000L38.500000,38.053000C37.759000,38.053000,37.157000,37.451000,37.157000,36.711000C37.157000,35.969000,37.759000,35.367000,38.500000,35.367000L44.314000,35.367000C45.055000,35.367000,45.657000,35.969000,45.657000,36.711000C45.657000,37.451000,45.056000,38.053000,44.314000,38.053000Z" fill="rgb(1,1,1)" stroke="none" stroke-width="1"/></g></g><g id="ezaqvfkgfmw98"><g id="ezaqvfkgfmw99"><path id="ezaqvfkgfmw910" d="M16.578000,14.548000C16.560000,14.291000,16.432000,14.054000,16.226000,13.899000L15.295000,13.193000C15.072000,12.066000,14.082000,11.213000,12.898000,11.213000C11.563000,11.213000,10.473000,12.299000,10.455000,13.640000C9.740000,13.515000,9.057000,13.241000,8.446000,12.829000L8.134000,12.618000C7.861000,12.433000,7.506000,12.413000,7.213000,12.570000C6.921000,12.725000,6.739000,13.029000,6.739000,13.360000L6.739000,14.094000C6.739000,15.173000,7.064000,16.201000,7.666000,17.064000L6.998000,17.740000C6.744000,17.996000,6.669000,18.381000,6.809000,18.714000C6.948000,19.047000,7.273000,19.264000,7.635000,19.264000L11.970000,19.264000C13.699000,19.264000,15.128000,17.947000,15.321000,16.255000L16.323000,15.241000C16.502000,15.058000,16.596000,14.806000,16.578000,14.548000ZM13.810000,15.235000C13.645000,15.402000,13.552000,15.629000,13.552000,15.864000C13.552000,16.752000,12.841000,17.474000,11.969000,17.474000L9.693000,17.474000C9.835000,17.148000,9.773000,16.755000,9.509000,16.488000C9.091000,16.065000,8.792000,15.533000,8.642000,14.959000C9.496000,15.319000,10.413000,15.506000,11.350000,15.506000C11.845000,15.506000,12.246000,15.106000,12.246000,14.611000L12.246000,13.672000C12.246000,13.302000,12.539000,13.001000,12.899000,13.001000C13.258000,13.001000,13.552000,13.302000,13.552000,13.672000C13.552000,13.952000,13.684000,14.215000,13.906000,14.385000L14.333000,14.709000L13.810000,15.235000Z" fill="rgb(1,1,1)" stroke="none" stroke-width="1"/></g></g><g id="ezaqvfkgfmw911_ts" transform="translate(21.947000,29.106000) scale(1,1)"><g id="ezaqvfkgfmw911" transform="translate(-21.947000,-29.106000)"><g id="ezaqvfkgfmw912"><g id="ezaqvfkgfmw913"><g id="ezaqvfkgfmw914"><path id="ezaqvfkgfmw915" d="M35.368000,13.001000L24.632000,13.001000C23.152000,13.001000,21.947000,14.206000,21.947000,15.686000L21.947000,26.421000C21.947000,27.902000,23.152000,29.106000,24.632000,29.106000L35.368000,29.106000C36.848000,29.106000,38.052000,27.902000,38.052000,26.421000L38.052000,15.686000C38.052000,14.206000,36.849000,13.001000,35.368000,13.001000ZM36.263000,26.421000C36.263000,26.915000,35.862000,27.317000,35.368000,27.317000L24.632000,27.317000C24.138000,27.317000,23.737000,26.916000,23.737000,26.421000L23.737000,15.686000C23.737000,15.193000,24.138000,14.791000,24.632000,14.791000L35.368000,14.791000C35.861000,14.791000,36.263000,15.192000,36.263000,15.686000L36.263000,26.421000Z" fill="rgb(38,170,224)" stroke="none" stroke-width="1"/></g></g></g><g id="ezaqvfkgfmw916"><g id="ezaqvfkgfmw917"><g id="ezaqvfkgfmw918"><path id="ezaqvfkgfmw919" d="M32.685000,18.370000L32.685000,16.580000L30,16.580000C29.506000,16.580000,29.106000,16.981000,29.106000,17.475000L29.106000,20.160000L27.316000,20.160000L27.316000,21.949000L29.106000,21.949000L29.106000,25.528000L30.895000,25.528000L30.895000,21.949000L32.685000,21.949000L32.685000,20.160000L30.895000,20.160000L30.895000,18.370000L32.685000,18.370000Z" fill="rgb(38,170,224)" stroke="none" stroke-width="1"/></g></g></g></g></g><g id="ezaqvfkgfmw920"><g id="ezaqvfkgfmw921"><path id="ezaqvfkgfmw922" d="M16.580000,7.634000L5.844000,7.634000C4.365000,7.634000,3.160000,8.838000,3.160000,10.318000L3.160000,21.054000C3.160000,22.534000,4.365000,23.738000,5.844000,23.738000L16.580000,23.738000C18.060000,23.738000,19.264000,22.534000,19.264000,21.054000L19.264000,10.317000C19.264000,8.838000,18.060000,7.634000,16.580000,7.634000ZM17.475000,21.054000C17.475000,21.547000,17.074000,21.948000,16.580000,21.948000L5.844000,21.948000C5.350000,21.948000,4.949000,21.547000,4.949000,21.054000L4.949000,10.317000C4.949000,9.824000,5.350000,9.422000,5.844000,9.422000L16.580000,9.422000C17.073000,9.422000,17.475000,9.824000,17.475000,10.317000L17.475000,21.054000Z" fill="rgb(1,1,1)" stroke="none" stroke-width="1"/></g></g><g id="ezaqvfkgfmw923"><g id="ezaqvfkgfmw924"><path id="ezaqvfkgfmw925" d="M54.155000,3.161000L43.420000,3.161000C41.940000,3.161000,40.735000,4.364000,40.735000,5.845000L40.735000,16.580000C40.735000,18.060000,41.939000,19.264000,43.420000,19.264000L54.155000,19.264000C55.636000,19.264000,56.840000,18.060000,56.840000,16.580000L56.840000,5.844000C56.840000,4.364000,55.637000,3.161000,54.155000,3.161000ZM55.051000,16.580000C55.051000,17.073000,54.651000,17.475000,54.155000,17.475000L43.420000,17.475000C42.927000,17.475000,42.525000,17.074000,42.525000,16.580000L42.525000,12.107000L44.404000,12.107000C44.821000,14.147000,46.629000,15.686000,48.787000,15.686000C50.948000,15.686000,52.755000,14.147000,53.171000,12.107000L55.051000,12.107000L55.051000,16.580000ZM46.104000,11.212000C46.104000,9.732000,47.308000,8.527000,48.787000,8.527000C50.268000,8.527000,51.473000,9.732000,51.473000,11.212000C51.473000,12.692000,50.269000,13.896000,48.787000,13.896000C47.309000,13.896000,46.104000,12.693000,46.104000,11.212000ZM55.051000,10.317000L53.171000,10.317000C52.755000,8.278000,50.948000,6.739000,48.787000,6.739000C46.629000,6.739000,44.821000,8.278000,44.404000,10.317000L42.525000,10.317000L42.525000,5.844000C42.525000,5.351000,42.926000,4.949000,43.420000,4.949000L54.155000,4.949000C54.650000,4.949000,55.051000,5.350000,55.051000,5.844000L55.051000,10.317000Z" fill="rgb(1,1,1)" stroke="none" stroke-width="1"/></g></g><g id="ezaqvfkgfmw926"><g id="ezaqvfkgfmw927"><rect id="ezaqvfkgfmw928" width="1.789000" height="1.789000" rx="0" ry="0" transform="matrix(1 0 0 1 29.10600000000000 39.84200000000000)" fill="rgb(1,1,1)" stroke="none" stroke-width="1"/></g></g></svg>