<svg id="e1qaq8g3nznx1" xmlns="http://www.w3.org/2000/svg" xmlns:xlink="http://www.w3.org/1999/xlink" viewBox="0 0 60 60" shape-rendering="geometricPrecision" text-rendering="geometricPrecision"><style><![CDATA[#e1qaq8g3nznx5_tr {animation: e1qaq8g3nznx5_tr__tr 1000ms linear 1 normal forwards}@keyframes e1qaq8g3nznx5_tr__tr { 0% {transform: translate(26.070000px,26.631000px) rotate(0deg)} 100% {transform: translate(26.070000px,26.631000px) rotate(-360.538517deg)} }]]></style><g id="e1qaq8g3nznx2"><g id="e1qaq8g3nznx3"><g id="e1qaq8g3nznx4"><g id="e1qaq8g3nznx5_tr" transform="translate(26.070000,26.631000) rotate(0)"><path id="e1qaq8g3nznx5" d="M26.070000,8.016000C15.789000,8.016000,7.455000,16.350000,7.455000,26.631000C7.455000,36.912000,15.789000,45.246000,26.070000,45.246000C36.350000,45.246000,44.685000,36.912000,44.685000,26.631000C44.674000,16.355000,36.346000,8.027000,26.070000,8.016000ZM26.070000,9.789000C31.546000,9.793000,36.676000,12.462000,39.824000,16.943000L37.607000,19.159000C37.067000,18.833000,36.451000,18.658000,35.821000,18.654000C33.862000,18.654000,32.275000,20.241000,32.275000,22.199000C32.278000,22.830000,32.452000,23.449000,32.777000,23.989000L26.973000,29.794000C25.873000,29.123000,24.493000,29.123000,23.394000,29.794000L19.362000,25.762000C19.688000,25.221000,19.861000,24.604000,19.864000,23.972000C19.866000,22.018000,18.284000,20.431000,16.330000,20.429000C14.713000,20.427000,13.302000,21.520000,12.899000,23.086000L9.610000,23.086000C11.289000,15.334000,18.140000,9.800000,26.070000,9.789000ZM37.594000,22.199000C37.594000,23.178000,36.800000,23.972000,35.822000,23.972000C34.842000,23.972000,34.050000,23.179000,34.050000,22.199000C34.050000,21.220000,34.842000,20.426000,35.822000,20.426000C36.800000,20.426000,37.594000,21.220000,37.594000,22.199000ZM26.957000,32.836000C26.957000,33.815000,26.163000,34.609000,25.184000,34.609000C24.205000,34.609000,23.411000,33.815000,23.411000,32.836000C23.411000,31.857000,24.205000,31.064000,25.184000,31.064000C26.163000,31.064000,26.957000,31.856000,26.957000,32.836000ZM18.092000,23.972000C18.092000,24.951000,17.299000,25.745000,16.319000,25.745000C15.340000,25.745000,14.546000,24.952000,14.546000,23.972000C14.546000,22.993000,15.340000,22.199000,16.319000,22.199000C17.298000,22.199000,18.092000,22.993000,18.092000,23.972000ZM34.254000,41.358000C31.750000,42.747000,28.933000,43.476000,26.070000,43.472000C16.774000,43.479000,9.234000,35.949000,9.227000,26.653000C9.227000,26.053000,9.258000,25.454000,9.322000,24.858000L12.899000,24.858000C13.302000,26.419000,14.707000,27.511000,16.318000,27.517000C16.950000,27.515000,17.568000,27.341000,18.108000,27.015000L22.140000,31.046000C21.814000,31.587000,21.640000,32.205000,21.637000,32.836000C21.637000,34.795000,23.225000,36.382000,25.183000,36.382000C27.141000,36.382000,28.728000,34.795000,28.728000,32.836000C28.725000,32.205000,28.552000,31.587000,28.226000,31.046000L34.030000,25.242000C34.570000,25.568000,35.188000,25.741000,35.820000,25.744000C37.778000,25.744000,39.365000,24.157000,39.365000,22.198000C39.362000,21.567000,39.188000,20.949000,38.863000,20.409000L40.796000,18.477000C45.308000,26.602000,42.378000,36.846000,34.254000,41.358000Z" transform="translate(-26.070000,-26.631000)" fill="rgb(153,112,177)" stroke="none" stroke-width="1"/></g></g></g></g><g id="e1qaq8g3nznx6"><g id="e1qaq8g3nznx7"><path id="e1qaq8g3nznx8" d="M48.231000,13.334000C49.843000,13.328000,51.247000,12.235000,51.651000,10.675000L57.095000,10.675000L57.095000,8.902000L51.651000,8.902000C51.247000,7.341000,49.843000,6.249000,48.231000,6.242000C46.272000,6.242000,44.685000,7.830000,44.685000,9.788000C44.689000,10.419000,44.861000,11.038000,45.188000,11.578000L43.629000,13.135000C36.179000,3.427000,22.267000,1.598000,12.557000,9.050000C2.849000,16.502000,1.019000,30.414000,8.472000,40.122000C15.506000,49.287000,28.400000,51.510000,38.098000,45.230000L40.772000,47.906000L42.026000,49.158000L49.163000,56.295000C50.977000,58.109000,53.920000,58.109000,55.735000,56.295000C57.548000,54.480000,57.548000,51.538000,55.735000,49.723000L48.598000,42.587000L47.345000,41.333000L44.669000,38.658000C49.418000,31.343000,49.418000,21.919000,44.669000,14.604000L46.441000,12.831000C46.981000,13.157000,47.600000,13.331000,48.231000,13.334000ZM48.231000,8.016000C49.210000,8.016000,50.002000,8.810000,50.002000,9.789000C50.002000,10.768000,49.209000,11.561000,48.231000,11.561000C47.253000,11.561000,46.458000,10.768000,46.458000,9.789000C46.458000,8.810000,47.253000,8.016000,48.231000,8.016000ZM54.479000,50.976000C55.616000,52.086000,55.636000,53.907000,54.526000,55.041000C53.416000,56.177000,51.596000,56.197000,50.462000,55.088000C50.445000,55.072000,50.431000,55.057000,50.415000,55.041000L43.279000,47.906000L47.344000,43.840000L54.479000,50.976000ZM46.091000,42.587000L42.026000,46.651000L39.572000,44.197000C39.698000,44.102000,39.814000,43.997000,39.938000,43.898000C40.061000,43.799000,40.204000,43.682000,40.335000,43.571000C40.528000,43.409000,40.721000,43.243000,40.909000,43.074000C41.006000,42.986000,41.097000,42.896000,41.192000,42.808000C41.555000,42.467000,41.907000,42.116000,42.248000,41.752000C42.337000,41.657000,42.426000,41.565000,42.514000,41.469000C42.684000,41.280000,42.849000,41.088000,43.012000,40.895000C43.123000,40.763000,43.232000,40.631000,43.339000,40.497000C43.437000,40.375000,43.541000,40.259000,43.637000,40.133000L46.091000,42.587000ZM42.653000,38.470000C42.374000,38.860000,42.086000,39.241000,41.782000,39.609000C41.693000,39.717000,41.598000,39.821000,41.507000,39.926000C41.236000,40.241000,40.956000,40.547000,40.667000,40.845000C40.541000,40.974000,40.413000,41.103000,40.283000,41.228000C39.987000,41.517000,39.681000,41.797000,39.364000,42.069000C39.260000,42.157000,39.155000,42.254000,39.048000,42.344000C38.680000,42.648000,38.298000,42.936000,37.908000,43.214000C28.731000,49.770000,15.978000,47.646000,9.423000,38.470000C2.867000,29.293000,4.991000,16.540000,14.168000,9.984000C23.345000,3.428000,36.099000,5.552000,42.654000,14.729000C47.726000,21.829000,47.726000,31.369000,42.653000,38.470000Z" fill="rgb(1,1,1)" stroke="none" stroke-width="1"/></g></g></svg>