<?xml version="1.0" encoding="utf-8"?>
<!-- Generator: Adobe Illustrator 16.0.0, SVG Export Plug-In . SVG Version: 6.00 Build 0)  -->
<!DOCTYPE svg PUBLIC "-//W3C//DTD SVG 1.1//EN" "http://www.w3.org/Graphics/SVG/1.1/DTD/svg11.dtd">
<svg version="1.1" id="Layer_1" xmlns="http://www.w3.org/2000/svg" xmlns:xlink="http://www.w3.org/1999/xlink" x="0px" y="0px"
	 width="760px" height="515.25px" viewBox="0 0 760 515.25" enable-background="new 0 0 760 515.25" xml:space="preserve">
<path id="Path_181" opacity="0.2" fill="#6C63FF" enable-background="new    " d="M122.469,47.982
	c-5.657-0.162-11.45,0-16.755,1.628c-14.432,4.435-21.272,18.942-19.049,31.48c2.224,12.538,11.374,23.462,20.867,33.442
	c9.494,9.981,19.778,19.855,24.989,31.791c2.595,5.956,3.808,12.628,1.17,18.578c-4.068,9.17-16.34,14.297-28.12,15.358
	c-11.779,1.062-23.607-1.011-35.432-1.705c-4.933-0.483-9.913-0.139-14.732,1.017c-5.128,1.46-9.402,4.441-13.33,7.549
	c-15.33,12.193-27.6,28.829-25.611,46.305c2.246,19.807,22.27,35.459,44.201,43.858c7.263,2.806,14.945,5.037,21.336,9.008
	c16.838,10.475,20.62,30.12,18.943,47.457c-1.676,17.337-7.388,34.695-4.208,51.877c3.739,19.988,20.291,38.042,42.616,46.481
	c19.892,7.514,44.784,7.016,62.442-3.586c8.609-5.178,15.12-12.37,20.781-19.806c8.408-10.984,15.353-23.012,20.662-35.783
	c2.463-5.956,4.777-12.362,10.523-16.503c3.509-2.547,8.055-3.97,12.557-5.079c13.55-3.339,27.833-4.251,41.514-7.226
	c13.682-2.976,27.446-8.54,34.884-18.433c10.525-14.032,5.614-32.008,5.663-48.51c0.083-37.647,27.44-71.346,37.536-108.047
	c3.297-11.99,4.526-25.258-2.843-35.957c-5.002-7.261-13.442-12.503-22.31-16.551c-19.513-8.904-41.69-12.867-63.502-16.726
	c-30.316-5.361-67.133-6.054-90.63-23.398C184.07,59.861,153.22,47.982,122.469,47.982z"/>
<ellipse id="Ellipse_14" fill="#F5F5F5" cx="416.863" cy="389.954" rx="326.245" ry="87.364"/>
<path id="Path_182" fill="#6C63FF" d="M687.81,179.037c0,0-25.139,25.139-10.94,62.443c14.198,37.303-24.337,99.342-24.337,99.342
	s0.415-0.064,1.179-0.197c51.633-9.122,77.288-68.168,48.58-112.04C691.619,212.28,682.855,193.167,687.81,179.037z"/>
<path id="Path_183" fill="none" stroke="#535461" stroke-width="2" stroke-miterlimit="10" d="M687.81,179.037
	c0,0-14.194,30.814,0,55.953c14.193,25.139,2.434,95.692-35.277,105.832"/>
<path id="Path_184" fill="#6C63FF" d="M732.585,280.727c0,0-28.688-4.568-31.298,21.135c-2.611,25.702-55.161,29.271-55.161,29.271
	l0.983,0.651c43.386,28.479,84.893,18.145,78.578-19.642C723.394,298.049,723.582,283.926,732.585,280.727z"/>
<path id="Path_185" opacity="0.2" fill="#F5F5F5" enable-background="new    " d="M732.585,280.727c0,0-28.688-4.568-31.298,21.135
	c-2.611,25.702-55.161,29.271-55.161,29.271l0.983,0.651c43.386,28.479,84.893,18.145,78.578-19.642
	C723.394,298.049,723.582,283.926,732.585,280.727z"/>
<path id="Path_186" fill="none" stroke="#535461" stroke-width="2" stroke-miterlimit="10" d="M732.585,280.72
	c0,0-22.269,4.911-20.438,25.131c1.832,20.222-33.068,44.519-66.021,25.259"/>
<linearGradient id="Path_187_1_" gradientUnits="userSpaceOnUse" x1="371.3052" y1="264.418" x2="371.3052" y2="265.6611" gradientTransform="matrix(382.642 0 0 -206.395 -141644.6406 54946.6172)">
	<stop  offset="0" style="stop-color:#808080;stop-opacity:0.251"/>
	<stop  offset="0.54" style="stop-color:#808080;stop-opacity:0.122"/>
	<stop  offset="1" style="stop-color:#808080;stop-opacity:0.102"/>
</linearGradient>
<path id="Path_187" fill="url(#Path_187_1_)" d="M666.191,342.553H621.12c1.037-2.086,1.575-4.383,1.571-6.712V130.577
	c0-8.335-6.757-15.091-15.091-15.091H258.665c-8.334-0.004-15.095,6.749-15.099,15.083c0,0.003,0,0.006,0,0.008v205.269
	c-0.004,2.329,0.535,4.627,1.572,6.712h-46.665c-2.205,0-3.991,1.788-3.991,3.992v3.221c0.009,12.323,10.003,22.308,22.328,22.307
	h431.05c12.33,0,22.325-9.995,22.325-22.325l0,0v-3.221C670.178,344.332,668.393,342.553,666.191,342.553L666.191,342.553z
	 M388.433,355.324l-3.845-4.385h95.924l-4.28,4.392L388.433,355.324z"/>
<path id="Rectangle_38" fill="#672E91" d="M276.769,118.39h312.698c15.971,0,28.917,12.946,28.917,28.917v172.286
	c0,15.97-12.946,28.916-28.917,28.916H276.769c-15.97,0-28.917-12.946-28.917-28.916V147.307
	C247.852,131.336,260.799,118.39,276.769,118.39z"/>
<rect id="Rectangle_39" x="255.647" y="151.933" fill="#FFFFFF" width="354.149" height="187.997"/>
<circle id="Ellipse_15" fill="#FFFFFF" cx="432.726" cy="135.55" r="3.122"/>
<path id="Path_188" fill="#672E91" d="M487.408,340.314l-12.173,12.481h-85.807l-10.994-12.481H203.778
	c-2.154,0-3.901,1.747-3.901,3.901l0,0v3.147c0,12.05,9.769,21.819,21.819,21.819l0,0h421.279
	c12.052,0.002,21.822-9.765,21.823-21.815c0-0.001,0-0.003,0-0.004v-3.143c0-2.154-1.746-3.901-3.9-3.901l0,0L487.408,340.314z"/>
<linearGradient id="Path_189_1_" gradientUnits="userSpaceOnUse" x1="368.2456" y1="264.3291" x2="368.2456" y2="265.5723" gradientTransform="matrix(142.211 0 0 -188.471 -52077.3594 50211.2227)">
	<stop  offset="0" style="stop-color:#808080;stop-opacity:0.251"/>
	<stop  offset="0.54" style="stop-color:#808080;stop-opacity:0.122"/>
	<stop  offset="1" style="stop-color:#808080;stop-opacity:0.102"/>
</linearGradient>
<path id="Path_189" fill="url(#Path_189_1_)" d="M365.934,158.542H216.542c-7.558-0.008-13.691,6.11-13.704,13.668v206.973
	c0.011,7.557,6.146,13.676,13.704,13.668h149.392c7.557,0.007,13.691-6.111,13.702-13.668V172.21
	C379.625,164.652,373.491,158.534,365.934,158.542L365.934,158.542z"/>
<path id="Path_228" fill="#672E91" d="M229.8,161.348h122.867c13.731,0,24.864,11.132,24.864,24.864v179.697
	c0,13.733-11.133,24.864-24.864,24.864H229.8c-13.732,0-24.864-11.131-24.864-24.864V186.212
	C204.936,172.48,216.067,161.348,229.8,161.348z"/>
<rect id="Rectangle_41" x="213.707" y="183.05" fill="#FFFFFF" width="155.055" height="186.024"/>
<circle id="Ellipse_16" fill="#FFFFFF" cx="290.532" cy="171.873" r="2.105"/>
<circle id="Ellipse_17" fill="#FFFFFF" cx="290.532" cy="379.548" r="6.313"/>
<linearGradient id="Path_190_1_" gradientUnits="userSpaceOnUse" x1="363.6479" y1="264.0811" x2="363.6479" y2="265.3242" gradientTransform="matrix(73.924 0 0 -147.295 -26668.6309 39309.7617)">
	<stop  offset="0" style="stop-color:#808080;stop-opacity:0.251"/>
	<stop  offset="0.54" style="stop-color:#808080;stop-opacity:0.122"/>
	<stop  offset="1" style="stop-color:#808080;stop-opacity:0.102"/>
</linearGradient>
<path id="Path_190" fill="url(#Path_190_1_)" d="M252.061,228.703h-76.705c-4.188-0.008-7.59,3.38-7.599,7.568c0,0,0,0.001,0,0.001
	v167.979c0.008,4.188,3.409,7.576,7.598,7.568c0,0,0,0,0.001,0h76.705c4.189,0.009,7.59-3.38,7.599-7.567v-0.001V236.272
	c-0.007-4.188-3.409-7.577-7.598-7.57C252.063,228.703,252.063,228.703,252.061,228.703L252.061,228.703z"/>
<path id="Path_229" fill="#672E91" d="M182.127,230.106h63.155c7.552,0,13.675,6.123,13.675,13.675l0,0v153.661
	c0,7.552-6.123,13.675-13.675,13.675h-63.155c-7.553,0-13.676-6.123-13.676-13.675V243.781
	C168.452,236.229,174.574,230.106,182.127,230.106z"/>
<rect id="Rectangle_43" x="175.117" y="246.944" fill="#FFFFFF" width="77.177" height="147.337"/>
<circle id="Ellipse_18" fill="#FFFFFF" cx="204.585" cy="238.525" r="0.701"/>
<path id="Rectangle_44" fill="#FFFFFF" d="M208.794,237.824h14.034c0.387,0,0.702,0.314,0.702,0.702v0.001
	c0,0.387-0.314,0.701-0.702,0.701h-14.034c-0.387,0-0.7-0.314-0.7-0.701v-0.001C208.094,238.138,208.407,237.824,208.794,237.824z"
	/>
<circle id="Ellipse_19" fill="#FFFFFF" cx="213.354" cy="401.297" r="4.911"/>
<path id="Path_191" fill="none" stroke="#535461" stroke-width="2" stroke-miterlimit="10" d="M159.184,424.171
	c0,0-9.302-31.579,1.748-54.827c4.704-9.719,6.127-20.702,4.055-31.298c-1.023-5.021-2.506-9.937-4.426-14.687"/>
<path id="Path_192" fill="#6C63FF" d="M167.406,308.671c0,3.871-7.016,15.091-7.016,15.091s-7.016-11.227-7.016-15.091
	c0.052-3.874,3.236-6.975,7.11-6.922C164.287,301.8,167.355,304.869,167.406,308.671L167.406,308.671z"/>
<path id="Path_193" fill="#6C63FF" d="M179.018,330.111c-2.104,3.248-14.088,8.862-14.088,8.862s0.219-13.234,2.323-16.482
	c1.95-3.349,6.245-4.482,9.595-2.533c3.348,1.95,4.482,6.245,2.533,9.594C179.268,329.744,179.147,329.931,179.018,330.111z"/>
<path id="Path_194" fill="#6C63FF" d="M178.485,366.743c-3.458,1.742-16.635,0.542-16.635,0.542s6.868-11.314,10.319-13.054
	c3.535-1.588,7.687-0.01,9.275,3.524c1.488,3.313,0.204,7.213-2.961,8.991L178.485,366.743z"/>
<path id="Path_195" fill="#6C63FF" d="M171.862,394.381c-3.116,2.301-16.306,3.339-16.306,3.339s4.855-12.309,7.97-14.608
	c3.239-2.126,7.589-1.226,9.718,2.013c1.961,2.987,1.364,6.975-1.388,9.254L171.862,394.381z"/>
<path id="Path_196" fill="#6C63FF" d="M150.19,339.726c2.806,2.693,15.709,5.493,15.709,5.493s-3.164-12.846-5.943-15.541
	c-2.645-2.83-7.084-2.983-9.917-0.34c-2.833,2.645-2.985,7.086-0.341,9.916c0.156,0.168,0.32,0.327,0.492,0.479V339.726z"/>
<path id="Path_197" fill="#6C63FF" d="M142.85,372.14c3.459,1.74,16.635,0.541,16.635,0.541s-6.868-11.314-10.319-13.055
	c-3.377-1.899-7.656-0.7-9.554,2.677c-1.9,3.379-0.702,7.656,2.677,9.556c0.184,0.103,0.372,0.198,0.563,0.284L142.85,372.14z"/>
<path id="Path_198" fill="#6C63FF" d="M140.044,404.623c3.115,2.301,16.306,3.341,16.306,3.341s-4.855-12.308-7.97-14.607
	c-3.237-2.132-7.588-1.236-9.72,1.999c-1.97,2.992-1.371,6.987,1.391,9.268H140.044z"/>
<linearGradient id="Path_199_1_" gradientUnits="userSpaceOnUse" x1="370.5659" y1="264.2373" x2="370.5659" y2="265.4805" gradientTransform="matrix(256.5839 0 0 -179.4968 -94526.2422 47870.3359)">
	<stop  offset="0" style="stop-color:#808080;stop-opacity:0.251"/>
	<stop  offset="0.54" style="stop-color:#808080;stop-opacity:0.122"/>
	<stop  offset="1" style="stop-color:#808080;stop-opacity:0.102"/>
</linearGradient>
<path id="Path_199" fill="url(#Path_199_1_)" d="M714.344,323.736c-7.767-9.422-17.175-20.249-15.855-32.785
	c1.065-10.153-1.492-19.542-0.981-29.729c0.699-14.475-2.204-25.805-12.63-35.081c-6.092-5.423-16.27-9.682-19.301-8.594
	c-6.006,2.146-12.556,1.326-18.741,2.806c-4.693,1.094-7.814,2.806-9.751,4.911c-3.894,3.508-3.957,8.419-2.182,13.646
	c-6.101,11.172-1.988,25.173,9.184,31.274c0.715,0.391,1.45,0.743,2.203,1.055c-4.329,1.812-8.068,5.979-9.527,14.439
	c-1.016,5.811-2.548,11.518-4.582,17.057c-0.913,0.428-1.851,0.804-2.806,1.129c0.21,0.086,0.428,0.142,0.64,0.219
	c-0.457,0.175-0.906,0.35-1.403,0.504c0.828,0.323,1.687,0.574,2.561,0.747c-3.16,8.187-7.407,15.91-12.63,22.962
	c0,0-13.084,2.89-18.172-2.168c0,0,0.828,0.97,1.952,2.421c-4.974-2.063-13.143-5.43-20.123-8.206c-5.066-2.015-6.364,0-6.314,2.806
	c-1.236,0.155-2.43,0.557-3.509,1.179c-1.496-0.962-3.066-1.808-4.695-2.526c-2.903-0.7-12.354-5.78-21.806,11.556
	c-5.499,10.083-19.602,28.487-30.44,42.097c-21.084,9.698-48.53,21.975-58.732,25.062h-6.539c-0.855-1.402-1.453-2.286-1.453-2.286
	l-0.504,0.336l-0.217-0.336c0,0-12.84,8.888-25.876,8.959c-1.854-0.025-3.699-0.261-5.501-0.701
	c-5.992-1.508-10.215-2.182-13.233-2.104c-3.571-0.065-5.613,0.783-6.847,2.383l0,0c-0.166,0.212-0.319,0.431-0.457,0.661l0,0
	c-0.136,0.227-0.26,0.46-0.373,0.701l0,0c-0.111,0.249-0.224,0.519-0.323,0.793c-0.082,0.494,0.068,0.998,0.407,1.366
	c0.175,0.245,0.364,0.481,0.568,0.702l0.364,0.394c2.581,2.403,5.375,4.566,8.349,6.464c1.073,0.701,2.211,1.474,3.396,2.238
	l2.253,1.404l2.014,1.255l0.808,0.497l0.897,0.546l1.605,0.976l0.955,0.575l1.803,1.073l1.46,0.864
	c3.816,2.251,7.618,4.433,11.051,6.368l2.398,1.432l0.231,0.125l1.545,0.861l2.665,1.481l1.831,1.011l0.855,0.47l0.918,0.505
	l0.184,0.098l1.601,0.871c0.665,0.112,1.346-0.073,1.864-0.505c0.463-1.965,1.592-6.173,2.806-6.497
	c1.213-0.324,6.465-9.507,7.949-15.653h14.186c2.796-0.238,5.57-0.666,8.307-1.276c-3.661,2.609-7.289,4.252-10.109,3.55
	c-5.967-1.479-11.611,2.155-12.183,5.739c-0.014,0.078-0.036,0.152-0.069,0.225c-0.022,0.077-0.035,0.148-0.05,0.218
	s-0.042,0.175-0.057,0.267c-0.007,0.073-0.007,0.15,0,0.225v0.969c0.015,0.097,0.037,0.194,0.07,0.286
	c0.029,0.099,0,0.125,0.048,0.184c0.045,0.127,0.097,0.251,0.154,0.372l0.036,0.091c0.077,0.153,0.167,0.303,0.265,0.442
	l0.112,0.148c0.071,0.101,0.147,0.196,0.23,0.287l0.163,0.162c0.083,0.085,0.174,0.167,0.267,0.249l0.195,0.161l0.316,0.23
	l0.23,0.154l0.372,0.226l0.249,0.133l0.478,0.226l0.239,0.106c0.249,0.105,0.52,0.203,0.807,0.294
	c0.456,0.147,0.995,0.302,1.605,0.455l0.61,0.148l0.894,0.204l0.47,0.105c0.607,0.131,1.253,0.263,1.936,0.395l0.946,0.174
	l0.773,0.141l1.774,0.31c1.11,0.188,2.267,0.371,3.509,0.559l3.06,0.463l3.986,0.568l0.883,0.124l1.403,0.196l2.057,0.274
	l1.404,0.182l0,0l3.641,0.463l1.137,0.141l2.295,0.28c3.017,0.366,5.934,0.702,8.621,1.005l3.108,0.349l1.571,0.177l0.702,0.069
	l1.879,0.204l1.045,0.111l1.291,0.134l1.817,0.188h0.204l1.165,0.125l0,0c0.582,0.063,1.104-0.358,1.166-0.94
	c0.004-0.03,0.005-0.061,0.006-0.091l0,0v-0.124c0.107-0.163,0.164-0.354,0.168-0.547c0.03-1.73,0.249-3.454,0.652-5.137
	c0.076-0.288,0.168-0.58,0.267-0.876l0.112-0.338c0.123-0.356,0.248-0.7,0.398-1.088c0.106-0.261,0.198-0.527,0.274-0.799
	c0.014-0.09,0.039-0.177,0.077-0.26c0.028-0.091,0.069-0.288,0.098-0.435c1.46-4.989-0.302-14.297-0.806-17.947
	c-0.163-1.167-0.431-2.317-0.8-3.437c0.091,0.008,0.183,0.008,0.272,0c0.754-0.277,1.463-0.663,2.105-1.144
	c10.72-3.825,19.756-8.195,22.613-12.573c4.623-1.222,9.535-0.707,13.807,1.444c5.549,2.758,47.533,16.461,67.081,22.788
	c3.508,3.023,6.258,4.791,7.78,4.659c0,0,24.888,4.026,34.892-3.831c0.891,0.621,1.452,0.947,1.452,0.947
	s14.536-7.219,16.721-16.613c0.699-3.045,1.34-7.536,1.987-12.504c3.373-3.397,5.27-7.989,5.277-12.775
	c0.456-15.773,6.566-33.79,11.099-49.814c5.5,0.434,7.626-0.604,12.671-3.096l-0.226-0.286
	C713.711,324.034,714.028,323.89,714.344,323.736z M631.001,347.357l-2.806-0.936c0.94-1.255,1.751-2.605,2.419-4.025
	L631.001,347.357z M615.362,353.997l16.838,10.104l0.148,2.056c-0.206,1.564-0.158,3.151,0.139,4.7
	c-7.423-6.588-16.107-14.6-17.133-16.865L615.362,353.997z M608.486,339.265c-1.839-0.758-3.357-1.447-4.406-2.016
	c1.403,0.1,2.735,0.184,3.9,0.25c0.23,0.569,0.399,1.161,0.506,1.768V339.265z M563.384,355.729c0,0,2.905-6.498,9.449,4.336
	c1.017,1.684,2.891,4.364,5.366,7.684l-19.055-2.549c2.004-2.854,3.443-6.066,4.239-9.463V355.729z"/>
<path id="Path_200" fill="#F7C4A7" d="M605.245,329.63c0,0-13.332-5.614-23.855-9.822c-10.522-4.208-4.209,9.822-4.209,9.822
	s17.539,4.909,17.539,5.612s14.734,1.403,14.734,1.403L605.245,329.63z"/>
<path id="Path_201" opacity="0.05" enable-background="new    " d="M605.245,329.63c0,0-13.332-5.614-23.855-9.822
	c-10.522-4.208-4.209,9.822-4.209,9.822s17.539,4.909,17.539,5.612s14.734,1.403,14.734,1.403L605.245,329.63z"/>
<path id="Path_202" fill="#575988" d="M662.075,274.202c0,0-23.855-12.629-28.065,11.928c-2.637,14.949-8.635,29.104-17.541,41.398
	c0,0-12.628,2.806-17.539-2.104c0,0,11.927,14.031,6.313,15.436c0,0,12.628,9.12,18.242,6.313
	c5.612-2.808,9.821-21.749,11.927-26.661C637.519,315.602,645.235,272.799,662.075,274.202z"/>
<path id="Path_203" opacity="0.1" enable-background="new    " d="M662.075,274.202c0,0-23.855-12.629-28.065,11.928
	c-2.637,14.949-8.635,29.104-17.541,41.398c0,0-12.628,2.806-17.539-2.104c0,0,11.927,14.031,6.313,15.436
	c0,0,12.628,9.12,18.242,6.313c5.612-2.808,9.821-21.749,11.927-26.661C637.519,315.602,645.235,272.799,662.075,274.202z"/>
<path id="Path_204" fill="#F7C4A7" d="M648.743,265.782c0,0,14.733,16.839,15.436,30.87c0.703,14.032,16.838-14.733,18.241-15.436
	c1.403-0.701-14.032-24.555-15.436-32.273C665.58,241.226,648.743,265.782,648.743,265.782z"/>
<path id="Path_205" fill="#F7C4A7" d="M658.918,272.975l-9.297,8.42l4.385,17.716l11.928-11.229l-1.404-11.225L658.918,272.975z"/>
<path id="Path_206" fill="#F7C4A7" d="M464.923,397.686h-16.138l6.315,15.435l15.436-4.209L464.923,397.686z"/>
<path id="Path_207" opacity="0.1" enable-background="new    " d="M452.518,395.461c0,0-16.711,11.639-30.989,8.019
	c-14.277-3.618-18.157-2.267-19.821,2.408c-1.535,4.3,39.88,27.048,46.482,30.638c0.367,0.201,0.827,0.066,1.026-0.301
	c0.034-0.062,0.06-0.127,0.074-0.197c0.45-1.906,1.538-5.997,2.702-6.313c1.516-0.406,8.418-13.331,8.04-18.411
	C459.655,406.225,452.518,395.461,452.518,395.461z"/>
<path id="Path_208" fill="#F3B5B7" d="M451.816,395.461c0,0-16.712,11.639-30.99,8.019c-14.275-3.618-18.156-2.267-19.818,2.408
	c-1.538,4.3,39.879,27.048,46.479,30.638c0.367,0.201,0.827,0.066,1.028-0.301c0.033-0.062,0.059-0.127,0.073-0.197
	c0.449-1.906,1.537-5.997,2.701-6.313c1.517-0.406,8.42-13.331,8.043-18.411C458.954,406.225,451.816,395.461,451.816,395.461z"/>
<path id="Path_209" fill="#575988" d="M589.808,367.516l-47.007-6.314c0,0-76.475,36.484-85.596,37.187l2.104,16.135h14.033
	c5.612,0,60.338-11.926,68.056-23.853c4.465-1.188,9.211-0.689,13.331,1.402c7.017,3.51,74.369,25.259,74.369,25.259
	L589.808,367.516z"/>
<path id="Path_210" opacity="0.1" enable-background="new    " d="M589.808,367.516l-47.007-6.314c0,0-76.475,36.484-85.596,37.187
	l2.104,16.135h14.033c5.612,0,60.338-11.926,68.056-23.853c4.465-1.188,9.211-0.689,13.331,1.402
	c7.017,3.51,74.369,25.259,74.369,25.259L589.808,367.516z"/>
<path id="Path_211" fill="#F7C4A7" d="M506.317,389.266l-7.718,9.82l7.718,4.211l11.228-8.42L506.317,389.266z"/>
<path id="Path_212" fill="#575988" d="M640.324,378.039c0,0-25.258-21.622-27.004-25.545c-1.748-3.923-43.156-30.584-45.964-31.284
	c-2.807-0.701-11.928-5.613-21.048,11.227c-9.122,16.839-42.798,57.53-42.798,57.53s10.523,14.733,14.031,14.031
	c3.508-0.701,42.798-33.677,45.604-49.813c0,0,2.807-6.315,9.122,4.209c6.316,10.523,47.008,61.041,54.725,60.338
	c0,0,30.169,4.91,36.483-7.017C669.791,399.788,640.324,378.039,640.324,378.039z"/>
<path id="Path_213" fill="#DDDBE2" d="M654.708,275.255c0,0-8.77,3.854-9.473,19.996c-0.702,16.141-16.137,43.498-16.137,43.498
	l1.404,32.275c0,0,16.837,16.837,18.241,27.363c1.403,10.524,13.331,17.54,13.331,17.54s14.031-7.016,16.135-16.138
	c2.106-9.12,3.51-31.577,7.019-39.991c3.507-8.413,1.402-61.04,1.402-61.04l-10.524-18.243l-5.61-6.313l-14.732,16.837
	C655.764,291.039,647.69,280.168,654.708,275.255z"/>
<path id="Path_214" opacity="0.1" enable-background="new    " d="M634.01,360.498c0,0-2.105-25.257,4.21-30.868l12.63-35.78
	c0,0,4.56-17.189,3.854-18.593c-0.706-1.401-16.487,13.676-16.487,13.676l-10.52,37.188l2.806,39.285L634.01,360.498z"/>
<path id="Path_215" fill="#575988" d="M633.308,360.501c0,0-2.104-25.259,4.209-30.871l12.628-35.781c0,0,4.912-17.541,4.211-18.943
	c-0.703-1.402-16.839,14.031-16.839,14.031l-10.523,37.186l2.807,39.284L633.308,360.501z"/>
<path id="Path_216" fill="#F7C4A7" d="M638.22,349.273c0,0-35.081-11.226-37.187-14.031c-2.104-2.806-24.556-21.048-32.273-8.42
	c-7.718,12.63,28.765,16.138,28.765,16.138l37.187,22.446L638.22,349.273z"/>
<path id="Path_217" opacity="0.1" enable-background="new    " d="M507.84,399.024l-10.382-1.865c0,0-17.009,21.786-25.87,19.574
	c-8.86-2.211-17.014,7.325-7.653,10.384c8.454,2.766,44.966,6.63,51.919,7.346c0.562,0.059,1.065-0.349,1.124-0.913
	c0.003-0.026,0.004-0.055,0.007-0.081c0.053-2.712,0.602-5.391,1.615-7.907c1.873-4.599,0-14.467-0.52-18.241
	c-0.286-2.212-0.979-4.353-2.042-6.313L507.84,399.024z"/>
<path id="Path_218" fill="#F3B5B7" d="M507.664,399.705l-10.384-1.864c0,0-17.007,21.784-25.858,19.581s-17.013,7.325-7.655,10.383
	c8.455,2.765,44.967,6.63,51.921,7.347c0.562,0.059,1.065-0.351,1.123-0.912c0.004-0.028,0.005-0.056,0.005-0.083
	c0.035-2.705,0.561-5.383,1.552-7.9c1.873-4.6,0-14.468-0.521-18.241c-0.285-2.212-0.978-4.354-2.041-6.314L507.664,399.705z"/>
<circle id="Ellipse_20" opacity="0.1" enable-background="new    " cx="654.425" cy="251.436" r="22.378"/>
<circle id="Ellipse_21" fill="#F7C4A7" cx="651.938" cy="251.436" r="22.378"/>
<path id="Path_219" fill="#575988" d="M674.002,273.5c0,0,26.661,9.122,26.661,28.065c0,18.941-14.735,49.106-15.436,73.669
	c-0.704,24.561-39.287,21.047-39.287,21.047s-5.612-82.788,0-89.104C651.555,300.862,676.808,276.306,674.002,273.5z"/>
<path id="Path_220" opacity="0.1" enable-background="new    " d="M669.09,312.79c0,0-9.822,43.501-32.974,35.783
	c0,0-11.93,17.54-3.51,25.258c0,0,20.347,4.912,33.677-8.418c13.331-13.332,23.154-18.243,25.259-34.381
	c2.104-16.135,3.508-38.588-3.508-36.482C681.017,296.655,669.09,312.79,669.09,312.79z"/>
<path id="Path_221" fill="#575988" d="M669.793,312.09c0,0-9.823,43.499-32.978,35.782c0,0-11.927,17.539-3.508,25.257
	c0,0,20.347,4.911,33.677-8.417c13.332-13.331,23.153-18.244,25.259-34.379c2.104-16.137,3.509-38.589-3.51-36.483
	C681.718,295.954,669.793,312.09,669.793,312.09z"/>
<path id="Path_222" fill="#DDDBE2" d="M518.975,423.994c-0.01,0.069-0.032,0.136-0.063,0.196c-0.482,1.2-0.853,2.443-1.101,3.712
	c0.167-0.548,0.365-1.109,0.588-1.67C518.675,425.51,518.867,424.761,518.975,423.994z"/>
<path id="Path_223" fill="#DDDBE2" d="M464.284,425.754c-2.891-0.946-4.102-2.504-4.152-4.146c-1.193,2.287-0.442,4.855,3.642,6.189
	c8.453,2.765,44.973,6.63,51.919,7.345c0.562,0.061,1.065-0.349,1.123-0.913c0.005-0.028,0.006-0.059,0.007-0.09l0,0
	c0.01-0.532-0.389-0.986-0.919-1.045C508.282,432.28,472.624,428.478,464.284,425.754z"/>
<path id="Path_224" fill="#DDDBE2" d="M401.975,404.651c0.186-0.519,0.422-1.018,0.701-1.492c-0.756,0.766-1.32,1.699-1.648,2.724
	c-1.536,4.3,39.88,27.047,46.482,30.638c0.366,0.201,0.826,0.066,1.026-0.301c0.034-0.063,0.06-0.127,0.074-0.196l0,0
	c0.081-0.333-0.072-0.678-0.372-0.842C440.942,431.193,400.46,408.903,401.975,404.651z"/>
<path id="Path_225" fill="#DDDBE2" d="M452.252,428.493c-0.373,0.098-0.737,0.597-1.081,1.276l0.112-0.043
	c0.308-0.085,0.835-0.701,1.474-1.615c-0.137,0.161-0.312,0.288-0.505,0.372V428.493z"/>
<path id="Path_226" opacity="0.1" enable-background="new    " d="M648.785,271.165c-1.978,4.363-2.392,9.281-3.845,13.856
	c-2.878,9.067-9.824,16.271-18.783,19.478c7.291,2.903,15.893-0.646,21.525-6.541c5.634-5.895,8.938-13.737,12.103-21.371
	c8.18,5.502,7.185,18.145,9.935,27.987c2.388,8.665,8.415,15.87,16.522,19.751c8.087,3.629,17.373,3.44,25.307-0.513
	c-7.5-9.121-18.178-21.698-16.908-33.881c1.032-9.864-6.047-17.405-5.563-27.3c0.701-14.031-4.674-21.16-14.733-30.168
	c-5.879-5.269,3.375-12.699-4.21-10.524c-2.982,0.856-6.125-2.336-9.05-1.284c-5.796,2.105-12.123,1.291-18.088,2.694
	C612,230.632,651.677,264.795,648.785,271.165z"/>
<path id="Path_227" fill="#FC6681" d="M649.486,270.463c-1.979,4.363-2.392,9.28-3.845,13.855
	c-2.877,9.069-9.825,16.272-18.782,19.478c7.291,2.903,15.893-0.646,21.524-6.541c5.633-5.894,8.938-13.736,12.103-21.37
	c8.181,5.5,7.185,18.144,9.936,27.987c2.388,8.665,8.414,15.87,16.521,19.75c8.089,3.63,17.378,3.443,25.312-0.513
	c-7.499-9.119-17.476-19.595-16.206-31.775c1.03-9.864-0.504-20.003,0-29.896c0.702-14.032-6.181-27.586-16.248-36.596
	c-5.88-5.268-15.063-5.942-17.997-4.91c-5.795,2.104-12.124,1.29-18.087,2.694C612.7,229.93,652.376,264.092,649.486,270.463z"/>
<g>
	<path fill="#662D91" d="M489.024,242.088c-1.876-2.418-3.604-4.931-5.22-7.528c-1.526-2.454-2.744-4.988-2.83-8
		c-0.047-1.648-0.466-3.302-1.053-4.885c-1.088-2.922-2.521-5.68-4.052-8.381c-2.444-4.308-5.69-7.937-9.618-10.945
		c-2.673-2.046-5.574-3.692-8.708-4.941c-3.074-1.228-6.266-2.014-9.54-2.379c-3.039-0.339-6.084-0.274-9.135,0.199
		c-2.69,0.418-5.302,1.047-7.845,1.996c-4.804,1.792-9.031,4.513-12.673,8.085c-4.213,4.136-7.304,9.009-9.152,14.661
		c-1.057,3.227-1.756,6.508-1.825,9.899c-0.053,2.575-0.071,5.142,0.424,7.702c0.349,1.805,0.718,3.6,1.278,5.341
		c1.503,4.655,3.935,8.809,7.052,12.57c0.193,0.232,0.358,0.536,0.756,0.585c0.109-0.268-0.011-0.426-0.094-0.585
		c-1.265-2.446-2.118-5.034-2.775-7.697c-0.769-3.102-1.213-6.253-1.283-9.443c-0.041-1.83-0.009-3.655,0.203-5.491
		c0.246-2.141,0.533-4.258,1.021-6.354c0.851-3.645,2.158-7.105,4.019-10.358c2.774-4.854,6.62-8.607,11.512-11.289
		c2.562-1.404,5.228-2.372,7.983-2.972c1.401-0.269,11.863-1.994,23.014,4.077c1.361,0.88,2.654,1.873,3.877,2.978
		c6.041,5.47,9.296,12.376,10.038,20.45c0.268,2.916-0.056,5.826-0.688,8.704c-0.926,4.216-2.655,8.053-5.207,11.523
		c-2.439,3.316-5.442,6.014-8.975,8.124c-1.581,0.945-3.313,1.575-4.935,2.42c-3.75,1.956-6.928,4.629-9.512,7.984
		c-3.517,4.572-5.376,9.753-5.387,15.516c-0.004,2.713-0.431,4.239,0.561,8.029c0.471,1.805,0.743,3.33,1.634,4.961
		c0.099,0.184,0.202,0.436,0.438,0.402c0.263-0.04,0.207-0.334,0.252-0.53c0.18-0.803,0.194-1.881,0.425-2.669
		c0.68-2.33,2.39-6.116,3.594-8.597c2.604-5.358,7.262-7.918,12.779-10.047c2.566-0.991,5.235-1.557,7.953-1.891
		c2.055-0.254,4.123-0.32,6.195-0.406c2.384-0.095,4.725,0.549,7.141,0.108c3.643-0.67,4.611-2.885,3.583-6.067
		c-0.282-0.877-0.627-1.729-0.861-2.634c-0.36-1.384-0.056-2.481,0.969-3.45c0.747-0.707,0.902-1.632,0.474-2.56
		c-0.221-0.482-0.492-0.932-0.882-1.314c-0.694-0.677-0.653-0.851,0.12-1.384c0.414-0.287,0.868-0.56,1.185-0.941
		c1.203-1.456,1.365-2.025,0.268-3.315c-0.715-0.837-0.639-1.506,0.107-2.329c0.865-0.948,1.918-1.677,2.881-2.515
		C490.187,245.052,490.369,243.823,489.024,242.088"/>
	<path d="M428.383,264.054c0.029-0.048,0.057-0.096,0.086-0.146c-0.02-0.035-0.04-0.077-0.06-0.118
		C428.408,263.878,428.4,263.969,428.383,264.054"/>
	<path fill="#662D91" d="M436.179,282.279c-1.028,0.335-1.534-0.11-1.688-1.097c-1.382-8.908-1.01-17.523,4.103-25.393
		c2.27-3.493,5.421-5.966,8.955-8.031c0.62-0.359,1.098-0.148,1.522,0.309c0.584,0.624,1.159,1.26,1.717,1.909
		c2.003,2.341,1.933,2.241-0.584,3.924c-6.101,4.07-10.854,9.234-12.74,16.562c-0.836,3.244-0.997,6.537-0.361,9.839
		C437.279,281.222,437.371,282.047,436.179,282.279"/>
	<path fill="#27AAE1" d="M466.844,248.374c-1.105-0.114-2.523-0.221-3.932-0.417c-1.132-0.158-1.981,0.17-2.699,1.071
		c-0.818,1.023-1.716,1.985-2.603,2.953c-0.741,0.807-1.524,0.876-1.535-0.398c-0.034-4.328-2.164-6.776-6.324-7.704
		c-1.07-0.241-1.067-0.94-0.104-1.5c1.184-0.688,2.335-1.445,3.58-1.999c0.985-0.439,1.368-1.054,1.399-2.093
		c0.039-1.249,0.229-2.492,0.331-3.741c0.048-0.579,0.05-1.264,0.578-1.532c0.539-0.274,0.891,0.377,1.258,0.68
		c0.926,0.758,1.865,1.517,2.651,2.406c0.853,0.961,1.778,1.087,2.92,0.747c1.202-0.358,2.419-0.669,3.64-0.969
		c0.425-0.104,0.93-0.289,1.264,0.178c0.278,0.392,0.056,0.787-0.17,1.112c-2.411,3.445-2.143,6.724,0.573,9.869
		C468.314,247.783,468.222,248.265,466.844,248.374"/>
	<path fill="#662D91" d="M429.178,267.093c-0.248,0.309-0.377,0.541-0.573,0.696c-0.231,0.186-0.528,0.269-0.815,0.089
		c-0.283-0.178-0.174-0.426-0.111-0.681c0.54-2.155,0.99-4.323,0.965-6.567c-0.05-4.459-1.431-8.424-4.386-11.792
		c-1.398-1.595-1.429-1.571,0.599-2.078c0.459-0.117,0.922-0.219,1.384-0.333c0.713-0.179,1.226,0.078,1.741,0.601
		c4.311,4.375,4.416,9.528,2.943,15.048C430.454,263.848,429.553,265.435,429.178,267.093"/>
	<path fill="#662D91" d="M448.189,215.208c1.368,0.965,2.466,0.323,3.54-0.777c0.645-0.661,0.734-0.587,0.885,0.307
		c0.045,0.271,0.111,0.561,0.063,0.821c-0.208,1.123,0.346,1.753,1.294,2.188c0.444,0.205,1.095,0.428,1.094,0.897
		c0,0.503-0.722,0.583-1.134,0.633c-1.69,0.206-1.618,1.693-2.05,2.763c-0.267,0.667-0.406,0.779-0.853,0.188
		c-0.231-0.308-0.553-0.563-0.74-0.894c-0.467-0.831-1.159-0.877-1.99-0.742c-0.521,0.086-1.225,0.394-1.548-0.1
		c-0.265-0.411,0.284-0.945,0.591-1.269c0.986-1.038,0.569-2.025,0.06-3.049c-0.146-0.296-0.386-0.647-0.19-0.929
		C447.408,214.958,447.773,215.265,448.189,215.208"/>
	<path fill="#27AAE1" d="M420.582,266.478c1.37,0.968,2.465,0.323,3.538-0.774c0.646-0.66,0.735-0.587,0.886,0.305
		c0.046,0.271,0.112,0.563,0.063,0.823c-0.21,1.121,0.345,1.752,1.295,2.187c0.447,0.203,1.095,0.427,1.094,0.896
		c-0.002,0.501-0.725,0.585-1.134,0.634c-1.69,0.204-1.617,1.69-2.049,2.763c-0.27,0.668-0.406,0.778-0.851,0.188
		c-0.232-0.31-0.556-0.561-0.742-0.892c-0.465-0.834-1.159-0.879-1.988-0.743c-0.523,0.085-1.229,0.394-1.549-0.101
		c-0.265-0.409,0.282-0.945,0.592-1.27c0.984-1.037,0.567-2.023,0.06-3.048c-0.147-0.296-0.389-0.65-0.193-0.932
		C419.801,266.229,420.167,266.538,420.582,266.478"/>
	<path fill="#27AAE1" d="M420.122,245.235c-0.145-0.148-0.177-0.172-0.195-0.202c-0.953-1.541-2.292-1.945-4.002-1.449
		c-0.555,0.159-0.745-0.15-0.469-0.677c0.034-0.066,0.06-0.138,0.106-0.194c1.058-1.249,1.102-2.526,0.149-3.861
		c-0.153-0.218-0.393-0.51-0.157-0.794c0.213-0.259,0.546-0.204,0.817-0.09c1.368,0.57,2.444,0.365,3.467-0.847
		c0.801-0.945,1.218-0.79,1.229,0.4c0.016,1.519,0.744,2.34,2.03,2.88c0.285,0.121,0.663,0.263,0.656,0.656
		c-0.005,0.361-0.371,0.424-0.635,0.499c-1.544,0.434-2.27,1.438-2.271,3.039C420.85,245.068,420.681,245.595,420.122,245.235"/>
	<path fill="#662D91" d="M434.108,238.986c0.211,0.017,0.255,0.207,0.316,0.348c0.296,0.678,0.792,1.037,1.54,1.067
		c0.236,0.011,0.543,0.016,0.612,0.327c0.056,0.247-0.141,0.417-0.317,0.547c-0.607,0.451-0.634,1.058-0.504,1.724
		c0.038,0.203,0.227,0.433,0.005,0.62c-0.216,0.186-0.455,0.028-0.608-0.096c-0.678-0.549-1.288-0.409-1.938,0.061
		c-0.433,0.313-0.738,0.131-0.615-0.39c0.197-0.829,0.007-1.448-0.689-1.956c-0.313-0.227-0.327-0.585,0.144-0.63
		c0.906-0.09,1.502-0.495,1.735-1.397C433.826,239.075,433.945,238.977,434.108,238.986"/>
	<path fill="#27AAE1" d="M440.542,230.932c0.248,0.054,0.34,0.242,0.397,0.418c0.215,0.677,0.666,0.965,1.368,0.954
		c0.261-0.004,0.607-0.001,0.718,0.308c0.115,0.324-0.184,0.495-0.393,0.661c-0.528,0.416-0.551,0.93-0.441,1.546
		c0.149,0.828-0.004,0.949-0.729,0.579c-0.596-0.306-1.111-0.396-1.656,0.074c-0.16,0.138-0.391,0.273-0.607,0.118
		c-0.185-0.132-0.116-0.367-0.064-0.539c0.211-0.706,0.019-1.238-0.597-1.644c-0.2-0.133-0.459-0.321-0.407-0.583
		c0.056-0.286,0.378-0.295,0.621-0.313c0.69-0.057,1.076-0.457,1.353-1.055C440.19,231.263,440.241,230.952,440.542,230.932"/>
	<path fill="#662D91" d="M441.142,222.61c0.246,0.056,0.342,0.242,0.397,0.418c0.214,0.677,0.666,0.965,1.365,0.953
		c0.262-0.004,0.607-0.001,0.72,0.31c0.115,0.324-0.185,0.494-0.395,0.658c-0.528,0.415-0.551,0.933-0.44,1.547
		c0.149,0.828-0.003,0.949-0.729,0.579c-0.598-0.307-1.113-0.395-1.655,0.074c-0.16,0.139-0.392,0.273-0.608,0.118
		c-0.187-0.133-0.116-0.368-0.065-0.539c0.211-0.707,0.018-1.238-0.599-1.644c-0.199-0.134-0.458-0.32-0.407-0.583
		c0.057-0.287,0.38-0.295,0.621-0.313c0.69-0.057,1.076-0.457,1.353-1.055C440.792,222.941,440.841,222.629,441.142,222.61"/>
	<path fill="#27AAE1" d="M427.11,224.946c-0.202-0.081-0.295-0.093-0.352-0.146c-0.625-0.577-1.252-0.4-1.88-0.01
		c-0.161,0.101-0.323,0.272-0.521,0.131c-0.187-0.137-0.122-0.371-0.064-0.539c0.271-0.796-0.109-1.316-0.684-1.79
		c-0.434-0.36-0.55-0.695,0.197-0.747c0.776-0.055,1.242-0.491,1.538-1.164c0.229-0.519,0.479-0.616,0.739-0.026
		c0.296,0.674,0.802,0.977,1.538,1.054c0.702,0.074,0.792,0.352,0.263,0.819c-0.54,0.478-0.759,0.95-0.504,1.66
		C427.478,224.459,427.565,224.912,427.11,224.946"/>
	<path fill="#662D91" d="M432.348,235.9c-1.275-0.903-2.689-0.942-4.18,0.192c-0.683,0.521-1.423,0.256-1.161-0.771
		c0.478-1.856-0.105-3.166-1.631-4.265c-0.758-0.544-1.068-1.506,0.314-1.56c1.952-0.076,2.973-1.117,3.676-2.739
		c0.416-0.962,0.957-1.438,1.498-0.113c0.748,1.833,1.933,2.859,4.027,2.781c0.928-0.035,1.049,0.63,0.368,1.17
		c-1.449,1.144-1.955,2.478-1.422,4.302C434.101,235.804,433.572,236.301,432.348,235.9"/>
	<path fill="#662D91" d="M431.771,284.521c-0.172,0.362-0.228,0.482-0.287,0.604c-0.251,0.49-0.603,0.887-1.192,0.638
		c-0.625-0.267-0.504-0.808-0.285-1.298c0.341-0.77,0.628-1.541,0.73-2.398c0.256-2.168-0.003-4.217-1.064-6.156
		c-0.466-0.853-1.078-1.538-1.889-2.056c-0.506-0.322-1.059-0.737-0.63-1.361c0.452-0.66,1.088-0.312,1.596,0.065
		c2.269,1.676,3.234,4.049,3.591,6.753C432.588,281.193,432.232,282.987,431.771,284.521"/>
	<path fill="#662D91" d="M416.957,229.518c0.661-1.364,2.226-1.911,3.547-1.238c1.275,0.646,1.771,2.192,1.13,3.526
		c-0.656,1.366-2.184,1.873-3.563,1.184C416.707,232.306,416.267,230.935,416.957,229.518 M419.702,229.669
		c-0.627-0.317-1.088,0.005-1.43,0.46c-0.299,0.396,0.062,1.445,0.529,1.605c0.646,0.222,1.188-0.025,1.454-0.622
		C420.53,230.507,420.369,229.965,419.702,229.669"/>
	<path fill="#662D91" d="M443.371,239.696c0.664-1.364,2.226-1.91,3.549-1.237c1.275,0.646,1.769,2.192,1.131,3.527
		c-0.657,1.364-2.186,1.871-3.564,1.181C443.123,242.484,442.683,241.114,443.371,239.696 M446.12,239.847
		c-0.628-0.318-1.09,0.004-1.433,0.459c-0.298,0.394,0.064,1.448,0.53,1.608c0.645,0.22,1.188-0.028,1.458-0.622
		C446.945,240.686,446.784,240.143,446.12,239.847"/>
	<path fill="#27AAE1" d="M435.805,212.866c0.662-1.364,2.226-1.911,3.547-1.24c1.275,0.647,1.77,2.194,1.13,3.526
		c-0.656,1.366-2.182,1.874-3.562,1.184C435.557,215.655,435.114,214.283,435.805,212.866 M438.551,213.019
		c-0.628-0.318-1.087,0.004-1.431,0.459c-0.3,0.396,0.063,1.447,0.529,1.606c0.646,0.222,1.188-0.025,1.456-0.621
		C439.379,213.856,439.217,213.313,438.551,213.019"/>
	<path fill="none" stroke="#27AAE1" stroke-miterlimit="10" d="M439.231,249.382c-0.584,0-1.06-0.477-1.06-1.062
		c0-0.584,0.477-1.061,1.06-1.061c0.585,0,1.062,0.478,1.062,1.061C440.291,248.907,439.816,249.382,439.231,249.382z
		 M439.231,247.428c-0.492,0-0.894,0.4-0.894,0.892c0,0.494,0.401,0.895,0.894,0.895c0.495,0,0.896-0.401,0.896-0.895
		C440.126,247.828,439.727,247.428,439.231,247.428z"/>
	<path fill="none" stroke="#27AAE1" stroke-miterlimit="10" d="M450.873,230.602c-0.588,0-1.062-0.475-1.062-1.06
		c0-0.584,0.476-1.059,1.062-1.059c0.584,0,1.058,0.475,1.058,1.059C451.931,230.126,451.457,230.602,450.873,230.602z
		 M450.873,228.648c-0.493,0-0.895,0.401-0.895,0.892c0,0.495,0.401,0.895,0.895,0.895c0.49,0,0.894-0.399,0.894-0.895
		C451.767,229.049,451.363,228.648,450.873,228.648z"/>
	<path fill="none" stroke="#662D91" stroke-miterlimit="10" d="M427.643,241.881c-0.584,0-1.06-0.475-1.06-1.059
		c0-0.585,0.476-1.06,1.06-1.06c0.586,0,1.062,0.477,1.062,1.06C428.704,241.406,428.229,241.881,427.643,241.881z M427.643,239.928
		c-0.493,0-0.893,0.399-0.893,0.893c0,0.491,0.399,0.892,0.893,0.892s0.895-0.401,0.895-0.892
		C428.537,240.328,428.136,239.928,427.643,239.928z"/>
	<path fill="none" stroke="#662D91" stroke-miterlimit="10" d="M416.636,235.574c-0.585,0-1.062-0.478-1.062-1.061
		c0-0.585,0.477-1.062,1.062-1.062c0.584,0,1.061,0.478,1.061,1.062C417.696,235.096,417.219,235.574,416.636,235.574z
		 M416.636,233.618c-0.493,0-0.895,0.401-0.895,0.896c0,0.493,0.401,0.893,0.895,0.893c0.494,0,0.894-0.4,0.894-0.893
		C417.529,234.02,417.13,233.618,416.636,233.618z"/>
	<path fill="none" stroke="#662D91" stroke-miterlimit="10" d="M434.137,222.287c-0.584,0-1.061-0.475-1.061-1.062
		c0-0.584,0.477-1.061,1.061-1.061c0.585,0,1.062,0.477,1.062,1.061C435.198,221.812,434.722,222.287,434.137,222.287z
		 M434.137,220.334c-0.492,0-0.894,0.399-0.894,0.893c0,0.492,0.399,0.893,0.894,0.893c0.493,0,0.895-0.401,0.895-0.893
		C435.031,220.734,434.63,220.334,434.137,220.334z"/>
	<path fill="#662D91" d="M435.271,288.682c-0.163-0.019-0.274-0.112-0.325-0.253c-0.243-0.671-0.698-1.108-1.357-1.393
		c-0.435-0.189-0.41-0.443,0-0.708c0.023-0.018,0.048-0.032,0.074-0.042c0.613-0.198,1.019-0.604,1.238-1.21
		c0.064-0.178,0.151-0.36,0.383-0.342c0.214,0.016,0.338,0.18,0.395,0.355c0.204,0.618,0.637,0.973,1.224,1.218
		c0.5,0.214,0.507,0.566,0.011,0.777c-0.636,0.268-1.072,0.668-1.291,1.323C435.572,288.562,435.45,288.674,435.271,288.682
		 M436.12,286.755c-0.091-0.108-0.112-0.156-0.146-0.168c-0.295-0.124-0.477-0.344-0.604-0.63c-0.044-0.097-0.151-0.091-0.195,0.015
		c-0.126,0.306-0.51,0.445-0.599,0.68c-0.115,0.3,0.478,0.313,0.539,0.647c0.009,0.04,0.038,0.08,0.066,0.111
		c0.086,0.106,0.195,0.095,0.232-0.023c0.089-0.284,0.294-0.443,0.54-0.57C436.008,286.787,436.067,286.773,436.12,286.755"/>
	<path fill="#FFFFFF" d="M446.993,293.21c0,0,0.75-0.872,1.623,0v3.237h-1.623V293.21z"/>
</g>
<g>
	<path fill="#662D91" d="M328.689,279.854c-1.38-1.779-2.652-3.629-3.841-5.54c-1.123-1.806-2.02-3.671-2.083-5.888
		c-0.034-1.213-0.343-2.43-0.774-3.595c-0.801-2.15-1.854-4.18-2.981-6.168c-1.799-3.17-4.188-5.841-7.078-8.055
		c-1.967-1.506-4.103-2.717-6.408-3.636c-2.263-0.903-4.611-1.482-7.021-1.751c-2.236-0.25-4.478-0.202-6.723,0.146
		c-1.979,0.308-3.901,0.771-5.772,1.469c-3.535,1.318-6.646,3.321-9.326,5.95c-3.101,3.044-5.375,6.63-6.735,10.789
		c-0.777,2.375-1.292,4.789-1.343,7.285c-0.039,1.895-0.053,3.784,0.312,5.668c0.257,1.328,0.528,2.649,0.94,3.931
		c1.106,3.426,2.896,6.482,5.189,9.25c0.143,0.171,0.264,0.395,0.557,0.431c0.08-0.197-0.008-0.313-0.069-0.431
		c-0.931-1.8-1.559-3.704-2.042-5.664c-0.565-2.282-0.893-4.602-0.944-6.949c-0.03-1.347-0.007-2.689,0.149-4.041
		c0.181-1.575,0.393-3.134,0.751-4.676c0.626-2.683,1.588-5.229,2.957-7.623c2.042-3.572,4.872-6.334,8.472-8.308
		c1.885-1.033,3.847-1.745,5.875-2.187c1.031-0.198,8.73-1.468,16.936,3c1.002,0.647,1.953,1.378,2.854,2.191
		c4.445,4.025,6.841,9.107,7.387,15.049c0.197,2.146-0.041,4.287-0.506,6.405c-0.682,3.103-1.954,5.926-3.832,8.479
		c-1.795,2.44-4.005,4.426-6.604,5.979c-1.163,0.695-2.438,1.159-3.631,1.781c-2.76,1.439-5.099,3.406-7,5.876
		c-2.588,3.364-3.956,7.177-3.964,11.418c-0.003,1.996-0.317,3.119,0.412,5.908c0.347,1.328,0.547,2.451,1.202,3.651
		c0.073,0.135,0.149,0.32,0.322,0.296c0.193-0.029,0.152-0.246,0.186-0.391c0.132-0.591,0.143-1.384,0.313-1.964
		c0.5-1.715,1.759-4.501,2.645-6.326c1.916-3.943,5.344-5.827,9.404-7.394c1.889-0.729,3.853-1.146,5.853-1.392
		c1.513-0.187,3.034-0.235,4.56-0.299c1.754-0.069,3.477,0.404,5.255,0.08c2.681-0.493,3.394-2.123,2.637-4.465
		c-0.208-0.646-0.462-1.273-0.634-1.938c-0.266-1.019-0.041-1.826,0.713-2.539c0.55-0.521,0.664-1.201,0.349-1.884
		c-0.163-0.354-0.362-0.686-0.649-0.967c-0.511-0.498-0.48-0.626,0.089-1.019c0.305-0.211,0.639-0.412,0.871-0.692
		c0.886-1.071,1.005-1.49,0.197-2.439c-0.526-0.616-0.47-1.108,0.079-1.714c0.637-0.697,1.411-1.234,2.12-1.851
		C329.545,282.034,329.68,281.13,328.689,279.854"/>
	<path d="M284.063,296.018c0.021-0.035,0.042-0.07,0.063-0.107c-0.015-0.026-0.029-0.057-0.044-0.087
		C284.082,295.889,284.076,295.955,284.063,296.018"/>
	<path fill="#662D91" d="M289.801,309.43c-0.757,0.247-1.129-0.081-1.242-0.807c-1.017-6.556-0.743-12.896,3.02-18.687
		c1.67-2.57,3.989-4.391,6.59-5.91c0.456-0.265,0.808-0.109,1.12,0.228c0.43,0.459,0.854,0.927,1.264,1.404
		c1.474,1.723,1.422,1.649-0.43,2.888c-4.489,2.995-7.988,6.796-9.376,12.188c-0.615,2.388-0.733,4.811-0.266,7.24
		C290.61,308.651,290.678,309.259,289.801,309.43"/>
	<path fill="#27AAE1" d="M312.367,284.479c-0.813-0.084-1.857-0.162-2.894-0.307c-0.833-0.116-1.458,0.125-1.986,0.788
		c-0.603,0.753-1.263,1.461-1.915,2.173c-0.546,0.594-1.122,0.645-1.13-0.293c-0.025-3.185-1.593-4.986-4.654-5.669
		c-0.787-0.178-0.785-0.692-0.076-1.104c0.871-0.506,1.719-1.063,2.635-1.471c0.726-0.323,1.007-0.775,1.03-1.54
		c0.028-0.919,0.168-1.834,0.243-2.753c0.035-0.426,0.037-0.93,0.426-1.127c0.396-0.202,0.655,0.277,0.926,0.5
		c0.681,0.558,1.372,1.116,1.951,1.771c0.627,0.707,1.309,0.8,2.148,0.55c0.885-0.264,1.78-0.492,2.679-0.713
		c0.313-0.076,0.684-0.213,0.93,0.131c0.205,0.288,0.041,0.579-0.125,0.818c-1.774,2.535-1.577,4.948,0.422,7.263
		C313.449,284.044,313.381,284.398,312.367,284.479"/>
	<path fill="#662D91" d="M284.648,298.254c-0.183,0.228-0.277,0.398-0.422,0.513c-0.17,0.137-0.389,0.197-0.6,0.065
		c-0.209-0.131-0.128-0.313-0.082-0.501c0.397-1.586,0.729-3.182,0.71-4.833c-0.037-3.281-1.053-6.199-3.228-8.678
		c-1.029-1.174-1.052-1.156,0.44-1.529c0.338-0.086,0.679-0.161,1.019-0.245c0.524-0.132,0.901,0.058,1.281,0.442
		c3.172,3.22,3.25,7.012,2.166,11.074C285.588,295.866,284.925,297.034,284.648,298.254"/>
	<path fill="#662D91" d="M298.64,260.072c1.007,0.71,1.814,0.237,2.604-0.572c0.475-0.486,0.541-0.432,0.651,0.226
		c0.033,0.199,0.082,0.413,0.047,0.604c-0.153,0.826,0.254,1.29,0.952,1.61c0.327,0.15,0.806,0.314,0.805,0.66
		c0,0.37-0.531,0.43-0.834,0.466c-1.244,0.151-1.191,1.246-1.509,2.033c-0.196,0.491-0.299,0.573-0.627,0.139
		c-0.171-0.227-0.407-0.414-0.545-0.658c-0.344-0.611-0.854-0.646-1.465-0.546c-0.383,0.063-0.901,0.29-1.139-0.073
		c-0.195-0.303,0.209-0.695,0.435-0.934c0.726-0.764,0.419-1.49,0.044-2.244c-0.107-0.218-0.284-0.477-0.141-0.684
		C298.064,259.889,298.333,260.114,298.64,260.072"/>
	<path fill="#27AAE1" d="M278.323,297.802c1.008,0.712,1.813,0.237,2.604-0.57c0.476-0.485,0.541-0.432,0.651,0.225
		c0.034,0.199,0.083,0.414,0.047,0.605c-0.154,0.825,0.254,1.289,0.953,1.609c0.329,0.149,0.806,0.313,0.805,0.659
		c-0.001,0.369-0.533,0.431-0.834,0.467c-1.244,0.15-1.19,1.244-1.508,2.033c-0.198,0.491-0.299,0.572-0.626,0.138
		c-0.171-0.228-0.409-0.412-0.546-0.656c-0.343-0.613-0.854-0.646-1.464-0.547c-0.385,0.063-0.904,0.29-1.14-0.074
		c-0.194-0.301,0.208-0.695,0.436-0.934c0.725-0.764,0.418-1.489,0.044-2.243c-0.108-0.218-0.286-0.479-0.143-0.686
		C277.748,297.619,278.018,297.846,278.323,297.802"/>
	<path fill="#27AAE1" d="M277.984,282.169c-0.106-0.109-0.13-0.127-0.144-0.148c-0.701-1.134-1.687-1.432-2.945-1.066
		c-0.408,0.117-0.548-0.11-0.345-0.498c0.025-0.049,0.044-0.102,0.078-0.143c0.778-0.919,0.811-1.859,0.11-2.842
		c-0.113-0.16-0.289-0.375-0.116-0.584c0.157-0.19,0.402-0.15,0.602-0.066c1.007,0.42,1.799,0.269,2.552-0.623
		c0.589-0.695,0.896-0.581,0.904,0.295c0.012,1.117,0.548,1.722,1.494,2.119c0.21,0.089,0.488,0.193,0.483,0.482
		c-0.004,0.266-0.273,0.313-0.468,0.367c-1.136,0.319-1.67,1.059-1.671,2.236C278.52,282.046,278.396,282.434,277.984,282.169"/>
	<path fill="#662D91" d="M288.277,277.57c0.155,0.013,0.188,0.152,0.232,0.256c0.218,0.499,0.583,0.763,1.134,0.785
		c0.174,0.008,0.399,0.012,0.45,0.24c0.041,0.182-0.104,0.307-0.233,0.402c-0.447,0.332-0.467,0.778-0.371,1.269
		c0.028,0.149,0.167,0.318,0.004,0.456c-0.159,0.137-0.335,0.021-0.448-0.07c-0.498-0.404-0.947-0.301-1.426,0.045
		c-0.318,0.23-0.543,0.097-0.452-0.287c0.145-0.61,0.005-1.065-0.508-1.439c-0.229-0.167-0.24-0.431,0.105-0.464
		c0.667-0.066,1.105-0.364,1.277-1.028C288.069,277.636,288.157,277.563,288.277,277.57"/>
	<path fill="#27AAE1" d="M293.012,271.644c0.183,0.04,0.25,0.178,0.292,0.308c0.158,0.498,0.49,0.71,1.007,0.702
		c0.192-0.003,0.447-0.001,0.528,0.227c0.085,0.238-0.135,0.364-0.289,0.486c-0.389,0.306-0.405,0.685-0.324,1.138
		c0.109,0.609-0.003,0.698-0.536,0.426c-0.438-0.226-0.818-0.291-1.219,0.055c-0.118,0.102-0.288,0.201-0.447,0.087
		c-0.136-0.098-0.086-0.271-0.048-0.396c0.155-0.52,0.014-0.911-0.438-1.21c-0.147-0.098-0.338-0.236-0.3-0.429
		c0.041-0.21,0.278-0.217,0.457-0.23c0.508-0.042,0.792-0.336,0.995-0.776C292.753,271.887,292.79,271.658,293.012,271.644"/>
	<path fill="#662D91" d="M293.453,265.52c0.181,0.041,0.251,0.178,0.292,0.308c0.157,0.498,0.49,0.71,1.005,0.701
		c0.192-0.003,0.447-0.001,0.529,0.228c0.085,0.238-0.136,0.363-0.29,0.484c-0.389,0.306-0.405,0.687-0.324,1.139
		c0.11,0.609-0.002,0.698-0.536,0.426c-0.439-0.226-0.819-0.29-1.218,0.055c-0.118,0.103-0.288,0.201-0.448,0.087
		c-0.137-0.098-0.085-0.271-0.048-0.396c0.155-0.521,0.013-0.911-0.44-1.21c-0.146-0.099-0.337-0.235-0.3-0.429
		c0.042-0.211,0.279-0.217,0.457-0.23c0.508-0.042,0.792-0.336,0.995-0.776C293.195,265.763,293.231,265.533,293.453,265.52"/>
	<path fill="#27AAE1" d="M283.127,267.238c-0.148-0.06-0.217-0.068-0.259-0.107c-0.46-0.425-0.921-0.295-1.383-0.008
		c-0.119,0.074-0.238,0.2-0.384,0.097c-0.138-0.101-0.09-0.272-0.048-0.396c0.2-0.586-0.08-0.969-0.503-1.317
		c-0.319-0.265-0.404-0.512,0.146-0.55c0.571-0.04,0.914-0.361,1.132-0.856c0.168-0.382,0.353-0.453,0.544-0.02
		c0.218,0.496,0.59,0.719,1.132,0.775c0.517,0.055,0.583,0.259,0.193,0.603c-0.397,0.352-0.559,0.699-0.371,1.222
		C283.397,266.88,283.462,267.213,283.127,267.238"/>
	<path fill="#662D91" d="M286.981,275.3c-0.938-0.665-1.979-0.693-3.076,0.142c-0.502,0.383-1.047,0.188-0.854-0.567
		c0.352-1.366-0.077-2.33-1.2-3.139c-0.558-0.4-0.786-1.108,0.231-1.147c1.437-0.056,2.188-0.822,2.705-2.016
		c0.307-0.708,0.704-1.058,1.103-0.083c0.551,1.349,1.422,2.104,2.964,2.047c0.683-0.025,0.771,0.464,0.271,0.861
		c-1.066,0.842-1.438,1.823-1.046,3.166C288.271,275.229,287.883,275.595,286.981,275.3"/>
	<path fill="#662D91" d="M286.558,311.079c-0.127,0.267-0.168,0.355-0.212,0.445c-0.185,0.36-0.443,0.652-0.877,0.469
		c-0.46-0.196-0.371-0.594-0.21-0.955c0.251-0.566,0.462-1.134,0.537-1.765c0.188-1.596-0.002-3.104-0.783-4.53
		c-0.343-0.628-0.793-1.132-1.39-1.513c-0.372-0.237-0.779-0.543-0.464-1.002c0.333-0.486,0.801-0.229,1.175,0.048
		c1.669,1.233,2.38,2.979,2.643,4.97C287.158,308.631,286.896,309.951,286.558,311.079"/>
	<path fill="#662D91" d="M275.655,270.603c0.486-1.004,1.638-1.406,2.61-0.911c0.938,0.476,1.303,1.613,0.831,2.595
		c-0.482,1.005-1.606,1.378-2.621,0.871C275.472,272.654,275.147,271.646,275.655,270.603 M277.676,270.714
		c-0.462-0.233-0.801,0.004-1.053,0.339c-0.22,0.291,0.046,1.063,0.39,1.182c0.476,0.163,0.874-0.019,1.07-0.458
		C278.285,271.331,278.166,270.932,277.676,270.714"/>
	<path fill="#662D91" d="M295.094,278.093c0.488-1.004,1.638-1.405,2.611-0.91c0.938,0.476,1.302,1.613,0.832,2.596
		c-0.483,1.004-1.608,1.377-2.623,0.869C294.911,280.145,294.587,279.137,295.094,278.093 M297.116,278.204
		c-0.462-0.234-0.802,0.003-1.054,0.338c-0.22,0.29,0.047,1.065,0.39,1.184c0.475,0.162,0.875-0.021,1.073-0.458
		C297.724,278.821,297.605,278.422,297.116,278.204"/>
	<path fill="#27AAE1" d="M289.525,258.349c0.487-1.004,1.638-1.406,2.61-0.912c0.938,0.477,1.302,1.614,0.831,2.595
		c-0.482,1.005-1.605,1.379-2.621,0.871C289.343,260.401,289.018,259.392,289.525,258.349 M291.546,258.461
		c-0.462-0.234-0.8,0.003-1.053,0.338c-0.221,0.291,0.046,1.064,0.39,1.182c0.476,0.163,0.875-0.019,1.071-0.457
		C292.155,259.077,292.036,258.678,291.546,258.461"/>
	<path fill="none" stroke="#27AAE1" stroke-miterlimit="10" d="M292.047,285.221c-0.43,0-0.779-0.351-0.779-0.781
		c0-0.43,0.351-0.78,0.779-0.78c0.431,0,0.781,0.352,0.781,0.78C292.827,284.871,292.478,285.221,292.047,285.221z M292.047,283.783
		c-0.362,0-0.657,0.294-0.657,0.656c0,0.363,0.295,0.658,0.657,0.658c0.364,0,0.659-0.295,0.659-0.658
		C292.705,284.077,292.411,283.783,292.047,283.783z"/>
	<path fill="none" stroke="#27AAE1" stroke-miterlimit="10" d="M300.614,271.4c-0.433,0-0.781-0.35-0.781-0.78
		c0-0.43,0.35-0.779,0.781-0.779c0.43,0,0.778,0.35,0.778,0.779C301.393,271.051,301.044,271.4,300.614,271.4z M300.614,269.963
		c-0.363,0-0.658,0.295-0.658,0.656c0,0.364,0.295,0.658,0.658,0.658c0.36,0,0.657-0.294,0.657-0.658
		C301.271,270.258,300.975,269.963,300.614,269.963z"/>
	<path fill="none" stroke="#662D91" stroke-miterlimit="10" d="M283.519,279.701c-0.43,0-0.779-0.35-0.779-0.779
		c0-0.431,0.35-0.78,0.779-0.78c0.432,0,0.781,0.351,0.781,0.78S283.95,279.701,283.519,279.701z M283.519,278.264
		c-0.362,0-0.656,0.294-0.656,0.657c0,0.361,0.294,0.656,0.656,0.656c0.363,0,0.658-0.295,0.658-0.656
		C284.177,278.558,283.882,278.264,283.519,278.264z"/>
	<path fill="none" stroke="#662D91" stroke-miterlimit="10" d="M275.419,275.06c-0.431,0-0.781-0.352-0.781-0.78
		c0-0.431,0.351-0.781,0.781-0.781c0.43,0,0.78,0.352,0.78,0.781C276.199,274.708,275.848,275.06,275.419,275.06z M275.419,273.62
		c-0.363,0-0.658,0.295-0.658,0.659c0,0.362,0.295,0.657,0.658,0.657s0.657-0.295,0.657-0.657
		C276.076,273.916,275.782,273.62,275.419,273.62z"/>
	<path fill="none" stroke="#662D91" stroke-miterlimit="10" d="M288.298,265.281c-0.43,0-0.78-0.35-0.78-0.781
		c0-0.43,0.351-0.78,0.78-0.78c0.431,0,0.781,0.351,0.781,0.78C289.079,264.932,288.729,265.281,288.298,265.281z M288.298,263.845
		c-0.362,0-0.657,0.294-0.657,0.657c0,0.362,0.294,0.657,0.657,0.657s0.658-0.295,0.658-0.657
		C288.956,264.139,288.661,263.845,288.298,263.845z"/>
	<path fill="#662D91" d="M289.133,314.142c-0.12-0.014-0.202-0.083-0.239-0.187c-0.179-0.493-0.514-0.815-0.999-1.024
		c-0.319-0.14-0.302-0.326,0-0.521c0.018-0.013,0.035-0.023,0.055-0.03c0.451-0.146,0.75-0.444,0.911-0.891
		c0.048-0.131,0.111-0.266,0.282-0.252c0.157,0.012,0.248,0.133,0.29,0.262c0.15,0.455,0.469,0.716,0.9,0.896
		c0.368,0.157,0.373,0.417,0.008,0.572c-0.468,0.196-0.789,0.491-0.95,0.974C289.354,314.053,289.265,314.136,289.133,314.142
		 M289.758,312.724c-0.067-0.08-0.083-0.115-0.107-0.124c-0.217-0.091-0.351-0.253-0.444-0.463
		c-0.032-0.071-0.111-0.067-0.144,0.011c-0.093,0.225-0.375,0.327-0.44,0.5c-0.085,0.221,0.352,0.23,0.396,0.477
		c0.007,0.029,0.028,0.059,0.049,0.082c0.063,0.078,0.144,0.069,0.171-0.018c0.065-0.209,0.217-0.326,0.397-0.42
		C289.675,312.747,289.719,312.737,289.758,312.724"/>
	<path fill="#FFFFFF" d="M297.759,317.474c0,0,0.552-0.642,1.194,0v2.383h-1.194V317.474z"/>
</g>
<g>
	<path fill="#662D91" d="M240.009,315.111c-1.221-1.574-2.347-3.211-3.398-4.902c-0.994-1.598-1.787-3.248-1.843-5.209
		c-0.03-1.073-0.303-2.15-0.685-3.181c-0.708-1.902-1.641-3.698-2.638-5.458c-1.592-2.805-3.705-5.167-6.263-7.126
		c-1.74-1.333-3.63-2.404-5.67-3.217c-2.002-0.8-4.08-1.312-6.212-1.55c-1.979-0.221-3.962-0.179-5.948,0.13
		c-1.751,0.272-3.452,0.682-5.107,1.3c-3.128,1.166-5.881,2.938-8.251,5.265c-2.744,2.693-4.756,5.866-5.959,9.546
		c-0.688,2.102-1.144,4.237-1.188,6.445c-0.034,1.677-0.046,3.349,0.276,5.016c0.227,1.175,0.467,2.344,0.832,3.478
		c0.979,3.031,2.562,5.735,4.592,8.185c0.126,0.151,0.233,0.349,0.492,0.381c0.071-0.175-0.007-0.277-0.061-0.381
		c-0.824-1.593-1.379-3.277-1.807-5.012c-0.5-2.02-0.79-4.071-0.835-6.148c-0.027-1.191-0.006-2.38,0.132-3.575
		c0.16-1.395,0.347-2.773,0.665-4.138c0.554-2.373,1.405-4.626,2.616-6.744c1.807-3.161,4.311-5.604,7.496-7.351
		c1.668-0.915,3.404-1.545,5.198-1.936c0.913-0.175,7.725-1.298,14.984,2.655c0.887,0.572,1.729,1.219,2.525,1.938
		c3.933,3.562,6.053,8.059,6.536,13.315c0.175,1.898-0.036,3.793-0.447,5.667c-0.604,2.745-1.729,5.243-3.391,7.503
		c-1.588,2.159-3.543,3.916-5.844,5.289c-1.029,0.615-2.157,1.026-3.212,1.576c-2.442,1.274-4.511,3.015-6.194,5.199
		c-2.29,2.977-3.5,6.351-3.507,10.103c-0.003,1.767-0.281,2.76,0.364,5.228c0.307,1.176,0.484,2.169,1.064,3.23
		c0.064,0.12,0.132,0.284,0.285,0.263c0.171-0.026,0.135-0.218,0.164-0.346c0.117-0.523,0.126-1.225,0.276-1.738
		c0.442-1.517,1.556-3.982,2.34-5.597c1.695-3.489,4.728-5.156,8.321-6.542c1.671-0.646,3.409-1.014,5.179-1.231
		c1.338-0.165,2.685-0.208,4.034-0.265c1.552-0.062,3.076,0.358,4.649,0.071c2.372-0.437,3.002-1.879,2.333-3.95
		c-0.184-0.571-0.409-1.127-0.561-1.716c-0.235-0.901-0.036-1.615,0.631-2.246c0.486-0.461,0.587-1.063,0.309-1.667
		c-0.145-0.313-0.321-0.606-0.575-0.855c-0.452-0.44-0.425-0.554,0.079-0.901c0.27-0.187,0.565-0.364,0.771-0.612
		c0.784-0.948,0.889-1.318,0.174-2.158c-0.466-0.546-0.416-0.981,0.07-1.517c0.563-0.617,1.249-1.093,1.876-1.638
		C240.766,317.04,240.885,316.24,240.009,315.111"/>
	<path d="M200.524,329.413c0.019-0.031,0.037-0.063,0.056-0.096c-0.013-0.022-0.026-0.05-0.039-0.076
		C200.541,329.299,200.536,329.357,200.524,329.413"/>
	<path fill="#662D91" d="M205.601,341.28c-0.669,0.218-0.999-0.072-1.099-0.714c-0.899-5.801-0.657-11.41,2.672-16.534
		c1.478-2.274,3.53-3.885,5.831-5.229c0.403-0.233,0.714-0.097,0.991,0.202c0.38,0.405,0.755,0.819,1.118,1.242
		c1.304,1.524,1.258,1.459-0.38,2.555c-3.972,2.65-7.068,6.013-8.296,10.783c-0.544,2.113-0.649,4.257-0.235,6.406
		C206.317,340.591,206.376,341.129,205.601,341.28"/>
	<path fill="#27AAE1" d="M225.567,319.203c-0.72-0.074-1.644-0.144-2.56-0.271c-0.737-0.103-1.29,0.11-1.758,0.697
		c-0.533,0.666-1.117,1.293-1.694,1.923c-0.483,0.525-0.993,0.57-1-0.26c-0.022-2.817-1.41-4.411-4.118-5.016
		c-0.697-0.157-0.695-0.612-0.067-0.977c0.771-0.448,1.521-0.941,2.331-1.302c0.642-0.286,0.891-0.686,0.912-1.362
		c0.025-0.813,0.148-1.623,0.215-2.437c0.031-0.376,0.033-0.822,0.376-0.997c0.351-0.179,0.58,0.246,0.819,0.442
		c0.602,0.494,1.214,0.988,1.726,1.567c0.555,0.625,1.158,0.707,1.901,0.486c0.783-0.233,1.575-0.436,2.37-0.631
		c0.277-0.067,0.605-0.188,0.823,0.115c0.182,0.255,0.036,0.513-0.11,0.725c-1.57,2.243-1.396,4.378,0.373,6.426
		C226.525,318.818,226.464,319.132,225.567,319.203"/>
	<path fill="#662D91" d="M201.042,331.392c-0.162,0.201-0.246,0.353-0.374,0.453c-0.15,0.121-0.344,0.175-0.53,0.059
		c-0.185-0.116-0.113-0.277-0.073-0.443c0.352-1.403,0.645-2.815,0.628-4.276c-0.033-2.903-0.932-5.485-2.856-7.678
		c-0.911-1.039-0.931-1.023,0.39-1.354c0.299-0.076,0.601-0.143,0.901-0.217c0.464-0.116,0.797,0.051,1.134,0.392
		c2.806,2.849,2.875,6.204,1.917,9.798C201.873,329.279,201.287,330.313,201.042,331.392"/>
	<path fill="#662D91" d="M213.421,297.608c0.891,0.629,1.605,0.21,2.304-0.506c0.42-0.431,0.479-0.382,0.577,0.199
		c0.029,0.177,0.072,0.365,0.041,0.535c-0.135,0.73,0.225,1.142,0.843,1.425c0.29,0.133,0.713,0.278,0.712,0.584
		c0,0.327-0.47,0.38-0.738,0.412c-1.101,0.134-1.054,1.103-1.335,1.799c-0.174,0.435-0.265,0.508-0.555,0.123
		c-0.151-0.2-0.36-0.366-0.482-0.583c-0.304-0.54-0.755-0.57-1.296-0.482c-0.339,0.056-0.798,0.257-1.008-0.064
		c-0.172-0.269,0.185-0.615,0.385-0.826c0.642-0.676,0.371-1.319,0.039-1.986c-0.095-0.192-0.251-0.421-0.125-0.604
		C212.912,297.446,213.15,297.646,213.421,297.608"/>
	<path fill="#27AAE1" d="M195.445,330.991c0.892,0.63,1.604,0.21,2.304-0.504c0.421-0.43,0.479-0.383,0.576,0.198
		c0.03,0.177,0.074,0.366,0.042,0.536c-0.136,0.729,0.225,1.141,0.843,1.424c0.292,0.132,0.713,0.277,0.712,0.583
		c0,0.326-0.472,0.381-0.738,0.413c-1.101,0.133-1.053,1.101-1.334,1.799c-0.175,0.435-0.265,0.507-0.554,0.122
		c-0.151-0.201-0.362-0.365-0.483-0.581c-0.303-0.542-0.755-0.571-1.295-0.483c-0.34,0.055-0.8,0.257-1.008-0.065
		c-0.172-0.267,0.184-0.615,0.385-0.826c0.641-0.676,0.37-1.318,0.039-1.985c-0.096-0.192-0.253-0.423-0.126-0.606
		C194.937,330.83,195.175,331.03,195.445,330.991"/>
	<path fill="#27AAE1" d="M195.146,317.16c-0.094-0.098-0.115-0.113-0.127-0.132c-0.621-1.003-1.492-1.267-2.606-0.943
		c-0.361,0.104-0.485-0.098-0.305-0.44c0.022-0.044,0.039-0.09,0.069-0.127c0.688-0.813,0.717-1.645,0.098-2.514
		c-0.1-0.142-0.256-0.332-0.103-0.517c0.139-0.169,0.356-0.134,0.532-0.06c0.891,0.372,1.592,0.238,2.258-0.551
		c0.521-0.615,0.792-0.515,0.8,0.261c0.01,0.988,0.485,1.523,1.322,1.875c0.186,0.079,0.432,0.171,0.428,0.427
		c-0.003,0.235-0.242,0.276-0.414,0.325c-1.005,0.282-1.478,0.937-1.479,1.979C195.619,317.051,195.509,317.394,195.146,317.16"/>
	<path fill="#662D91" d="M204.253,313.091c0.137,0.012,0.166,0.135,0.206,0.227c0.192,0.441,0.516,0.675,1.003,0.694
		c0.154,0.007,0.354,0.011,0.398,0.213c0.036,0.16-0.092,0.271-0.207,0.355c-0.396,0.294-0.413,0.689-0.328,1.123
		c0.025,0.132,0.147,0.281,0.003,0.403c-0.141,0.121-0.296,0.019-0.397-0.063c-0.44-0.357-0.838-0.266-1.261,0.04
		c-0.282,0.204-0.48,0.086-0.4-0.254c0.127-0.54,0.004-0.943-0.45-1.273c-0.203-0.148-0.212-0.382,0.093-0.411
		c0.59-0.059,0.979-0.322,1.13-0.909C204.069,313.148,204.146,313.085,204.253,313.091"/>
	<path fill="#27AAE1" d="M208.442,307.847c0.162,0.035,0.221,0.157,0.258,0.272c0.14,0.44,0.434,0.628,0.891,0.621
		c0.17-0.003,0.396-0.001,0.467,0.2c0.075,0.211-0.119,0.322-0.255,0.431c-0.344,0.271-0.359,0.605-0.287,1.007
		c0.097,0.539-0.002,0.617-0.474,0.377c-0.388-0.2-0.724-0.258-1.079,0.048c-0.104,0.09-0.255,0.178-0.396,0.077
		c-0.12-0.087-0.076-0.239-0.042-0.351c0.137-0.46,0.012-0.807-0.388-1.071c-0.13-0.086-0.299-0.209-0.265-0.379
		c0.037-0.186,0.247-0.192,0.404-0.204c0.45-0.037,0.701-0.297,0.881-0.687C208.213,308.063,208.246,307.859,208.442,307.847"/>
	<path fill="#662D91" d="M208.832,302.429c0.16,0.036,0.222,0.157,0.259,0.271c0.139,0.441,0.434,0.629,0.889,0.621
		c0.17-0.003,0.396-0.001,0.469,0.201c0.075,0.211-0.12,0.321-0.257,0.429c-0.344,0.271-0.358,0.607-0.287,1.007
		c0.098,0.539-0.001,0.618-0.474,0.377c-0.389-0.199-0.725-0.257-1.078,0.049c-0.104,0.091-0.255,0.178-0.396,0.076
		c-0.121-0.086-0.075-0.239-0.042-0.351c0.138-0.46,0.011-0.806-0.39-1.07c-0.129-0.087-0.298-0.208-0.265-0.38
		c0.037-0.187,0.247-0.191,0.404-0.203c0.449-0.037,0.701-0.298,0.88-0.688C208.604,302.644,208.636,302.44,208.832,302.429"/>
	<path fill="#27AAE1" d="M199.696,303.949c-0.131-0.053-0.192-0.061-0.229-0.095c-0.407-0.376-0.815-0.262-1.224-0.008
		c-0.105,0.066-0.211,0.178-0.339,0.086c-0.122-0.089-0.08-0.241-0.042-0.351c0.177-0.519-0.071-0.857-0.445-1.166
		c-0.283-0.234-0.358-0.452,0.128-0.486c0.506-0.035,0.809-0.319,1.001-0.758c0.149-0.338,0.312-0.4,0.481-0.018
		c0.193,0.439,0.522,0.637,1.001,0.687c0.457,0.049,0.516,0.229,0.171,0.533c-0.352,0.311-0.494,0.618-0.328,1.081
		C199.935,303.632,199.992,303.927,199.696,303.949"/>
	<path fill="#662D91" d="M203.106,311.082c-0.83-0.589-1.751-0.613-2.722,0.125c-0.444,0.339-0.926,0.167-0.756-0.502
		c0.311-1.209-0.068-2.062-1.062-2.777c-0.493-0.354-0.696-0.98,0.205-1.015c1.271-0.05,1.936-0.728,2.394-1.783
		c0.271-0.627,0.623-0.937,0.976-0.074c0.487,1.193,1.258,1.862,2.623,1.812c0.604-0.022,0.683,0.41,0.239,0.762
		c-0.944,0.745-1.273,1.613-0.925,2.802C204.248,311.019,203.904,311.343,203.106,311.082"/>
	<path fill="#662D91" d="M202.731,342.739c-0.112,0.236-0.148,0.314-0.188,0.394c-0.163,0.319-0.392,0.577-0.776,0.415
		c-0.407-0.174-0.328-0.525-0.186-0.845c0.222-0.501,0.409-1.003,0.475-1.562c0.167-1.412-0.001-2.746-0.693-4.009
		c-0.303-0.556-0.702-1.001-1.229-1.338c-0.329-0.21-0.689-0.48-0.411-0.887c0.295-0.431,0.708-0.203,1.04,0.042
		c1.477,1.092,2.105,2.637,2.338,4.397C203.263,340.573,203.031,341.741,202.731,342.739"/>
	<path fill="#662D91" d="M193.085,306.926c0.43-0.889,1.449-1.244,2.31-0.807c0.83,0.421,1.152,1.428,0.735,2.296
		c-0.427,0.89-1.421,1.22-2.319,0.771C192.922,308.741,192.635,307.849,193.085,306.926 M194.873,307.024
		c-0.409-0.207-0.708,0.003-0.932,0.3c-0.194,0.258,0.041,0.94,0.345,1.045c0.421,0.145,0.773-0.016,0.947-0.404
		C195.412,307.57,195.306,307.217,194.873,307.024"/>
	<path fill="#662D91" d="M210.284,313.553c0.432-0.888,1.449-1.243,2.311-0.805c0.831,0.421,1.152,1.427,0.736,2.297
		c-0.428,0.888-1.423,1.218-2.321,0.769C210.122,315.368,209.835,314.477,210.284,313.553 M212.073,313.651
		c-0.409-0.207-0.709,0.003-0.932,0.299c-0.194,0.257,0.042,0.943,0.345,1.048c0.42,0.144,0.774-0.019,0.95-0.405
		C212.611,314.197,212.506,313.845,212.073,313.651"/>
	<path fill="#27AAE1" d="M205.357,296.084c0.431-0.889,1.449-1.245,2.31-0.808c0.831,0.422,1.152,1.429,0.735,2.296
		c-0.427,0.89-1.42,1.22-2.319,0.771C205.195,297.899,204.908,297.007,205.357,296.084 M207.145,296.183
		c-0.409-0.207-0.708,0.003-0.931,0.299c-0.195,0.258,0.041,0.942,0.345,1.046c0.421,0.145,0.774-0.017,0.948-0.404
		C207.684,296.729,207.579,296.375,207.145,296.183"/>
	<path fill="none" stroke="#27AAE1" stroke-miterlimit="10" d="M207.588,319.859c-0.38,0-0.689-0.31-0.689-0.69
		s0.31-0.69,0.689-0.69c0.381,0,0.691,0.311,0.691,0.69C208.278,319.551,207.969,319.859,207.588,319.859z M207.588,318.588
		c-0.32,0-0.582,0.26-0.582,0.581s0.261,0.582,0.582,0.582c0.322,0,0.583-0.261,0.583-0.582
		C208.17,318.848,207.91,318.588,207.588,318.588z"/>
	<path fill="none" stroke="#27AAE1" stroke-miterlimit="10" d="M215.168,307.632c-0.383,0-0.691-0.31-0.691-0.69
		c0-0.38,0.31-0.689,0.691-0.689c0.38,0,0.688,0.31,0.688,0.689C215.857,307.322,215.548,307.632,215.168,307.632z M215.168,306.359
		c-0.321,0-0.583,0.262-0.583,0.581c0,0.322,0.261,0.582,0.583,0.582c0.319,0,0.582-0.26,0.582-0.582
		C215.75,306.621,215.487,306.359,215.168,306.359z"/>
	<path fill="none" stroke="#662D91" stroke-miterlimit="10" d="M200.042,314.977c-0.38,0-0.689-0.31-0.689-0.689
		c0-0.382,0.31-0.69,0.689-0.69c0.382,0,0.691,0.31,0.691,0.69C200.733,314.667,200.424,314.977,200.042,314.977z M200.042,313.704
		c-0.32,0-0.581,0.261-0.581,0.582c0,0.319,0.26,0.58,0.581,0.58c0.322,0,0.583-0.261,0.583-0.58
		C200.625,313.965,200.364,313.704,200.042,313.704z"/>
	<path fill="none" stroke="#662D91" stroke-miterlimit="10" d="M192.875,310.869c-0.381,0-0.691-0.311-0.691-0.69
		c0-0.381,0.31-0.691,0.691-0.691c0.38,0,0.69,0.312,0.69,0.691S193.255,310.869,192.875,310.869z M192.875,309.596
		c-0.321,0-0.582,0.261-0.582,0.583c0,0.321,0.261,0.582,0.582,0.582c0.322,0,0.582-0.261,0.582-0.582
		S193.197,309.596,192.875,309.596z"/>
	<path fill="none" stroke="#662D91" stroke-miterlimit="10" d="M204.271,302.218c-0.38,0-0.69-0.31-0.69-0.691
		c0-0.38,0.31-0.69,0.69-0.69c0.381,0,0.691,0.311,0.691,0.69C204.962,301.908,204.652,302.218,204.271,302.218z M204.271,300.946
		c-0.321,0-0.582,0.261-0.582,0.582c0,0.32,0.26,0.581,0.582,0.581c0.321,0,0.582-0.261,0.582-0.581
		C204.853,301.207,204.592,300.946,204.271,300.946z"/>
	<path fill="#662D91" d="M205.01,345.449c-0.106-0.013-0.179-0.074-0.212-0.165c-0.158-0.437-0.455-0.722-0.884-0.906
		c-0.283-0.124-0.267-0.289,0-0.462c0.016-0.011,0.031-0.021,0.048-0.026c0.399-0.13,0.664-0.394,0.806-0.788
		c0.042-0.116,0.099-0.235,0.25-0.224c0.139,0.011,0.22,0.118,0.257,0.232c0.133,0.402,0.415,0.633,0.797,0.793
		c0.326,0.139,0.33,0.369,0.007,0.506c-0.414,0.174-0.698,0.435-0.841,0.861C205.206,345.37,205.126,345.443,205.01,345.449
		 M205.563,344.194c-0.06-0.071-0.073-0.102-0.095-0.109c-0.192-0.081-0.311-0.225-0.394-0.41c-0.028-0.063-0.098-0.06-0.127,0.01
		c-0.082,0.198-0.332,0.289-0.39,0.442c-0.075,0.195,0.311,0.204,0.351,0.422c0.006,0.025,0.025,0.052,0.043,0.072
		c0.056,0.069,0.127,0.062,0.151-0.016c0.058-0.185,0.192-0.288,0.352-0.371C205.489,344.215,205.528,344.206,205.563,344.194"/>
	<path fill="#FFFFFF" d="M212.642,348.397c0,0,0.488-0.568,1.057,0v2.107h-1.057V348.397z"/>
</g>
</svg>
