<?xml version="1.0" encoding="utf-8"?>
<!-- Generator: Adobe Illustrator 16.0.0, SVG Export Plug-In . SVG Version: 6.00 Build 0)  -->
<!DOCTYPE svg PUBLIC "-//W3C//DTD SVG 1.1//EN" "http://www.w3.org/Graphics/SVG/1.1/DTD/svg11.dtd">
<svg version="1.1" id="Capa_1" xmlns="http://www.w3.org/2000/svg" xmlns:xlink="http://www.w3.org/1999/xlink" x="0px" y="0px"
	 width="35px" height="35px" viewBox="0 0 35 35" enable-background="new 0 0 35 35" xml:space="preserve">
<g>
	<g>
		<path d="M19.434,17.5L34.6,2.334c0.533-0.534,0.533-1.399,0-1.934c-0.534-0.534-1.4-0.534-1.934,0L17.5,15.566L2.334,0.4
			C1.8-0.133,0.935-0.133,0.4,0.4c-0.534,0.534-0.534,1.4,0,1.934L15.566,17.5L0.4,32.666c-0.534,0.534-0.534,1.4,0,1.934
			C0.667,34.867,1.018,35,1.367,35c0.35,0,0.7-0.133,0.967-0.4L17.5,19.434L32.666,34.6c0.268,0.268,0.617,0.4,0.967,0.4
			s0.699-0.133,0.967-0.4c0.533-0.534,0.533-1.399,0-1.934L19.434,17.5z"/>
	</g>
</g>
</svg>
