<?xml version="1.0" encoding="utf-8"?>
<!-- Generator: Adobe Illustrator 16.0.0, SVG Export Plug-In . SVG Version: 6.00 Build 0)  -->
<!DOCTYPE svg PUBLIC "-//W3C//DTD SVG 1.1//EN" "http://www.w3.org/Graphics/SVG/1.1/DTD/svg11.dtd">
<svg version="1.1" id="Layer_1" xmlns="http://www.w3.org/2000/svg" xmlns:xlink="http://www.w3.org/1999/xlink" x="0px" y="0px"
	 width="60px" height="60px" viewBox="0 0 60 60" enable-background="new 0 0 60 60" xml:space="preserve">
<path fill="#76C1EC" d="M29.913,47.681c3.924,0,7.102,3.179,7.102,7.102v2.664h-3.551h-7.102h-3.551v-2.664
	C22.812,50.859,25.99,47.681,29.913,47.681z"/>
<path fill="#76C1EC" d="M49.442,47.681c3.923,0,7.102,3.179,7.102,7.102v2.664h-3.551h-7.102h-3.551v-2.664
	C42.341,50.859,45.519,47.681,49.442,47.681z"/>
<path fill="#76C1EC" d="M10.384,47.681c3.923,0,7.102,3.179,7.102,7.102v2.664h-3.551H6.833H3.283v-2.664
	C3.283,50.859,6.461,47.681,10.384,47.681z"/>
<circle fill="#F0D0B5" cx="10.384" cy="43.242" r="4.438"/>
<circle fill="#F0D0B5" cx="29.913" cy="43.242" r="4.438"/>
<circle fill="#F0D0B5" cx="49.442" cy="43.242" r="4.438"/>
<path fill="#010101" d="M52.66,47.477c1.278-0.975,2.108-2.507,2.108-4.233c0-2.635-1.924-4.821-4.439-5.247v-0.968
	c0-2.446-1.99-4.438-4.438-4.438H30.801v-3.234c0.479,0.365,1.056,0.571,1.669,0.571c1.494,0,2.707-1.191,2.761-2.673
	c1.447-0.051,2.61-1.214,2.662-2.663c1.449-0.051,2.611-1.214,2.663-2.663c1.481-0.052,2.672-1.266,2.672-2.76
	c0-0.741-0.287-1.436-0.81-1.959l-0.186-0.185c1.22-1.497,1.884-3.35,1.884-5.307c0-4.643-3.777-8.42-8.42-8.42
	c-2.173,0-4.213,0.824-5.783,2.312c-1.57-1.487-3.611-2.312-5.783-2.312c-4.642,0-8.419,3.777-8.419,8.42
	c0,2.181,0.83,4.23,2.33,5.804c-0.354,0.476-0.555,1.044-0.555,1.647c0,1.495,1.191,2.708,2.673,2.76
	c0.052,1.449,1.214,2.612,2.663,2.663c0.052,1.449,1.214,2.612,2.663,2.663c0.052,1.481,1.267,2.673,2.76,2.673
	c0.27,0,0.529-0.05,0.78-0.124v2.787h-15.09c-2.447,0-4.438,1.991-4.438,4.438v0.968c-2.515,0.426-4.438,2.612-4.438,5.247
	c0,1.727,0.831,3.259,2.107,4.233c-2.805,1.241-4.771,4.047-4.771,7.306v3.551h15.979v-3.551c0-3.259-1.965-6.064-4.771-7.306
	c1.278-0.975,2.108-2.507,2.108-4.233c0-2.635-1.923-4.821-4.438-5.247v-0.968c0-1.468,1.194-2.662,2.663-2.662h15.09v3.63
	c-2.515,0.425-4.438,2.612-4.438,5.247c0,1.727,0.83,3.259,2.107,4.233c-2.805,1.241-4.771,4.047-4.771,7.306v3.551h15.979v-3.551
	c0-3.259-1.967-6.064-4.771-7.306c1.276-0.975,2.106-2.507,2.106-4.233c0-2.635-1.924-4.821-4.438-5.247v-3.63h15.091
	c1.468,0,2.662,1.194,2.662,2.662v0.968c-2.514,0.425-4.438,2.612-4.438,5.247c0,1.727,0.83,3.259,2.106,4.233
	c-2.804,1.241-4.771,4.047-4.771,7.306v3.551h15.979v-3.551C57.431,51.523,55.466,48.718,52.66,47.477L52.66,47.477z M35.696,5.073
	c3.664,0,6.645,2.981,6.645,6.645c0,1.481-0.488,2.885-1.376,4.039l-4.081-4.082c0.264-0.198,0.521-0.41,0.76-0.647l-1.256-1.255
	c-0.978,0.978-2.276,1.515-3.659,1.515H31.32l-1.515,1.515c-0.167,0.168-0.392,0.26-0.628,0.26h-3.335
	c-0.202,0-0.367-0.165-0.367-0.367c0-0.097,0.039-0.192,0.107-0.26l5.416-5.416C32.253,5.764,33.921,5.073,35.696,5.073z
	 M24.13,5.073c1.693,0,3.287,0.636,4.519,1.784l-4.323,4.322c-0.403,0.404-0.626,0.942-0.626,1.516c0,1.181,0.961,2.143,2.143,2.143
	h3.335c0.711,0,1.38-0.277,1.883-0.78l0.995-0.995h0.673c0.887,0,1.746-0.169,2.547-0.485l5.887,5.887
	c0.187,0.188,0.29,0.438,0.29,0.704c0,0.549-0.445,0.995-0.994,0.995c-0.267,0-0.516-0.103-0.704-0.291l-2.112-2.112l-1.254,1.255
	l2.11,2.112c0.188,0.188,0.292,0.438,0.292,0.704c0,0.549-0.447,0.995-0.996,0.995c-0.265,0-0.516-0.103-0.702-0.291l-2.112-2.112
	l-1.256,1.255l2.112,2.112c0.187,0.188,0.29,0.438,0.29,0.704c0,0.549-0.445,0.995-0.994,0.995c-0.267,0-0.516-0.104-0.704-0.291
	l-2.112-2.112l-1.255,1.255l2.111,2.111c0.188,0.188,0.292,0.438,0.292,0.704c0,0.549-0.447,0.995-0.994,0.995
	c-0.267,0-0.516-0.104-0.704-0.291l-0.297-0.296c0.143-0.337,0.22-0.702,0.22-1.081c0-1.495-1.191-2.708-2.673-2.76
	c-0.051-1.449-1.214-2.612-2.663-2.663c-0.051-1.449-1.214-2.611-2.663-2.663c-0.052-1.482-1.266-2.673-2.761-2.673
	c-0.597,0-1.16,0.195-1.631,0.542c-1.166-1.237-1.812-2.842-1.812-4.55C17.486,8.054,20.467,5.073,24.13,5.073L24.13,5.073z
	 M19.261,19.168c0-0.267,0.104-0.516,0.292-0.704l0.673-0.673c0.188-0.187,0.438-0.291,0.704-0.291c0.549,0,0.995,0.447,0.995,0.995
	c0,0.267-0.103,0.516-0.291,0.704l-0.673,0.673c-0.188,0.188-0.438,0.291-0.704,0.291C19.708,20.163,19.261,19.717,19.261,19.168z
	 M21.924,21.831c0-0.266,0.104-0.516,0.291-0.704l0.673-0.673c0.188-0.187,0.438-0.292,0.704-0.292c0.549,0,0.995,0.447,0.995,0.995
	c0,0.267-0.104,0.516-0.291,0.704l-0.673,0.673c-0.188,0.188-0.438,0.291-0.704,0.291C22.37,22.826,21.924,22.38,21.924,21.831z
	 M24.587,24.494c0-0.266,0.104-0.516,0.291-0.704l0.673-0.673c0.188-0.187,0.438-0.291,0.704-0.291c0.549,0,0.995,0.446,0.995,0.995
	c0,0.267-0.104,0.516-0.291,0.704l-0.673,0.673c-0.188,0.187-0.438,0.291-0.704,0.291C25.034,25.489,24.587,25.043,24.587,24.494z
	 M28.245,28.152c-0.549,0-0.995-0.446-0.995-0.995c0-0.266,0.104-0.516,0.291-0.704l0.673-0.673
	c0.188-0.187,0.438-0.291,0.704-0.291c0.548,0,0.995,0.446,0.995,0.995c0,0.267-0.104,0.516-0.291,0.704l-0.673,0.673
	C28.761,28.048,28.512,28.152,28.245,28.152z M16.598,54.782v1.775h-1.775v-3.551h-1.775v3.551H7.721v-3.551H5.946v3.551H4.17
	v-1.775c0-3.426,2.788-6.213,6.214-6.213C13.811,48.569,16.598,51.356,16.598,54.782z M13.935,43.243
	c0,1.958-1.593,3.551-3.551,3.551s-3.551-1.593-3.551-3.551s1.593-3.551,3.551-3.551S13.935,41.285,13.935,43.243z M36.126,54.782
	v1.775h-1.775v-3.551h-1.775v3.551H27.25v-3.551h-1.775v3.551h-1.775v-1.775c0-3.426,2.787-6.213,6.214-6.213
	C33.339,48.569,36.126,51.356,36.126,54.782z M33.464,43.243c0,1.958-1.593,3.551-3.551,3.551s-3.551-1.593-3.551-3.551
	s1.593-3.551,3.551-3.551S33.464,41.285,33.464,43.243z M45.892,43.243c0-1.958,1.592-3.551,3.551-3.551
	c1.958,0,3.551,1.593,3.551,3.551s-1.593,3.551-3.551,3.551C47.483,46.794,45.892,45.201,45.892,43.243z M55.655,56.558H53.88
	v-3.551h-1.775v3.551h-5.326v-3.551h-1.775v3.551h-1.775v-1.775c0-3.426,2.788-6.213,6.215-6.213c3.426,0,6.213,2.787,6.213,6.213
	V56.558z"/>
</svg>
