<?xml version="1.0" encoding="utf-8"?>
<!-- Generator: Adobe Illustrator 16.0.0, SVG Export Plug-In . SVG Version: 6.00 Build 0)  -->
<!DOCTYPE svg PUBLIC "-//W3C//DTD SVG 1.1//EN" "http://www.w3.org/Graphics/SVG/1.1/DTD/svg11.dtd">
<svg version="1.1" id="Layer_1" xmlns="http://www.w3.org/2000/svg" xmlns:xlink="http://www.w3.org/1999/xlink" x="0px" y="0px"
	 width="35px" height="35px" viewBox="0 0 35 35" enable-background="new 0 0 35 35" xml:space="preserve">
<g>
	<path fill="#EF4538" d="M17.459,0.662c-9.354,0-16.963,7.609-16.963,16.963c0,9.353,7.609,16.963,16.963,16.963
		c9.353,0,16.963-7.61,16.963-16.963C34.422,8.271,26.812,0.662,17.459,0.662z"/>
	<path fill="#FAFAFA" d="M23.706,21.872c0.552,0.554,0.552,1.446,0,2c-0.276,0.275-0.639,0.413-1.001,0.413
		s-0.722-0.138-0.999-0.413l-4.247-4.249l-4.248,4.249c-0.276,0.275-0.638,0.413-1,0.413c-0.363,0-0.724-0.138-1-0.413
		c-0.552-0.554-0.552-1.446,0-2l4.248-4.247l-4.248-4.248c-0.552-0.553-0.552-1.447,0-2c0.553-0.552,1.446-0.552,2,0l4.248,4.248
		l4.247-4.248c0.554-0.552,1.446-0.552,2,0c0.552,0.553,0.552,1.446,0,2l-4.249,4.248L23.706,21.872z"/>
</g>
</svg>
