<?xml version="1.0" encoding="utf-8"?>
<!-- Generator: Adobe Illustrator 16.0.0, SVG Export Plug-In . SVG Version: 6.00 Build 0)  -->
<!DOCTYPE svg PUBLIC "-//W3C//DTD SVG 1.1//EN" "http://www.w3.org/Graphics/SVG/1.1/DTD/svg11.dtd">
<svg version="1.1" id="Layer_1" xmlns="http://www.w3.org/2000/svg" xmlns:xlink="http://www.w3.org/1999/xlink" x="0px" y="0px"
	 width="54px" height="46px" viewBox="0 0 54 46" enable-background="new 0 0 54 46" xml:space="preserve">
<g>
	<g>
		<path fill="#FFFFFF" d="M45.6,42.899h-1.85V16.047c0-1.25-1.017-2.267-2.268-2.267H37.35c-1.25,0-2.267,1.017-2.267,2.267v26.852
			h-4.697V28.214c0-1.252-1.016-2.267-2.266-2.267h-4.134c-1.25,0-2.266,1.018-2.266,2.267v14.686h-4.697v-7.606
			c0-1.249-1.017-2.266-2.266-2.266h-4.134c-1.25,0-2.267,1.017-2.267,2.266v7.606H6.408c-0.466,0-0.843,0.377-0.843,0.844
			c0,0.465,0.377,0.842,0.843,0.842H45.6c0.464,0,0.843-0.377,0.843-0.842C46.442,43.276,46.063,42.899,45.6,42.899z M15.337,42.899
			h-5.294v-7.606c0-0.319,0.26-0.58,0.58-0.58h4.133c0.32,0,0.581,0.261,0.581,0.58V42.899L15.337,42.899z M28.7,42.899h-5.294
			V28.214c0-0.32,0.26-0.581,0.58-0.581h4.134c0.32,0,0.58,0.261,0.58,0.581V42.899z M42.063,42.899h-5.295V16.047
			c0-0.32,0.26-0.581,0.581-0.581h4.133c0.32,0,0.581,0.261,0.581,0.581V42.899z"/>
	</g>
</g>
<g>
	<g>
		<path fill="#FFFFFF" d="M43.748,2.301c0.011-0.23-0.069-0.464-0.245-0.64c-0.176-0.176-0.41-0.257-0.641-0.245
			c-0.014-0.001-0.026-0.002-0.04-0.002h-5.102c-0.466,0-0.843,0.377-0.843,0.843s0.377,0.843,0.843,0.843h3.15l-8.336,8.335
			l-3.144-3.143c-0.158-0.158-0.373-0.248-0.596-0.248c-0.225,0-0.438,0.089-0.597,0.248L13.042,23.452
			c-0.329,0.329-0.329,0.863,0,1.192c0.165,0.165,0.38,0.246,0.596,0.246c0.215,0,0.432-0.081,0.596-0.246l14.562-14.562
			l3.144,3.143c0.329,0.33,0.862,0.33,1.191,0l8.933-8.931v2.851c0,0.465,0.378,0.843,0.843,0.843c0.466,0,0.844-0.377,0.844-0.843
			V2.342C43.75,2.329,43.749,2.315,43.748,2.301z"/>
	</g>
</g>
<g>
	<g>
		<circle fill="#FFFFFF" cx="10.795" cy="26.989" r="0.844"/>
	</g>
</g>
</svg>
