<?xml version="1.0" encoding="utf-8"?>
<!-- Generator: Adobe Illustrator 16.0.0, SVG Export Plug-In . SVG Version: 6.00 Build 0)  -->
<!DOCTYPE svg PUBLIC "-//W3C//DTD SVG 1.1//EN" "http://www.w3.org/Graphics/SVG/1.1/DTD/svg11.dtd">
<svg version="1.1" id="Layer_1" xmlns="http://www.w3.org/2000/svg" xmlns:xlink="http://www.w3.org/1999/xlink" x="0px" y="0px"
	 width="54px" height="46px" viewBox="0 0 54 46" enable-background="new 0 0 54 46" xml:space="preserve">
<g>
	<g>
		<path fill="#FFFFFF" d="M32.01,17.777c-0.463,0-0.836,0.374-0.836,0.835c0,0.461,0.373,0.834,0.836,0.834
			c0.462,0,0.835-0.374,0.835-0.834C32.845,18.151,32.472,17.777,32.01,17.777z"/>
	</g>
</g>
<g>
	<g>
		<path fill="#FFFFFF" d="M47.902,38.97L36.754,27.82c1.816-2.738,2.773-5.905,2.773-9.208c0-9.212-7.494-16.706-16.706-16.706
			c-9.212,0-16.706,7.494-16.706,16.706c0,9.212,7.494,16.706,16.706,16.706c3.304,0,6.471-0.957,9.208-2.773l3.082,3.081
			c0,0,0,0.002,0.001,0.002l8.066,8.065c0.63,0.632,1.47,0.979,2.361,0.979c0.894,0,1.731-0.347,2.362-0.979
			c0.633-0.631,0.979-1.469,0.979-2.363C48.882,40.438,48.535,39.6,47.902,38.97z M31.637,30.783L31.637,30.783
			c-2.579,1.873-5.627,2.864-8.815,2.864c-8.291,0-15.035-6.745-15.035-15.035c0-8.291,6.744-15.035,15.035-15.035
			c8.29,0,15.035,6.744,15.035,15.035c0,3.188-0.991,6.235-2.863,8.815C34.058,28.718,32.927,29.849,31.637,30.783z M33.39,31.541
			c0.864-0.707,1.653-1.498,2.361-2.361l2.37,2.371c-0.721,0.848-1.513,1.641-2.361,2.36L33.39,31.541z M46.722,42.512
			c-0.315,0.315-0.735,0.489-1.182,0.489c-0.445,0-0.864-0.174-1.181-0.489l-7.417-7.417c0.847-0.726,1.637-1.515,2.362-2.361
			l7.417,7.417c0.315,0.316,0.489,0.734,0.489,1.18C47.211,41.777,47.037,42.196,46.722,42.512z"/>
	</g>
</g>
<g>
	<g>
		<path fill="#FFFFFF" d="M22.821,5.248c-7.369,0-13.365,5.996-13.365,13.365s5.996,13.364,13.365,13.364
			s13.364-5.995,13.364-13.364S30.19,5.248,22.821,5.248z M22.821,30.306c-6.448,0-11.694-5.245-11.694-11.693
			c0-6.448,5.247-11.694,11.694-11.694c6.448,0,11.693,5.247,11.693,11.694C34.515,25.061,29.27,30.306,22.821,30.306z"/>
	</g>
</g>
<g>
	<g>
		<path fill="#FFFFFF" d="M32.182,15.026c-0.72-1.872-1.973-3.473-3.622-4.629c-1.69-1.183-3.674-1.809-5.738-1.809
			c-0.461,0-0.835,0.375-0.835,0.835c0,0.461,0.374,0.836,0.835,0.836c3.432,0,6.567,2.157,7.8,5.366
			c0.129,0.333,0.445,0.537,0.781,0.537c0.1,0,0.2-0.018,0.299-0.056C32.131,15.94,32.347,15.457,32.182,15.026z"/>
	</g>
</g>
</svg>
