<?xml version="1.0" encoding="utf-8"?>
<!-- Generator: Adobe Illustrator 16.0.0, SVG Export Plug-In . SVG Version: 6.00 Build 0)  -->
<!DOCTYPE svg PUBLIC "-//W3C//DTD SVG 1.1//EN" "http://www.w3.org/Graphics/SVG/1.1/DTD/svg11.dtd">
<svg version="1.1" id="Layer_1" xmlns="http://www.w3.org/2000/svg" xmlns:xlink="http://www.w3.org/1999/xlink" x="0px" y="0px"
	 width="54px" height="46px" viewBox="0 0 54 46" enable-background="new 0 0 54 46" xml:space="preserve">
<g>
	<g>
		<path fill="#FFFFFF" d="M20.743,21.08c-0.487,0-0.882,0.395-0.882,0.881c0,0.487,0.395,0.881,0.882,0.881
			c0.486,0,0.881-0.395,0.881-0.881C21.624,21.475,21.229,21.08,20.743,21.08z"/>
	</g>
</g>
<g>
	<g>
		<path fill="#FFFFFF" d="M17.922,42.938c-0.486,0-0.881,0.396-0.881,0.882s0.395,0.881,0.881,0.881s0.881-0.395,0.881-0.881
			S18.408,42.938,17.922,42.938z"/>
	</g>
</g>
<g>
	<g>
		<path fill="#FFFFFF" d="M32.932,10.978c-0.327-0.361-0.885-0.387-1.245-0.061l-8.893,8.062c-0.361,0.327-0.388,0.885-0.061,1.245
			c0.173,0.192,0.413,0.29,0.653,0.29c0.211,0,0.423-0.075,0.591-0.229l8.893-8.061C33.23,11.896,33.259,11.339,32.932,10.978z"/>
	</g>
</g>
<g>
	<g>
		<path fill="#FFFFFF" d="M47.49,8.814l-7.057-7.056c-1.007-1.007-2.613-1.04-3.66-0.078l-3.477,3.113
			c-0.063,0.037-0.124,0.083-0.179,0.137c-0.031,0.031-0.059,0.064-0.083,0.098L14.224,21.875c-0.249,0.221-0.45,0.482-0.6,0.776
			c-0.003,0.005-0.005,0.011-0.008,0.016c-0.002,0.003-0.004,0.007-0.006,0.011c-0.005,0.01-0.008,0.02-0.013,0.03
			c-0.005,0.012-0.011,0.023-0.016,0.036c-0.117,0.253-0.194,0.521-0.227,0.793l-0.688,5.706l-2.279,2.278
			c-0.499,0.498-0.774,1.163-0.774,1.869c0,0.4,0.089,0.787,0.256,1.139l-5.173,5.14c-0.253,0.251-0.329,0.632-0.193,0.962
			c0.137,0.33,0.458,0.545,0.815,0.545h7.515c0.233,0,0.458-0.093,0.623-0.259l1.402-1.401c0.359,0.172,0.749,0.257,1.139,0.257
			c0.677,0,1.354-0.257,1.87-0.772l2.278-2.278l5.705-0.688c0.278-0.032,0.546-0.111,0.797-0.229
			c0.009-0.003,0.017-0.007,0.025-0.012c0.013-0.006,0.025-0.01,0.037-0.016c0.004-0.002,0.007-0.004,0.011-0.006
			c0.006-0.003,0.012-0.006,0.017-0.01c0.295-0.149,0.556-0.35,0.777-0.599l16.848-19.064l3.206-3.626
			C48.53,11.426,48.497,9.821,47.49,8.814z M12.468,39.413H7.455l3.554-3.532l2.495,2.495L12.468,39.413z M19.631,35.009
			c-0.009,0.001-0.016,0.003-0.025,0.005c-0.018,0.003-0.035,0.005-0.052,0.009c-0.012,0.002-0.024,0.005-0.037,0.009
			c-0.016,0.004-0.031,0.008-0.047,0.013c-0.013,0.005-0.026,0.009-0.039,0.014c-0.014,0.005-0.028,0.01-0.042,0.017
			c-0.013,0.006-0.026,0.012-0.039,0.018c-0.013,0.006-0.026,0.013-0.038,0.02c-0.014,0.007-0.027,0.015-0.04,0.023
			c-0.011,0.007-0.022,0.014-0.033,0.021c-0.014,0.011-0.027,0.02-0.04,0.029c-0.009,0.008-0.02,0.016-0.029,0.023
			c-0.013,0.011-0.025,0.023-0.038,0.034c-0.007,0.006-0.013,0.013-0.02,0.019l-2.493,2.492c-0.343,0.345-0.903,0.344-1.247,0
			l-3.74-3.74c-0.343-0.343-0.343-0.902,0-1.245l2.494-2.493c0.008-0.009,0.016-0.018,0.023-0.027
			c0.009-0.009,0.018-0.018,0.026-0.026c0.011-0.014,0.021-0.026,0.03-0.04c0.007-0.01,0.015-0.02,0.022-0.03
			c0.01-0.013,0.019-0.027,0.027-0.041c0.007-0.011,0.013-0.021,0.019-0.032c0.008-0.015,0.016-0.029,0.023-0.044
			c0.005-0.011,0.011-0.021,0.016-0.034c0.006-0.015,0.013-0.03,0.018-0.046c0.004-0.012,0.008-0.022,0.012-0.034
			c0.005-0.017,0.01-0.033,0.014-0.049c0.003-0.012,0.006-0.024,0.008-0.035c0.004-0.018,0.007-0.034,0.009-0.053
			c0.002-0.008,0.003-0.016,0.005-0.025l0.588-4.873l9.539,9.537L19.631,35.009z M26.372,33.793L15.594,23.015L33.721,6.781
			l8.771,8.772L26.372,33.793z M46.269,11.284c-0.006,0.005-0.011,0.009-0.015,0.015l-2.592,2.931l-8.626-8.626l2.918-2.613
			c0.003-0.003,0.007-0.006,0.01-0.01c0.35-0.323,0.887-0.313,1.223,0.023l7.057,7.057C46.58,10.398,46.59,10.935,46.269,11.284z"/>
	</g>
</g>
<g>
	<g>
		<path fill="#FFFFFF" d="M48.684,42.938H21.447c-0.487,0-0.881,0.396-0.881,0.882s0.394,0.881,0.881,0.881h27.236
			c0.486,0,0.881-0.395,0.881-0.881S49.17,42.938,48.684,42.938z"/>
	</g>
</g>
<g>
	<g>
		<path fill="#FFFFFF" d="M14.396,42.938H5.318c-0.487,0-0.881,0.396-0.881,0.882s0.395,0.881,0.881,0.881h9.078
			c0.487,0,0.882-0.395,0.882-0.881S14.883,42.938,14.396,42.938z"/>
	</g>
</g>
</svg>
