<?xml version="1.0" encoding="utf-8"?>
<!-- Generator: Adobe Illustrator 16.0.0, SVG Export Plug-In . SVG Version: 6.00 Build 0)  -->
<!DOCTYPE svg PUBLIC "-//W3C//DTD SVG 1.1//EN" "http://www.w3.org/Graphics/SVG/1.1/DTD/svg11.dtd">
<svg version="1.1" id="Layer_1" xmlns="http://www.w3.org/2000/svg" xmlns:xlink="http://www.w3.org/1999/xlink" x="0px" y="0px"
	 width="54px" height="46px" viewBox="0 0 54 46" enable-background="new 0 0 54 46" xml:space="preserve">
<g>
	<path fill="#FFFFFF" d="M39.847,39.455H3.568c-0.137,0-0.248-0.112-0.248-0.249V20.377c0-0.411-0.333-0.744-0.744-0.744
		c-0.411,0-0.743,0.333-0.743,0.744v18.829c0,0.957,0.777,1.735,1.735,1.735h36.279c0.411,0,0.743-0.333,0.743-0.744
		C40.59,39.787,40.258,39.455,39.847,39.455z"/>
	<path fill="#FFFFFF" d="M50.775,5.435H3.568c-0.958,0-1.735,0.778-1.735,1.735v9.652c0,0.411,0.333,0.744,0.743,0.744
		c0.411,0,0.744-0.333,0.744-0.744v-0.084h23.622v15.302c0,0.426,0.215,0.818,0.576,1.047c0.361,0.229,0.807,0.257,1.193,0.074
		l7.733-3.654c0.229-0.108,0.491-0.108,0.719,0l7.734,3.654c0.386,0.183,0.832,0.154,1.193-0.074
		c0.36-0.229,0.575-0.621,0.575-1.047V16.737h4.356v22.469c0,0.137-0.112,0.249-0.247,0.249h-7.562
		c-0.412,0-0.744,0.332-0.744,0.742c0,0.411,0.332,0.744,0.744,0.744h7.562c0.955,0,1.734-0.778,1.734-1.735V7.169
		C52.51,6.212,51.73,5.435,50.775,5.435L50.775,5.435z M37.799,28.162c-0.633-0.299-1.357-0.299-1.989,0l-7.38,3.484V12.508
		c0-0.411-0.333-0.745-0.744-0.745c-0.411,0-0.744,0.334-0.744,0.745v2.742H3.32v-8.08c0-0.137,0.11-0.248,0.248-0.248h23.374v2.092
		c0,0.41,0.333,0.743,0.744,0.743c0.411,0,0.744-0.333,0.744-0.743V6.921h16.751v24.725L37.799,28.162z M46.666,15.25V6.921h4.109
		c0.135,0,0.247,0.111,0.247,0.248v8.08H46.666L46.666,15.25z"/>
	<circle fill="#FFFFFF" cx="7.329" cy="11.058" r="1.45"/>
	<circle fill="#FFFFFF" cx="11.739" cy="11.058" r="1.45"/>
	<circle fill="#FFFFFF" cx="16.148" cy="11.058" r="1.45"/>
	<path fill="#FFFFFF" d="M41.394,15.731l-2.353-0.341l-1.053-2.132c-0.224-0.454-0.678-0.736-1.185-0.736
		c-0.505,0-0.96,0.282-1.184,0.736l-1.053,2.132l-2.354,0.341c-0.5,0.074-0.909,0.417-1.064,0.899c-0.157,0.481-0.03,1,0.334,1.354
		l1.701,1.659l-0.401,2.343c-0.086,0.5,0.115,0.995,0.525,1.292c0.411,0.298,0.944,0.335,1.392,0.101l2.104-1.106l2.104,1.106
		c0.449,0.235,0.98,0.197,1.391-0.101c0.41-0.298,0.611-0.793,0.526-1.292l-0.401-2.343l1.701-1.658
		c0.362-0.354,0.49-0.873,0.334-1.355S41.894,15.805,41.394,15.731L41.394,15.731z M39.322,18.64
		c-0.312,0.304-0.453,0.741-0.381,1.169l0.361,2.098l-1.884-0.99c-0.385-0.202-0.845-0.202-1.229,0l-1.884,0.99l0.36-2.098
		c0.072-0.428-0.069-0.865-0.381-1.167l-1.523-1.486l2.106-0.306c0.431-0.063,0.802-0.333,0.993-0.722l0.942-1.909l0.941,1.909
		c0.194,0.389,0.564,0.659,0.995,0.722l2.105,0.306L39.322,18.64z"/>
	<path fill="#FFFFFF" d="M7.329,24.094h15.839c0.41,0,0.743-0.333,0.743-0.744c0-0.41-0.333-0.743-0.743-0.743H7.329
		c-0.411,0-0.743,0.333-0.743,0.743C6.586,23.761,6.918,24.094,7.329,24.094z"/>
	<path fill="#FFFFFF" d="M7.329,27.534h15.839c0.41,0,0.743-0.334,0.743-0.744c0-0.411-0.333-0.744-0.743-0.744H7.329
		c-0.411,0-0.743,0.333-0.743,0.744C6.586,27.2,6.918,27.534,7.329,27.534z"/>
	<path fill="#FFFFFF" d="M7.329,30.972h5.96c0.41,0,0.743-0.333,0.743-0.742c0-0.412-0.333-0.743-0.743-0.743h-5.96
		c-0.411,0-0.743,0.331-0.743,0.743C6.586,30.639,6.918,30.972,7.329,30.972z"/>
</g>
</svg>
