<?xml version="1.0" encoding="utf-8"?>
<!-- Generator: Adobe Illustrator 16.0.0, SVG Export Plug-In . SVG Version: 6.00 Build 0)  -->
<!DOCTYPE svg PUBLIC "-//W3C//DTD SVG 1.1//EN" "http://www.w3.org/Graphics/SVG/1.1/DTD/svg11.dtd">
<svg version="1.1" id="Layer_1" xmlns="http://www.w3.org/2000/svg" xmlns:xlink="http://www.w3.org/1999/xlink" x="0px" y="0px"
	 width="265.625px" height="75.52px" viewBox="0 0 265.625 75.52" enable-background="new 0 0 265.625 75.52" xml:space="preserve">
<polygon fill="#414042" points="81.417,36.525 72.794,16.47 72.073,14.551 72.207,21.427 72.207,38.253 69.129,38.253 
	69.129,10.163 73.382,10.163 83.165,32.537 92.85,10.163 96.99,10.163 96.99,38.253 93.799,38.253 93.799,21.351 93.932,14.629 
	93.228,16.544 84.626,36.525 "/>
<path fill="#414042" d="M115.945,38.253c-0.192-0.812-0.375-1.687-0.551-2.62c-1.153,1.151-2.235,1.95-3.249,2.394
	c-1.012,0.441-2.204,0.665-3.569,0.665c-1.95,0-3.516-0.51-4.701-1.53c-1.183-1.02-1.774-2.487-1.774-4.396
	c0-2.127,0.806-3.708,2.419-4.729c1.614-1.024,3.941-1.667,6.98-1.916c0.417-0.04,1.047-0.092,1.89-0.165
	c0.841-0.071,1.471-0.125,1.89-0.161v-1.842c0-1.469-0.341-2.56-1.024-3.267c-0.686-0.707-1.761-1.063-3.231-1.063
	c-2.049,0-4.121,0.509-6.21,1.521c-0.063-0.152-0.228-0.592-0.493-1.324c-0.265-0.725-0.405-1.103-0.417-1.129
	c0.924-0.52,2.021-0.933,3.293-1.244c1.273-0.311,2.567-0.464,3.885-0.464c2.594,0,4.467,0.566,5.612,1.699
	c1.145,1.132,1.719,3.062,1.719,5.785v13.784L115.945,38.253L115.945,38.253z M109.049,36.126c1.508,0,2.833-0.416,3.978-1.249
	c1.147-0.826,1.886-1.945,2.214-3.346v-3.513c-0.063,0-0.444,0.03-1.15,0.094c-0.702,0.066-1.163,0.103-1.375,0.116
	c-2.748,0.24-4.662,0.693-5.745,1.348c-1.083,0.658-1.625,1.716-1.625,3.171c0,1.115,0.33,1.955,0.987,2.528
	C106.993,35.839,107.896,36.126,109.049,36.126"/>
<path fill="#414042" d="M127.094,47.786l-0.286-2.868h3.871c1.077,0,2.014-0.078,2.813-0.229c0.799-0.152,1.464-0.403,1.995-0.75
	c0.532-0.349,0.962-0.738,1.292-1.162c0.329-0.425,0.581-0.974,0.752-1.652c0.169-0.677,0.285-1.351,0.341-2.013
	c0.057-0.666,0.082-1.477,0.082-2.441v-1.839c-0.755,1.092-1.638,1.928-2.64,2.517c-1,0.585-2.269,0.882-3.815,0.882
	c-1.188,0-2.288-0.207-3.294-0.617c-1.007-0.411-1.854-0.959-2.543-1.641c-0.693-0.684-1.281-1.476-1.769-2.373
	c-0.487-0.902-0.843-1.828-1.063-2.791c-0.221-0.963-0.333-1.933-0.333-2.905c0-1.521,0.188-2.928,0.561-4.216
	c0.373-1.293,0.927-2.445,1.663-3.456c0.734-1.015,1.697-1.81,2.894-2.385c1.196-0.579,2.567-0.864,4.114-0.864
	c1.366,0,2.56,0.264,3.579,0.792c1.019,0.524,1.935,1.328,2.744,2.418v-2.774h3.096v19.336c0,0.886-0.025,1.661-0.069,2.319
	c-0.043,0.668-0.149,1.405-0.323,2.218c-0.171,0.808-0.401,1.507-0.697,2.085c-0.287,0.587-0.699,1.171-1.221,1.76
	c-0.525,0.589-1.153,1.065-1.884,1.426c-0.728,0.36-1.629,0.651-2.705,0.881c-1.074,0.229-2.291,0.34-3.648,0.34h-3.505V47.786z
	 M131.973,35.536c1.077,0,2.019-0.187,2.828-0.569c0.811-0.38,1.443-0.906,1.9-1.574c0.45-0.671,0.792-1.422,1.012-2.243
	c0.223-0.823,0.335-1.724,0.335-2.695v-1.541c0-1.012-0.118-1.946-0.341-2.8c-0.229-0.857-0.581-1.62-1.056-2.298
	c-0.475-0.677-1.111-1.21-1.895-1.583c-0.797-0.383-1.712-0.573-2.769-0.573c-0.872,0-1.667,0.166-2.383,0.496
	c-0.713,0.329-1.304,0.76-1.766,1.299c-0.464,0.54-0.856,1.167-1.175,1.882c-0.325,0.714-0.554,1.439-0.696,2.173
	c-0.138,0.736-0.209,1.479-0.209,2.225c0,0.733,0.079,1.459,0.232,2.183c0.15,0.72,0.389,1.425,0.717,2.108
	c0.333,0.685,0.729,1.278,1.201,1.791c0.467,0.512,1.052,0.926,1.752,1.244C130.368,35.377,131.139,35.536,131.973,35.536"/>
<rect x="146.977" y="17.418" fill="#414042" width="3.19" height="20.834"/>
<path fill="#414042" d="M164.945,38.692c-3.064,0-5.461-0.995-7.187-2.982c-1.729-1.988-2.592-4.59-2.592-7.806
	c0.012-3.242,0.896-5.876,2.648-7.893c1.751-2.018,4.157-3.032,7.207-3.032c1.072,0,2.115,0.132,3.126,0.399
	c1.011,0.265,1.8,0.613,2.383,1.045l-0.873,2.469c-1.479-0.802-3.043-1.2-4.693-1.2c-2.013,0-3.604,0.735-4.778,2.205
	c-1.168,1.466-1.753,3.474-1.753,6.019c0,2.481,0.579,4.447,1.738,5.895c1.161,1.449,2.765,2.174,4.814,2.174
	c1.634,0,3.3-0.441,5.008-1.329l0.399,2.525C169.015,38.187,167.197,38.692,164.945,38.692"/>
<path fill="#414042" d="M200.973,38.253V27.408c0-1.011-0.021-1.86-0.067-2.545c-0.043-0.684-0.144-1.377-0.305-2.089
	c-0.157-0.711-0.379-1.27-0.663-1.685c-0.288-0.408-0.681-0.749-1.189-1.008c-0.506-0.26-1.113-0.389-1.82-0.389
	c-1.394,0-2.58,0.376-3.563,1.12c-0.979,0.749-1.681,1.795-2.098,3.151c-0.114,0.914-0.17,1.888-0.17,2.93v11.354h-3.174V27.062
	c0-0.937-0.031-1.75-0.094-2.438c-0.064-0.695-0.185-1.366-0.36-2.016c-0.181-0.652-0.417-1.181-0.711-1.584
	c-0.3-0.401-0.695-0.729-1.189-0.968c-0.492-0.239-1.082-0.361-1.767-0.361c-1.52,0-2.796,0.389-3.824,1.162
	c-1.033,0.77-1.728,1.795-2.08,3.073c-0.116,0.975-0.172,2.038-0.172,3.175v11.149h-3.173c-0.026-13.031-0.039-19.975-0.039-20.835
	h2.658l0.4,2.982c0.635-0.96,1.531-1.775,2.698-2.43c1.163-0.656,2.488-0.987,3.969-0.987c0.77,0,1.481,0.078,2.137,0.236
	c0.648,0.161,1.197,0.357,1.633,0.597c0.438,0.239,0.826,0.529,1.166,0.862c0.344,0.336,0.611,0.666,0.802,0.986
	c0.188,0.325,0.347,0.662,0.476,1.017c1.524-2.466,3.844-3.705,6.975-3.705c2.313,0,4.016,0.661,5.098,1.985
	c1.082,1.324,1.624,3.284,1.624,5.88v13.409L200.973,38.253L200.973,38.253z"/>
<path fill="#414042" d="M211.932,13.6h-3.19v-3.76h3.19V13.6z M211.932,38.253h-3.19V17.418h3.19V38.253z M150.167,13.924h-3.19
	v-3.761h3.19V13.924z"/>
<path fill="#414042" d="M217.896,38.253V17.418h2.656l0.398,2.981c0.822-1.023,1.854-1.849,3.086-2.475
	c1.235-0.628,2.569-0.943,4.001-0.943c2.405,0,4.184,0.673,5.334,2.02c1.156,1.352,1.733,3.426,1.733,6.222v13.03h-3.174
	c0-8.356-0.009-12.835-0.021-13.427c-0.049-1.773-0.406-3.073-1.072-3.893c-0.661-0.824-1.777-1.236-3.331-1.236
	c-1.635,0-2.998,0.393-4.081,1.178c-1.09,0.785-1.8,1.804-2.132,3.054c-0.126,0.853-0.189,1.829-0.189,2.928v11.395L217.896,38.253
	L217.896,38.253z"/>
<path fill="#414042" d="M254.76,35.233c-0.688,1.052-1.598,1.89-2.734,2.509c-1.14,0.62-2.413,0.934-3.818,0.934
	c-2.747,0-4.9-0.983-6.457-2.938c-1.558-1.956-2.335-4.617-2.335-7.985c0-3.215,0.791-5.813,2.374-7.795
	c1.58-1.982,3.703-2.976,6.36-2.976c1.378,0,2.677,0.301,3.902,0.903c1.22,0.602,2.139,1.406,2.742,2.421l-0.056-1.803V9.331
	l3.137-0.189v29.113h-2.695L254.76,35.233z M248.51,35.956c2.088,0,3.645-0.671,4.664-2.016c1.018-1.336,1.529-3.257,1.529-5.751
	c0-2.811-0.492-4.931-1.473-6.355c-0.981-1.426-2.567-2.137-4.758-2.137c-0.974,0-1.836,0.21-2.581,0.628
	c-0.749,0.418-1.35,1.003-1.806,1.748c-0.454,0.744-0.802,1.602-1.036,2.567c-0.235,0.969-0.349,2.031-0.349,3.186
	c0,1.621,0.201,3.025,0.597,4.217c0.397,1.187,1.042,2.137,1.929,2.847C246.109,35.599,247.207,35.956,248.51,35.956"/>
<g>
	<path fill="#662D91" d="M60.878,35.901c-1.307-1.685-2.512-3.437-3.639-5.248c-1.065-1.711-1.914-3.479-1.974-5.58
		c-0.031-1.149-0.326-2.302-0.734-3.404c-0.758-2.04-1.756-3.961-2.824-5.845c-1.705-3.004-3.967-5.533-6.708-7.633
		c-1.863-1.426-3.886-2.572-6.071-3.443c-2.144-0.856-4.369-1.404-6.651-1.659c-2.119-0.237-4.243-0.19-6.369,0.14
		c-1.874,0.291-3.697,0.729-5.471,1.392c-3.35,1.249-6.298,3.146-8.836,5.639C8.662,13.142,6.509,16.54,5.218,20.48
		c-0.736,2.25-1.225,4.537-1.272,6.901c-0.037,1.794-0.05,3.586,0.295,5.373c0.243,1.257,0.5,2.508,0.892,3.723
		c1.048,3.246,2.742,6.143,4.916,8.766c0.136,0.161,0.251,0.373,0.528,0.407c0.077-0.186-0.007-0.295-0.066-0.407
		c-0.881-1.703-1.478-3.513-1.935-5.367c-0.535-2.162-0.845-4.358-0.894-6.583c-0.028-1.276-0.006-2.546,0.142-3.828
		c0.171-1.492,0.372-2.97,0.711-4.43c0.593-2.543,1.505-4.953,2.802-7.223c1.935-3.384,4.616-6.001,8.026-7.87
		c1.785-0.979,3.646-1.653,5.566-2.071c0.977-0.188,8.272-1.393,16.045,2.843c0.951,0.612,1.853,1.305,2.703,2.076
		c4.212,3.813,6.482,8.629,7,14.258c0.185,2.033-0.04,4.063-0.48,6.068c-0.645,2.938-1.851,5.617-3.63,8.034
		c-1.7,2.313-3.794,4.193-6.258,5.664c-1.102,0.656-2.309,1.099-3.44,1.688c-2.614,1.36-4.832,3.225-6.633,5.565
		c-2.451,3.188-3.747,6.802-3.755,10.818c-0.005,1.893-0.301,2.957,0.39,5.6c0.33,1.257,0.519,2.32,1.139,3.457
		c0.068,0.13,0.141,0.306,0.305,0.281c0.183-0.026,0.146-0.233,0.176-0.369c0.125-0.561,0.135-1.313,0.296-1.86
		c0.474-1.625,1.667-4.267,2.506-5.994c1.813-3.736,5.063-5.521,8.91-7.006c1.79-0.689,3.65-1.084,5.545-1.318
		c1.432-0.176,2.875-0.221,4.319-0.281c1.662-0.067,3.293,0.383,4.979,0.074c2.541-0.467,3.215-2.012,2.498-4.229
		c-0.196-0.611-0.438-1.207-0.602-1.837c-0.25-0.965-0.037-1.729,0.677-2.405c0.521-0.494,0.63-1.138,0.332-1.785
		c-0.155-0.334-0.345-0.648-0.618-0.916c-0.482-0.473-0.454-0.592,0.084-0.965c0.29-0.199,0.606-0.392,0.825-0.656
		c0.84-1.014,0.954-1.41,0.187-2.311c-0.497-0.587-0.444-1.052,0.076-1.625c0.603-0.66,1.337-1.171,2.009-1.753
		C61.688,37.968,61.814,37.111,60.878,35.901"/>
	<path d="M18.596,51.217c0.021-0.035,0.04-0.066,0.061-0.102c-0.014-0.025-0.028-0.056-0.042-0.082
		C18.613,51.096,18.607,51.158,18.596,51.217"/>
	<path fill="#662D91" d="M24.032,63.926c-0.717,0.23-1.071-0.078-1.177-0.766c-0.964-6.211-0.703-12.22,2.859-17.705
		c1.583-2.437,3.779-4.16,6.244-5.599c0.433-0.254,0.766-0.104,1.062,0.213c0.407,0.438,0.809,0.882,1.197,1.33
		c1.397,1.636,1.348,1.564-0.407,2.738c-4.253,2.838-7.567,6.439-8.884,11.547c-0.582,2.263-0.693,4.558-0.251,6.857
		C24.798,63.188,24.862,63.76,24.032,63.926"/>
	<path fill="#27AAE1" d="M45.411,40.285c-0.77-0.08-1.758-0.154-2.74-0.293c-0.79-0.109-1.381,0.118-1.883,0.745
		c-0.571,0.716-1.195,1.386-1.814,2.062c-0.516,0.563-1.063,0.611-1.07-0.279c-0.023-3.016-1.509-4.723-4.409-5.371
		c-0.746-0.167-0.743-0.653-0.072-1.046c0.824-0.479,1.629-1.006,2.496-1.395c0.688-0.306,0.955-0.733,0.977-1.459
		c0.026-0.87,0.159-1.737,0.23-2.607c0.033-0.404,0.035-0.881,0.402-1.067c0.375-0.191,0.622,0.263,0.879,0.474
		c0.644,0.529,1.299,1.058,1.848,1.678c0.593,0.67,1.24,0.758,2.034,0.521c0.84-0.25,1.689-0.469,2.539-0.675
		c0.297-0.073,0.648-0.203,0.882,0.122c0.194,0.273,0.039,0.55-0.119,0.774c-1.681,2.401-1.495,4.688,0.4,6.882
		C46.437,39.871,46.373,40.207,45.411,40.285"/>
	<path fill="#662D91" d="M19.15,53.334c-0.173,0.217-0.264,0.379-0.399,0.488c-0.162,0.129-0.369,0.186-0.569,0.061
		c-0.197-0.123-0.121-0.297-0.078-0.475c0.377-1.502,0.691-3.017,0.674-4.578c-0.035-3.111-0.999-5.877-3.058-8.226
		c-0.976-1.11-0.996-1.094,0.417-1.446c0.32-0.082,0.644-0.153,0.964-0.232c0.497-0.125,0.854,0.055,1.215,0.418
		c3.006,3.051,3.079,6.646,2.053,10.492C20.04,51.074,19.412,52.18,19.15,53.334"/>
	<path fill="#662D91" d="M32.405,17.16c0.954,0.672,1.719,0.224,2.467-0.541c0.45-0.461,0.512-0.41,0.616,0.213
		c0.032,0.188,0.079,0.392,0.045,0.573c-0.146,0.782,0.24,1.223,0.903,1.524c0.311,0.143,0.762,0.298,0.762,0.626
		c-0.001,0.35-0.504,0.407-0.79,0.442c-1.179,0.142-1.128,1.18-1.428,1.925c-0.188,0.465-0.285,0.542-0.593,0.132
		c-0.164-0.216-0.389-0.392-0.519-0.623c-0.325-0.58-0.808-0.611-1.388-0.519c-0.363,0.059-0.854,0.274-1.079-0.069
		c-0.186-0.287,0.198-0.657,0.413-0.885c0.688-0.726,0.396-1.412,0.042-2.126c-0.101-0.206-0.27-0.453-0.133-0.648
		C31.861,16.986,32.115,17.201,32.405,17.16"/>
	<path fill="#27AAE1" d="M13.157,52.906c0.954,0.676,1.719,0.225,2.468-0.539c0.45-0.459,0.512-0.41,0.617,0.213
		c0.033,0.188,0.079,0.393,0.045,0.571c-0.147,0.781,0.24,1.224,0.902,1.525c0.312,0.141,0.763,0.297,0.763,0.623
		c-0.001,0.352-0.504,0.41-0.79,0.443c-1.18,0.143-1.129,1.18-1.429,1.926c-0.187,0.465-0.283,0.543-0.593,0.133
		c-0.163-0.217-0.387-0.393-0.517-0.623c-0.326-0.58-0.809-0.611-1.387-0.518c-0.363,0.059-0.855,0.272-1.08-0.07
		c-0.186-0.285,0.197-0.658,0.412-0.885c0.687-0.726,0.396-1.412,0.042-2.125c-0.102-0.209-0.271-0.453-0.134-0.65
		C12.611,52.735,12.867,52.948,13.157,52.906"/>
	<path fill="#27AAE1" d="M12.836,38.094c-0.101-0.104-0.123-0.118-0.136-0.141c-0.665-1.074-1.598-1.357-2.791-1.011
		c-0.387,0.113-0.519-0.104-0.327-0.471c0.024-0.044,0.042-0.094,0.074-0.136c0.737-0.869,0.77-1.759,0.104-2.692
		c-0.108-0.151-0.274-0.354-0.11-0.553c0.148-0.179,0.381-0.142,0.571-0.064c0.954,0.399,1.705,0.255,2.417-0.589
		c0.558-0.659,0.848-0.549,0.857,0.28c0.011,1.058,0.52,1.631,1.415,2.008c0.199,0.083,0.462,0.183,0.458,0.454
		c-0.003,0.254-0.259,0.297-0.443,0.35c-1.076,0.303-1.582,1.005-1.583,2.118C13.343,37.978,13.226,38.347,12.836,38.094"/>
	<path fill="#662D91" d="M22.588,33.74c0.147,0.013,0.178,0.143,0.219,0.241c0.208,0.474,0.553,0.725,1.075,0.745
		c0.165,0.007,0.378,0.011,0.427,0.228c0.039,0.173-0.099,0.291-0.222,0.381c-0.423,0.313-0.441,0.735-0.351,1.202
		c0.027,0.14,0.158,0.301,0.003,0.433c-0.15,0.129-0.318,0.021-0.423-0.066c-0.473-0.384-0.898-0.286-1.351,0.042
		c-0.302,0.218-0.515,0.091-0.428-0.272c0.138-0.578,0.005-1.009-0.48-1.364c-0.218-0.159-0.229-0.406,0.1-0.439
		c0.633-0.061,1.047-0.344,1.209-0.972C22.391,33.802,22.474,33.732,22.588,33.74"/>
	<path fill="#27AAE1" d="M27.073,28.123c0.172,0.039,0.238,0.17,0.277,0.294c0.149,0.472,0.463,0.672,0.953,0.663
		c0.182-0.003,0.423-0.001,0.5,0.217c0.081,0.225-0.128,0.345-0.274,0.459c-0.369,0.291-0.384,0.649-0.307,1.079
		c0.103,0.578-0.002,0.661-0.508,0.402c-0.416-0.214-0.776-0.274-1.154,0.054c-0.113,0.097-0.273,0.188-0.425,0.083
		c-0.129-0.093-0.081-0.256-0.045-0.375c0.146-0.494,0.012-0.864-0.416-1.147c-0.139-0.092-0.321-0.224-0.284-0.406
		c0.039-0.199,0.263-0.204,0.431-0.219c0.483-0.039,0.75-0.317,0.945-0.733C26.828,28.354,26.864,28.138,27.073,28.123"/>
	<path fill="#662D91" d="M27.493,22.323c0.171,0.037,0.237,0.168,0.276,0.293c0.149,0.47,0.464,0.672,0.954,0.662
		c0.182-0.003,0.423-0.001,0.501,0.216c0.081,0.226-0.129,0.345-0.275,0.459c-0.367,0.29-0.383,0.65-0.307,1.079
		c0.104,0.576-0.002,0.661-0.508,0.403c-0.416-0.213-0.774-0.274-1.154,0.052c-0.111,0.099-0.273,0.191-0.424,0.083
		c-0.129-0.092-0.082-0.256-0.045-0.375c0.147-0.493,0.014-0.861-0.417-1.146c-0.138-0.091-0.319-0.221-0.284-0.405
		c0.039-0.2,0.264-0.206,0.431-0.218c0.482-0.04,0.751-0.319,0.944-0.735C27.248,22.551,27.282,22.335,27.493,22.323"/>
	<path fill="#27AAE1" d="M17.709,23.95c-0.14-0.058-0.206-0.064-0.247-0.102c-0.435-0.401-0.872-0.28-1.31-0.007
		c-0.113,0.069-0.225,0.188-0.362,0.092c-0.132-0.096-0.086-0.258-0.046-0.376c0.189-0.555-0.077-0.917-0.476-1.247
		c-0.302-0.25-0.382-0.483,0.138-0.52c0.542-0.039,0.865-0.342,1.071-0.812c0.159-0.362,0.334-0.43,0.516-0.02
		c0.207,0.47,0.559,0.681,1.072,0.734c0.49,0.054,0.552,0.244,0.183,0.57c-0.375,0.334-0.528,0.662-0.352,1.158
		C17.965,23.609,18.026,23.924,17.709,23.95"/>
	<path fill="#662D91" d="M21.361,31.588c-0.891-0.631-1.876-0.657-2.917,0.135c-0.475,0.363-0.993,0.178-0.809-0.537
		c0.333-1.293-0.073-2.208-1.137-2.974c-0.529-0.379-0.744-1.051,0.219-1.088c1.362-0.051,2.073-0.777,2.563-1.909
		c0.29-0.672,0.667-1.002,1.045-0.079c0.522,1.276,1.347,1.995,2.808,1.94c0.647-0.023,0.731,0.439,0.256,0.813
		c-1.01,0.8-1.361,1.729-0.991,3C22.583,31.52,22.214,31.868,21.361,31.588"/>
	<path fill="#662D91" d="M20.958,65.487c-0.12,0.255-0.158,0.337-0.202,0.423c-0.173,0.34-0.419,0.616-0.83,0.442
		c-0.435-0.184-0.352-0.561-0.199-0.901c0.239-0.537,0.438-1.076,0.51-1.675c0.179-1.512-0.002-2.938-0.743-4.291
		c-0.324-0.596-0.75-1.071-1.316-1.436c-0.354-0.225-0.739-0.516-0.441-0.949c0.315-0.459,0.76-0.217,1.114,0.047
		c1.582,1.168,2.254,2.82,2.504,4.709C21.528,63.166,21.279,64.418,20.958,65.487"/>
	<path fill="#662D91" d="M10.628,27.138c0.462-0.952,1.553-1.333,2.474-0.863c0.888,0.452,1.234,1.529,0.787,2.459
		c-0.457,0.952-1.523,1.307-2.483,0.825C10.455,29.082,10.147,28.125,10.628,27.138 M12.543,27.242
		c-0.437-0.222-0.759,0.004-0.998,0.321c-0.208,0.274,0.044,1.007,0.37,1.119c0.45,0.155,0.828-0.017,1.014-0.433
		C13.121,27.827,13.008,27.45,12.543,27.242"/>
	<path fill="#662D91" d="M29.046,34.233c0.462-0.949,1.553-1.331,2.473-0.862c0.889,0.452,1.233,1.53,0.788,2.461
		c-0.456,0.952-1.523,1.305-2.485,0.825C28.874,36.177,28.565,35.221,29.046,34.233 M30.962,34.339
		c-0.438-0.221-0.76,0.002-0.999,0.32c-0.207,0.274,0.045,1.009,0.37,1.121c0.45,0.152,0.828-0.021,1.016-0.436
		C31.538,34.924,31.426,34.545,30.962,34.339"/>
	<path fill="#27AAE1" d="M23.77,15.527c0.462-0.95,1.553-1.331,2.474-0.862c0.889,0.451,1.234,1.528,0.788,2.459
		c-0.458,0.952-1.523,1.306-2.485,0.825C23.597,17.473,23.29,16.515,23.77,15.527 M25.685,15.633
		c-0.438-0.223-0.758,0.003-0.999,0.32c-0.208,0.274,0.044,1.009,0.37,1.122c0.451,0.153,0.829-0.019,1.015-0.435
		C26.262,16.219,26.149,15.84,25.685,15.633"/>
	<path fill="none" stroke="#27AAE1" stroke-miterlimit="10" d="M26.16,40.99c-0.408,0-0.739-0.334-0.739-0.738
		c0-0.41,0.333-0.74,0.739-0.74c0.409,0,0.739,0.332,0.739,0.74C26.9,40.656,26.568,40.99,26.16,40.99z M26.16,39.625
		c-0.344,0-0.623,0.278-0.623,0.623c0,0.342,0.279,0.621,0.623,0.621c0.344,0,0.623-0.279,0.623-0.621
		C26.783,39.906,26.504,39.625,26.16,39.625z"/>
	<path fill="none" stroke="#27AAE1" stroke-miterlimit="10" d="M34.276,27.894c-0.407,0-0.739-0.333-0.739-0.738
		c0-0.41,0.333-0.739,0.739-0.739c0.409,0,0.739,0.332,0.739,0.739C35.016,27.561,34.685,27.894,34.276,27.894z M34.276,26.531
		c-0.343,0-0.623,0.278-0.623,0.622s0.28,0.622,0.623,0.622c0.344,0,0.623-0.278,0.623-0.622S34.62,26.531,34.276,26.531z"/>
	<path fill="none" stroke="#662D91" stroke-miterlimit="10" d="M18.08,35.757c-0.408,0-0.74-0.332-0.74-0.739
		c0-0.408,0.332-0.74,0.74-0.74c0.408,0,0.74,0.334,0.74,0.74C18.819,35.427,18.488,35.757,18.08,35.757z M18.08,34.395
		c-0.344,0-0.623,0.279-0.623,0.623c0,0.343,0.279,0.622,0.623,0.622c0.343,0,0.623-0.279,0.623-0.622S18.422,34.395,18.08,34.395z"
		/>
	<path fill="none" stroke="#662D91" stroke-miterlimit="10" d="M10.404,31.361c-0.407,0-0.739-0.334-0.739-0.738
		c0-0.408,0.332-0.739,0.739-0.739c0.408,0,0.74,0.333,0.74,0.739C11.144,31.027,10.811,31.361,10.404,31.361z M10.404,29.997
		c-0.343,0-0.623,0.278-0.623,0.623c0,0.343,0.279,0.623,0.623,0.623c0.345,0,0.623-0.279,0.623-0.623
		C11.027,30.276,10.749,29.997,10.404,29.997z"/>
	<path fill="none" stroke="#662D91" stroke-miterlimit="10" d="M22.608,22.096c-0.408,0-0.739-0.332-0.739-0.739
		c0-0.406,0.331-0.738,0.739-0.738c0.407,0,0.74,0.333,0.74,0.738C23.348,21.763,23.015,22.096,22.608,22.096z M22.608,20.733
		c-0.343,0-0.624,0.279-0.624,0.623s0.28,0.622,0.624,0.622c0.344,0,0.623-0.278,0.623-0.622S22.953,20.733,22.608,20.733z"/>
	<path fill="#662D91" d="M23.398,68.391c-0.113-0.016-0.191-0.08-0.227-0.178c-0.169-0.469-0.487-0.771-0.945-0.971
		c-0.303-0.134-0.287-0.31,0-0.494c0.017-0.013,0.033-0.021,0.052-0.029c0.426-0.139,0.71-0.42,0.863-0.844
		c0.045-0.125,0.105-0.252,0.266-0.238c0.148,0.012,0.235,0.127,0.275,0.248c0.142,0.432,0.443,0.676,0.852,0.85
		c0.349,0.146,0.355,0.396,0.008,0.541c-0.443,0.187-0.748,0.466-0.899,0.925C23.61,68.303,23.523,68.385,23.398,68.391
		 M23.991,67.045c-0.064-0.074-0.079-0.107-0.102-0.117c-0.204-0.088-0.332-0.24-0.421-0.438c-0.03-0.07-0.104-0.064-0.136,0.01
		c-0.087,0.215-0.355,0.309-0.417,0.475c-0.08,0.209,0.334,0.217,0.376,0.451c0.005,0.025,0.026,0.055,0.045,0.076
		c0.062,0.074,0.136,0.063,0.162-0.019c0.063-0.196,0.207-0.309,0.379-0.396C23.912,67.069,23.952,67.059,23.991,67.045"/>
</g>
<g>
	<path fill="#662D91" d="M-16.343,3.513c-1.209-1.56-2.325-3.181-3.367-4.855c-0.984-1.583-1.77-3.22-1.826-5.162
		c-0.03-1.063-0.301-2.129-0.679-3.15c-0.702-1.885-1.625-3.664-2.614-5.408c-1.577-2.777-3.671-5.119-6.205-7.061
		c-1.725-1.32-3.597-2.381-5.618-3.188c-1.983-0.792-4.042-1.3-6.154-1.535c-1.96-0.219-3.926-0.177-5.894,0.129
		c-1.735,0.27-3.42,0.676-5.061,1.287c-3.099,1.156-5.827,2.912-8.176,5.217c-2.718,2.668-4.712,5.813-5.905,9.459
		c-0.681,2.081-1.132,4.196-1.177,6.386c-0.034,1.661-0.046,3.317,0.273,4.969c0.225,1.164,0.463,2.323,0.824,3.446
		c0.97,3.004,2.539,5.684,4.55,8.109c0.125,0.149,0.231,0.346,0.488,0.377c0.07-0.173-0.007-0.273-0.061-0.377
		c-0.816-1.578-1.367-3.248-1.791-4.968c-0.495-2-0.782-4.032-0.828-6.092c-0.027-1.18-0.006-2.356,0.131-3.542
		c0.158-1.381,0.344-2.747,0.659-4.099c0.548-2.353,1.392-4.584,2.592-6.685c1.791-3.131,4.271-5.553,7.427-7.283
		c1.652-0.904,3.373-1.529,5.15-1.917c0.904-0.174,7.653-1.286,14.847,2.631c0.878,0.566,1.712,1.208,2.501,1.921
		c3.897,3.528,5.997,7.983,6.476,13.192c0.173,1.881-0.036,3.759-0.443,5.614c-0.598,2.72-1.713,5.196-3.359,7.436
		c-1.573,2.139-3.511,3.879-5.791,5.239c-1.019,0.609-2.136,1.019-3.183,1.563c-2.419,1.262-4.469,2.985-6.136,5.149
		c-2.269,2.949-3.468,6.293-3.475,10.011c-0.002,1.75-0.278,2.733,0.361,5.18c0.304,1.164,0.479,2.148,1.054,3.201
		c0.064,0.117,0.131,0.281,0.283,0.26c0.169-0.027,0.134-0.217,0.163-0.344c0.116-0.519,0.125-1.213,0.274-1.722
		c0.438-1.504,1.542-3.944,2.318-5.547c1.68-3.457,4.685-5.106,8.244-6.479c1.656-0.642,3.377-1.004,5.131-1.222
		c1.326-0.161,2.66-0.204,3.997-0.262c1.538-0.061,3.048,0.354,4.607,0.07c2.35-0.432,2.975-1.861,2.312-3.914
		c-0.183-0.566-0.405-1.115-0.556-1.699c-0.233-0.893-0.036-1.602,0.625-2.227c0.482-0.455,0.583-1.054,0.306-1.65
		c-0.143-0.313-0.318-0.602-0.569-0.848c-0.448-0.438-0.421-0.549,0.078-0.894c0.267-0.186,0.56-0.36,0.763-0.606
		c0.777-0.939,0.881-1.308,0.173-2.14c-0.461-0.541-0.412-0.973,0.069-1.502c0.559-0.61,1.237-1.082,1.859-1.623
		C-15.593,5.424-15.475,4.632-16.343,3.513"/>
	<path d="M-55.464,17.684c0.019-0.031,0.037-0.061,0.056-0.094c-0.013-0.023-0.026-0.051-0.039-0.076
		C-55.448,17.571-55.453,17.629-55.464,17.684"/>
	<path fill="#662D91" d="M-50.435,29.442c-0.663,0.218-0.989-0.069-1.089-0.707c-0.891-5.748-0.651-11.305,2.647-16.381
		c1.464-2.254,3.496-3.85,5.777-5.182c0.4-0.232,0.708-0.096,0.982,0.199c0.377,0.401,0.748,0.813,1.108,1.229
		c1.291,1.512,1.247,1.447-0.376,2.531c-3.936,2.627-7.003,5.959-8.219,10.686c-0.54,2.095-0.644,4.218-0.233,6.347
		C-49.725,28.76-49.666,29.291-50.435,29.442"/>
	<path fill="#27AAE1" d="M-30.652,7.569c-0.713-0.073-1.628-0.143-2.536-0.27c-0.731-0.102-1.278,0.109-1.742,0.691
		c-0.528,0.659-1.107,1.28-1.679,1.903c-0.479,0.521-0.983,0.564-0.992-0.256c-0.021-2.793-1.395-4.373-4.079-4.971
		c-0.69-0.156-0.688-0.607-0.066-0.969c0.763-0.443,1.506-0.933,2.31-1.289c0.636-0.283,0.882-0.681,0.903-1.351
		c0.025-0.806,0.147-1.607,0.213-2.414c0.031-0.373,0.032-0.813,0.374-0.987c0.346-0.178,0.574,0.243,0.812,0.438
		c0.597,0.488,1.203,0.979,1.71,1.552c0.55,0.62,1.147,0.701,1.884,0.481c0.775-0.23,1.561-0.432,2.348-0.625
		c0.274-0.065,0.599-0.188,0.815,0.115c0.18,0.252,0.036,0.508-0.109,0.717c-1.556,2.223-1.383,4.338,0.37,6.367
		C-29.703,7.188-29.763,7.498-30.652,7.569"/>
	<path fill="#662D91" d="M-54.951,19.645c-0.16,0.199-0.243,0.349-0.37,0.449c-0.149,0.119-0.34,0.172-0.525,0.059
		c-0.184-0.114-0.112-0.276-0.072-0.44c0.348-1.389,0.639-2.789,0.623-4.236c-0.033-2.875-0.923-5.434-2.83-7.606
		c-0.902-1.029-0.922-1.015,0.386-1.341c0.296-0.075,0.595-0.141,0.893-0.215c0.459-0.114,0.79,0.052,1.123,0.388
		c2.781,2.823,2.849,6.147,1.899,9.709C-54.128,17.551-54.709,18.574-54.951,19.645"/>
	<path fill="#662D91" d="M-42.686-13.828c0.882,0.622,1.591,0.207,2.283-0.501c0.416-0.427,0.475-0.38,0.571,0.196
		c0.029,0.175,0.072,0.362,0.041,0.529c-0.135,0.726,0.223,1.132,0.834,1.412c0.287,0.132,0.707,0.275,0.706,0.579
		c0,0.324-0.466,0.376-0.731,0.408c-1.091,0.133-1.044,1.092-1.323,1.782c-0.172,0.431-0.262,0.503-0.55,0.121
		c-0.15-0.198-0.357-0.362-0.478-0.577c-0.301-0.535-0.749-0.565-1.284-0.479c-0.335,0.058-0.791,0.254-0.998-0.063
		c-0.171-0.267,0.183-0.61,0.381-0.818c0.636-0.67,0.367-1.307,0.039-1.968c-0.094-0.191-0.25-0.418-0.124-0.601
		C-43.19-13.989-42.955-13.791-42.686-13.828"/>
	<path fill="#27AAE1" d="M-60.497,19.248c0.884,0.623,1.59,0.207,2.283-0.5c0.417-0.426,0.474-0.379,0.571,0.196
		c0.03,0.175,0.073,0.363,0.041,0.529c-0.135,0.726,0.223,1.131,0.835,1.412c0.289,0.131,0.707,0.275,0.706,0.578
		c0,0.322-0.467,0.377-0.731,0.408c-1.091,0.133-1.044,1.092-1.322,1.783c-0.173,0.43-0.262,0.5-0.548,0.118
		c-0.15-0.196-0.358-0.358-0.479-0.573c-0.3-0.537-0.748-0.566-1.284-0.479c-0.337,0.055-0.792,0.254-0.999-0.065
		c-0.17-0.265,0.183-0.609,0.382-0.818c0.635-0.668,0.366-1.305,0.038-1.967c-0.095-0.191-0.25-0.418-0.125-0.603
		C-61.001,19.088-60.764,19.287-60.497,19.248"/>
	<path fill="#27AAE1" d="M-60.793,5.543c-0.093-0.096-0.114-0.111-0.125-0.131c-0.615-0.993-1.479-1.255-2.583-0.935
		c-0.357,0.103-0.48-0.098-0.302-0.438c0.022-0.043,0.039-0.089,0.068-0.125c0.683-0.807,0.711-1.63,0.097-2.491
		c-0.099-0.141-0.253-0.329-0.102-0.512c0.138-0.167,0.352-0.132,0.527-0.059c0.883,0.367,1.577,0.234,2.237-0.547
		c0.517-0.608,0.785-0.51,0.793,0.259c0.011,0.979,0.48,1.51,1.31,1.857c0.184,0.078,0.428,0.169,0.423,0.423
		c-0.003,0.232-0.24,0.273-0.41,0.322c-0.995,0.279-1.463,0.928-1.464,1.961C-60.324,5.436-60.433,5.776-60.793,5.543"/>
	<path fill="#662D91" d="M-51.771,1.512c0.137,0.012,0.165,0.133,0.204,0.225c0.191,0.438,0.511,0.669,0.994,0.688
		c0.152,0.007,0.35,0.011,0.395,0.211c0.036,0.159-0.091,0.27-0.205,0.354c-0.392,0.291-0.409,0.683-0.325,1.111
		c0.025,0.131,0.146,0.279,0.003,0.399c-0.14,0.12-0.294,0.019-0.393-0.063c-0.437-0.354-0.831-0.264-1.25,0.039
		c-0.279,0.202-0.476,0.085-0.396-0.25c0.127-0.537,0.004-0.936-0.445-1.264c-0.201-0.146-0.21-0.377,0.093-0.406
		c0.584-0.059,0.969-0.319,1.12-0.9C-51.952,1.569-51.875,1.506-51.771,1.512"/>
	<path fill="#27AAE1" d="M-47.62-3.684c0.16,0.035,0.219,0.156,0.256,0.271c0.139,0.436,0.43,0.622,0.883,0.615
		c0.168-0.003,0.392-0.002,0.463,0.197c0.074,0.209-0.119,0.319-0.253,0.428c-0.341,0.268-0.355,0.6-0.285,0.997
		c0.096,0.533-0.002,0.611-0.47,0.374c-0.384-0.199-0.717-0.257-1.068,0.047c-0.104,0.09-0.253,0.177-0.392,0.075
		c-0.12-0.086-0.076-0.235-0.042-0.348c0.136-0.455,0.012-0.799-0.385-1.061c-0.129-0.086-0.296-0.207-0.263-0.376
		c0.036-0.185,0.244-0.19,0.4-0.202c0.446-0.037,0.695-0.294,0.873-0.681C-47.847-3.469-47.814-3.672-47.62-3.684"/>
	<path fill="#662D91" d="M-47.233-9.052c0.159,0.034,0.22,0.155,0.256,0.27c0.138,0.438,0.43,0.623,0.881,0.614
		c0.167-0.002,0.392-0.001,0.464,0.2c0.074,0.209-0.119,0.317-0.254,0.424c-0.341,0.268-0.355,0.603-0.285,0.998
		c0.096,0.535-0.002,0.612-0.47,0.374c-0.385-0.198-0.718-0.255-1.067,0.048c-0.104,0.09-0.252,0.176-0.393,0.076
		c-0.12-0.086-0.075-0.237-0.042-0.349c0.136-0.457,0.011-0.799-0.386-1.061c-0.128-0.086-0.295-0.207-0.263-0.376
		c0.037-0.186,0.245-0.19,0.4-0.202c0.445-0.037,0.694-0.295,0.873-0.681C-47.459-8.84-47.427-9.041-47.233-9.052"/>
	<path fill="#27AAE1" d="M-56.285-7.546c-0.13-0.054-0.19-0.061-0.227-0.096c-0.403-0.372-0.807-0.258-1.212-0.007
		c-0.104,0.065-0.209,0.176-0.336,0.085c-0.121-0.088-0.079-0.237-0.042-0.348c0.175-0.514-0.07-0.85-0.441-1.154
		c-0.28-0.231-0.354-0.449,0.127-0.481c0.501-0.034,0.801-0.316,0.992-0.751c0.147-0.335,0.309-0.397,0.477-0.018
		c0.191,0.436,0.517,0.629,0.992,0.681c0.453,0.047,0.511,0.227,0.169,0.527c-0.349,0.309-0.49,0.612-0.325,1.07
		C-56.048-7.86-55.992-7.568-56.285-7.546"/>
	<path fill="#662D91" d="M-52.906-0.478c-0.823-0.584-1.735-0.607-2.696,0.123c-0.44,0.336-0.919,0.166-0.75-0.496
		c0.308-1.198-0.067-2.043-1.052-2.752c-0.489-0.352-0.689-0.973,0.203-1.006c1.259-0.049,1.917-0.721,2.372-1.768
		c0.269-0.621,0.617-0.928,0.966-0.072c0.483,1.182,1.247,1.844,2.598,1.795c0.599-0.022,0.676,0.406,0.237,0.754
		c-0.935,0.738-1.261,1.6-0.917,2.775C-51.775-0.541-52.116-0.219-52.906-0.478"/>
	<path fill="#662D91" d="M-53.277,30.887c-0.112,0.234-0.147,0.313-0.186,0.391c-0.162,0.316-0.389,0.572-0.769,0.412
		c-0.403-0.172-0.325-0.521-0.184-0.838c0.22-0.496,0.405-0.994,0.471-1.547c0.165-1.397-0.002-2.721-0.687-3.971
		c-0.3-0.553-0.695-0.992-1.218-1.326c-0.326-0.209-0.683-0.477-0.406-0.879c0.292-0.426,0.702-0.201,1.03,0.041
		c1.463,1.082,2.086,2.613,2.316,4.356C-52.751,28.74-52.98,29.899-53.277,30.887"/>
	<path fill="#662D91" d="M-62.835-4.596c0.426-0.88,1.435-1.232,2.288-0.799c0.823,0.417,1.142,1.414,0.729,2.274
		c-0.423,0.882-1.408,1.208-2.298,0.764C-62.996-2.799-63.28-3.682-62.835-4.596 M-61.064-4.499
		c-0.405-0.204-0.702,0.003-0.923,0.297c-0.193,0.255,0.041,0.933,0.342,1.036c0.417,0.143,0.766-0.018,0.938-0.402
		C-60.53-3.958-60.634-4.308-61.064-4.499"/>
	<path fill="#662D91" d="M-45.794,1.969c0.428-0.879,1.436-1.229,2.29-0.797c0.822,0.416,1.141,1.414,0.729,2.275
		c-0.424,0.88-1.41,1.206-2.299,0.762C-45.955,3.768-46.239,2.885-45.794,1.969 M-44.021,2.067
		c-0.405-0.205-0.703,0.004-0.924,0.298c-0.193,0.255,0.041,0.934,0.342,1.036c0.416,0.144,0.767-0.018,0.94-0.399
		C-43.489,2.608-43.593,2.258-44.021,2.067"/>
	<path fill="#27AAE1" d="M-50.677-15.34c0.428-0.88,1.437-1.232,2.289-0.8c0.823,0.418,1.142,1.415,0.729,2.274
		c-0.423,0.881-1.407,1.208-2.297,0.764C-50.836-13.539-51.121-14.426-50.677-15.34 M-48.905-15.24
		c-0.405-0.206-0.701,0.002-0.923,0.295c-0.193,0.256,0.041,0.935,0.342,1.036c0.416,0.144,0.767-0.016,0.939-0.4
		C-48.371-14.701-48.475-15.051-48.905-15.24"/>
	<path fill="none" stroke="#27AAE1" stroke-miterlimit="10" d="M-48.465,8.219c-0.377,0-0.683-0.309-0.683-0.686
		c0-0.375,0.307-0.685,0.683-0.685c0.377,0,0.685,0.31,0.685,0.685C-47.781,7.912-48.088,8.219-48.465,8.219z M-48.465,6.959
		c-0.318,0-0.576,0.258-0.576,0.574c0,0.317,0.258,0.577,0.576,0.577c0.319,0,0.578-0.26,0.578-0.577
		C-47.889,7.217-48.146,6.959-48.465,6.959z"/>
	<path fill="none" stroke="#27AAE1" stroke-miterlimit="10" d="M-40.955-3.897c-0.379,0-0.685-0.307-0.685-0.685
		c0-0.376,0.306-0.684,0.685-0.684c0.377,0,0.683,0.308,0.683,0.684C-40.272-4.204-40.578-3.897-40.955-3.897z M-40.955-5.158
		c-0.318,0-0.577,0.26-0.577,0.576c0,0.317,0.258,0.576,0.577,0.576c0.316,0,0.576-0.259,0.576-0.576
		C-40.379-4.898-40.639-5.158-40.955-5.158z"/>
	<path fill="none" stroke="#662D91" stroke-miterlimit="10" d="M-55.942,3.379c-0.377,0-0.683-0.306-0.683-0.684
		s0.306-0.685,0.683-0.685c0.378,0,0.685,0.308,0.685,0.685C-55.257,3.073-55.563,3.379-55.942,3.379z M-55.942,2.119
		c-0.318,0-0.575,0.258-0.575,0.575c0,0.316,0.257,0.575,0.575,0.575c0.319,0,0.577-0.259,0.577-0.575
		C-55.365,2.377-55.623,2.119-55.942,2.119z"/>
	<path fill="none" stroke="#662D91" stroke-miterlimit="10" d="M-63.042-0.689c-0.377,0-0.685-0.308-0.685-0.684
		c0-0.379,0.307-0.687,0.685-0.687c0.377,0,0.684,0.31,0.684,0.687C-62.358-0.997-62.667-0.689-63.042-0.689z M-63.042-1.951
		c-0.318,0-0.577,0.258-0.577,0.578c0,0.315,0.258,0.575,0.577,0.575s0.576-0.26,0.576-0.575
		C-62.466-1.691-62.724-1.951-63.042-1.951z"/>
	<path fill="none" stroke="#662D91" stroke-miterlimit="10" d="M-51.752-9.26c-0.377,0-0.684-0.308-0.684-0.685
		c0-0.378,0.307-0.686,0.684-0.686s0.685,0.308,0.685,0.686C-51.067-9.568-51.375-9.26-51.752-9.26z M-51.752-10.521
		c-0.318,0-0.576,0.258-0.576,0.576s0.257,0.576,0.576,0.576c0.318,0,0.577-0.258,0.577-0.576S-51.434-10.521-51.752-10.521z"/>
	<path fill="#662D91" d="M-51.02,33.573c-0.105-0.013-0.177-0.074-0.21-0.164c-0.156-0.433-0.45-0.716-0.876-0.898
		c-0.279-0.121-0.264-0.285,0-0.457c0.016-0.01,0.031-0.02,0.048-0.025c0.395-0.129,0.658-0.391,0.799-0.78
		c0.042-0.115,0.098-0.232,0.247-0.222c0.138,0.011,0.217,0.115,0.254,0.23c0.132,0.398,0.411,0.627,0.79,0.785
		c0.323,0.137,0.327,0.365,0.007,0.502c-0.41,0.172-0.692,0.43-0.833,0.854C-50.826,33.494-50.904,33.567-51.02,33.573
		 M-50.472,32.328c-0.06-0.068-0.073-0.101-0.095-0.107c-0.189-0.08-0.306-0.223-0.389-0.406c-0.028-0.063-0.098-0.059-0.126,0.011
		c-0.081,0.196-0.328,0.286-0.386,0.438c-0.075,0.193,0.308,0.203,0.347,0.418c0.005,0.025,0.025,0.051,0.042,0.072
		c0.056,0.067,0.126,0.061,0.15-0.017c0.058-0.184,0.19-0.284,0.348-0.368C-50.545,32.35-50.507,32.342-50.472,32.328"/>
	<path fill="#FFFFFF" d="M-43.458,36.492c0,0,0.484-0.562,1.047,0v2.09h-1.047V36.492z"/>
</g>
<g>
	<path fill="#652D90" d="M74.22,49.76h-4.897v-0.928h10.839v0.928h-4.897v12.602H74.22V49.76z"/>
	<path fill="#652D90" d="M81.423,57.58c0-2.864,2.168-4.938,4.859-4.938c2.689,0,5.089,1.646,4.722,5.383h-8.613
		c0.193,2.244,1.916,3.541,3.891,3.541c1.257,0,2.729-0.504,3.445-1.451l0.677,0.542c-0.928,1.22-2.593,1.838-4.122,1.838
		C83.591,62.495,81.423,60.619,81.423,57.58z M90.153,57.194c-0.02-2.363-1.568-3.678-3.871-3.678c-1.975,0-3.678,1.335-3.891,3.678
		H90.153z"/>
	<path fill="#652D90" d="M101.305,61.026c-0.967,0.967-2.226,1.433-3.484,1.433c-2.69,0-4.916-1.859-4.916-4.878
		c0-3.021,2.148-4.878,4.916-4.878c1.258,0,2.517,0.483,3.484,1.432l-0.62,0.601c-0.774-0.774-1.838-1.143-2.864-1.143
		c-2.167,0-3.988,1.414-3.988,3.988c0,2.573,1.82,3.986,3.988,3.986c1.026,0,2.071-0.405,2.845-1.181L101.305,61.026z"/>
	<path fill="#652D90" d="M104.154,48.811v5.769c0.774-1.374,2.11-1.896,3.445-1.915c2.671,0,4.006,1.722,4.006,4.219v5.479h-0.93
		v-5.479c0-1.975-0.928-3.31-3.077-3.31c-2.013,0-3.407,1.548-3.407,3.542v5.246h-0.948V48.811H104.154z"/>
	<path fill="#652D90" d="M115.016,52.799v1.703c0.735-1.316,2.07-1.859,3.406-1.878c2.556,0,4.316,1.568,4.316,4.22v5.518h-0.947
		v-5.498c0-2.168-1.336-3.329-3.407-3.311c-1.975,0.021-3.349,1.51-3.349,3.484v5.324h-0.948v-9.563H115.016z"/>
	<path fill="#652D90" d="M124.773,57.599c0-3.039,2.17-4.975,4.859-4.975s4.858,1.936,4.858,4.975c0,3.04-2.169,4.896-4.858,4.896
		S124.773,60.639,124.773,57.599z M133.563,57.599c0-2.478-1.763-4.083-3.93-4.083s-3.929,1.605-3.929,4.083
		s1.762,3.968,3.929,3.968S133.563,60.076,133.563,57.599z"/>
	<path fill="#652D90" d="M137.63,48.811v13.551h-0.946V48.811H137.63z"/>
	<path fill="#652D90" d="M139.839,57.599c0-3.039,2.168-4.975,4.856-4.975c2.69,0,4.859,1.936,4.859,4.975
		c0,3.04-2.169,4.896-4.859,4.896C142.007,62.495,139.839,60.639,139.839,57.599z M148.625,57.599c0-2.478-1.761-4.083-3.93-4.083
		c-2.166,0-3.928,1.605-3.928,4.083s1.762,3.968,3.928,3.968C146.864,61.567,148.625,60.076,148.625,57.599z"/>
	<path fill="#652D90" d="M159.431,52.411l0.618,0.542l-0.928,1.085c0.677,0.735,1.181,1.703,1.181,3.251
		c0,1.664-0.987,3.35-2.574,4.065c1.684,0.6,2.611,1.78,2.611,3.425c0,2.575-2.013,3.814-4.548,3.814s-4.528-1.395-4.528-3.814
		h0.948c0,1.955,1.664,2.886,3.58,2.886c1.917,0,3.62-0.853,3.62-2.886c0-2.051-1.839-2.864-3.62-2.864
		c-2.767,0-4.491-2.071-4.491-4.626c0-2.981,2.015-4.665,4.491-4.665c0.968,0,1.975,0.349,2.71,0.872L159.431,52.411z
		 M152.249,57.289c0,1.974,1.354,3.679,3.542,3.679c1.975,0,3.581-1.705,3.581-3.679c0-2.42-1.606-3.716-3.581-3.716
		C153.837,53.573,152.249,54.793,152.249,57.289z"/>
	<path fill="#652D90" d="M163.518,49.683c0,1.006-1.529,1.006-1.529,0C161.988,48.675,163.518,48.675,163.518,49.683z
		 M162.26,52.761v9.601h0.948v-9.601H162.26z"/>
	<path fill="#652D90" d="M165.377,57.58c0-2.864,2.167-4.938,4.857-4.938s5.091,1.646,4.723,5.383h-8.612
		c0.192,2.244,1.915,3.541,3.89,3.541c1.259,0,2.73-0.504,3.445-1.451l0.679,0.542c-0.931,1.22-2.594,1.838-4.124,1.838
		C167.544,62.495,165.377,60.619,165.377,57.58z M174.106,57.194c-0.02-2.363-1.568-3.678-3.872-3.678
		c-1.975,0-3.678,1.335-3.89,3.678H174.106z"/>
	<path fill="#652D90" d="M183.98,54.541c-0.968-0.853-1.916-1.007-2.98-1.007c-1.491-0.019-2.923,0.541-2.884,1.763
		c0.038,1.276,1.702,1.527,2.902,1.74c1.704,0.29,4.046,0.582,3.949,2.807c-0.059,2.11-2.245,2.672-3.929,2.672
		c-1.686,0-3.349-0.639-4.182-1.917l0.697-0.618c0.793,1.142,2.226,1.626,3.503,1.626c1.16,0,2.923-0.312,2.98-1.821
		c0.039-1.373-1.548-1.646-3.115-1.896c-1.859-0.309-3.697-0.658-3.716-2.574c-0.021-1.877,1.856-2.69,3.793-2.672
		c1.395,0,2.613,0.39,3.561,1.278L183.98,54.541z"/>
	<path fill="#652D90" d="M193.625,48.811v12.563h7.626v0.987h-8.672V48.811H193.625z"/>
	<path fill="#652D90" d="M204.313,49.683c0,1.006-1.528,1.006-1.528,0C202.784,48.675,204.313,48.675,204.313,49.683z
		 M203.056,52.761v9.601h0.946v-9.601H203.056z"/>
	<path fill="#652D90" d="M220.882,62.362v-5.73c0-1.838-1.238-3.135-3.059-3.135c-1.819,0-3.077,1.354-3.077,3.193v5.672h-0.948
		V56.69c0-1.839-1.258-3.174-3.077-3.174c-1.82,0-3.059,1.335-3.059,3.174v5.672h-0.949v-9.563h0.891l0.02,1.587
		c0.658-1.258,1.877-1.78,3.116-1.78c1.452,0,2.981,0.658,3.542,2.361c0.581-1.568,2.072-2.361,3.542-2.361
		c2.342,0,4.008,1.646,4.008,4.025v5.73H220.882z"/>
	<path fill="#652D90" d="M225.766,49.683c0,1.006-1.53,1.006-1.53,0C224.235,48.675,225.766,48.675,225.766,49.683z M224.507,52.761
		v9.601h0.947v-9.601H224.507z"/>
	<path fill="#652D90" d="M230.354,49.914v2.885h3.252v0.793h-3.252v5.827c0,1.297,0.27,2.206,1.762,2.206
		c0.463,0,0.987-0.154,1.471-0.387l0.329,0.773c-0.601,0.29-1.201,0.483-1.8,0.483c-2.033,0-2.69-1.2-2.69-3.076v-5.827h-2.033
		v-0.793h2.033v-2.788L230.354,49.914z"/>
	<path fill="#652D90" d="M235.253,57.58c0-2.864,2.168-4.938,4.858-4.938s5.091,1.646,4.724,5.383h-8.614
		c0.194,2.244,1.917,3.541,3.891,3.541c1.259,0,2.729-0.504,3.445-1.451l0.678,0.542c-0.929,1.22-2.594,1.838-4.123,1.838
		C237.421,62.495,235.253,60.619,235.253,57.58z M243.983,57.194c-0.021-2.363-1.568-3.678-3.872-3.678
		c-1.974,0-3.678,1.335-3.891,3.678H243.983z"/>
	<path fill="#652D90" d="M256.471,48.811v13.551h-0.929v-2.109c-0.794,1.451-2.362,2.264-3.987,2.264
		c-2.673,0-4.781-1.763-4.781-4.936c0-3.155,2.128-4.938,4.8-4.938c1.646,0,3.195,0.698,3.969,2.246v-6.078H256.471z M247.702,57.58
		c0,2.651,1.762,4.005,3.909,4.005c2.245,0,3.909-1.644,3.909-4.025c0-2.381-1.702-4.007-3.909-4.007
		C249.464,53.553,247.702,54.889,247.702,57.58z"/>
</g>
</svg>
