<?xml version="1.0" encoding="utf-8"?>
<!-- Generator: Adobe Illustrator 16.0.0, SVG Export Plug-In . SVG Version: 6.00 Build 0)  -->
<!DOCTYPE svg PUBLIC "-//W3C//DTD SVG 1.1//EN" "http://www.w3.org/Graphics/SVG/1.1/DTD/svg11.dtd">
<svg version="1.1" id="Layer_1" xmlns="http://www.w3.org/2000/svg" xmlns:xlink="http://www.w3.org/1999/xlink" x="0px" y="0px"
	 width="51.455px" height="45.396px" viewBox="0 0 51.455 45.396" enable-background="new 0 0 51.455 45.396" xml:space="preserve">
<g>
	<g>
		<path d="M43.727,16.469H20.784c-0.399,0-0.723,0.324-0.723,0.723s0.324,0.723,0.723,0.723h22.943c0.399,0,0.722-0.324,0.722-0.723
			S44.126,16.469,43.727,16.469z"/>
		<path d="M43.727,21.996H20.784c-0.399,0-0.723,0.324-0.723,0.723s0.324,0.723,0.723,0.723h22.943c0.399,0,0.722-0.323,0.722-0.723
			S44.126,21.996,43.727,21.996z"/>
		<path d="M43.727,27.523H20.784c-0.399,0-0.723,0.323-0.723,0.723c0,0.398,0.324,0.723,0.723,0.723h22.943
			c0.399,0,0.722-0.324,0.722-0.723C44.448,27.846,44.126,27.523,43.727,27.523z"/>
		<path d="M46.022,10.146H18.487c-2.318,0-4.205,1.886-4.205,4.205v17.314c0,2.319,1.887,4.205,4.205,4.205h19.3
			c0.206,0,0.398,0.094,0.525,0.255l6.232,7.891c0.246,0.311,0.605,0.48,0.979,0.48c0.14,0,0.282-0.023,0.421-0.071
			c0.514-0.179,0.845-0.646,0.845-1.189v-7.437c1.951-0.364,3.438-2.088,3.438-4.134V14.351
			C50.228,12.032,48.342,10.146,46.022,10.146z M48.781,31.665c0,1.501-1.221,2.739-2.723,2.758
			c-0.396,0.005-0.714,0.328-0.714,0.724v7.548l-5.897-7.465c-0.403-0.512-1.009-0.806-1.66-0.806h-19.3
			c-1.521,0-2.759-1.237-2.759-2.759V14.351c0-1.521,1.238-2.759,2.759-2.759h27.535c1.521,0,2.759,1.238,2.759,2.759V31.665z"/>
		<path d="M11.524,22.1c-0.494,0.071-0.938,0.325-1.247,0.717l-4.966,6.287v-6.302c0-0.396-0.319-0.718-0.714-0.723
			c-1.256-0.016-2.278-1.05-2.278-2.307V4.7c0-1.272,1.035-2.308,2.308-2.308h23.971c1.271,0,2.308,1.036,2.308,2.308v2.789
			c0,0.399,0.323,0.723,0.723,0.723s0.724-0.324,0.724-0.723V4.7c0-2.07-1.685-3.754-3.754-3.754H4.627
			c-2.07,0-3.754,1.685-3.754,3.754v15.072c0,1.8,1.289,3.32,2.992,3.676v6.397c0,0.514,0.313,0.954,0.798,1.122
			c0.132,0.046,0.266,0.068,0.397,0.068c0.354,0,0.693-0.16,0.925-0.454l5.426-6.868c0.078-0.1,0.19-0.164,0.315-0.182
			c0.395-0.057,0.67-0.422,0.614-0.818C12.286,22.32,11.92,22.045,11.524,22.1L11.524,22.1z"/>
	</g>
</g>
</svg>
