<?xml version="1.0" encoding="utf-8"?>
<!-- Generator: Adobe Illustrator 16.0.0, SVG Export Plug-In . SVG Version: 6.00 Build 0)  -->
<!DOCTYPE svg PUBLIC "-//W3C//DTD SVG 1.1//EN" "http://www.w3.org/Graphics/SVG/1.1/DTD/svg11.dtd">
<svg version="1.1" id="Layer_1" xmlns="http://www.w3.org/2000/svg" xmlns:xlink="http://www.w3.org/1999/xlink" x="0px" y="0px"
	 width="51.455px" height="45.396px" viewBox="0 0 51.455 45.396" enable-background="new 0 0 51.455 45.396" xml:space="preserve">
<g>
	<path d="M5.868,27.895c0.149,0.404,0.386,0.771,0.688,1.069c0.535,0.534,1.271,0.866,2.082,0.866c0.809,0,1.547-0.332,2.082-0.866
		c0.535-0.533,0.868-1.272,0.868-2.083v-1.641c-0.622,0.053-1.167-0.081-1.593-0.259c-0.038,0.187-0.081,0.365-0.136,0.543
		c-0.211,0.685-0.563,1.309-1.122,1.758c-0.565,0.456-1.316,0.72-2.311,0.669C6.249,27.946,6.063,27.926,5.868,27.895L5.868,27.895z
		 M23.251,23.5h5.9v-1.854h-4.543c-0.373,0-0.713,0.154-0.959,0.4s-0.398,0.584-0.398,0.956V23.5z M29.149,24.842h-5.898v2.041
		c0,0.811,0.332,1.549,0.867,2.083c0.536,0.534,1.273,0.866,2.082,0.866c0.813,0,1.551-0.332,2.083-0.866
		c0.534-0.534,0.866-1.272,0.866-2.083V24.842L29.149,24.842z M47.538,29.32c0.359,0.189,0.678,0.449,0.938,0.756
		c0.469,0.553,0.752,1.265,0.752,2.039v4.525c0,0.368-0.301,0.669-0.67,0.669c-0.371,0-0.673-0.301-0.673-0.669v-4.525
		c0-0.446-0.163-0.856-0.432-1.174c-0.238-0.282-0.56-0.489-0.929-0.588c-0.707,0.517-1.578,0.819-2.516,0.819
		c-0.972,0-1.869-0.323-2.593-0.874c-0.138,0.016-0.269,0.055-0.396,0.111c-0.174,0.081-0.33,0.205-0.457,0.373l-3.604,4.773
		c-0.127,0.167-0.324,0.269-0.535,0.269h-4.618c-0.342,0-0.652,0.137-0.875,0.359c-0.223,0.227-0.361,0.534-0.361,0.876
		s0.14,0.65,0.361,0.874c0.223,0.224,0.533,0.362,0.875,0.362h5.518c0.221,0,0.391-0.021,0.602-0.129
		c0.391-0.194,0.756-0.789,1.021-1.144l2.387-3.158c0.225-0.297,0.641-0.355,0.938-0.132c0.295,0.223,0.354,0.645,0.131,0.938
		l-2.271,3.01v5.848h7.753v-3.854c0-0.369,0.301-0.669,0.672-0.669c0.37,0,0.67,0.3,0.67,0.669v4.525c0,0.37-0.3,0.669-0.67,0.669
		c-14.824,0-29.646,0-44.467,0c-0.37,0-0.672-0.299-0.672-0.669v-4.525c0-0.369,0.302-0.669,0.672-0.669
		c0.37,0,0.669,0.3,0.669,0.669v3.854h7.756v-5.848l-2.272-3.01c-0.224-0.293-0.165-0.715,0.132-0.938
		c0.294-0.225,0.715-0.165,0.938,0.132l2.333,3.09c0.213,0.281,0.426,0.563,0.639,0.85c0.122,0.159,0.271,0.28,0.436,0.362
		c0.185,0.095,0.357,0.129,0.561,0.129h5.557c0.339,0,0.649-0.14,0.875-0.362c0.223-0.224,0.36-0.532,0.36-0.874
		s-0.137-0.649-0.36-0.876c-0.226-0.224-0.535-0.359-0.875-0.359h-4.621c-0.203,0-0.403-0.094-0.535-0.269l-3.604-4.773
		c-0.206-0.271-0.513-0.446-0.852-0.484c-0.72,0.549-1.618,0.874-2.589,0.874c-0.939,0-1.811-0.304-2.519-0.817
		c-0.36,0.094-0.68,0.3-0.918,0.572c-0.274,0.319-0.442,0.733-0.442,1.188v4.525c0,0.368-0.299,0.669-0.669,0.669
		c-0.37,0-0.672-0.301-0.672-0.669v-4.525c0-0.783,0.292-1.506,0.771-2.063c0.258-0.296,0.57-0.548,0.921-0.732
		c-0.5-0.717-0.764-1.564-0.764-2.438v-3.881c0-0.743,0.302-1.417,0.791-1.907c0.49-0.486,1.162-0.792,1.905-0.792h3.188
		c0.743,0,1.418,0.305,1.907,0.792c0.489,0.489,0.792,1.164,0.792,1.907v3.881c0,0.859-0.256,1.663-0.695,2.335
		c0.363,0.184,0.669,0.436,0.916,0.76l3.401,4.504h2.686V31.76c0-0.771,0.408-1.468,1.07-2.061c0.513-0.455,1.188-0.854,1.933-1.168
		c-0.213-0.511-0.33-1.066-0.33-1.648v-2.711v-1.17c0-0.743,0.304-1.418,0.792-1.907c0.489-0.486,1.164-0.792,1.907-0.792h5.215
		c0.369,0,0.671,0.303,0.671,0.673v3.195v2.711c0,0.551-0.104,1.077-0.296,1.565c0.802,0.313,1.525,0.72,2.074,1.19
		c0.703,0.604,1.137,1.323,1.137,2.12v2.722h2.686l3.401-4.504c0.251-0.33,0.565-0.583,0.919-0.757
		c-0.443-0.675-0.698-1.479-0.698-2.339V23c0-0.743,0.304-1.418,0.791-1.907c0.489-0.486,1.165-0.792,1.907-0.792h3.188
		c0.744,0,1.418,0.305,1.907,0.792c0.487,0.489,0.791,1.164,0.791,1.907v3.88C48.301,27.756,48.035,28.603,47.538,29.32
		L47.538,29.32z M46.776,27.895c-0.191,0.029-0.381,0.051-0.559,0.058c-0.99,0.051-1.742-0.213-2.308-0.669
		c-0.56-0.449-0.912-1.073-1.123-1.758c-0.054-0.178-0.099-0.356-0.136-0.543c-0.428,0.178-0.971,0.312-1.594,0.259v1.641
		c0,0.811,0.332,1.55,0.865,2.083c0.535,0.534,1.273,0.866,2.085,0.866c0.81,0,1.548-0.332,2.082-0.866
		C46.394,28.666,46.627,28.301,46.776,27.895L46.776,27.895z M41.06,23.898c0.896,0.126,1.549-0.395,1.666-0.494
		c0.131-0.112,0.256-0.181,0.436-0.188c0.371-0.019,0.684,0.267,0.699,0.637c0.023,0.437,0.084,0.878,0.209,1.28
		c0.137,0.449,0.353,0.845,0.681,1.108c0.321,0.258,0.774,0.405,1.405,0.375c0.244-0.014,0.512-0.051,0.805-0.117v-3.497
		c0-0.373-0.152-0.71-0.398-0.956c-0.246-0.247-0.584-0.4-0.957-0.4h-3.188c-0.373,0-0.711,0.153-0.956,0.4
		c-0.246,0.246-0.4,0.583-0.4,0.956V23.898L41.06,23.898z M11.587,23.898v-0.896c0-0.372-0.152-0.71-0.398-0.956
		s-0.585-0.4-0.958-0.4H7.042c-0.371,0-0.71,0.154-0.956,0.4s-0.398,0.584-0.398,0.956V26.5c0.292,0.066,0.558,0.104,0.802,0.117
		c0.631,0.03,1.085-0.117,1.408-0.375c0.327-0.265,0.542-0.659,0.682-1.108c0.125-0.402,0.185-0.845,0.206-1.28
		c0.018-0.37,0.332-0.654,0.7-0.637c0.172,0.008,0.304,0.071,0.431,0.184C10.01,23.482,10.674,24.028,11.587,23.898z M22.958,29.686
		c-0.7,0.271-1.319,0.615-1.76,1.012c-0.383,0.34-0.619,0.704-0.619,1.063v2.722h0.262c0.709,0,1.356,0.289,1.823,0.756
		c0.467,0.467,0.756,1.111,0.756,1.824c0,0.448-0.117,0.87-0.317,1.236h6.442c-0.2-0.366-0.313-0.788-0.313-1.236
		c0-0.713,0.287-1.357,0.756-1.824c0.466-0.467,1.109-0.756,1.822-0.756h0.26V31.76c0-0.369-0.254-0.752-0.664-1.104
		c-0.482-0.413-1.152-0.771-1.897-1.042c-0.086,0.104-0.178,0.205-0.271,0.299c-0.778,0.778-1.853,1.26-3.034,1.26
		c-1.178,0-2.254-0.48-3.03-1.26C23.097,29.841,23.025,29.764,22.958,29.686L22.958,29.686z M9.011,5.493
		c-0.371,0-0.67-0.302-0.67-0.672s0.299-0.669,0.67-0.669h12.422c0.37,0,0.669,0.3,0.669,0.669c0,0.371-0.3,0.672-0.669,0.672H9.011
		z M9.011,12.554c-0.371,0-0.67-0.303-0.67-0.673c0-0.369,0.299-0.672,0.67-0.672h6.211c0.37,0,0.672,0.303,0.672,0.672
		c0,0.371-0.302,0.673-0.672,0.673H9.011z M9.011,9.023c-0.371,0-0.67-0.302-0.67-0.672s0.299-0.67,0.67-0.67h12.422
		c0.37,0,0.669,0.3,0.669,0.67s-0.3,0.672-0.669,0.672H9.011z M22.12,16.177c0.094,0.262,0.244,0.495,0.434,0.686
		c0.34,0.342,0.812,0.555,1.336,0.555h3.944c0.371,0,0.67,0.3,0.67,0.672c0,0.37-0.299,0.67-0.67,0.67H23.89
		c-0.895,0-1.702-0.365-2.285-0.953c-0.436-0.438-0.745-1.001-0.877-1.629h-9.356l-3.039,3.038
		c-0.121,0.122-0.289,0.198-0.476,0.198c-0.371,0-0.672-0.3-0.672-0.67v-2.622c-0.853-0.143-1.616-0.551-2.202-1.139
		c-0.738-0.736-1.195-1.752-1.195-2.874V4.593c0-1.117,0.457-2.135,1.195-2.873c0.735-0.734,1.752-1.194,2.874-1.194h14.73
		c1.121,0,2.138,0.459,2.874,1.194c0.738,0.738,1.194,1.756,1.194,2.873v1.243h11.396c0.891,0,1.697,0.363,2.282,0.948
		c0.586,0.586,0.949,1.393,0.949,2.283v6.462c0,0.89-0.363,1.697-0.949,2.282c-0.435,0.434-0.991,0.746-1.612,0.878v2.637
		c0,0.17-0.063,0.343-0.195,0.475c-0.262,0.262-0.688,0.262-0.948,0l-3.041-3.041h-3.664c-0.371,0-0.672-0.299-0.672-0.669
		c0-0.373,0.301-0.672,0.672-0.672h3.944c0.187,0,0.354,0.076,0.476,0.201l2.088,2.087v-1.615c0-0.373,0.302-0.672,0.673-0.672
		c0.518,0,0.991-0.213,1.334-0.556c0.342-0.342,0.555-0.814,0.555-1.333V9.067c0-0.521-0.213-0.992-0.555-1.334
		c-0.343-0.342-0.816-0.557-1.334-0.557H26.655v4.934c0,1.121-0.457,2.138-1.195,2.874c-0.735,0.738-1.752,1.193-2.873,1.193H22.12
		L22.12,16.177z M11.093,14.836h11.494c0.75,0,1.43-0.307,1.925-0.8c0.494-0.495,0.801-1.177,0.801-1.926V4.593
		c0-0.748-0.307-1.43-0.801-1.925c-0.495-0.495-1.175-0.801-1.925-0.801H7.857c-0.751,0-1.431,0.307-1.925,0.801
		C5.437,3.162,5.13,3.844,5.13,4.593v7.519c0,0.748,0.307,1.43,0.802,1.925c0.494,0.494,1.174,0.801,1.925,0.801
		c0.37,0,0.669,0.303,0.669,0.672v1.616l2.092-2.09C10.75,14.902,10.92,14.836,11.093,14.836L11.093,14.836z M38.79,39.639H13.857
		v3.891H38.79V39.639L38.79,39.639z"/>
</g>
<path fill-rule="evenodd" clip-rule="evenodd" fill="#FFFFFF" d="M-597.689-233.802c171,0,342,0,513,0c0,171,0,342,0,513
	c-171,0-342,0-513,0C-597.689,108.198-597.689-62.802-597.689-233.802z M-371.773-189.672c-5.014,2.723-9.521,5.171-14.03,7.618
	c-6.171,3.351-6.282,3.7-2.95,9.896c16.308,30.333,32.642,60.652,48.92,91.001c6.392,11.916,4.625,10.739,15.885,4.854
	c6.104-3.19,6.198-3.506,3.023-9.425c-12.583-23.459-25.191-46.904-37.827-70.335c-1.36-2.521-2.848-4.877,1.834-5.646
	c0.663,1.071,1.416,2.156,2.037,3.313c28.829,53.638,57.645,107.282,86.477,160.918c0.623,1.159,1.262,2.376,2.16,3.31
	c11.776,12.238,23.556,24.477,35.487,36.561c1.161,1.176,3.347,1.34,5.056,1.973c0.465-1.895,1.642-3.938,1.279-5.658
	c-2.844-13.504-5.96-26.95-9.043-40.403c-0.922-4.023-1.25-8.41-3.131-11.951c-18.187-34.234-36.658-68.317-55.025-102.456
	c-17.894-33.257-35.739-66.54-53.653-99.785c-4.702-8.728-12.238-10.93-20.995-6.323c-1.767,0.93-3.542,1.851-5.257,2.871
	c-7.119,4.232-9.422,11.983-5.719,19.391C-375.616-196.689-373.825-193.51-371.773-189.672z M-383.805,86.399
	c24.506,0.115,45.055-20.189,45.138-44.602c0.084-24.701-20.353-45.336-44.986-45.425c-23.914-0.086-44.854,20.645-44.975,44.525
	C-428.753,65.733-408.509,86.286-383.805,86.399z M-326.43,165.077c-24.511-0.066-45.116,20.281-45.176,44.613
	c-0.062,24.637,20.517,45.359,45.073,45.389c24.024,0.029,44.788-20.572,44.893-44.539
	C-281.532,185.618-301.703,165.145-326.43,165.077z M-534.687,158.969c-24.52,0.07-44.923,20.459-44.918,44.885
	c0.005,24.352,20.653,45.139,44.836,45.135c24.834-0.004,45.213-20.699,45.101-45.803
	C-489.775,179.177-510.419,158.899-534.687,158.969z M-147.156,86.434c-0.324,2.805-0.405,5.664-1.012,8.406
	c-5.221,23.627-27.823,37.314-51.384,31.205c-22.233-5.766-35.008-29.041-28.396-51.748c0.741-2.545,2.203-5.604-1.52-6.672
	c-3.701-1.061-4.218,2.439-4.958,4.873c-8.921,29.32,13.375,60.814,43.81,61.521c20.217,0.471,35.403-8.734,44.662-26.48
	c8.98-17.213,7.276-34.381-4.425-49.777c-12.145-15.979-28.634-22.201-48.509-18.32c-2.859,0.557-7.951,0.25-6.734,5.234
	c1.191,4.881,5.321,1.805,7.983,1.232C-171.124,40.221-147.206,59.409-147.156,86.434z M-448.24,30.846
	c-1.414,0.436-1.875,0.652-2.355,0.715c-2.146,0.275-4.303,0.475-6.448,0.758c-24.077,3.193-44.663,12.879-59.578,32.662
	c-13.24,17.563-19.001,37.904-20.89,59.459c-0.637,7.268-0.466,14.627-0.221,21.93c0.043,1.271,2.3,2.471,3.535,3.703
	c0.924-1.357,1.983-2.645,2.711-4.1c0.325-0.65-0.116-1.643-0.036-2.463c1.246-12.713,1.222-25.721,4.042-38.078
	c7.249-31.758,25.192-54.725,57.865-63.639c7.455-2.033,15.25-2.824,22.889-4.188c0.126,0.535,0.252,1.068,0.379,1.604
	c-2.434,2.236-5.123,4.268-7.182,6.809c-0.873,1.076-0.426,3.225-0.578,4.885c1.635,0.004,3.84,0.699,4.809-0.102
	c5.258-4.344,10.363-8.906,15.126-13.779c0.87-0.891,0.632-4.564-0.324-5.26c-5.51-4.002-11.306-7.639-17.22-11.024
	c-1.083-0.62-3.158,0.494-4.775,0.808c0.464,1.586,0.476,3.609,1.492,4.66C-453.331,27.927-451.009,29.012-448.24,30.846z
	 M-178.643,152.876c2.258,18.924,0.77,37.063-9.053,53.643c-6.599,11.139-16.396,17.787-29.212,19.59
	c-11.229,1.58-22.304,0.176-32.999-3.373c-7.077-2.348-13.852-5.602-20.891-8.084c-1.439-0.508-3.456,0.619-5.206,0.992
	c0.722,1.604,1.276,3.32,2.236,4.768c0.482,0.727,1.654,1.119,2.593,1.402c12.202,3.703,24.2,8.639,36.676,10.768
	c27.878,4.754,48.944-8.461,58.491-35.113c4.614-12.883,5.819-26.244,5.335-39.826c-0.065-1.854-0.009-3.713-0.009-6.635
	c2.646,2.74,4.163,4.824,6.168,6.197c1.215,0.83,3.185,0.557,4.814,0.779c-0.021-1.768,0.692-4.146-0.186-5.195
	c-4.157-4.971-8.592-9.744-13.321-14.166c-0.906-0.848-4.631-0.486-5.271,0.488c-3.552,5.408-6.712,11.1-9.599,16.898
	c-0.531,1.066,0.81,3.066,1.286,4.637c1.434-0.471,3.326-0.529,4.202-1.502C-180.959,157.337-179.925,154.995-178.643,152.876z
	 M-530.017-4.324c1.884-1.399,3.429-2.366,4.763-3.568c5.934-5.351,11.919-10.656,17.597-16.271
	c0.997-0.985,0.612-3.369,0.866-5.106c-1.753,0.086-3.601-0.137-5.227,0.363c-1.153,0.354-2.009,1.68-2.993,2.577
	c-6.474,5.91-12.946,11.821-19.433,17.746c-0.949-0.721-1.503-1.078-1.983-1.516c-6.889-6.279-13.68-12.674-20.746-18.749
	c-1.073-0.923-3.412-0.374-5.165-0.506c0.217,1.736-0.142,3.908,0.773,5.116c1.781,2.352,4.271,4.169,6.477,6.197
	c5.075,4.667,10.156,9.329,15.46,14.2c-4.136,3.799-7.682,7.055-11.227,10.313c-3.676,3.38-7.51,6.612-10.92,10.242
	c-0.901,0.96-0.495,3.148-0.689,4.772c1.642,0.05,3.416,0.506,4.886,0.029c1.302-0.422,2.274-1.874,3.38-2.885
	c6.479-5.918,12.954-11.84,19.516-17.84c1.896,1.67,3.403,2.959,4.867,4.296c5.902,5.385,11.687,10.909,17.783,16.064
	c1.081,0.914,3.442,0.315,5.212,0.415c-0.237-1.738-0.221-3.568-0.806-5.181c-0.35-0.966-1.648-1.581-2.505-2.371
	C-516.463,8.181-522.792,2.341-530.017-4.324z M-284.694,94.413c1.6-1.529,2.872-2.789,4.188-4
	c5.878-5.408,11.88-10.689,17.552-16.305c1.023-1.014,0.708-3.381,1.011-5.123c-1.773,0.078-3.67-0.203-5.282,0.348
	c-1.303,0.443-2.266,1.889-3.373,2.896c-6.361,5.789-12.722,11.582-19.154,17.439c-1.653-1.459-2.909-2.533-4.13-3.646
	c-6.149-5.604-12.188-11.338-18.532-16.711c-1.079-0.914-3.451-0.299-5.227-0.391c0.27,1.738,0.198,3.635,0.914,5.162
	c0.586,1.252,2.116,2.057,3.218,3.072c6.09,5.605,12.177,11.213,18.659,17.184c-3.759,3.477-7.138,6.611-10.526,9.734
	c-3.915,3.609-7.987,7.068-11.653,10.914c-0.881,0.924-0.428,3.119-0.587,4.729c1.62,0.039,3.373,0.479,4.82-0.002
	c1.305-0.432,2.286-1.861,3.393-2.871c6.476-5.904,12.945-11.816,19.59-17.883c1.966,1.766,3.569,3.188,5.151,4.633
	c5.773,5.275,11.436,10.682,17.404,15.727c1.089,0.92,3.418,0.373,5.175,0.502c-0.21-1.746-0.111-3.613-0.734-5.197
	c-0.438-1.113-1.858-1.84-2.839-2.74C-271.883,106.171-278.109,100.458-284.694,94.413z M-450.709,156.897
	c7.597,6.945,14.722,13.455,21.845,19.971c1.809,1.654,3.763,3.293,5.959,0.814c2.215-2.502,0.209-4.217-1.549-5.842
	c-0.979-0.904-1.959-1.807-2.939-2.709c-5.965-5.488-11.93-10.977-18.261-16.803c6.608-6.068,12.935-11.684,19.003-17.563
	c2.104-2.039,7.109-3.953,3.564-7.707c-3.387-3.586-5.813,1-8.077,2.977c-6.595,5.754-12.999,11.729-19.499,17.637
	c-1.367-1.203-2.25-1.955-3.106-2.736c-6.399-5.834-12.684-11.803-19.292-17.389c-1.162-0.982-3.673-0.367-5.561-0.49
	c0.341,1.725,0.406,3.576,1.115,5.133c0.507,1.115,1.881,1.832,2.861,2.734c6.208,5.721,12.413,11.443,18.903,17.426
	c-7.512,6.914-14.7,13.326-21.573,20.061c-1.089,1.068-0.762,3.582-1.089,5.426c1.749-0.148,3.594-0.008,5.214-0.547
	c1.159-0.385,2.024-1.672,3.007-2.57C-463.81,168.889-457.439,163.057-450.709,156.897z M-134.014,240.132
	c-2.227,2.066-3.912,3.648-5.616,5.209c-5.285,4.838-10.714,9.533-15.766,14.604c-1.167,1.172-2.041,4.256-1.334,5.354
	c1.694,2.631,4.002,1.143,5.848-0.576c1.097-1.023,2.202-2.037,3.311-3.047c6.124-5.582,12.25-11.162,18.566-16.916
	c4.623,4.197,8.929,8.1,13.228,12.01c3.205,2.914,6.247,6.043,9.693,8.637c1.069,0.807,3.222,0.172,4.879,0.199
	c-0.174-1.66-0.031-3.445-0.625-4.938c-0.447-1.121-1.832-1.873-2.813-2.773c-6.343-5.83-12.69-11.654-19.345-17.764
	c7.018-6.434,13.633-12.48,20.226-18.551c2.056-1.895,5.09-3.961,2.333-6.939c-2.628-2.842-4.778,0.121-6.672,1.836
	c-6.901,6.25-13.743,12.564-20.836,19.064c-1.853-1.648-3.46-3.049-5.034-4.486c-5.907-5.393-11.698-10.922-17.808-16.076
	c-1.019-0.859-3.403-0.1-5.156-0.088c0.244,1.631,0.146,3.428,0.835,4.84c0.612,1.256,2.092,2.094,3.197,3.107
	C-146.776,228.45-140.645,234.061-134.014,240.132z M-362.448,161.479c-0.654,0.227-1.31,0.453-1.965,0.678
	c-3.1-5.795-6.77-11.363-9.186-17.432c-6.136-15.404-7.178-31.658-7.015-48.07c0.018-1.816-1.43-4.959-2.683-5.229
	c-3.612-0.775-3.609,2.527-3.712,4.977c-0.57,13.701,0.057,27.408,4.069,40.533c2.957,9.67,7.476,18.861,11.201,28.025
	c-1.368-0.217-3.675-1-5.892-0.799c-1.726,0.156-3.339,1.541-5.002,2.379c1.189,1.299,2.176,3.396,3.603,3.758
	c5.952,1.51,12.031,2.529,18.076,3.664c3.596,0.676,5.326-0.807,5.252-4.561c-0.102-5.158,0.225-10.34-0.171-15.469
	c-0.127-1.641-1.963-3.148-3.017-4.717c-1.187,1.648-2.938,3.15-3.417,4.984C-362.901,156.485-362.448,159.042-362.448,161.479z"/>
<path fill-rule="evenodd" clip-rule="evenodd" d="M-371.773-189.672c-2.052-3.839-3.843-7.018-5.473-10.277
	c-3.703-7.407-1.4-15.158,5.719-19.391c1.715-1.021,3.49-1.941,5.257-2.871c8.757-4.606,16.293-2.404,20.995,6.323
	c17.914,33.245,35.76,66.528,53.653,99.785c18.367,34.139,36.839,68.222,55.025,102.456c1.881,3.541,2.209,7.928,3.131,11.951
	c3.083,13.453,6.199,26.899,9.043,40.403c0.362,1.721-0.814,3.764-1.279,5.658c-1.709-0.633-3.895-0.797-5.056-1.973
	c-11.932-12.084-23.711-24.323-35.487-36.561c-0.898-0.934-1.537-2.15-2.16-3.31c-28.832-53.636-57.647-107.28-86.477-160.918
	c-0.621-1.156-1.374-2.241-2.037-3.313c-4.682,0.769-3.194,3.124-1.834,5.646c12.636,23.431,25.244,46.876,37.827,70.335
	c3.175,5.919,3.081,6.234-3.023,9.425c-11.26,5.886-9.493,7.063-15.885-4.854c-16.278-30.349-32.612-60.668-48.92-91.001
	c-3.332-6.196-3.221-6.546,2.95-9.896C-381.294-184.501-376.787-186.949-371.773-189.672z M-362.607-186.932
	c33.281,61.893,66.262,123.226,99.477,184.995c6.705-3.592,12.945-6.935,19.598-10.498
	c-33.229-61.819-66.271-123.289-99.471-185.052C-349.69-193.887-355.809-190.593-362.607-186.932z M-327.049-82.586
	c-0.876-1.76-1.564-3.239-2.335-4.676c-11.776-21.966-23.561-43.928-35.352-65.886c-4.88-9.089-4.888-9.081,3.56-14.575
	c0.235-0.153,0.316-0.545,0.652-1.161c-2.569-4.726-5.232-9.621-8.082-14.863c-5.109,2.779-9.697,5.274-14.544,7.911
	c17.354,32.259,34.399,63.943,51.618,95.949C-329.754-80.957-328.542-81.686-327.049-82.586z M-346.204-203.443
	c-2.264-4.14-4.181-7.972-6.405-11.615c-2.08-3.407-5.383-4.132-8.596-2.068c-4.427,2.844-11.483,3.117-11.408,10.761
	c0.005,0.473,0.229,0.975,0.455,1.408c2.044,3.915,4.11,7.819,6.359,12.082C-359.055-196.512-352.843-199.862-346.204-203.443z
	 M-258.047,3.397c-0.467,0.714-0.934,1.429-1.4,2.143c4.184,3.51,8.279,7.136,12.617,10.442c1.005,0.766,3.153,1.046,4.223,0.488
	c2-1.042,5.22-3.034,5.081-4.327c-0.617-5.776-2.24-11.444-3.635-17.762C-247.34-2.32-252.694,0.538-258.047,3.397z M-233.25,29.278
	c-0.861-3.453-1.461-5.859-2.191-8.787c-1.814,1.067-2.978,1.751-4.687,2.755C-237.836,25.257-235.945,26.915-233.25,29.278z"/>
<path fill-rule="evenodd" clip-rule="evenodd" d="M-383.805,86.399c-24.704-0.113-44.948-20.666-44.823-45.502
	c0.121-23.88,21.061-44.611,44.975-44.525c24.634,0.089,45.07,20.725,44.986,45.425C-338.75,66.21-359.299,86.514-383.805,86.399z
	 M-345.347,41.585c0.013-21.776-16.507-38.428-38.148-38.457c-21.695-0.029-38.335,16.557-38.367,38.242
	c-0.031,21.727,16.42,38.328,38.143,38.486C-362.238,80.014-345.359,63.178-345.347,41.585z"/>
<path fill-rule="evenodd" clip-rule="evenodd" d="M-326.43,165.077c24.728,0.068,44.898,20.541,44.79,45.463
	c-0.104,23.967-20.868,44.568-44.893,44.539c-24.557-0.029-45.135-20.752-45.073-45.389
	C-371.546,185.358-350.941,165.01-326.43,165.077z M-288.344,209.782c-0.087-21.717-16.711-38.174-38.464-38.078
	c-21.686,0.098-38.157,16.76-38.053,38.496c0.104,21.717,16.705,38.16,38.467,38.104
	C-304.748,248.245-288.256,231.552-288.344,209.782z"/>
<path fill-rule="evenodd" clip-rule="evenodd" d="M-534.687,158.969c24.268-0.07,44.912,20.207,45.019,44.217
	c0.112,25.104-20.267,45.799-45.101,45.803c-24.184,0.004-44.831-20.783-44.836-45.135
	C-579.61,179.428-559.207,159.04-534.687,158.969z M-496.359,204.36c0.328-21.666-16.092-38.541-37.778-38.824
	c-21.444-0.281-38.421,16.115-38.702,37.381c-0.29,21.939,15.902,39.031,37.266,39.336
	C-513.469,242.567-496.692,226.358-496.359,204.36z"/>
<path fill-rule="evenodd" clip-rule="evenodd" d="M-147.156,86.434c-0.05-27.025-23.968-46.213-50.481-40.525
	c-2.662,0.572-6.792,3.648-7.983-1.232c-1.217-4.984,3.875-4.678,6.734-5.234c19.875-3.881,36.364,2.342,48.509,18.32
	c11.701,15.396,13.405,32.564,4.425,49.777c-9.259,17.746-24.445,26.951-44.662,26.48c-30.435-0.707-52.73-32.201-43.81-61.521
	c0.74-2.434,1.257-5.934,4.958-4.873c3.723,1.068,2.261,4.127,1.52,6.672c-6.612,22.707,6.162,45.982,28.396,51.748
	c23.561,6.109,46.163-7.578,51.384-31.205C-147.561,92.098-147.48,89.239-147.156,86.434z"/>
<path fill-rule="evenodd" clip-rule="evenodd" d="M-448.24,30.846c-2.77-1.834-5.091-2.92-6.76-4.641
	c-1.017-1.051-1.028-3.074-1.492-4.66c1.617-0.313,3.692-1.428,4.775-0.808c5.914,3.385,11.71,7.022,17.22,11.024
	c0.956,0.695,1.194,4.369,0.324,5.26c-4.763,4.873-9.868,9.436-15.126,13.779c-0.969,0.801-3.174,0.105-4.809,0.102
	c0.152-1.66-0.295-3.809,0.578-4.885c2.059-2.541,4.748-4.572,7.182-6.809c-0.127-0.535-0.253-1.068-0.379-1.604
	c-7.639,1.363-15.434,2.154-22.889,4.188c-32.672,8.914-50.616,31.881-57.865,63.639c-2.821,12.357-2.796,25.365-4.042,38.078
	c-0.081,0.82,0.361,1.813,0.036,2.463c-0.728,1.455-1.787,2.742-2.711,4.1c-1.234-1.232-3.492-2.432-3.535-3.703
	c-0.245-7.303-0.416-14.662,0.221-21.93c1.889-21.555,7.65-41.896,20.89-59.459c14.915-19.783,35.501-29.469,59.578-32.662
	c2.146-0.283,4.302-0.482,6.448-0.758C-450.115,31.499-449.654,31.282-448.24,30.846z"/>
<path fill-rule="evenodd" clip-rule="evenodd" d="M-178.643,152.876c-1.282,2.119-2.316,4.461-3.944,6.268
	c-0.876,0.973-2.769,1.031-4.202,1.502c-0.477-1.57-1.817-3.57-1.286-4.637c2.887-5.799,6.047-11.49,9.599-16.898
	c0.641-0.975,4.365-1.336,5.271-0.488c4.729,4.422,9.164,9.195,13.321,14.166c0.878,1.049,0.165,3.428,0.186,5.195
	c-1.63-0.223-3.6,0.051-4.814-0.779c-2.005-1.373-3.522-3.457-6.168-6.197c0,2.922-0.057,4.781,0.009,6.635
	c0.484,13.582-0.721,26.943-5.335,39.826c-9.547,26.652-30.613,39.867-58.491,35.113c-12.476-2.129-24.474-7.064-36.676-10.768
	c-0.938-0.283-2.11-0.676-2.593-1.402c-0.96-1.447-1.515-3.164-2.236-4.768c1.75-0.373,3.767-1.5,5.206-0.992
	c7.039,2.482,13.813,5.736,20.891,8.084c10.695,3.549,21.771,4.953,32.999,3.373c12.815-1.803,22.613-8.451,29.212-19.59
	C-177.874,189.938-176.385,171.8-178.643,152.876z"/>
<path fill-rule="evenodd" clip-rule="evenodd" d="M-530.017-4.324c7.226,6.665,13.554,12.505,19.886,18.34
	c0.857,0.79,2.155,1.405,2.505,2.371c0.585,1.612,0.569,3.442,0.806,5.181c-1.77-0.1-4.131,0.499-5.212-0.415
	c-6.097-5.155-11.881-10.68-17.783-16.064c-1.464-1.337-2.971-2.626-4.867-4.296c-6.563,6-13.038,11.922-19.516,17.84
	c-1.106,1.011-2.078,2.463-3.38,2.885c-1.471,0.477-3.244,0.021-4.886-0.029c0.194-1.624-0.212-3.813,0.689-4.772
	c3.41-3.63,7.244-6.862,10.92-10.242c3.544-3.258,7.09-6.514,11.227-10.313c-5.304-4.871-10.385-9.533-15.46-14.2
	c-2.206-2.028-4.696-3.846-6.477-6.197c-0.915-1.208-0.556-3.38-0.773-5.116c1.753,0.132,4.092-0.417,5.165,0.506
	c7.065,6.075,13.856,12.47,20.746,18.749c0.48,0.438,1.034,0.795,1.983,1.516c6.487-5.925,12.959-11.836,19.433-17.746
	c0.984-0.897,1.84-2.224,2.993-2.577c1.626-0.5,3.474-0.277,5.227-0.363c-0.253,1.737,0.131,4.121-0.866,5.106
	c-5.678,5.614-11.663,10.92-17.597,16.271C-526.588-6.69-528.133-5.723-530.017-4.324z"/>
<path fill-rule="evenodd" clip-rule="evenodd" d="M-284.694,94.413c6.585,6.045,12.811,11.758,19.036,17.471
	c0.98,0.9,2.4,1.627,2.839,2.74c0.623,1.584,0.524,3.451,0.734,5.197c-1.757-0.129-4.086,0.418-5.175-0.502
	c-5.969-5.045-11.631-10.451-17.404-15.727c-1.582-1.445-3.186-2.867-5.151-4.633c-6.645,6.066-13.114,11.979-19.59,17.883
	c-1.106,1.01-2.088,2.439-3.393,2.871c-1.447,0.48-3.2,0.041-4.82,0.002c0.159-1.609-0.294-3.805,0.587-4.729
	c3.666-3.846,7.738-7.305,11.653-10.914c3.389-3.123,6.768-6.258,10.526-9.734c-6.482-5.971-12.569-11.578-18.659-17.184
	c-1.102-1.016-2.632-1.82-3.218-3.072c-0.716-1.527-0.645-3.424-0.914-5.162c1.775,0.092,4.147-0.523,5.227,0.391
	c6.344,5.373,12.383,11.107,18.532,16.711c1.221,1.113,2.477,2.188,4.13,3.646c6.433-5.857,12.793-11.65,19.154-17.439
	c1.107-1.008,2.07-2.453,3.373-2.896c1.612-0.551,3.509-0.27,5.282-0.348c-0.303,1.742,0.013,4.109-1.011,5.123
	c-5.672,5.615-11.674,10.896-17.552,16.305C-281.822,91.624-283.094,92.884-284.694,94.413z"/>
<path fill-rule="evenodd" clip-rule="evenodd" d="M-450.709,156.897c-6.729,6.16-13.101,11.992-19.475,17.822
	c-0.983,0.898-1.848,2.186-3.007,2.57c-1.62,0.539-3.465,0.398-5.214,0.547c0.327-1.844,0-4.357,1.089-5.426
	c6.874-6.734,14.062-13.146,21.573-20.061c-6.49-5.982-12.695-11.705-18.903-17.426c-0.979-0.902-2.354-1.619-2.861-2.734
	c-0.709-1.557-0.774-3.408-1.115-5.133c1.888,0.123,4.399-0.492,5.561,0.49c6.608,5.586,12.892,11.555,19.292,17.389
	c0.856,0.781,1.739,1.533,3.106,2.736c6.5-5.908,12.904-11.883,19.499-17.637c2.264-1.977,4.69-6.563,8.077-2.977
	c3.545,3.754-1.46,5.668-3.564,7.707c-6.068,5.879-12.395,11.494-19.003,17.563c6.331,5.826,12.296,11.314,18.261,16.803
	c0.98,0.902,1.961,1.805,2.939,2.709c1.758,1.625,3.764,3.34,1.549,5.842c-2.196,2.479-4.15,0.84-5.959-0.814
	C-435.988,170.352-443.113,163.843-450.709,156.897z"/>
<path fill-rule="evenodd" clip-rule="evenodd" d="M-134.014,240.132c-6.631-6.07-12.762-11.682-18.89-17.295
	c-1.105-1.014-2.585-1.852-3.197-3.107c-0.689-1.412-0.591-3.209-0.835-4.84c1.753-0.012,4.138-0.771,5.156,0.088
	c6.109,5.154,11.9,10.684,17.808,16.076c1.574,1.438,3.182,2.838,5.034,4.486c7.093-6.5,13.935-12.814,20.836-19.064
	c1.894-1.715,4.044-4.678,6.672-1.836c2.757,2.979-0.277,5.045-2.333,6.939c-6.593,6.07-13.208,12.117-20.226,18.551
	c6.654,6.109,13.002,11.934,19.345,17.764c0.981,0.9,2.366,1.652,2.813,2.773c0.594,1.492,0.451,3.277,0.625,4.938
	c-1.657-0.027-3.81,0.607-4.879-0.199c-3.446-2.594-6.488-5.723-9.693-8.637c-4.299-3.91-8.604-7.813-13.228-12.01
	c-6.316,5.754-12.442,11.334-18.566,16.916c-1.108,1.01-2.214,2.023-3.311,3.047c-1.846,1.719-4.153,3.207-5.848,0.576
	c-0.707-1.098,0.167-4.182,1.334-5.354c5.052-5.07,10.48-9.766,15.766-14.604C-137.926,243.78-136.241,242.198-134.014,240.132z"/>
<path fill-rule="evenodd" clip-rule="evenodd" d="M-362.448,161.479c0-2.438-0.453-4.994,0.144-7.277
	c0.479-1.834,2.23-3.336,3.417-4.984c1.054,1.568,2.89,3.076,3.017,4.717c0.396,5.129,0.069,10.311,0.171,15.469
	c0.074,3.754-1.656,5.236-5.252,4.561c-6.045-1.135-12.124-2.154-18.076-3.664c-1.427-0.361-2.413-2.459-3.603-3.758
	c1.663-0.838,3.276-2.223,5.002-2.379c2.217-0.201,4.523,0.582,5.892,0.799c-3.726-9.164-8.244-18.355-11.201-28.025
	c-4.013-13.125-4.64-26.832-4.069-40.533c0.103-2.449,0.1-5.752,3.712-4.977c1.253,0.27,2.7,3.412,2.683,5.229
	c-0.163,16.412,0.879,32.666,7.015,48.07c2.416,6.068,6.086,11.637,9.186,17.432C-363.757,161.932-363.102,161.706-362.448,161.479z
	"/>
<path fill-rule="evenodd" clip-rule="evenodd" fill="#FFFFFF" d="M-362.607-186.932c6.798-3.66,12.917-6.955,19.604-10.555
	c33.199,61.763,66.241,123.232,99.471,185.052c-6.652,3.563-12.893,6.906-19.598,10.498
	C-296.345-63.707-329.326-125.04-362.607-186.932z"/>
<path fill-rule="evenodd" clip-rule="evenodd" fill="#FFFFFF" d="M-327.049-82.586c-1.493,0.899-2.705,1.629-4.482,2.699
	c-17.219-32.006-34.264-63.69-51.618-95.949c4.847-2.637,9.435-5.132,14.544-7.911c2.85,5.242,5.513,10.138,8.082,14.863
	c-0.336,0.616-0.417,1.008-0.652,1.161c-8.447,5.494-8.439,5.486-3.56,14.575c11.791,21.958,23.575,43.92,35.352,65.886
	C-328.614-85.825-327.925-84.345-327.049-82.586z"/>
<path fill-rule="evenodd" clip-rule="evenodd" fill="#FFFFFF" d="M-346.204-203.443c-6.64,3.581-12.852,6.931-19.595,10.567
	c-2.249-4.263-4.315-8.167-6.359-12.082c-0.227-0.434-0.45-0.936-0.455-1.408c-0.075-7.644,6.981-7.917,11.408-10.761
	c3.213-2.063,6.516-1.339,8.596,2.068C-350.384-211.415-348.467-207.583-346.204-203.443z"/>
<path fill-rule="evenodd" clip-rule="evenodd" fill="#FFFFFF" d="M-258.047,3.397c5.354-2.858,10.707-5.717,16.886-9.016
	c1.395,6.317,3.018,11.985,3.635,17.762c0.139,1.293-3.081,3.285-5.081,4.327c-1.069,0.558-3.218,0.277-4.223-0.488
	c-4.338-3.307-8.434-6.933-12.617-10.442C-258.981,4.825-258.514,4.111-258.047,3.397z"/>
<path fill-rule="evenodd" clip-rule="evenodd" fill="#FFFFFF" d="M-233.25,29.278c-2.695-2.363-4.587-4.021-6.878-6.031
	c1.709-1.004,2.872-1.688,4.687-2.755C-234.71,23.419-234.111,25.825-233.25,29.278z"/>
<path fill-rule="evenodd" clip-rule="evenodd" fill="#FFFFFF" d="M-345.347,41.585c-0.012,21.594-16.891,38.43-38.373,38.271
	c-21.723-0.158-38.174-16.76-38.143-38.486c0.032-21.685,16.672-38.271,38.367-38.242C-361.854,3.156-345.334,19.809-345.347,41.585
	z"/>
<path fill-rule="evenodd" clip-rule="evenodd" fill="#FFFFFF" d="M-288.344,209.782c0.088,21.77-16.403,38.463-38.05,38.521
	c-21.762,0.057-38.363-16.387-38.467-38.104c-0.104-21.736,16.367-38.398,38.053-38.496
	C-305.055,171.608-288.431,188.065-288.344,209.782z"/>
<path fill-rule="evenodd" clip-rule="evenodd" fill="#FFFFFF" d="M-496.359,204.36c-0.333,21.998-17.109,38.207-39.215,37.893
	c-21.363-0.305-37.556-17.396-37.266-39.336c0.281-21.266,17.258-37.662,38.702-37.381
	C-512.451,165.819-496.031,182.694-496.359,204.36z"/>
</svg>
