<?xml version="1.0" encoding="utf-8"?>
<!-- Generator: Adobe Illustrator 16.0.0, SVG Export Plug-In . SVG Version: 6.00 Build 0)  -->
<!DOCTYPE svg PUBLIC "-//W3C//DTD SVG 1.1//EN" "http://www.w3.org/Graphics/SVG/1.1/DTD/svg11.dtd">
<svg version="1.1" id="Layer_1" xmlns="http://www.w3.org/2000/svg" xmlns:xlink="http://www.w3.org/1999/xlink" x="0px" y="0px"
	 width="51.455px" height="45.396px" viewBox="0 0 51.455 45.396" enable-background="new 0 0 51.455 45.396" xml:space="preserve">
<g>
	<path fill-rule="evenodd" clip-rule="evenodd" d="M27.168,0.651c0.86,0.139,1.732,0.223,2.577,0.426
		c5.823,1.403,9.996,4.851,12.277,10.375c2.177,5.274,1.728,10.47-1.132,15.414c-1.379,2.386-2.154,4.908-1.984,7.664
		c0.078,1.282,0.338,2.556,0.534,3.83c0.286,1.855,0.586,3.709,0.888,5.563c0.063,0.386-0.135,0.62-0.414,0.823
		c-0.145,0-0.287,0-0.43,0c-0.287-0.179-0.415-0.433-0.468-0.771c-0.442-2.904-0.971-5.8-1.339-8.713
		c-0.39-3.105,0.339-6.021,1.921-8.707c1.205-2.042,2.029-4.198,2.314-6.559c0.481-3.997-0.384-7.684-2.652-10.998
		c-2.609-3.814-6.229-6.169-10.803-6.845c-5.51-0.815-10.246,0.863-14.157,4.841c-0.121,0.122-0.231,0.255-0.356,0.374
		c-0.304,0.287-0.651,0.308-0.923,0.06c-0.285-0.258-0.314-0.647,0.007-0.948c0.931-0.871,1.826-1.796,2.847-2.55
		c2.572-1.899,5.486-2.948,8.679-3.209c0.097-0.008,0.192-0.045,0.289-0.069C25.618,0.651,26.393,0.651,27.168,0.651z"/>
	<path fill-rule="evenodd" clip-rule="evenodd" d="M19.675,44.745c-0.317-0.254-0.388-0.588-0.384-0.982
		c0.019-1.289,0.007-2.579,0.007-3.924c-0.151,0-0.303,0-0.456,0c-2.612,0-5.224,0.002-7.835,0c-1.863-0.001-2.96-1.171-2.854-3.031
		c0.134-2.35,0.267-4.699,0.396-7.049c0.016-0.286,0.002-0.571,0.002-0.932c-0.519,0-1.042,0.009-1.566-0.002
		c-0.983-0.02-1.72-0.636-1.817-1.598c-0.036-0.353,0.061-0.744,0.195-1.079c1.011-2.512,2.053-5.012,3.066-7.522
		c0.125-0.309,0.198-0.659,0.205-0.992c0.07-3.08,0.904-5.934,2.482-8.575c0.072-0.122,0.151-0.302,0.258-0.328
		c0.242-0.06,0.569-0.137,0.738-0.023c0.168,0.113,0.225,0.445,0.255,0.69c0.016,0.128-0.121,0.281-0.201,0.417
		c-1.446,2.464-2.194,5.121-2.244,7.98c-0.007,0.39-0.092,0.801-0.237,1.162c-1.025,2.553-2.077,5.094-3.118,7.64
		c-0.271,0.663-0.086,0.935,0.636,0.938c0.631,0.003,1.263-0.004,1.895,0.002c0.598,0.006,0.852,0.262,0.821,0.842
		c-0.15,2.751-0.306,5.503-0.458,8.252c-0.006,0.114-0.014,0.229-0.02,0.344c-0.045,1.005,0.485,1.57,1.485,1.57
		c2.884,0.003,5.769,0.001,8.653,0.001c0.902,0,1.047,0.146,1.042,1.048c-0.009,1.392-0.028,2.783-0.025,4.175
		c0.001,0.395-0.072,0.731-0.405,0.976C20.02,44.745,19.848,44.745,19.675,44.745z"/>
	<path fill-rule="evenodd" clip-rule="evenodd" d="M23.783,32.327c0.006-0.119,0.016-0.247,0.016-0.372
		c-0.001-3.933-0.008-7.865,0.003-11.798c0.001-0.378,0.069-0.77,0.183-1.131c0.383-1.216,0.805-2.419,1.203-3.631
		c0.132-0.403,0.346-0.707,0.809-0.697c0.438,0.009,0.642,0.302,0.77,0.69c0.432,1.307,0.884,2.605,1.311,3.913
		c0.078,0.239,0.104,0.505,0.104,0.759c0.008,3.919,0.008,7.837,0.009,11.755c0,0.169,0,0.339,0,0.497
		c0.937,0.229,1.49-0.129,1.397-1.046c-0.019-0.184-0.021-0.379,0.021-0.557c0.074-0.332,0.299-0.524,0.647-0.512
		c0.327,0.01,0.583,0.202,0.595,0.516c0.018,0.523,0.04,1.079-0.105,1.572c-0.239,0.805-0.854,1.269-1.706,1.37
		c-0.267,0.032-0.539,0.031-0.854,0.046c0,0.714,0.002,1.399-0.001,2.085c-0.005,1.165-0.484,1.64-1.65,1.64
		c-0.459,0-0.918,0.004-1.377,0.001c-0.792-0.005-1.316-0.505-1.353-1.304c-0.019-0.402-0.006-0.806-0.006-1.206
		c-0.001-0.388,0-0.772,0-1.205c-0.219-0.012-0.413-0.022-0.606-0.034c-1.275-0.076-2.063-0.886-2.079-2.164
		c-0.014-1.12-0.016-2.238-0.009-3.358c0.009-1.459-0.468-2.716-1.458-3.797c-1.218-1.329-1.91-2.902-2.15-4.692
		c-0.591-4.41,2.589-8.735,6.976-9.457c4.874-0.801,9.258,2.341,9.981,7.222c0.383,2.581-0.326,4.904-2.064,6.857
		c-0.929,1.044-1.486,2.194-1.517,3.596c-0.01,0.407-0.281,0.668-0.639,0.668c-0.375,0-0.65-0.28-0.644-0.708
		c0.022-1.582,0.535-2.982,1.614-4.151c1.199-1.301,1.889-2.811,2.031-4.586c0.285-3.551-2.305-6.95-5.819-7.6
		c-4.777-0.883-8.977,2.813-8.67,7.657c0.104,1.624,0.701,3.079,1.813,4.275c1.269,1.366,1.867,2.96,1.84,4.812
		c-0.015,1.02,0,2.038,0.005,3.059C22.405,32.221,22.836,32.544,23.783,32.327z M25.125,22.842c0,3.195,0,6.354,0,9.506
		c0.604,0,1.169,0,1.75,0c0-3.181,0-6.328,0-9.506C26.284,22.842,25.718,22.842,25.125,22.842z M25.121,33.701
		c0,0.825,0,1.617,0,2.4c0.599,0,1.164,0,1.751,0c0-0.813,0-1.594,0-2.4C26.288,33.701,25.722,33.701,25.121,33.701z M26.877,20.381
		c-0.618,0-1.192,0-1.763,0c0,0.389,0,0.739,0,1.102c0.601,0,1.175,0,1.763,0C26.877,21.107,26.877,20.767,26.877,20.381z
		 M26.618,19.017c-0.211-0.629-0.403-1.202-0.596-1.776c-0.03,0.004-0.061,0.008-0.089,0.011c-0.192,0.576-0.384,1.15-0.59,1.766
		C25.773,19.017,26.152,19.017,26.618,19.017z"/>
	<path fill-rule="evenodd" clip-rule="evenodd" d="M25.345,7.387c0-0.142-0.007-0.285,0.001-0.427
		c0.024-0.369,0.24-0.584,0.593-0.611c0.336-0.025,0.604,0.154,0.649,0.491c0.049,0.361,0.051,0.74,0.002,1.102
		c-0.047,0.336-0.309,0.507-0.653,0.482c-0.344-0.024-0.548-0.221-0.586-0.566c-0.016-0.155-0.001-0.313-0.001-0.47
		C25.348,7.387,25.346,7.387,25.345,7.387z"/>
	<path fill-rule="evenodd" clip-rule="evenodd" d="M33.415,11.671c-0.088-0.066-0.341-0.164-0.411-0.337
		c-0.081-0.192-0.071-0.496,0.033-0.671c0.165-0.275,0.409-0.529,0.679-0.701c0.172-0.109,0.482-0.133,0.666-0.05
		c0.165,0.076,0.312,0.338,0.341,0.537C34.778,10.833,33.943,11.661,33.415,11.671z"/>
	<path fill-rule="evenodd" clip-rule="evenodd" d="M33.471,25.914c0.206,0.094,0.369,0.132,0.481,0.229
		c0.224,0.197,0.435,0.415,0.628,0.644c0.238,0.283,0.222,0.592-0.032,0.852c-0.252,0.26-0.57,0.286-0.85,0.051
		c-0.249-0.21-0.501-0.442-0.67-0.716c-0.103-0.164-0.116-0.456-0.04-0.636C33.064,26.159,33.304,26.052,33.471,25.914z"/>
	<path fill-rule="evenodd" clip-rule="evenodd" d="M19.071,11.023c0.001,0.485-0.541,0.831-0.937,0.554
		c-0.31-0.216-0.59-0.506-0.803-0.817c-0.274-0.401,0.064-0.948,0.544-0.949C18.266,9.809,19.07,10.625,19.071,11.023z"/>
	<path fill-rule="evenodd" clip-rule="evenodd" d="M18.554,25.974c0.088,0.067,0.337,0.166,0.411,0.339
		c0.08,0.19,0.074,0.496-0.03,0.67c-0.164,0.274-0.411,0.527-0.681,0.699c-0.171,0.109-0.483,0.137-0.665,0.054
		c-0.162-0.074-0.304-0.339-0.331-0.537C17.204,26.8,18.019,25.982,18.554,25.974z"/>
	<path fill-rule="evenodd" clip-rule="evenodd" d="M14.893,19.484c-0.171-0.013-0.346-0.009-0.512-0.045
		c-0.342-0.075-0.508-0.308-0.491-0.654c0.016-0.328,0.198-0.544,0.523-0.58c0.297-0.032,0.602-0.03,0.9-0.013
		c0.375,0.02,0.63,0.29,0.632,0.626c0.002,0.336-0.247,0.599-0.624,0.642c-0.141,0.016-0.286,0.002-0.429,0.002
		C14.893,19.471,14.893,19.477,14.893,19.484z"/>
	<path fill-rule="evenodd" clip-rule="evenodd" d="M37.054,18.173c0.157,0.008,0.316,0.003,0.472,0.024
		c0.349,0.045,0.55,0.265,0.563,0.602c0.013,0.359-0.189,0.608-0.555,0.649c-0.297,0.034-0.602,0.035-0.9,0.008
		c-0.393-0.035-0.61-0.292-0.603-0.65c0.009-0.357,0.239-0.586,0.637-0.62c0.128-0.012,0.259-0.002,0.387-0.002
		C37.054,18.18,37.054,18.177,37.054,18.173z"/>
</g>
</svg>
