<?xml version="1.0" encoding="utf-8"?>
<!-- Generator: Adobe Illustrator 16.0.0, SVG Export Plug-In . SVG Version: 6.00 Build 0)  -->
<!DOCTYPE svg PUBLIC "-//W3C//DTD SVG 1.1//EN" "http://www.w3.org/Graphics/SVG/1.1/DTD/svg11.dtd">
<svg version="1.1" id="Layer_1" xmlns="http://www.w3.org/2000/svg" xmlns:xlink="http://www.w3.org/1999/xlink" x="0px" y="0px"
	 width="51.455px" height="45.396px" viewBox="0 0 51.455 45.396" enable-background="new 0 0 51.455 45.396" xml:space="preserve">
<path d="M45.074,2.147c1.294,0,2.516,0.508,3.439,1.431c0.922,0.923,1.431,2.145,1.431,3.438v31.365
	c0,1.295-0.509,2.516-1.431,3.439c-0.924,0.922-2.146,1.43-3.439,1.43H6.38c-1.294,0-2.515-0.508-3.438-1.43
	c-0.923-0.924-1.432-2.145-1.432-3.439V7.017c0-1.294,0.508-2.515,1.432-3.438C3.865,2.656,5.086,2.147,6.38,2.147H45.074
	 M6.38,41.352h38.694c1.638,0,2.971-1.334,2.971-2.971V10.937c0-0.558-0.452-1.011-1.01-1.011H4.42
	c-0.559,0-1.011,0.453-1.011,1.011v27.444C3.41,40.018,4.743,41.352,6.38,41.352 M45.074,1.136H6.38c-3.234,0-5.88,2.646-5.88,5.88
	v31.365c0,3.232,2.646,5.879,5.88,5.879h38.694c3.234,0,5.881-2.646,5.881-5.879V7.017C50.955,3.782,48.309,1.136,45.074,1.136
	L45.074,1.136z M6.38,40.341c-1.078,0-1.96-0.881-1.96-1.959V10.937h42.615v27.444c0,1.078-0.883,1.959-1.961,1.959H6.38
	L6.38,40.341z"/>
<g>
	<path d="M33.568,13.354c0.254,0,0.46,0.206,0.46,0.459s-0.206,0.459-0.46,0.459c-1.672,0-3.23,1.001-3.97,2.552
		c-0.136,0.284-0.13,0.615,0.013,0.896c0.33,0.644,0.497,1.308,0.497,1.974c0,0.559,0.452,1.011,1.011,1.011
		c0.253,0,0.459,0.207,0.459,0.459v3.018c0,0.313,0.144,0.605,0.39,0.798c0.179,0.14,0.398,0.213,0.621,0.213
		c0.082,0,0.165-0.01,0.246-0.029l1.438-0.36c0.286-0.073,0.526-0.265,0.658-0.527l1.659-3.317c0.093-0.188,0.274-0.255,0.411-0.255
		c0.07,0,0.14,0.017,0.202,0.048c0.227,0.113,0.319,0.391,0.207,0.616l-1.961,3.922c-0.06,0.12-0.17,0.207-0.301,0.241l-2.806,0.702
		c-0.45,0.112-0.766,0.516-0.766,0.979v1.913c0,0.386,0.222,0.739,0.569,0.91l3.093,1.497c0.091,0.045,0.165,0.118,0.21,0.208
		l1.96,3.922c0.073,0.148,0.047,0.281,0.025,0.348c-0.022,0.067-0.083,0.192-0.231,0.268c-0.065,0.031-0.132,0.048-0.205,0.048
		c-0.137,0-0.317-0.065-0.411-0.256l-1.736-3.471c-0.101-0.2-0.264-0.36-0.463-0.457l-1.359-0.659
		c-0.139-0.067-0.29-0.101-0.44-0.101c-0.188,0-0.373,0.052-0.536,0.154c-0.296,0.184-0.475,0.508-0.475,0.856v0.046
		c0,1.337-0.466,2.645-1.313,3.683c-0.559,0.685-1.265,1.232-2.055,1.604v-16.56c0-1.368-1.114-2.481-2.482-2.481
		s-2.481,1.113-2.481,2.481v16.56c-0.79-0.372-1.497-0.92-2.056-1.604c-0.847-1.038-1.313-2.346-1.313-3.683v-0.046
		c0-0.349-0.179-0.673-0.474-0.856c-0.164-0.103-0.35-0.154-0.537-0.154c-0.149,0-0.3,0.033-0.44,0.101l-1.36,0.659
		c-0.201,0.097-0.364,0.257-0.464,0.457l-1.738,3.475c-0.092,0.187-0.272,0.252-0.41,0.252c-0.073,0-0.14-0.017-0.203-0.048
		c-0.227-0.113-0.319-0.39-0.207-0.617l1.961-3.92c0.045-0.092,0.12-0.165,0.21-0.208l3.092-1.497
		c0.349-0.171,0.569-0.522,0.569-0.91v-1.913c0-0.463-0.316-0.868-0.766-0.979l-2.806-0.698c-0.13-0.032-0.238-0.121-0.298-0.239
		l-1.962-3.926c-0.073-0.146-0.047-0.28-0.025-0.347c0.022-0.068,0.082-0.192,0.23-0.266c0.065-0.033,0.134-0.05,0.205-0.05
		c0.138,0,0.318,0.067,0.412,0.256l1.658,3.316c0.132,0.263,0.373,0.456,0.659,0.527l1.437,0.358
		c0.081,0.02,0.163,0.029,0.245,0.029c0.224,0,0.443-0.073,0.623-0.213c0.246-0.192,0.388-0.485,0.388-0.798v-3.018
		c0-0.253,0.207-0.459,0.46-0.459c0.558,0,1.011-0.452,1.011-1.011c0-0.666,0.167-1.33,0.497-1.974
		c0.144-0.281,0.148-0.612,0.012-0.896c-0.74-1.55-2.298-2.551-3.97-2.551c-0.253,0-0.459-0.206-0.459-0.459
		s0.207-0.459,0.459-0.459c1.725,0,3.357,0.845,4.369,2.26c0.196,0.274,0.506,0.423,0.823,0.423c0.17,0,0.343-0.043,0.5-0.133
		c0.688-0.393,1.411-0.592,2.149-0.592s1.46,0.199,2.149,0.592c0.157,0.09,0.331,0.133,0.501,0.133c0.317,0,0.628-0.149,0.823-0.424
		C30.212,14.2,31.845,13.354,33.568,13.354 M33.568,12.344c-2.095,0-4.018,1.043-5.19,2.686c-0.785-0.449-1.682-0.725-2.65-0.725
		s-1.864,0.276-2.65,0.725c-1.172-1.641-3.095-2.684-5.191-2.684c-0.812,0-1.47,0.658-1.47,1.47c0,0.812,0.659,1.47,1.47,1.47
		c1.333,0,2.5,0.806,3.058,1.976c-0.376,0.735-0.607,1.554-0.607,2.434c-0.812,0-1.471,0.659-1.471,1.47v3.018l-1.436-0.357
		l-1.659-3.315c-0.257-0.516-0.776-0.814-1.316-0.814c-0.221,0-0.445,0.05-0.656,0.155c-0.728,0.365-1.021,1.247-0.657,1.972
		l1.96,3.922c0.192,0.384,0.541,0.665,0.957,0.77l2.807,0.696v1.913l-3.091,1.497c-0.292,0.141-0.529,0.376-0.674,0.667l-1.96,3.92
		c-0.362,0.726-0.069,1.608,0.657,1.973c0.212,0.104,0.435,0.153,0.657,0.153c0.539,0,1.059-0.294,1.315-0.813l1.736-3.472
		l1.36-0.658v0.046c0,3.277,2.313,6.017,5.391,6.693V21.166c0-0.812,0.659-1.47,1.47-1.47c0.812,0,1.47,0.659,1.47,1.47v17.966
		c3.077-0.677,5.391-3.416,5.391-6.693v-0.046l1.358,0.658l1.736,3.472c0.258,0.519,0.776,0.813,1.315,0.813
		c0.222,0,0.445-0.049,0.657-0.153c0.727-0.364,1.021-1.247,0.656-1.973l-1.958-3.92c-0.146-0.291-0.383-0.524-0.673-0.665
		l-3.093-1.499v-1.913l2.806-0.7c0.417-0.104,0.769-0.388,0.96-0.771l1.96-3.92c0.363-0.725,0.068-1.607-0.656-1.972
		c-0.211-0.105-0.436-0.155-0.656-0.155c-0.539,0-1.059,0.298-1.316,0.814l-1.658,3.315l-1.438,0.359v-3.018
		c0-0.812-0.659-1.47-1.47-1.47c0-0.88-0.231-1.699-0.608-2.434c0.559-1.172,1.725-1.976,3.058-1.976
		c0.813,0,1.471-0.659,1.471-1.47C35.039,13.002,34.381,12.344,33.568,12.344L33.568,12.344z"/>
</g>
</svg>
