<?xml version="1.0" encoding="utf-8"?>
<!-- Generator: Adobe Illustrator 16.0.0, SVG Export Plug-In . SVG Version: 6.00 Build 0)  -->
<!DOCTYPE svg PUBLIC "-//W3C//DTD SVG 1.1//EN" "http://www.w3.org/Graphics/SVG/1.1/DTD/svg11.dtd">
<svg version="1.1" id="Layer_1" xmlns="http://www.w3.org/2000/svg" xmlns:xlink="http://www.w3.org/1999/xlink" x="0px" y="0px"
	 width="51.455px" height="45.396px" viewBox="0 0 51.455 45.396" enable-background="new 0 0 51.455 45.396" xml:space="preserve">
<g>
	<path fill-rule="evenodd" clip-rule="evenodd" d="M27.451,3.816c-0.171-0.32-0.321-0.586-0.458-0.859
		c-0.309-0.619-0.116-1.267,0.479-1.621c0.144-0.085,0.293-0.162,0.44-0.238c0.732-0.387,1.362-0.201,1.756,0.527
		c1.495,2.779,2.988,5.563,4.485,8.343c1.534,2.854,3.079,5.704,4.599,8.566c0.158,0.296,0.187,0.663,0.262,0.999
		c0.258,1.125,0.521,2.249,0.757,3.377c0.03,0.145-0.068,0.316-0.106,0.474c-0.143-0.053-0.326-0.066-0.423-0.166
		c-0.999-1.009-1.981-2.033-2.966-3.056c-0.076-0.078-0.13-0.18-0.181-0.275c-2.41-4.485-4.822-8.971-7.23-13.454
		c-0.053-0.098-0.115-0.188-0.171-0.278c-0.392,0.064-0.268,0.262-0.153,0.473c1.057,1.959,2.11,3.919,3.163,5.881
		c0.265,0.495,0.257,0.521-0.254,0.787c-0.939,0.493-0.793,0.591-1.326-0.406c-1.363-2.536-2.728-5.071-4.092-7.607
		c-0.277-0.518-0.269-0.547,0.246-0.828C26.655,4.249,27.032,4.044,27.451,3.816z M28.219,4.046
		c2.782,5.174,5.54,10.302,8.316,15.466c0.56-0.3,1.081-0.579,1.638-0.877c-2.776-5.169-5.539-10.308-8.316-15.473
		C29.298,3.464,28.785,3.74,28.219,4.046z M31.19,12.769c-0.072-0.146-0.131-0.27-0.194-0.391c-0.985-1.836-1.972-3.673-2.957-5.509
		c-0.407-0.76-0.407-0.759,0.298-1.218c0.021-0.014,0.027-0.045,0.055-0.098c-0.215-0.396-0.437-0.805-0.676-1.242
		c-0.427,0.232-0.811,0.441-1.216,0.66c1.451,2.698,2.876,5.348,4.316,8.023C30.966,12.906,31.067,12.845,31.19,12.769z
		 M29.589,2.665c-0.189-0.346-0.35-0.668-0.535-0.972c-0.175-0.285-0.451-0.346-0.719-0.173c-0.37,0.238-0.96,0.26-0.954,0.899
		c0,0.04,0.019,0.082,0.039,0.118c0.171,0.327,0.344,0.653,0.531,1.01C28.515,3.243,29.033,2.964,29.589,2.665z M36.959,19.958
		c-0.038,0.061-0.076,0.119-0.117,0.18c0.35,0.293,0.692,0.596,1.055,0.873c0.086,0.063,0.265,0.087,0.354,0.041
		c0.167-0.088,0.437-0.255,0.426-0.363c-0.053-0.482-0.189-0.957-0.307-1.484C37.854,19.48,37.407,19.72,36.959,19.958z
		 M39.033,22.122c-0.072-0.289-0.123-0.49-0.184-0.734c-0.151,0.089-0.249,0.146-0.391,0.23
		C38.649,21.786,38.809,21.925,39.033,22.122z"/>
	<path fill-rule="evenodd" clip-rule="evenodd" d="M23.252,27.739c-2.561-0.012-4.658-2.141-4.646-4.716
		c0.014-2.474,2.184-4.622,4.662-4.612c2.552,0.009,4.67,2.147,4.661,4.708C27.921,25.647,25.792,27.751,23.252,27.739z
		 M27.237,23.095c0.001-2.256-1.711-3.982-3.952-3.985c-2.25-0.003-3.975,1.716-3.978,3.964c-0.003,2.251,1.702,3.972,3.953,3.988
		C25.486,27.077,27.237,25.333,27.237,23.095z"/>
	<path fill-rule="evenodd" clip-rule="evenodd" d="M29.198,35.893c2.563,0.008,4.653,2.129,4.643,4.711
		c-0.011,2.482-2.162,4.619-4.653,4.615c-2.546-0.002-4.678-2.15-4.672-4.701C24.521,37.995,26.657,35.885,29.198,35.893z
		 M33.146,40.526c-0.009-2.25-1.731-3.955-3.986-3.947c-2.247,0.01-3.954,1.738-3.944,3.99c0.011,2.252,1.732,3.955,3.987,3.949
		C31.446,44.512,33.153,42.784,33.146,40.526z"/>
	<path fill-rule="evenodd" clip-rule="evenodd" d="M7.615,35.259c2.516-0.006,4.654,2.096,4.665,4.584
		c0.013,2.602-2.101,4.746-4.674,4.75c-2.507,0-4.646-2.156-4.647-4.68C2.959,37.38,5.074,35.266,7.615,35.259z M11.586,39.966
		c0.035-2.248-1.666-3.996-3.914-4.025c-2.223-0.031-3.982,1.67-4.012,3.875c-0.029,2.273,1.648,4.045,3.863,4.074
		C9.814,43.925,11.553,42.243,11.586,39.966z"/>
	<path fill-rule="evenodd" clip-rule="evenodd" d="M47.776,27.743c-0.004-2.801-2.482-4.789-5.23-4.199
		c-0.276,0.059-0.704,0.379-0.828-0.129c-0.126-0.516,0.402-0.484,0.699-0.542c2.06-0.401,3.768,0.242,5.027,1.9
		c1.213,1.594,1.389,3.373,0.458,5.158c-0.96,1.84-2.534,2.793-4.629,2.742c-3.153-0.072-5.465-3.334-4.541-6.375
		c0.077-0.25,0.132-0.615,0.516-0.504c0.387,0.111,0.234,0.428,0.157,0.691c-0.688,2.354,0.638,4.764,2.942,5.363
		c2.441,0.635,4.782-0.785,5.324-3.236C47.734,28.331,47.742,28.034,47.776,27.743z"/>
	<path fill-rule="evenodd" clip-rule="evenodd" d="M16.573,21.983c-0.286-0.19-0.526-0.304-0.7-0.481
		c-0.104-0.109-0.105-0.318-0.154-0.482c0.168-0.033,0.383-0.148,0.494-0.084c0.613,0.351,1.215,0.728,1.785,1.143
		c0.1,0.072,0.123,0.453,0.033,0.545c-0.492,0.505-1.021,0.978-1.566,1.427c-0.101,0.084-0.33,0.012-0.498,0.012
		c0.016-0.172-0.031-0.395,0.06-0.506c0.213-0.264,0.491-0.474,0.743-0.707c-0.013-0.056-0.025-0.11-0.039-0.166
		c-0.791,0.142-1.599,0.223-2.372,0.434c-3.386,0.923-5.245,3.304-5.996,6.595c-0.293,1.281-0.29,2.629-0.419,3.947
		c-0.009,0.084,0.037,0.189,0.004,0.254c-0.076,0.15-0.186,0.283-0.281,0.426c-0.128-0.127-0.363-0.254-0.367-0.383
		c-0.025-0.758-0.043-1.521,0.023-2.275c0.195-2.232,0.793-4.342,2.165-6.162c1.546-2.049,3.68-3.052,6.175-3.383
		c0.223-0.03,0.445-0.05,0.668-0.079C16.379,22.05,16.428,22.028,16.573,21.983z"/>
	<path fill-rule="evenodd" clip-rule="evenodd" d="M44.515,34.63c-0.134,0.219-0.239,0.463-0.409,0.648
		c-0.091,0.1-0.287,0.107-0.436,0.156c-0.05-0.164-0.188-0.369-0.134-0.482c0.3-0.6,0.628-1.189,0.995-1.748
		c0.066-0.104,0.452-0.141,0.547-0.051c0.49,0.457,0.949,0.953,1.38,1.467c0.091,0.109,0.018,0.355,0.021,0.539
		c-0.17-0.025-0.374,0.006-0.499-0.082c-0.208-0.143-0.365-0.357-0.64-0.643c0,0.305-0.006,0.496,0.002,0.688
		c0.049,1.408-0.075,2.793-0.555,4.129c-0.988,2.762-3.173,4.131-6.061,3.639c-1.294-0.219-2.538-0.732-3.803-1.117
		c-0.097-0.027-0.219-0.07-0.267-0.145c-0.1-0.15-0.158-0.328-0.232-0.492c0.182-0.039,0.39-0.158,0.538-0.104
		c0.73,0.258,1.432,0.594,2.166,0.836c1.108,0.369,2.257,0.512,3.42,0.352c1.329-0.188,2.344-0.877,3.026-2.031
		C44.594,38.468,44.749,36.589,44.515,34.63z"/>
	<path fill-rule="evenodd" clip-rule="evenodd" d="M8.1,18.337c0.748,0.691,1.404,1.297,2.061,1.9
		c0.088,0.082,0.223,0.146,0.259,0.246c0.062,0.168,0.06,0.357,0.085,0.537c-0.184-0.01-0.43,0.052-0.541-0.043
		c-0.632-0.534-1.231-1.107-1.843-1.666c-0.151-0.138-0.308-0.271-0.505-0.444c-0.68,0.622-1.352,1.236-2.021,1.849
		c-0.115,0.105-0.217,0.256-0.352,0.299c-0.152,0.051-0.336,0.003-0.506-0.002c0.02-0.169-0.023-0.396,0.071-0.496
		c0.353-0.375,0.751-0.711,1.132-1.061c0.367-0.338,0.734-0.676,1.164-1.068c-0.551-0.506-1.076-0.988-1.603-1.472
		c-0.229-0.21-0.487-0.399-0.671-0.642c-0.096-0.126-0.059-0.352-0.081-0.531c0.183,0.014,0.425-0.043,0.536,0.053
		c0.732,0.629,1.436,1.292,2.149,1.943c0.05,0.045,0.106,0.082,0.205,0.156c0.673-0.613,1.343-1.227,2.015-1.838
		c0.102-0.094,0.19-0.232,0.311-0.268c0.168-0.052,0.359-0.029,0.541-0.039c-0.025,0.181,0.014,0.428-0.09,0.529
		c-0.588,0.582-1.209,1.133-1.824,1.688C8.454,18.092,8.294,18.193,8.1,18.337z"/>
	<path fill-rule="evenodd" clip-rule="evenodd" d="M33.523,28.569c0.683,0.627,1.327,1.219,1.974,1.811
		c0.102,0.096,0.248,0.17,0.293,0.283c0.065,0.166,0.056,0.359,0.076,0.539c-0.182-0.012-0.424,0.045-0.536-0.051
		c-0.618-0.523-1.207-1.084-1.805-1.629c-0.162-0.152-0.33-0.297-0.531-0.48c-0.689,0.627-1.359,1.24-2.031,1.852
		c-0.116,0.105-0.217,0.254-0.353,0.301c-0.149,0.047-0.33,0.002-0.5,0c0.019-0.17-0.029-0.396,0.062-0.492
		c0.381-0.396,0.803-0.756,1.207-1.131c0.352-0.324,0.7-0.648,1.092-1.008c-0.672-0.621-1.303-1.201-1.934-1.783
		c-0.114-0.104-0.273-0.188-0.335-0.318c-0.073-0.158-0.065-0.355-0.093-0.533c0.183,0.008,0.429-0.057,0.54,0.041
		c0.658,0.555,1.286,1.15,1.921,1.732c0.127,0.113,0.257,0.225,0.429,0.375c0.666-0.605,1.326-1.207,1.985-1.807
		c0.114-0.104,0.215-0.254,0.35-0.299c0.168-0.059,0.363-0.029,0.548-0.037c-0.031,0.18,0,0.426-0.104,0.529
		c-0.589,0.584-1.211,1.131-1.82,1.691C33.82,28.28,33.689,28.411,33.523,28.569z"/>
	<path fill-rule="evenodd" clip-rule="evenodd" d="M16.318,35.046c-0.698,0.639-1.357,1.242-2.018,1.848
		c-0.103,0.094-0.192,0.225-0.313,0.266c-0.168,0.057-0.36,0.041-0.541,0.059c0.035-0.193,0-0.453,0.113-0.566
		c0.712-0.695,1.457-1.359,2.235-2.076c-0.672-0.619-1.315-1.213-1.958-1.807c-0.103-0.096-0.244-0.168-0.297-0.283
		c-0.073-0.162-0.08-0.354-0.115-0.531c0.195,0.012,0.455-0.051,0.576,0.051c0.684,0.578,1.336,1.197,1.999,1.801
		c0.089,0.082,0.181,0.16,0.322,0.283c0.673-0.613,1.337-1.23,2.021-1.826c0.234-0.207,0.486-0.682,0.837-0.309
		c0.367,0.389-0.151,0.588-0.369,0.799c-0.629,0.609-1.285,1.189-1.97,1.82c0.656,0.604,1.274,1.172,1.893,1.74
		c0.102,0.094,0.203,0.188,0.305,0.281c0.183,0.168,0.39,0.346,0.16,0.605c-0.227,0.256-0.43,0.086-0.617-0.084
		C17.844,36.44,17.105,35.766,16.318,35.046z"/>
	<path fill-rule="evenodd" clip-rule="evenodd" d="M25.465,35.52c0-0.254-0.047-0.518,0.016-0.756
		c0.049-0.188,0.23-0.346,0.354-0.514c0.109,0.16,0.301,0.318,0.313,0.488c0.041,0.531,0.008,1.068,0.02,1.602
		c0.007,0.391-0.173,0.545-0.546,0.473c-0.626-0.117-1.257-0.223-1.874-0.379c-0.146-0.037-0.25-0.254-0.372-0.389
		c0.173-0.088,0.339-0.23,0.519-0.246c0.229-0.021,0.469,0.059,0.609,0.08c-0.385-0.947-0.854-1.9-1.16-2.9
		c-0.416-1.363-0.48-2.783-0.422-4.203c0.011-0.254,0.01-0.596,0.385-0.516c0.13,0.027,0.279,0.352,0.277,0.541
		c-0.017,1.701,0.092,3.385,0.728,4.982c0.251,0.629,0.631,1.207,0.952,1.805C25.33,35.567,25.397,35.546,25.465,35.52z"/>
</g>
</svg>
