<?xml version="1.0" encoding="utf-8"?>
<!-- Generator: Adobe Illustrator 16.0.0, SVG Export Plug-In . SVG Version: 6.00 Build 0)  -->
<!DOCTYPE svg PUBLIC "-//W3C//DTD SVG 1.1//EN" "http://www.w3.org/Graphics/SVG/1.1/DTD/svg11.dtd">
<svg version="1.1" id="Layer_1" xmlns="http://www.w3.org/2000/svg" xmlns:xlink="http://www.w3.org/1999/xlink" x="0px" y="0px"
	 width="61.352px" height="75.519px" viewBox="0 0 61.352 75.519" enable-background="new 0 0 61.352 75.519" xml:space="preserve">
<g>
	<path fill="#662D91" d="M60.696,35.072c-1.38-1.779-2.653-3.629-3.841-5.54c-1.123-1.806-2.02-3.671-2.083-5.888
		c-0.034-1.213-0.343-2.429-0.775-3.594c-0.8-2.151-1.854-4.18-2.981-6.168c-1.799-3.17-4.188-5.841-7.078-8.055
		c-1.967-1.506-4.103-2.717-6.408-3.636c-2.263-0.903-4.612-1.482-7.021-1.751c-2.236-0.25-4.478-0.202-6.723,0.147
		c-1.979,0.307-3.901,0.77-5.772,1.468c-3.535,1.319-6.647,3.322-9.326,5.951c-3.101,3.044-5.375,6.63-6.736,10.789
		c-0.777,2.375-1.292,4.789-1.342,7.285c-0.039,1.894-0.053,3.784,0.311,5.668c0.257,1.328,0.528,2.649,0.941,3.93
		c1.106,3.426,2.895,6.483,5.189,9.25c0.143,0.171,0.264,0.395,0.557,0.431c0.08-0.197-0.008-0.313-0.07-0.431
		c-0.93-1.799-1.558-3.704-2.042-5.664c-0.565-2.282-0.892-4.601-0.944-6.949c-0.03-1.346-0.007-2.689,0.149-4.041
		c0.181-1.575,0.393-3.134,0.751-4.676c0.626-2.682,1.588-5.228,2.957-7.623c2.042-3.572,4.872-6.334,8.472-8.307
		c1.885-1.033,3.847-1.745,5.875-2.187c1.031-0.198,8.731-1.468,16.936,3c1.002,0.648,1.953,1.378,2.853,2.192
		c4.445,4.025,6.841,9.107,7.387,15.048c0.197,2.146-0.041,4.288-0.506,6.406c-0.682,3.102-1.954,5.926-3.832,8.479
		c-1.795,2.441-4.005,4.426-6.605,5.979c-1.163,0.695-2.437,1.159-3.63,1.781c-2.76,1.439-5.099,3.406-7,5.876
		c-2.588,3.364-3.956,7.177-3.964,11.418c-0.003,1.996-0.318,3.119,0.412,5.908c0.347,1.328,0.547,2.451,1.202,3.652
		c0.073,0.134,0.149,0.32,0.322,0.295c0.194-0.029,0.153-0.246,0.186-0.39c0.132-0.591,0.142-1.384,0.312-1.964
		c0.5-1.715,1.759-4.501,2.645-6.326c1.916-3.944,5.344-5.827,9.404-7.394c1.889-0.729,3.853-1.145,5.853-1.391
		c1.512-0.187,3.034-0.236,4.559-0.299c1.754-0.07,3.477,0.404,5.255,0.08c2.681-0.493,3.394-2.123,2.637-4.465
		c-0.208-0.646-0.462-1.273-0.634-1.938c-0.266-1.019-0.041-1.827,0.713-2.54c0.55-0.52,0.664-1.201,0.349-1.883
		c-0.163-0.355-0.363-0.686-0.65-0.967c-0.511-0.498-0.48-0.626,0.089-1.019c0.305-0.211,0.639-0.412,0.871-0.692
		c0.886-1.071,1.005-1.49,0.197-2.44c-0.526-0.616-0.469-1.108,0.08-1.713c0.636-0.698,1.411-1.235,2.12-1.851
		C61.551,37.253,61.686,36.348,60.696,35.072"/>
	<path d="M16.07,51.236c0.021-0.035,0.042-0.07,0.063-0.107c-0.015-0.027-0.029-0.057-0.044-0.087
		C16.088,51.107,16.082,51.174,16.07,51.236"/>
	<path fill="#662D91" d="M21.807,64.648c-0.757,0.247-1.129-0.081-1.242-0.806c-1.017-6.556-0.743-12.896,3.019-18.687
		c1.67-2.57,3.989-4.391,6.59-5.91c0.456-0.265,0.808-0.109,1.12,0.227c0.43,0.459,0.854,0.927,1.264,1.405
		c1.473,1.722,1.422,1.649-0.43,2.887c-4.489,2.996-7.988,6.796-9.376,12.188c-0.615,2.388-0.733,4.81-0.265,7.24
		C22.616,63.87,22.684,64.477,21.807,64.648"/>
	<path fill="#27AAE1" d="M44.373,39.697c-0.813-0.084-1.857-0.162-2.893-0.307c-0.833-0.116-1.458,0.125-1.987,0.788
		c-0.602,0.753-1.262,1.461-1.915,2.173c-0.546,0.594-1.122,0.645-1.13-0.293c-0.025-3.184-1.592-4.986-4.654-5.669
		c-0.787-0.177-0.785-0.692-0.076-1.104c0.871-0.506,1.719-1.064,2.635-1.471c0.725-0.323,1.007-0.775,1.03-1.54
		c0.028-0.919,0.168-1.834,0.243-2.753c0.035-0.426,0.037-0.929,0.426-1.127c0.396-0.202,0.655,0.278,0.926,0.5
		c0.68,0.558,1.372,1.117,1.951,1.771c0.627,0.707,1.309,0.8,2.148,0.55c0.885-0.264,1.781-0.493,2.679-0.713
		c0.313-0.076,0.684-0.213,0.93,0.131c0.205,0.288,0.041,0.579-0.125,0.818c-1.775,2.535-1.577,4.948,0.422,7.263
		C45.455,39.262,45.387,39.617,44.373,39.697"/>
	<path fill="#662D91" d="M16.655,53.472c-0.183,0.228-0.278,0.399-0.422,0.513c-0.17,0.137-0.389,0.197-0.6,0.066
		c-0.209-0.131-0.128-0.314-0.082-0.501c0.397-1.586,0.729-3.182,0.71-4.833c-0.037-3.282-1.053-6.2-3.228-8.678
		c-1.029-1.174-1.051-1.156,0.441-1.529c0.338-0.086,0.679-0.162,1.018-0.246c0.525-0.131,0.902,0.058,1.282,0.443
		c3.172,3.22,3.25,7.012,2.166,11.074C17.594,51.085,16.931,52.253,16.655,53.472"/>
	<path fill="#662D91" d="M30.646,15.291c1.007,0.71,1.814,0.237,2.604-0.572c0.475-0.487,0.541-0.432,0.652,0.225
		c0.033,0.199,0.082,0.413,0.046,0.605c-0.153,0.826,0.254,1.29,0.953,1.61c0.327,0.15,0.805,0.314,0.804,0.66
		c0,0.37-0.531,0.43-0.834,0.466c-1.244,0.151-1.191,1.246-1.508,2.033c-0.197,0.491-0.299,0.573-0.627,0.139
		c-0.171-0.227-0.408-0.414-0.545-0.658c-0.344-0.612-0.854-0.646-1.465-0.546c-0.383,0.063-0.902,0.29-1.139-0.074
		c-0.195-0.302,0.209-0.695,0.435-0.933c0.725-0.764,0.419-1.49,0.044-2.244c-0.108-0.218-0.285-0.477-0.141-0.684
		C30.071,15.107,30.339,15.333,30.646,15.291"/>
	<path fill="#27AAE1" d="M10.329,53.02c1.008,0.712,1.814,0.238,2.604-0.57c0.475-0.485,0.541-0.432,0.651,0.225
		c0.034,0.199,0.083,0.414,0.047,0.605c-0.154,0.825,0.254,1.289,0.953,1.609c0.329,0.15,0.806,0.314,0.805,0.66
		c-0.001,0.369-0.533,0.43-0.834,0.466c-1.244,0.151-1.191,1.245-1.508,2.034c-0.198,0.491-0.299,0.572-0.626,0.137
		c-0.171-0.227-0.409-0.412-0.546-0.656c-0.343-0.613-0.853-0.646-1.464-0.547c-0.384,0.063-0.904,0.29-1.139-0.074
		c-0.195-0.301,0.208-0.695,0.435-0.934c0.725-0.763,0.418-1.489,0.044-2.243c-0.108-0.218-0.286-0.478-0.142-0.685
		C9.754,52.838,10.024,53.064,10.329,53.02"/>
	<path fill="#27AAE1" d="M9.99,37.387c-0.106-0.109-0.129-0.126-0.143-0.148c-0.701-1.134-1.687-1.432-2.945-1.066
		c-0.409,0.117-0.548-0.111-0.345-0.498c0.025-0.049,0.044-0.102,0.078-0.143c0.778-0.919,0.811-1.859,0.11-2.842
		c-0.113-0.16-0.289-0.375-0.116-0.584c0.157-0.19,0.402-0.15,0.602-0.066c1.007,0.42,1.799,0.268,2.551-0.623
		c0.589-0.696,0.896-0.581,0.905,0.295c0.011,1.117,0.548,1.721,1.494,2.119c0.21,0.089,0.488,0.193,0.483,0.482
		c-0.004,0.266-0.273,0.313-0.467,0.367c-1.136,0.32-1.67,1.059-1.671,2.237C10.526,37.264,10.402,37.652,9.99,37.387"/>
	<path fill="#662D91" d="M20.283,32.789c0.156,0.013,0.188,0.152,0.233,0.256c0.218,0.499,0.583,0.762,1.134,0.785
		c0.173,0.008,0.399,0.012,0.45,0.24c0.041,0.182-0.104,0.307-0.234,0.402c-0.447,0.332-0.466,0.779-0.371,1.269
		c0.029,0.149,0.167,0.318,0.004,0.456c-0.159,0.137-0.335,0.021-0.448-0.07c-0.498-0.405-0.947-0.301-1.426,0.045
		c-0.318,0.23-0.543,0.096-0.452-0.287c0.145-0.611,0.005-1.066-0.508-1.44c-0.229-0.167-0.24-0.431,0.106-0.464
		c0.667-0.066,1.105-0.364,1.277-1.028C20.075,32.854,20.163,32.782,20.283,32.789"/>
	<path fill="#27AAE1" d="M25.018,26.862c0.182,0.04,0.25,0.178,0.292,0.308c0.158,0.498,0.49,0.71,1.007,0.702
		c0.192-0.003,0.447-0.001,0.528,0.226c0.085,0.239-0.135,0.365-0.289,0.487c-0.389,0.305-0.405,0.684-0.324,1.137
		c0.109,0.61-0.003,0.699-0.536,0.426c-0.439-0.225-0.819-0.291-1.219,0.055c-0.118,0.101-0.288,0.201-0.447,0.087
		c-0.136-0.098-0.086-0.271-0.048-0.397c0.155-0.519,0.013-0.911-0.439-1.21c-0.147-0.097-0.338-0.236-0.3-0.428
		c0.041-0.21,0.279-0.217,0.457-0.231c0.508-0.042,0.792-0.336,0.996-0.776C24.759,27.105,24.796,26.877,25.018,26.862"/>
	<path fill="#662D91" d="M25.459,20.738c0.181,0.041,0.251,0.178,0.292,0.308c0.157,0.498,0.49,0.71,1.005,0.701
		c0.192-0.003,0.447-0.001,0.529,0.227c0.085,0.239-0.135,0.364-0.29,0.485c-0.388,0.305-0.405,0.686-0.324,1.138
		c0.11,0.61-0.002,0.699-0.536,0.426c-0.439-0.225-0.819-0.29-1.218,0.055c-0.118,0.102-0.288,0.201-0.448,0.087
		c-0.137-0.098-0.085-0.271-0.048-0.397c0.155-0.52,0.013-0.911-0.44-1.21c-0.147-0.098-0.337-0.235-0.3-0.428
		c0.042-0.211,0.279-0.217,0.457-0.231c0.508-0.042,0.792-0.336,0.995-0.776C25.201,20.981,25.238,20.752,25.459,20.738"/>
	<path fill="#27AAE1" d="M15.133,22.457c-0.148-0.06-0.217-0.069-0.259-0.108c-0.46-0.424-0.921-0.295-1.383-0.007
		c-0.119,0.074-0.238,0.2-0.383,0.096c-0.138-0.1-0.09-0.272-0.048-0.396c0.2-0.586-0.08-0.969-0.503-1.318
		c-0.319-0.264-0.404-0.511,0.145-0.549c0.572-0.04,0.914-0.362,1.132-0.857c0.168-0.382,0.353-0.453,0.544-0.019
		c0.218,0.496,0.59,0.718,1.132,0.775c0.517,0.055,0.583,0.259,0.193,0.603c-0.397,0.351-0.558,0.699-0.371,1.221
		C15.404,22.098,15.468,22.431,15.133,22.457"/>
	<path fill="#662D91" d="M18.988,30.518c-0.939-0.665-1.98-0.693-3.077,0.142c-0.502,0.383-1.047,0.188-0.854-0.567
		c0.351-1.367-0.077-2.331-1.2-3.139c-0.558-0.401-0.786-1.109,0.231-1.148c1.437-0.055,2.188-0.822,2.705-2.015
		c0.307-0.708,0.704-1.058,1.103-0.083c0.551,1.348,1.422,2.104,2.964,2.047c0.682-0.026,0.771,0.464,0.27,0.861
		c-1.066,0.842-1.438,1.823-1.046,3.166C20.278,30.447,19.889,30.813,18.988,30.518"/>
	<path fill="#662D91" d="M18.564,66.298c-0.127,0.266-0.168,0.355-0.212,0.445c-0.185,0.36-0.444,0.652-0.877,0.469
		c-0.46-0.197-0.371-0.594-0.21-0.955c0.251-0.567,0.462-1.134,0.537-1.765c0.188-1.596-0.002-3.104-0.783-4.53
		c-0.343-0.628-0.793-1.132-1.39-1.513c-0.372-0.237-0.779-0.543-0.464-1.002c0.333-0.486,0.801-0.229,1.175,0.048
		c1.669,1.233,2.38,2.979,2.643,4.97C19.164,63.849,18.903,65.17,18.564,66.298"/>
	<path fill="#662D91" d="M7.661,25.821c0.487-1.004,1.638-1.406,2.611-0.911c0.938,0.476,1.302,1.613,0.831,2.595
		c-0.483,1.005-1.607,1.378-2.621,0.871C7.478,27.873,7.154,26.864,7.661,25.821 M9.682,25.932
		c-0.462-0.233-0.801,0.004-1.053,0.339c-0.22,0.291,0.046,1.064,0.39,1.182c0.475,0.163,0.874-0.019,1.07-0.458
		C10.291,26.55,10.172,26.15,9.682,25.932"/>
	<path fill="#662D91" d="M27.1,33.311c0.488-1.004,1.638-1.405,2.611-0.91c0.939,0.476,1.302,1.613,0.832,2.596
		c-0.483,1.004-1.608,1.377-2.623,0.869C26.917,35.363,26.593,34.355,27.1,33.311 M29.122,33.423
		c-0.462-0.235-0.801,0.003-1.053,0.338c-0.22,0.29,0.046,1.065,0.389,1.183c0.475,0.162,0.875-0.02,1.073-0.458
		C29.73,34.04,29.612,33.64,29.122,33.423"/>
	<path fill="#27AAE1" d="M21.531,13.567c0.488-1.004,1.638-1.406,2.611-0.912c0.938,0.477,1.302,1.614,0.831,2.595
		c-0.483,1.005-1.606,1.379-2.621,0.871C21.349,15.62,21.024,14.61,21.531,13.567 M23.552,13.679
		c-0.462-0.234-0.8,0.003-1.053,0.338c-0.22,0.291,0.046,1.065,0.39,1.182c0.475,0.163,0.875-0.019,1.071-0.457
		C24.161,14.296,24.042,13.896,23.552,13.679"/>
	<path fill="none" stroke="#27AAE1" stroke-miterlimit="10" d="M24.053,40.439c-0.43,0-0.779-0.35-0.779-0.781
		c0-0.43,0.35-0.78,0.779-0.78c0.431,0,0.781,0.351,0.781,0.78C24.833,40.09,24.484,40.439,24.053,40.439z M24.053,39.002
		c-0.362,0-0.657,0.294-0.657,0.656c0,0.363,0.295,0.658,0.657,0.658c0.364,0,0.659-0.295,0.659-0.658
		C24.711,39.296,24.417,39.002,24.053,39.002z"/>
	<path fill="none" stroke="#27AAE1" stroke-miterlimit="10" d="M32.62,26.619c-0.432,0-0.781-0.35-0.781-0.78
		c0-0.43,0.35-0.78,0.781-0.78c0.43,0,0.779,0.35,0.779,0.78C33.399,26.269,33.05,26.619,32.62,26.619z M32.62,25.181
		c-0.363,0-0.658,0.295-0.658,0.657c0,0.364,0.295,0.658,0.658,0.658c0.361,0,0.658-0.294,0.658-0.658
		C33.278,25.476,32.981,25.181,32.62,25.181z"/>
	<path fill="none" stroke="#662D91" stroke-miterlimit="10" d="M15.525,34.92c-0.43,0-0.78-0.35-0.78-0.78
		c0-0.43,0.35-0.78,0.78-0.78c0.431,0,0.781,0.351,0.781,0.78C16.306,34.57,15.956,34.92,15.525,34.92z M15.525,33.482
		c-0.363,0-0.657,0.294-0.657,0.657c0,0.362,0.294,0.657,0.657,0.657s0.658-0.295,0.658-0.657
		C16.183,33.776,15.888,33.482,15.525,33.482z"/>
	<path fill="none" stroke="#662D91" stroke-miterlimit="10" d="M7.425,30.278c-0.431,0-0.781-0.351-0.781-0.78
		c0-0.431,0.35-0.781,0.781-0.781c0.43,0,0.78,0.351,0.78,0.781C8.205,29.927,7.854,30.278,7.425,30.278z M7.425,28.839
		c-0.363,0-0.658,0.295-0.658,0.659c0,0.362,0.295,0.657,0.658,0.657c0.363,0,0.657-0.295,0.657-0.657
		C8.082,29.135,7.788,28.839,7.425,28.839z"/>
	<path fill="none" stroke="#662D91" stroke-miterlimit="10" d="M20.304,20.5c-0.43,0-0.78-0.35-0.78-0.781
		c0-0.43,0.35-0.781,0.78-0.781c0.431,0,0.781,0.351,0.781,0.781C21.085,20.15,20.735,20.5,20.304,20.5z M20.304,19.063
		c-0.362,0-0.657,0.294-0.657,0.657s0.294,0.658,0.657,0.658c0.363,0,0.658-0.295,0.658-0.658S20.667,19.063,20.304,19.063z"/>
	<path fill="#662D91" d="M21.139,69.36c-0.12-0.014-0.202-0.083-0.239-0.186c-0.179-0.494-0.514-0.816-0.999-1.025
		c-0.32-0.139-0.302-0.326,0-0.521c0.017-0.013,0.035-0.024,0.054-0.031c0.451-0.146,0.75-0.444,0.911-0.89
		c0.048-0.131,0.112-0.266,0.283-0.252c0.157,0.012,0.248,0.133,0.29,0.262c0.15,0.455,0.468,0.715,0.9,0.896
		c0.368,0.157,0.373,0.417,0.008,0.572c-0.468,0.197-0.789,0.492-0.95,0.974C21.361,69.271,21.271,69.354,21.139,69.36
		 M21.764,67.942c-0.067-0.08-0.083-0.115-0.108-0.124c-0.216-0.091-0.35-0.253-0.444-0.463c-0.032-0.071-0.111-0.067-0.143,0.011
		c-0.093,0.225-0.375,0.327-0.441,0.5c-0.085,0.221,0.352,0.23,0.397,0.477c0.006,0.029,0.028,0.058,0.048,0.082
		c0.064,0.078,0.144,0.069,0.171-0.018c0.066-0.209,0.217-0.326,0.398-0.42C21.681,67.966,21.725,67.956,21.764,67.942"/>
	<path fill="#FFFFFF" d="M29.765,72.692c0,0,0.552-0.641,1.194,0v2.383h-1.194V72.692z"/>
</g>
</svg>
