<?xml version="1.0" encoding="utf-8"?>
<!-- Generator: Adobe Illustrator 16.0.0, SVG Export Plug-In . SVG Version: 6.00 Build 0)  -->
<!DOCTYPE svg PUBLIC "-//W3C//DTD SVG 1.1//EN" "http://www.w3.org/Graphics/SVG/1.1/DTD/svg11.dtd">
<svg version="1.1" id="Capa_1" xmlns="http://www.w3.org/2000/svg" xmlns:xlink="http://www.w3.org/1999/xlink" x="0px" y="0px"
	 width="67.572px" height="34.417px" viewBox="0 12.791 67.572 34.417" enable-background="new 0 12.791 67.572 34.417"
	 xml:space="preserve">
<g>
	<path fill="#060808" d="M67.572,15.52c0,1.505-1.222,2.729-2.729,2.729H2.729C1.221,18.25,0,17.025,0,15.52l0,0
		c0-1.507,1.221-2.729,2.729-2.729h62.115C66.353,12.792,67.572,14.013,67.572,15.52L67.572,15.52z"/>
	<path fill="#060808" d="M67.572,29.425c0,1.508-1.222,2.729-2.729,2.729H2.729C1.221,32.154,0,30.934,0,29.425l0,0
		c0-1.506,1.221-2.729,2.729-2.729h62.115C66.353,26.699,67.572,27.919,67.572,29.425L67.572,29.425z"/>
	<path fill="#060808" d="M67.572,44.48c0,1.506-1.222,2.729-2.729,2.729H22.799c-1.507,0-2.729-1.223-2.729-2.729l0,0
		c0-1.508,1.222-2.729,2.729-2.729h42.045C66.353,41.751,67.572,42.973,67.572,44.48L67.572,44.48z"/>
</g>
</svg>
