<?xml version="1.0" encoding="utf-8"?>
<!-- Generator: Adobe Illustrator 16.0.0, SVG Export Plug-In . SVG Version: 6.00 Build 0)  -->
<!DOCTYPE svg PUBLIC "-//W3C//DTD SVG 1.1//EN" "http://www.w3.org/Graphics/SVG/1.1/DTD/svg11.dtd">
<svg version="1.1" id="Layer_1" xmlns="http://www.w3.org/2000/svg" xmlns:xlink="http://www.w3.org/1999/xlink" x="0px" y="0px"
	 width="35px" height="35px" viewBox="0 0 35 35" enable-background="new 0 0 35 35" xml:space="preserve">
<path fill="#58C3F0" d="M18,2.397C9.396,2.397,2.397,9.396,2.397,18c0,8.604,6.999,15.604,15.603,15.604
	c8.604,0,15.604-7,15.604-15.604C33.604,9.396,26.604,2.397,18,2.397z M25.908,14.693l-8.452,8.451
	c-0.253,0.254-0.586,0.381-0.919,0.381c-0.333,0-0.666-0.127-0.919-0.381l-4.226-4.225c-0.508-0.509-0.508-1.331,0-1.839
	c0.508-0.509,1.33-0.509,1.839,0l3.306,3.306l7.533-7.532c0.508-0.509,1.33-0.509,1.838,0
	C26.417,13.363,26.417,14.185,25.908,14.693z"/>
</svg>
