<?xml version="1.0" encoding="utf-8"?>
<!-- Generator: Adobe Illustrator 16.0.0, SVG Export Plug-In . SVG Version: 6.00 Build 0)  -->
<!DOCTYPE svg PUBLIC "-//W3C//DTD SVG 1.1//EN" "http://www.w3.org/Graphics/SVG/1.1/DTD/svg11.dtd">
<svg version="1.1" id="Layer_1" xmlns="http://www.w3.org/2000/svg" xmlns:xlink="http://www.w3.org/1999/xlink" x="0px" y="0px"
	 width="60px" height="60px" viewBox="0 0 60 60" enable-background="new 0 0 60 60" xml:space="preserve">
<path fill="#231F20" d="M30.456,14.193c-8,0-14.535,6.536-14.535,14.535c0,4.183,1.83,8.209,4.915,10.928
	c2.3,2.3,2.091,7.215,2.039,7.268c0,0.261,0.052,0.47,0.261,0.68c0.157,0.156,0.418,0.261,0.627,0.261h13.333
	c0.262,0,0.471-0.104,0.628-0.261c0.156-0.157,0.261-0.419,0.261-0.68c0-0.053-0.261-4.968,2.039-7.268
	c0.053-0.053,0.104-0.105,0.157-0.157c3.032-2.771,4.81-6.692,4.81-10.771C44.99,20.729,38.455,14.193,30.456,14.193z
	 M38.821,38.297c-0.053,0.052-0.157,0.156-0.157,0.209c-2.039,2.195-2.405,5.804-2.457,7.528H24.652
	c-0.052-1.725-0.418-5.489-2.614-7.737c-2.771-2.405-4.392-5.908-4.392-9.621c0-7.058,5.699-12.757,12.757-12.757
	c7.059,0,12.757,5.699,12.757,12.757C43.16,32.389,41.592,35.892,38.821,38.297z"/>
<path fill="#E79536" d="M30.403,17.906c-0.47,0-0.889,0.418-0.889,0.889c0,0.471,0.418,0.889,0.889,0.889
	c5.281,0,9.516,4.288,9.516,9.516c0,0.471,0.418,0.889,0.889,0.889s0.889-0.418,0.889-0.889
	C41.749,22.978,36.678,17.906,30.403,17.906z"/>
<path fill="#231F20" d="M36.207,48.857H24.6c-1.203,0-2.196,0.994-2.196,2.196s0.994,2.196,2.196,2.196h11.554
	c1.255-0.053,2.249-0.994,2.249-2.196S37.409,48.857,36.207,48.857z M36.207,51.42H24.6c-0.209,0-0.418-0.157-0.418-0.418
	c0-0.262,0.157-0.419,0.418-0.419h11.554c0.209,0,0.419,0.157,0.419,0.419C36.573,51.263,36.416,51.42,36.207,51.42z"/>
<path fill="#231F20" d="M34.481,54.139h-8.156c-1.202,0-2.196,0.993-2.196,2.195c0,1.203,0.994,2.196,2.196,2.196h8.156
	c1.203,0,2.196-0.993,2.196-2.196C36.678,55.079,35.685,54.139,34.481,54.139z M34.481,56.7h-8.156
	c-0.209,0-0.418-0.156-0.418-0.418s0.157-0.418,0.418-0.418h8.156c0.209,0,0.418,0.156,0.418,0.418S34.69,56.7,34.481,56.7z"/>
<path fill="#231F20" d="M30.403,9.854c0.523,0,0.889-0.418,0.889-0.889V2.9c0-0.47-0.418-0.889-0.889-0.889
	c-0.47,0-0.889,0.418-0.889,0.889v6.065C29.515,9.436,29.933,9.854,30.403,9.854z"/>
<path fill="#231F20" d="M45.2,6.508c-0.419-0.313-0.941-0.157-1.203,0.209l-3.346,5.019c-0.314,0.418-0.21,0.994,0.209,1.255
	c0.156,0.104,0.313,0.157,0.471,0.157c0.313,0,0.575-0.157,0.731-0.418l3.347-5.02C45.723,7.344,45.618,6.77,45.2,6.508z"/>
<path fill="#231F20" d="M19.79,12.939c0.157,0,0.313-0.052,0.47-0.157c0.418-0.261,0.523-0.836,0.262-1.254L17.28,6.456
	c-0.261-0.418-0.837-0.522-1.255-0.261c-0.418,0.261-0.523,0.836-0.261,1.255l3.241,5.072C19.215,12.834,19.476,12.939,19.79,12.939
	z"/>
<path fill="#231F20" d="M13.463,18.481l-5.281-2.875c-0.418-0.209-0.993-0.052-1.202,0.366c-0.262,0.418-0.104,0.993,0.366,1.202
	l5.28,2.875c0.157,0.053,0.262,0.104,0.418,0.104c0.314,0,0.628-0.157,0.785-0.471C14.039,19.266,13.882,18.69,13.463,18.481z"/>
<path fill="#231F20" d="M53.879,15.972c-0.209-0.418-0.784-0.576-1.202-0.366l-5.334,2.875c-0.418,0.209-0.574,0.785-0.365,1.202
	c0.156,0.314,0.471,0.471,0.784,0.471c0.157,0,0.313-0.052,0.418-0.104l5.333-2.875C53.931,16.965,54.088,16.39,53.879,15.972z"/>
</svg>
