<?xml version="1.0" encoding="utf-8"?>
<!-- Generator: Adobe Illustrator 16.0.0, SVG Export Plug-In . SVG Version: 6.00 Build 0)  -->
<!DOCTYPE svg PUBLIC "-//W3C//DTD SVG 1.1//EN" "http://www.w3.org/Graphics/SVG/1.1/DTD/svg11.dtd">
<svg version="1.1" id="Layer_1" xmlns="http://www.w3.org/2000/svg" xmlns:xlink="http://www.w3.org/1999/xlink" x="0px" y="0px"
	 width="60px" height="60px" viewBox="0 0 60 60" enable-background="new 0 0 60 60" xml:space="preserve">
<g>
	<g>
		<g>
			<path fill="#9970B1" d="M26.07,8.016c-10.281,0-18.615,8.334-18.615,18.615c0,10.281,8.334,18.615,18.615,18.615
				c10.28,0,18.615-8.334,18.615-18.615C44.674,16.355,36.346,8.027,26.07,8.016z M26.07,9.789
				c5.476,0.004,10.606,2.673,13.754,7.154l-2.217,2.216c-0.54-0.326-1.156-0.501-1.786-0.505c-1.959,0-3.546,1.587-3.546,3.545
				c0.003,0.631,0.177,1.25,0.502,1.79l-5.804,5.805c-1.1-0.671-2.48-0.671-3.579,0l-4.032-4.032
				c0.326-0.541,0.499-1.158,0.502-1.79c0.002-1.954-1.58-3.541-3.534-3.543c-1.617-0.002-3.028,1.091-3.431,2.657H9.61
				C11.289,15.334,18.14,9.8,26.07,9.789z M37.594,22.199c0,0.979-0.794,1.773-1.772,1.773c-0.98,0-1.772-0.793-1.772-1.773
				c0-0.979,0.792-1.773,1.772-1.773C36.8,20.426,37.594,21.22,37.594,22.199z M26.957,32.836c0,0.979-0.794,1.773-1.773,1.773
				s-1.773-0.794-1.773-1.773s0.794-1.772,1.773-1.772S26.957,31.856,26.957,32.836z M18.092,23.972
				c0,0.979-0.793,1.773-1.773,1.773c-0.979,0-1.773-0.793-1.773-1.773c0-0.979,0.794-1.773,1.773-1.773
				C17.298,22.199,18.092,22.993,18.092,23.972z M34.254,41.358c-2.504,1.389-5.321,2.118-8.184,2.114
				c-9.296,0.007-16.836-7.523-16.843-16.819c0-0.6,0.031-1.199,0.095-1.795h3.577c0.403,1.561,1.808,2.653,3.419,2.659
				c0.632-0.002,1.25-0.176,1.79-0.502l4.032,4.031c-0.326,0.541-0.5,1.159-0.503,1.79c0,1.959,1.588,3.546,3.546,3.546
				s3.545-1.587,3.545-3.546c-0.003-0.631-0.176-1.249-0.502-1.79l5.804-5.804c0.54,0.326,1.158,0.499,1.79,0.502
				c1.958,0,3.545-1.587,3.545-3.546c-0.003-0.631-0.177-1.249-0.502-1.789l1.933-1.932C45.308,26.602,42.378,36.846,34.254,41.358z
				"/>
		</g>
	</g>
</g>
<g>
	<g>
		<path fill="#010101" d="M48.231,13.334c1.612-0.006,3.016-1.099,3.42-2.659h5.444V8.902h-5.444
			c-0.404-1.561-1.808-2.653-3.42-2.66c-1.959,0-3.546,1.588-3.546,3.546c0.004,0.631,0.176,1.25,0.503,1.79l-1.559,1.557
			C36.179,3.427,22.267,1.598,12.557,9.05C2.849,16.502,1.019,30.414,8.472,40.122C15.506,49.287,28.4,51.51,38.098,45.23
			l2.674,2.676l1.254,1.252l7.137,7.137c1.814,1.814,4.757,1.814,6.572,0c1.813-1.815,1.813-4.757,0-6.572l-7.137-7.136
			l-1.253-1.254l-2.676-2.675c4.749-7.315,4.749-16.739,0-24.054l1.772-1.773C46.981,13.157,47.6,13.331,48.231,13.334z
			 M48.231,8.016c0.979,0,1.771,0.794,1.771,1.773s-0.793,1.772-1.771,1.772s-1.773-0.793-1.773-1.772S47.253,8.016,48.231,8.016z
			 M54.479,50.976c1.137,1.11,1.157,2.931,0.047,4.065c-1.11,1.136-2.93,1.156-4.064,0.047c-0.017-0.016-0.031-0.031-0.047-0.047
			l-7.136-7.135l4.065-4.066L54.479,50.976z M46.091,42.587l-4.065,4.064l-2.454-2.454c0.126-0.095,0.242-0.2,0.366-0.299
			c0.123-0.099,0.266-0.216,0.397-0.327c0.193-0.162,0.386-0.328,0.574-0.497c0.097-0.088,0.188-0.178,0.283-0.266
			c0.363-0.341,0.715-0.692,1.056-1.056c0.089-0.095,0.178-0.187,0.266-0.283c0.17-0.189,0.335-0.381,0.498-0.574
			c0.111-0.132,0.22-0.264,0.327-0.398c0.098-0.122,0.202-0.238,0.298-0.364L46.091,42.587z M42.653,38.47
			c-0.279,0.39-0.567,0.771-0.871,1.139c-0.089,0.108-0.184,0.212-0.275,0.317c-0.271,0.315-0.551,0.621-0.84,0.919
			c-0.126,0.129-0.254,0.258-0.384,0.383c-0.296,0.289-0.602,0.569-0.919,0.841c-0.104,0.088-0.209,0.185-0.316,0.275
			c-0.368,0.304-0.75,0.592-1.14,0.87c-9.177,6.556-21.93,4.432-28.485-4.744c-6.556-9.177-4.432-21.93,4.745-28.486
			c9.177-6.556,21.931-4.432,28.486,4.745C47.726,21.829,47.726,31.369,42.653,38.47z"/>
	</g>
</g>
</svg>
