<?xml version="1.0" encoding="utf-8"?>
<!-- Generator: Adobe Illustrator 16.0.0, SVG Export Plug-In . SVG Version: 6.00 Build 0)  -->
<!DOCTYPE svg PUBLIC "-//W3C//DTD SVG 1.1//EN" "http://www.w3.org/Graphics/SVG/1.1/DTD/svg11.dtd">
<svg version="1.1" id="Layer_1" xmlns="http://www.w3.org/2000/svg" xmlns:xlink="http://www.w3.org/1999/xlink" x="0px" y="0px"
	 width="60px" height="60px" viewBox="0 0 60 60" enable-background="new 0 0 60 60" xml:space="preserve">
<g>
	<g>
		<rect x="21.054" y="7.634" fill="#010101" width="17.894" height="1.789"/>
	</g>
</g>
<g>
	<g>
		<path fill="#010101" d="M47.445,36.711c0-1.727-1.403-3.133-3.131-3.133h-1.789V21.054h-1.79v12.524H38.5
			c-1.727,0-3.132,1.406-3.132,3.133c0,0.877,0.364,1.666,0.946,2.236c-0.582,0.568-0.946,1.359-0.946,2.236
			c0,0.604,0.179,1.162,0.476,1.641c-1.068,0.498-1.817,1.576-1.817,2.832c0,0.482,0.119,0.936,0.314,1.342h-7.025
			c0-2.734-1.371-5.156-3.461-6.611c2.022-0.771,3.461-2.73,3.461-5.02c0-0.492-0.4-0.895-0.895-0.895h-7.157v-8.946h-1.79v8.946
			c-1.479,0-2.684,1.205-2.684,2.686V56.84h1.789V37.158c0-0.494,0.401-0.896,0.895-0.896h7.938
			c-0.397,1.543-1.801,2.686-3.465,2.686h-2.684c-0.494,0-0.895,0.4-0.895,0.895s0.401,0.895,0.895,0.895
			c3.453,0,6.262,2.809,6.262,6.262v0.895c0,0.494,0.4,0.895,0.895,0.895h5.235c-0.196,0.41-0.313,0.861-0.313,1.344
			c0,1.725,1.405,3.131,3.13,3.131v3.578h1.79v-3.578h3.579h0.447c1.727,0,3.131-1.406,3.131-3.131c0-0.488-0.121-0.943-0.321-1.355
			c1.668-0.068,3.006-1.436,3.006-3.119c0-0.604-0.18-1.16-0.477-1.641c1.07-0.498,1.817-1.576,1.817-2.832
			c0-0.877-0.363-1.668-0.945-2.236C47.082,38.377,47.445,37.588,47.445,36.711z M40.289,51.473h-0.447h-4.474h-0.896
			c-0.738,0-1.341-0.604-1.341-1.342c0-0.74,0.603-1.344,1.341-1.344h2.685h3.132c0.74,0,1.341,0.604,1.341,1.344
			C41.63,50.869,41.029,51.473,40.289,51.473z M42.974,46.998h-2.685h-3.132c-0.74,0-1.341-0.602-1.341-1.342
			s0.601-1.342,1.341-1.342H38.5h4.474c0.739,0,1.341,0.602,1.341,1.342S43.713,46.998,42.974,46.998z M44.314,42.525h-1.341H38.5
			c-0.741,0-1.343-0.602-1.343-1.342s0.602-1.342,1.343-1.342h5.814c0.741,0,1.343,0.602,1.343,1.342S45.056,42.525,44.314,42.525z
			 M44.314,38.053H38.5c-0.741,0-1.343-0.602-1.343-1.342c0-0.742,0.602-1.344,1.343-1.344h5.814c0.741,0,1.343,0.602,1.343,1.344
			C45.657,37.451,45.056,38.053,44.314,38.053z"/>
	</g>
</g>
<g>
	<g>
		<path fill="#010101" d="M16.578,14.548c-0.018-0.257-0.146-0.494-0.352-0.649l-0.931-0.706c-0.223-1.127-1.213-1.98-2.397-1.98
			c-1.335,0-2.425,1.086-2.443,2.427c-0.715-0.125-1.398-0.399-2.009-0.811l-0.312-0.211c-0.273-0.185-0.628-0.205-0.921-0.048
			c-0.292,0.155-0.474,0.459-0.474,0.79v0.734c0,1.079,0.325,2.107,0.927,2.97L6.998,17.74c-0.254,0.256-0.329,0.641-0.189,0.974
			c0.139,0.333,0.464,0.55,0.826,0.55h4.335c1.729,0,3.158-1.317,3.351-3.009l1.002-1.014
			C16.502,15.058,16.596,14.806,16.578,14.548z M13.81,15.235c-0.165,0.167-0.258,0.394-0.258,0.629c0,0.888-0.711,1.61-1.583,1.61
			H9.693c0.142-0.326,0.08-0.719-0.184-0.986c-0.418-0.423-0.717-0.955-0.867-1.529c0.854,0.36,1.771,0.547,2.708,0.547
			c0.495,0,0.896-0.4,0.896-0.895v-0.939c0-0.37,0.293-0.671,0.653-0.671c0.359,0,0.653,0.301,0.653,0.671
			c0,0.28,0.132,0.543,0.354,0.713l0.427,0.324L13.81,15.235z"/>
	</g>
</g>
<g>
	<g>
		<g>
			<path fill="#26AAE0" d="M32.685,18.37v-1.79H30c-0.494,0-0.894,0.401-0.894,0.895v2.685h-1.79v1.789h1.79v3.579h1.789v-3.579
				h1.79v-1.789h-1.79v-1.79H32.685z"/>
		</g>
	</g>
</g>
<g>
	<g>
		<g>
			<path fill="#26AAE0" d="M35.368,13.001H24.632c-1.48,0-2.685,1.205-2.685,2.685v10.735c0,1.481,1.205,2.685,2.685,2.685h10.736
				c1.48,0,2.684-1.204,2.684-2.685V15.686C38.052,14.206,36.849,13.001,35.368,13.001z M36.263,26.421
				c0,0.494-0.401,0.896-0.895,0.896H24.632c-0.494,0-0.895-0.401-0.895-0.896V15.686c0-0.493,0.401-0.895,0.895-0.895h10.736
				c0.493,0,0.895,0.401,0.895,0.895V26.421z"/>
		</g>
	</g>
</g>
<g>
	<g>
		<path fill="#010101" d="M16.58,7.634H5.844c-1.479,0-2.684,1.204-2.684,2.684v10.736c0,1.48,1.205,2.684,2.684,2.684H16.58
			c1.48,0,2.684-1.204,2.684-2.684V10.317C19.264,8.838,18.06,7.634,16.58,7.634z M17.475,21.054c0,0.493-0.401,0.894-0.895,0.894
			H5.844c-0.494,0-0.895-0.401-0.895-0.894V10.317c0-0.493,0.401-0.895,0.895-0.895H16.58c0.493,0,0.895,0.402,0.895,0.895V21.054z"
			/>
	</g>
</g>
<g>
	<g>
		<path fill="#010101" d="M54.155,3.161H43.42c-1.48,0-2.685,1.203-2.685,2.684V16.58c0,1.48,1.204,2.684,2.685,2.684h10.735
			c1.481,0,2.685-1.204,2.685-2.684V5.844C56.84,4.364,55.637,3.161,54.155,3.161z M55.051,16.58c0,0.493-0.4,0.895-0.896,0.895
			H43.42c-0.493,0-0.895-0.401-0.895-0.895v-4.473h1.879c0.417,2.04,2.225,3.579,4.383,3.579c2.161,0,3.968-1.539,4.384-3.579h1.88
			V16.58z M46.104,11.212c0-1.48,1.204-2.685,2.683-2.685c1.481,0,2.686,1.205,2.686,2.685c0,1.48-1.204,2.684-2.686,2.684
			C47.309,13.896,46.104,12.693,46.104,11.212z M55.051,10.317h-1.88c-0.416-2.039-2.223-3.578-4.384-3.578
			c-2.158,0-3.966,1.539-4.383,3.578h-1.879V5.844c0-0.493,0.401-0.895,0.895-0.895h10.735c0.495,0,0.896,0.401,0.896,0.895V10.317z
			"/>
	</g>
</g>
<g>
	<g>
		<rect x="29.106" y="39.842" fill="#010101" width="1.789" height="1.789"/>
	</g>
</g>
</svg>
