<?xml version="1.0" encoding="utf-8"?>
<!-- Generator: Adobe Illustrator 16.0.0, SVG Export Plug-In . SVG Version: 6.00 Build 0)  -->
<!DOCTYPE svg PUBLIC "-//W3C//DTD SVG 1.1//EN" "http://www.w3.org/Graphics/SVG/1.1/DTD/svg11.dtd">
<svg version="1.1" id="Layer_1" xmlns="http://www.w3.org/2000/svg" xmlns:xlink="http://www.w3.org/1999/xlink" x="0px" y="0px"
	 width="35px" height="35px" viewBox="0 0 35 35" enable-background="new 0 0 35 35" xml:space="preserve">
<path d="M29.865,5.135c-3.164-3.164-7.37-4.907-11.845-4.907c-0.001,0-0.002,0-0.003,0c-2.212,0-4.37,0.429-6.41,1.274
	S7.74,3.569,6.175,5.135c-3.164,3.164-4.906,7.37-4.906,11.844c0,2.669,0.644,5.321,1.864,7.683l-2.815,8.045
	c-0.199,0.566-0.058,1.185,0.367,1.608c0.297,0.299,0.689,0.456,1.092,0.456c0.172,0,0.348-0.029,0.517-0.089l8.044-2.814
	c2.363,1.219,5.015,1.862,7.684,1.862c4.475,0,8.681-1.742,11.845-4.906c3.163-3.163,4.906-7.37,4.906-11.844
	C34.771,12.505,33.03,8.298,29.865,5.135z M28.433,27.393c-2.781,2.781-6.479,4.313-10.412,4.313c-2.407,0-4.797-0.596-6.914-1.722
	c-0.384-0.203-0.837-0.238-1.244-0.097l-7.308,2.559l2.558-7.309c0.143-0.408,0.107-0.861-0.097-1.244
	c-1.125-2.116-1.721-4.506-1.721-6.914c0-3.933,1.532-7.631,4.313-10.412c2.781-2.781,6.479-4.313,10.411-4.313h0.002
	c3.933,0,7.631,1.532,10.412,4.313c2.78,2.78,4.313,6.479,4.313,10.412C32.745,20.914,31.213,24.61,28.433,27.393z"/>
<path fill="#38A7DF" d="M24.227,17.955c-0.771-0.771-2.024-0.771-2.795,0l-0.843,0.843c-2.093-1.141-3.787-2.834-4.927-4.928
	l0.842-0.842c0.771-0.771,0.771-2.024,0-2.795l-2.271-2.271c-0.771-0.771-2.024-0.771-2.795,0L9.621,9.778
	c-1.041,1.041-1.092,2.83-0.146,5.038c0.822,1.917,2.326,4.025,4.234,5.933c1.909,1.91,4.016,3.413,5.934,4.234
	c1.05,0.451,2.003,0.675,2.827,0.675c0.911,0,1.664-0.273,2.21-0.82l1.817-1.817l0,0c0.373-0.372,0.58-0.869,0.58-1.397
	s-0.207-1.024-0.58-1.397L24.227,17.955z M23.249,23.405c-0.298,0.297-1.21,0.401-2.808-0.284c-1.687-0.723-3.568-2.072-5.299-3.805
	c-1.731-1.73-3.082-3.612-3.805-5.297c-0.684-1.597-0.58-2.512-0.283-2.808l1.783-1.782l2.201,2.201l-1.055,1.056
	c-0.477,0.477-0.593,1.2-0.287,1.8c1.388,2.72,3.558,4.891,6.28,6.277c0.599,0.306,1.322,0.191,1.798-0.285l1.056-1.056l2.201,2.201
	L23.249,23.405z"/>
</svg>
