<?xml version="1.0" encoding="utf-8"?>
<!-- Generator: Adobe Illustrator 16.0.0, SVG Export Plug-In . SVG Version: 6.00 Build 0)  -->
<!DOCTYPE svg PUBLIC "-//W3C//DTD SVG 1.1//EN" "http://www.w3.org/Graphics/SVG/1.1/DTD/svg11.dtd">
<svg version="1.1" id="Layer_1" xmlns="http://www.w3.org/2000/svg" xmlns:xlink="http://www.w3.org/1999/xlink" x="0px" y="0px"
	 width="701.939px" height="342.34px" viewBox="0 0 701.939 342.34" enable-background="new 0 0 701.939 342.34"
	 xml:space="preserve">
<path fill="#A8D29F" d="M107.018,339.747c0,0,2.122-13.907,29.205-17.648c27.083-3.742,52.265-33.742,96.928-29.388
	c44.664,4.355,81.724,31.675,132.563,23.304c50.842-8.371,82.675,2.299,94.079,10.713c11.402,8.416,58.596-1.975,62.082,13.445
	L107.018,339.747z"/>
<path fill="#AFCDFB" d="M218.346,8.349c0,0-30.567-1.496-14.352,91.665c0,0,10.91,31.623-2.862,52.004h202.715V8.349H218.346z"/>
<g>
	<g>
		<path fill="#599DAD" d="M239.167,250.553c0,0-14.162-16.521-0.873-27.016c0,0,9.707-5.876,17.621-5.399
			c0,0-11.215,18.806-7.587,20.678c3.628,1.87,10.986-21.858,10.986-21.858s22.088-2.143,29.195,1.275
			c0,0-18.884,15.451-14.906,16.373c3.977,0.919,24.373-14.248,24.373-14.248s20.559,3.499,19.463,16.041
			c-1.096,12.541-8.18,16.413-11.293,16.08c-3.114-0.333-21.326-7.287-21.723-4.735c-0.396,2.552,10.566,10.888,18.243,11.279
			c0,0-14.493,15.983-24.126,11.372c-9.633-4.613-10.455-11.927-16.46-14.67c-6.005-2.742-11.131-2.736-8.651,0.062
			c2.479,2.798,13.346,5.515,16.78,11.59c3.434,6.074,6.515,10.171-3.451,8.671c-9.967-1.498-26.166-8.791-26.878-17.143
			C239.167,250.553,239.167,250.553,239.167,250.553z"/>
		<g>
			<path fill="#599DAD" d="M307.337,236.736c0,0-55.838-2.152-68.17,13.816c0,0-2.727,8.168-11.12,15.606l-1.308,3.564
				c0,0,9.676-10.202,13.139-10.819C239.878,258.904,234.463,239.119,307.337,236.736z"/>
			<path fill="#599DAD" d="M228.047,266.159c0,0-11.984,8.863-12.817,24.7l2.174,0.195c0,0,3.828-16.377,10.748-22.78
				C235.07,261.87,228.047,266.159,228.047,266.159z"/>
		</g>
	</g>
	<g>
		<path fill="#6BB7BF" d="M189.652,229.775c0,0,22.528-12.614,12.015-29.737c0,0-8.411-10.514-17.421-13.217
			c0,0,4.805,25.532,0,26.133c-4.807,0.601-3.304-28.836-3.304-28.836s-23.73-11.415-33.042-10.513c0,0,14.718,24.93,9.912,24.33
			c-4.806-0.601-21.327-25.832-21.327-25.832s-24.331-4.506-28.235,9.912c-3.904,14.42,2.403,21.628,6.008,22.528
			c3.604,0.901,26.733,0.6,26.133,3.605c-0.6,3.003-16.221,7.809-24.932,5.104c0,0,9.612,23.73,22.229,22.529
			c12.615-1.201,16.52-9.011,24.331-9.611c7.809-0.602,13.516,1.501,9.611,3.604c-3.905,2.103-17.121,0.688-23.43,6.052
			c-6.307,5.362-11.414,8.667,0.3,11.068c11.715,2.403,32.742,0.902,36.947-8.109C189.652,229.775,189.652,229.775,189.652,229.775z
			"/>
		<g>
			<path fill="#6BB7BF" d="M119.363,186.521c0,0,63.08,20.426,70.289,43.254c0,0-0.301,10.215,6.007,21.928v4.507
				c0,0-6.609-15.32-10.213-17.424C185.446,238.786,199.564,218.961,119.363,186.521z"/>
			<path fill="#6BB7BF" d="M195.659,251.703c0,0,9.728,14.772,4.183,32.753l-2.504-0.672c0,0,2.43-19.806-2.66-29.767
				C189.588,244.057,195.659,251.703,195.659,251.703z"/>
		</g>
	</g>
	<g>
		<path fill="#86D1CD" d="M225.492,212.377c0,0-29.696-16.631-15.838-39.201c0,0,11.086-13.856,22.966-17.419
			c0,0-6.335,33.654,0,34.446s4.354-38.012,4.354-38.012s31.281-15.045,43.555-13.858c0,0-19.401,32.863-13.066,32.073
			c6.335-0.793,28.112-34.052,28.112-34.052s32.072-5.939,37.219,13.066c5.148,19.006-3.168,28.508-7.918,29.697
			c-4.751,1.188-35.24,0.791-34.447,4.75c0.791,3.96,21.38,10.296,32.863,6.732c0,0-12.67,31.278-29.3,29.695
			c-16.63-1.584-21.777-11.877-32.072-12.67c-10.294-0.791-17.818,1.979-12.671,4.752c5.147,2.771,22.57,0.908,30.885,7.977
			c8.316,7.067,15.047,11.424-0.396,14.592c-15.442,3.167-43.159,1.188-48.702-10.69
			C225.492,212.377,225.492,212.377,225.492,212.377z"/>
		<g>
			<path fill="#6BB7BF" d="M318.144,155.361c0,0-83.149,26.923-92.652,57.016c0,0,0.396,13.462-7.919,28.904v5.939
				c0,0,8.712-20.195,13.463-22.966C231.036,224.255,212.425,198.122,318.144,155.361z"/>
			<path fill="#6BB7BF" d="M217.573,241.281c0,0-12.823,19.472-5.513,43.175l3.298-0.886c0,0-3.201-26.107,3.508-39.239
				C225.574,231.201,217.573,241.281,217.573,241.281z"/>
		</g>
	</g>
	<path fill="#EFCBAB" d="M224.491,335.858c32.126,0,58.169-26.044,58.169-58.171h-116.34
		C166.321,309.814,192.365,335.858,224.491,335.858z"/>
	<path fill="#FFEBDC" d="M238.805,335.414c-2.366,0.295-4.779,0.444-7.227,0.444c-32.126,0-58.168-26.045-58.168-58.171h14.452
		C187.862,307.369,210.088,331.855,238.805,335.414z"/>
	<path fill="#EFCBAB" d="M283.464,338.818H165.518l0,0c0-3.963,3.213-7.177,7.176-7.177h103.594
		C280.252,331.642,283.464,334.855,283.464,338.818L283.464,338.818z"/>
	<rect x="164.407" y="277.688" fill="#EFCDAF" width="119.576" height="1.785"/>
</g>
<g>
	<path fill="#599DAD" d="M434.983,56.51c0,0-10.188-19.228,5.08-26.549c0,0,10.759-3.603,18.375-1.399
		c0,0-15.068,15.885-11.938,18.507c3.128,2.621,15.515-18.912,15.515-18.912s22.02,2.758,28.202,7.651
		c0,0-21.813,10.931-18.137,12.701c3.679,1.77,26.906-8.549,26.906-8.549s19.291,7.925,15.467,19.92
		c-3.82,11.994-11.582,14.218-14.545,13.208c-2.967-1.008-19.21-11.789-20.156-9.387c-0.946,2.403,7.92,12.943,15.323,15.008
		c0,0-17.649,12.414-26.035,5.799c-8.384-6.616-7.582-13.931-12.838-17.924c-5.256-3.994-10.258-5.113-8.455-1.84
		c1.805,3.273,11.811,8.312,13.829,14.991c2.017,6.68,4.123,11.353-5.272,7.702c-9.395-3.65-23.599-14.32-22.459-22.623
		C434.983,56.51,434.983,56.51,434.983,56.51z"/>
	<g>
		<path fill="#599DAD" d="M504.523,57.994c0,0-54.005-14.355-69.54-1.483c0,0-4.453,7.371-14.271,12.784l-2.06,3.191
			c0,0,11.68-7.83,15.192-7.67C433.845,64.815,432.905,44.324,504.523,57.994z"/>
		<path fill="#599DAD" d="M420.712,69.294c0,0-13.64,6.018-17.928,21.286l2.08,0.668c0,0,7.328-15.136,15.483-19.866
			C428.504,66.653,420.712,69.294,420.712,69.294z"/>
	</g>
</g>
<g>
	<path fill="#86D1CD" d="M788.966-94.881c0,0-25.377-13.234-14.293-32.551c0,0,8.971-11.926,18.866-15.219
		c0,0-4.482,28.447,0.862,28.954c5.346,0.507,2.709-32.059,2.709-32.059s25.915-13.43,36.263-12.738
		c0,0-15.485,28.108-10.181,27.284c5.306-0.825,22.777-29.325,22.777-29.325s26.808-5.795,31.609,10.051
		c4.804,15.845-1.947,24.041-5.912,25.158c-3.964,1.118-29.6,1.548-28.834,4.856c0.765,3.309,18.229,8.118,27.791,4.835
		c0,0-9.867,26.609-23.885,25.693c-14.018-0.915-18.602-9.439-27.274-9.847c-8.673-0.408-14.927,2.11-10.53,4.311
		c4.396,2.201,18.992,0.198,26.158,5.932c7.165,5.733,12.933,9.226,0.032,12.274c-12.9,3.049-36.245,2.079-41.203-7.766
		C788.966-94.881,788.966-94.881,788.966-94.881z"/>
	<g>
		<path fill="#6BB7BF" d="M865.415-145.125c0,0-69.216,24.712-76.449,50.243c0,0,0.67,11.306-5.933,24.493l0.147,4.992
			c0,0,6.817-17.19,10.741-19.639C793.922-85.036,777.627-106.535,865.415-145.125z"/>
		<path fill="#6BB7BF" d="M783.033-70.388c0,0-10.29,16.688-3.553,36.428l2.751-0.827c0,0-3.345-21.864,1.965-33.068
			C789.507-79.061,783.033-70.388,783.033-70.388z"/>
	</g>
</g>
<rect x="231.199" y="63.489" fill="#9ABCEF" width="211.641" height="276.008"/>
<rect x="238.119" y="63.489" fill="#E9F3FE" width="208.083" height="276.008"/>
<path fill="#A8D29F" d="M592.925,338.82h-41.932c-2.247-1.906,1.555-6.234,5.526-6.525c1.726-0.131,3.908,0.23,6.401,0.758
	c0.578-7.664,3.871-42.117,16.289-40.731c13.966,1.55,0,15.172-3.945,23.236c-2.925,5.976-6.009,14.541-7.418,18.583
	c1.132,0.246,2.307,0.487,3.505,0.707c1.852-5.682,8.736-24.798,17.494-23.684c10.282,1.305,6.149,8.969-1.139,13.518
	c-5.347,3.346-11.911,8.1-15.031,10.396c2.643,0.432,5.402,0.722,8.201,0.658C588.058,335.564,591.564,337.681,592.925,338.82z"/>
<path fill="#E9F3FE" d="M446.204,63.486c-0.003,0.002-0.003,0.002-0.003,0.002H238.119c1.15-15.734-0.583-27.161-3.362-35.377
	c-5.336-15.799-14.533-19.764-14.533-19.764h196.242c16.748,0,29.735,10.091,33.271,23.484c0.131,0.503,0.255,1.005,0.361,1.507
	C453.453,48.661,446.341,63.206,446.204,63.486z"/>
<path fill="#D8E8FD" d="M446.204,63.486c-0.003,0.002-0.003,0.002-0.003,0.002H238.119c1.15-15.734-0.583-27.161-3.362-35.377
	c21.265,3.894,73.932,12.191,130.306,10.793c36.472-0.905,65.293-3.345,85.035-5.566C453.453,48.661,446.341,63.206,446.204,63.486z
	"/>
<g>
	<path fill="#BBD5FC" d="M391.235,127.133h-110.35c-1.133,0-2.06-0.928-2.06-2.06v-1.056c0-1.133,0.927-2.061,2.06-2.061h110.35
		c1.133,0,2.059,0.927,2.059,2.061v1.056C393.294,126.206,392.368,127.133,391.235,127.133z"/>
	<path fill="#BBD5FC" d="M348.525,135.842h-68.074c-0.894,0-1.625-0.732-1.625-1.626v-1.924c0-0.894,0.732-1.626,1.625-1.626h68.074
		c0.894,0,1.626,0.732,1.626,1.626v1.924C350.151,135.109,349.419,135.842,348.525,135.842z"/>
	<g>
		<path fill="#BBD5FC" d="M268.198,135.004v-10.574h-1.396c-0.846,0-1.269-0.352-1.269-1.057c0-0.507,0.331-0.867,0.994-1.079
			c0.338-0.112,0.878-0.197,1.619-0.253s1.334-0.084,1.785-0.084c0.438,0,0.712,0.088,0.827,0.265
			c0.111,0.176,0.168,0.623,0.168,1.342v11.441h1.438c0.93,0,1.396,0.401,1.396,1.205c0,0.846-0.466,1.269-1.396,1.269h-5.794
			c-0.41,0-0.75-0.109-1.025-0.328s-0.413-0.525-0.413-0.92c0-0.817,0.472-1.226,1.417-1.226H268.198z"/>
	</g>
</g>
<g>
	<path fill="#D2E4FD" d="M391.235,181.644h-110.35c-1.133,0-2.06-0.928-2.06-2.06v-1.056c0-1.133,0.927-2.061,2.06-2.061h110.35
		c1.133,0,2.059,0.928,2.059,2.061v1.056C393.294,180.716,392.368,181.644,391.235,181.644z"/>
	<path fill="#D2E4FD" d="M348.525,190.353h-68.074c-0.894,0-1.625-0.731-1.625-1.626v-1.924c0-0.895,0.732-1.627,1.625-1.627h68.074
		c0.894,0,1.626,0.732,1.626,1.627v1.924C350.151,189.621,349.419,190.353,348.525,190.353z"/>
	<g>
		<path fill="#D2E4FD" d="M273.978,189.296c0,0.705-0.493,1.057-1.478,1.057h-6.13c-0.884,0-1.325-0.354-1.325-1.065
			c0-0.224,0.117-0.485,0.355-0.784c0.349-0.398,0.859-0.997,1.531-1.795c1.022-1.282,1.876-2.392,2.561-3.326
			c0.236-0.311,0.572-0.783,1.008-1.42c0.361-0.636,0.543-1.171,0.543-1.608c0-0.484-0.157-0.886-0.469-1.204
			c-0.311-0.317-0.709-0.476-1.195-0.476c-0.474,0-0.885,0.149-1.233,0.449c-0.238,0.198-0.424,0.572-0.561,1.119
			c-0.174,0.71-0.287,1.121-0.336,1.233c-0.187,0.399-0.492,0.599-0.917,0.599c-0.374,0-0.665-0.138-0.877-0.411
			c-0.2-0.236-0.3-0.549-0.3-0.935c0-0.435,0.069-0.879,0.206-1.326c0.299-0.96,0.829-1.695,1.589-2.206
			c0.722-0.486,1.6-0.729,2.635-0.729c1.134,0,2.081,0.344,2.84,1.03c0.786,0.723,1.177,1.646,1.177,2.77
			c0,0.837-0.28,1.696-0.841,2.583c-0.312,0.487-0.953,1.349-1.924,2.583c-0.499,0.638-1.284,1.558-2.354,2.771h4.036
			C273.492,188.204,273.978,188.567,273.978,189.296z"/>
	</g>
</g>
<g>
	<path fill="#D2E4FD" d="M391.235,227.115h-110.35c-1.133,0-2.06-0.926-2.06-2.058v-1.059c0-1.133,0.927-2.06,2.06-2.06h110.35
		c1.133,0,2.059,0.927,2.059,2.06v1.059C393.294,226.189,392.368,227.115,391.235,227.115z"/>
	<path fill="#D2E4FD" d="M348.525,235.824h-68.074c-0.894,0-1.625-0.731-1.625-1.626v-1.925c0-0.895,0.732-1.625,1.625-1.625h68.074
		c0.894,0,1.626,0.73,1.626,1.625v1.925C350.151,235.093,349.419,235.824,348.525,235.824z"/>
	<g>
		<path fill="#D2E4FD" d="M273.978,231.49c0,1.322-0.466,2.387-1.395,3.188c-0.879,0.765-1.994,1.146-3.342,1.146
			c-1.045,0-1.937-0.248-2.674-0.744c-1.173-0.789-1.759-1.739-1.759-2.846c0-0.319,0.102-0.593,0.306-0.821
			c0.204-0.229,0.465-0.344,0.784-0.344c0.331,0,0.642,0.222,0.935,0.669c0.472,0.736,0.745,1.145,0.821,1.222
			c0.42,0.446,0.962,0.669,1.625,0.669c0.892,0,1.527-0.332,1.91-0.994c0.179-0.331,0.268-0.752,0.268-1.262
			c0-1.247-0.732-1.94-2.198-2.081c-0.827-0.076-1.241-0.428-1.241-1.05c0-0.458,0.24-0.783,0.721-0.975
			c0.897-0.331,1.354-0.502,1.366-0.516c0.48-0.319,0.721-0.873,0.721-1.661c0-0.473-0.139-0.845-0.419-1.119
			c-0.279-0.274-0.653-0.411-1.122-0.411c-0.584,0-1.042,0.142-1.37,0.421c-0.28,0.243-0.515,0.656-0.705,1.241
			c-0.153,0.446-0.444,0.669-0.876,0.669c-0.304,0-0.557-0.133-0.752-0.401c-0.196-0.268-0.295-0.559-0.295-0.879
			c0-0.394,0.108-0.789,0.325-1.184c0.356-0.661,0.905-1.178,1.642-1.548c0.676-0.343,1.414-0.515,2.216-0.515
			c1.082,0,1.983,0.327,2.703,0.983c0.719,0.656,1.08,1.52,1.08,2.587c0,1.289-0.536,2.306-1.605,3.059
			C273.2,228.616,273.978,229.783,273.978,231.49z"/>
	</g>
</g>
<g>
	<path fill="#BBD5FC" d="M378.382,81.822h-68.743c-1.177,0-2.139-0.963-2.139-2.141v-1.733c0-1.177,0.962-2.14,2.139-2.14h68.743
		c1.177,0,2.139,0.963,2.139,2.14v1.733C380.521,80.859,379.559,81.822,378.382,81.822z"/>
	<path fill="#BBD5FC" d="M396.306,91.093H291.713c-1.444,0-2.624-1.181-2.624-2.624v-0.765c0-1.443,1.18-2.624,2.624-2.624h104.592
		c1.445,0,2.626,1.181,2.626,2.624v0.765C398.932,89.912,397.751,91.093,396.306,91.093z"/>
</g>
<g>
	<path fill="#FFB27D" d="M473.601,208.184c0,0-0.749,7.257-1.566,8.629c-0.818,1.373-4.306,5.759-5.791,6.621
		c-1.485,0.859,0.907-5.78,0.604-7.074c-0.304-1.291-1.223,2.359-1.878,2.444c-0.654,0.087-0.486-3.199-0.51-4.395
		s3.186-4.146,4.317-6.692C469.909,205.172,473.601,208.184,473.601,208.184z"/>
	<path fill="#FFB27D" d="M384.444,141.253l-1.668-3.146c0,0,0.828-5.607-6.197-9.155c0,0-2.568-1.045-4.018,1.05
		c-1.336,1.929,2.544,1.581,2.336,4.879c-0.209,3.301,1.357,5.237,3.539,6.312l1.802,2.088L384.444,141.253z"/>
	<path fill="#E58638" d="M450.846,133.731c0,0-6.035,29.615-39.239,39.291c-10.364,3.021-33.91-31.103-33.91-31.103
		s0.827-3.146,6.013-2.423c0,0,22.927,15.178,25.813,16.827c2.563,1.464,19.405-18.808,27.084-22.078
		C444.284,130.976,450.846,133.731,450.846,133.731z"/>
	<g>
		
			<rect x="374.336" y="117.741" transform="matrix(0.1518 -0.9884 0.9884 0.1518 188.3482 486.162)" fill="#C65447" width="6.202" height="31.197"/>
		<polygon fill="#FFB27D" points="354.851,129.871 361.548,134.037 362.49,127.907 		"/>
		<path fill="#FFB27D" d="M396.598,135.227l-0.297,1.939c-0.185,1.191-1.298,2.009-2.492,1.826l-1.425-0.219l0.941-6.13l1.552,0.239
			C395.999,133.054,396.769,134.105,396.598,135.227z"/>
	</g>
	<g>
		<path fill="#233862" d="M490.485,319.898c0,0,4.12,3.757,3.316,6.429c-0.806,2.671-4.522,4.451-5.024,7.718
			c-0.502,3.265-2.512,5.043-4.318,5.043c-1.81,0-8.623,0-8.623,0s-1.33-2.297,1.884-2.988c3.215-0.694,4.428-4.529,4.226-8.091
			c-0.2-3.562,0.302-8.311,0.302-8.311l6.832-1.582L490.485,319.898z"/>
		<path fill="#233862" d="M439.951,329.62c0,0,0.738,8.555-1.07,9.445l-23.143-0.048c0,0,0-2.672,3.716-3.265
			c3.719-0.593,10.248-2.769,11.354-7.617C431.913,323.289,439.951,329.62,439.951,329.62z"/>
		<path fill="#2B478B" d="M420.411,208.772c0,0,1.221,14.995,2.657,33.021c1.949,24.487,4.294,54.565,4.525,60.265
			c0.401,9.894,2.011,25.721,2.011,25.721s3.815,3.76,11.452,2.175c0,0,6.806-22.593,8.751-46.497
			c0.028-0.393,0.059-0.787,0.09-1.183c1.808-24.336,4.62-75.579,4.62-75.579L420.411,208.772z"/>
		<path fill="#233862" d="M420.411,208.772c0,0,1.221,14.995,2.657,33.021l26.739,41.663c0.028-0.393,0.059-0.787,0.09-1.183
			c1.808-24.336,4.62-75.579,4.62-75.579L420.411,208.772z"/>
		<path fill="#2B478B" d="M425.986,210.553c0,0,22.003,54.31,36.47,79.833c14.468,25.522,18.987,32.645,18.987,32.645
			s8.287-3.264,9.042-5.491c0,0-5.533-49.271-15.22-61.283c-5.475-6.787-11.907-27.155-12.208-34.277S461.1,200.76,461.1,200.76
			L425.986,210.553z"/>
	</g>
	<path fill="#FFB27D" d="M454.935,126.856c0,0-14.887,7.185-23.47,4.519c0,0,2.114-2.665,5.81-4.648
		c-0.296-1.723-0.527-3.218-0.66-4.485c-0.363-2.926-0.363-4.583-0.363-4.583l5.744-4.519l5.447-4.322
		C447.011,120.975,454.935,126.856,454.935,126.856z"/>
	<path fill="#EE9849" d="M462.781,203.541c0.031,0.91-1.916,1.95-2.773,2.34c-6.373,2.796-12.313,4.746-19.046,5.396
		c-7.957,0.813-17.363-0.975-20.599-0.909c-0.33,0-0.626-0.13-0.891-0.357c-0.23-0.163-0.397-9.751-0.23-21.809
		c0-0.489,0-0.977,0.032-1.463v-0.162c0.066-4.713,0.23-9.653,0.463-14.594c0.461-10.857,1.318-21.321,2.772-27.107
		c1.75-6.825,5.71-11.343,9.308-14.627l2.972-2.599c2.971,0.584,6.105,0.422,9.242-1.104c3.433-1.658,7.129-3.446,7.724-2.992
		c4.488,3.283,7.525,10.661,9.145,20.087c0.923,5.429,1.385,11.506,1.352,17.876c0,2.342-0.064,4.745-0.199,7.119
		c-0.789,12.871,0,24.051,0.463,30.52C462.647,201.039,462.746,202.501,462.781,203.541z"/>
	<path fill="#E58638" d="M462.515,202.951c-52.13-0.105-9.615-56.569-9.615-56.569l8.447-2.743c0.669,5.799,1,12.292,0.979,19.099
		c0,2.5-0.048,5.07-0.145,7.604C461.61,184.096,462.181,196.04,462.515,202.951z"/>
	<path fill="#ED985F" d="M447.54,113.468c0,0-3.762,6.857-10.926,8.775c-0.363-2.926-0.363-4.583-0.363-4.583l5.744-4.519
		L447.54,113.468z"/>
	<path fill="#FFB27D" d="M433.632,117.462c0,0,14.202,2.322,15.536-6.407c1.332-8.731,4.063-14.311-4.947-16.164
		c-9.012-1.852-11.286,1.217-12.45,4.025C430.604,101.723,429.973,116.633,433.632,117.462z"/>
	<path fill="#2C3A64" d="M454.328,93.846c0.131-0.147,0.428-0.267,1.089-0.304c0,0-0.528-0.33-1.237-0.348
		c-0.137-0.919-0.625-2.548-2.211-2.944c0,0,0.853,0.454,0.962,1.432c-1.834-1.884-5.763-3.255-16.648-2.396
		c-14.343,1.133-9.615,10.316-7.76,11.411c1.858,1.094,6.532-1.906,9.99-1.632c3.461,0.274,4.12,5.273,5.294,5.96
		c1.172,0.686,0.712-0.526,2.3-1.245c1.589-0.718,1.739,1.914,1.279,3.624c-0.458,1.711,1.725,3.968,1.725,3.968s0,0,2.205-2.374
		c2.203-2.375,4.282-12.433,3.28-14.577C454.506,94.229,454.419,94.039,454.328,93.846z"/>
	<path fill="#EE9849" d="M451.748,123.481c0,0,8.986,4.255,13.292,10.796c6.686,10.146,14.433,47.125,14.575,50.551
		c0.142,3.423-5.655,27.598-5.655,27.598s-5.879-0.386-7.396-3.354c0,0,1.175-24.838,0.43-26.436
		c-0.743-1.597-24.51-33.321-21.837-40.09C447.829,135.778,451.748,123.481,451.748,123.481z"/>
	<path fill="#FFB27D" d="M382.746,137.958c0,0,0.489-1.93-0.85-2.798c-1.339-0.867-2.57-3.227-3.136-2.907
		c-1.168,0.661,0.641,2.721,0.311,5.289C378.954,138.441,381.047,140.797,382.746,137.958z"/>
</g>
<path fill="#A8D29F" d="M164.407,320.745c0,0-21.106-54.046-35.909-45.439C113.696,283.912,164.407,320.745,164.407,320.745z"/>
<path fill="#A8D29F" d="M153.973,320.745c0,0-27.884-24.096-40.621-19.622C100.615,305.599,153.973,320.745,153.973,320.745z"/>
<path fill="#A8D29F" d="M449.214,328.529c0,0,6.426-22.341,13.964-19.705C470.718,311.46,449.214,328.529,449.214,328.529z"/>
<path fill="#A8D29F" d="M455.079,327.311c0,0,16.402-10.766,20.007-7.438S455.079,327.311,455.079,327.311z"/>
<path fill="#D2E4FD" d="M399.021,279.473H271.068c-0.856,0-1.557-0.702-1.557-1.558l0,0c0-0.856,0.701-1.557,1.557-1.557h127.952
	c0.857,0,1.559,0.7,1.559,1.557l0,0C400.579,278.771,399.878,279.473,399.021,279.473z"/>
<path fill="#D2E4FD" d="M399.021,285.705H271.068c-0.856,0-1.557-0.701-1.557-1.557l0,0c0-0.856,0.701-1.558,1.557-1.558h127.952
	c0.857,0,1.559,0.701,1.559,1.558l0,0C400.579,285.004,399.878,285.705,399.021,285.705z"/>
<path fill="#D2E4FD" d="M399.021,292.611H271.068c-0.856,0-1.557-0.699-1.557-1.557l0,0c0-0.856,0.701-1.557,1.557-1.557h127.952
	c0.857,0,1.559,0.7,1.559,1.557l0,0C400.579,291.912,399.878,292.611,399.021,292.611z"/>
<path fill="#D2E4FD" d="M382.224,299.52H270.964c-0.799,0-1.453-0.654-1.453-1.454v-0.208c0-0.799,0.653-1.452,1.453-1.452h111.259
	c0.799,0,1.454,0.653,1.454,1.452v0.208C383.678,298.865,383.022,299.52,382.224,299.52z"/>
<path fill="#1C468A" d="M669.451,340.173H34.928c-0.34,0-0.619-0.279-0.619-0.619v-0.114c0-0.34,0.279-0.619,0.619-0.619h634.523
	c0.341,0,0.618,0.279,0.618,0.619v0.114C670.069,339.894,669.792,340.173,669.451,340.173z"/>
</svg>
