<?xml version="1.0" encoding="utf-8"?>
<!-- Generator: Adobe Illustrator 16.0.0, SVG Export Plug-In . SVG Version: 6.00 Build 0)  -->
<!DOCTYPE svg PUBLIC "-//W3C//DTD SVG 1.1//EN" "http://www.w3.org/Graphics/SVG/1.1/DTD/svg11.dtd">
<svg version="1.1" id="Layer_1" xmlns="http://www.w3.org/2000/svg" xmlns:xlink="http://www.w3.org/1999/xlink" x="0px" y="0px"
	 width="760px" height="515.25px" viewBox="-101.604 0 760 515.25" enable-background="new -101.604 0 760 515.25"
	 xml:space="preserve">
<rect x="368.257" y="424.25" fill="none" width="11.339" height="9.664"/>
<g>
	<g>
		
			<line fill="none" stroke="#1A2E35" stroke-linecap="round" stroke-linejoin="round" stroke-miterlimit="10" x1="234.825" y1="359.089" x2="234.825" y2="59.551"/>
		<polyline fill="none" stroke="#1A2E35" stroke-linecap="round" stroke-linejoin="round" stroke-miterlimit="10" points="
			40.119,362.051 229.068,362.051 516.127,454.709 		"/>
	</g>
	<path fill="#1A2E35" d="M126.194,355.029h-13.089V139.216h26.938l-11.628-41.961H93.533l-11.628,41.961h26.938v215.813H95.755
		c-6.978,0-12.641,5.592-12.772,12.542c-0.002,0.031-0.012,0.063-0.012,0.096c0,0.014,0.004,0.026,0.005,0.042
		c-0.001,0.033-0.005,0.067-0.005,0.104l0,0h0.018c0.391,3.01,12.755,5.426,27.96,5.426c15.206,0,27.569-2.416,27.96-5.426h0.07l0,0
		C138.979,360.751,133.255,355.029,126.194,355.029z"/>
	<path fill="#1A2E35" stroke="#1A2E35" stroke-linecap="round" stroke-linejoin="round" stroke-miterlimit="10" d="M300.05,44.697
		v254.112l191.313,31.473V13.222L300.05,44.697z M486.404,117.457l-97.276,5.509V34.688l97.276-15.479V117.457z M389.128,132.259
		l97.276-4.46v88.769l-97.276-4.547V132.259z M381.235,211.651l-77.97-3.646v-71.809l77.97-3.576V211.651z M381.235,35.944v87.469
		l-77.97,4.417V48.352L381.235,35.944z M303.266,216.372l77.97,4.486v86.703l-77.97-12.406V216.372z M389.128,308.817v-87.505
		l97.276,5.597v97.385L389.128,308.817z"/>
</g>
<g>
	<g>
		<g>
			<ellipse fill="#004B83" cx="234.064" cy="437.906" rx="153.067" ry="47.692"/>
			<ellipse opacity="0.5" fill="#FFFFFF" cx="234.064" cy="437.906" rx="153.067" ry="47.692"/>
		</g>
		<g>
			<defs>
				<path id="XMLID_4_" d="M221.132,227.638c0,0-34.689-4.108-57.511,13.693c-22.821,17.8-42.448,92.2-41.992,127.801
					c0.457,35.603,13.693,53.403,47.013,68.01c33.319,14.604,95.394,9.126,130.083-1.826c34.689-10.955,46.1-49.297,45.643-69.836
					c-0.456-20.539-23.277-44.274-31.037-49.294c-7.759-5.02-29.668-15.52-40.622-31.951
					C261.754,267.804,245.779,232.201,221.132,227.638z"/>
			</defs>
			<use xlink:href="#XMLID_4_"  overflow="visible" fill="#004B83"/>
			<clipPath id="XMLID_17_">
				<use xlink:href="#XMLID_4_"  overflow="visible"/>
			</clipPath>
			<path opacity="0.13" clip-path="url(#XMLID_17_)" d="M305.088,432.888c-13.116-1.771-28.671-5.331-40.445-12.479
				c-24.857-15.093-31.072-43.502-39.95-54.155c-8.877-10.653-24.857-9.764-31.959-21.307c-7.103-11.54,4.439-96.765-15.98-102.091
				c-5.486-1.431-9.617-1.896-12.739-1.817c-0.13,0.1-0.265,0.19-0.394,0.292c-22.821,17.8-42.448,92.2-41.992,127.801
				c0.457,35.603,13.693,53.403,47.013,68.01c33.319,14.604,95.394,9.126,130.083-1.826
				C300.941,434.616,303.059,433.799,305.088,432.888z"/>
			
				<use xlink:href="#XMLID_4_"  overflow="visible" fill="none" stroke="#1A2E35" stroke-linecap="round" stroke-linejoin="round" stroke-miterlimit="10"/>
		</g>
		<g>
			<g>
				<path fill="#1A2E35" stroke="#1A2E35" stroke-linecap="round" stroke-linejoin="round" stroke-miterlimit="10" d="
					M207.473,243.726c0,0-22.638,4.328-26.633,8.323c-3.995,3.995-20.641,66.582-20.641,66.582s7.324-1.998,13.982,0.665
					c6.658,2.664,7.324,9.655,7.99,12.984s0.999,11.984,0.999,11.984s67.293-6.011,81.609-9.34c14.314-3.329,36.1-4.861,36.1-4.861
					s-36.812-83.008-42.471-86.004c-5.659-2.996-29.296-3.329-32.625-2.663C222.454,242.061,207.473,243.726,207.473,243.726z"/>
				
					<line fill="none" stroke="#FFFFFF" stroke-linecap="round" stroke-linejoin="round" stroke-miterlimit="10" x1="185.167" y1="320.627" x2="190.827" y2="274.353"/>
				
					<line fill="none" stroke="#FFFFFF" stroke-linecap="round" stroke-linejoin="round" stroke-miterlimit="10" x1="189.496" y1="286.67" x2="197.152" y2="276.683"/>
				<path fill="none" stroke="#FFFFFF" stroke-linecap="round" stroke-linejoin="round" stroke-miterlimit="10" d="M212.466,292.663
					c0,0,21.639-6.99,35.954-6.99"/>
				<path fill="none" stroke="#FFFFFF" stroke-linecap="round" stroke-linejoin="round" stroke-miterlimit="10" d="M232.892,273.578
					l-1.449,11.096c0,0,3.662,0,3.995,1.664c0.333,1.665-1.332,3.329-1.332,3.329s10.32,5.66,11.652,12.318"/>
			</g>
			<g>
				<defs>
					<path id="XMLID_14_" d="M219.901,231.297c0,0-12.429,3.995-14.204,7.102c-1.776,3.107-0.444,24.858-0.444,27.522
						c0,2.663,1.553-1.556,2.885-4.661c1.332-3.108,5.992-7.77,7.546-7.325c1.553,0.443,2.441,2.218,2.441,5.103
						c0,2.888,3.551,6.883,6.658,9.101c3.107,2.219,5.992,4.44,5.992,4.44s6.437-9.322,7.99-11.764
						c1.554-2.442,1.332-7.546,1.554-9.322c0.222-1.776,4.217,4.882,5.104,3.107c0.888-1.777-1.998-3.329-5.104-8.212
						c-3.107-4.882-2.22-9.987-6.881-13.538C228.779,229.3,223.452,230.409,219.901,231.297z"/>
				</defs>
				<use xlink:href="#XMLID_14_"  overflow="visible" fill="#FFFFFF"/>
				<clipPath id="XMLID_18_">
					<use xlink:href="#XMLID_14_"  overflow="visible"/>
				</clipPath>
				<path clip-path="url(#XMLID_18_)" fill="#004B83" d="M205.698,238.399c-1.185,2.073-0.987,12.444-0.723,19.909
					c2.83-3.653,8.674-10.541,12.062-9.237c4.31,1.658,5.968,13.927,5.968,13.927l-2.913-31.747
					c-0.063,0.016-0.128,0.031-0.19,0.046C219.901,231.297,207.473,235.292,205.698,238.399z"/>
				<path opacity="0.5" clip-path="url(#XMLID_18_)" fill="#FFFFFF" d="M205.698,238.399c-1.185,2.073-0.987,12.444-0.723,19.909
					c2.83-3.653,8.674-10.541,12.062-9.237c4.31,1.658,5.968,13.927,5.968,13.927l-2.913-31.747
					c-0.063,0.016-0.128,0.031-0.19,0.046C219.901,231.297,207.473,235.292,205.698,238.399z"/>
				
					<use xlink:href="#XMLID_14_"  overflow="visible" fill="none" stroke="#1A2E35" stroke-linecap="round" stroke-linejoin="round" stroke-miterlimit="10"/>
			</g>
			<g>
				<defs>
					<path id="XMLID_15_" d="M190.494,321.293c0,0-7.657-10.986-16.979-11.985c-9.321-0.998-20.64,6.658-20.973,9.322
						c-0.333,2.663-2.664,16.979-0.999,18.976s7.99,3.662,20.308-0.333C184.169,333.278,189.163,328.285,190.494,321.293z"/>
				</defs>
				<use xlink:href="#XMLID_15_"  overflow="visible" fill="#FFFFFF"/>
				<clipPath id="XMLID_19_">
					<use xlink:href="#XMLID_15_"  overflow="visible"/>
				</clipPath>
				<path clip-path="url(#XMLID_19_)" fill="#004B83" d="M159.343,337.268c0,0-2.652-7.626-1.326-10.279
					c1.326-2.652,6.631-6.632,9.947-10.608c3.315-3.979-7.765,2.25-8.289,0c-0.423-1.813,5.837-5.428,8.303-6.772
					c-7.75,1.482-15.167,6.874-15.436,9.022c-0.333,2.663-2.664,16.979-0.999,18.976c0.86,1.032,2.973,1.966,6.5,2.089
					C158.846,338.292,159.343,337.268,159.343,337.268z"/>
				<path opacity="0.5" clip-path="url(#XMLID_19_)" fill="#FFFFFF" d="M159.343,337.268c0,0-2.652-7.626-1.326-10.279
					c1.326-2.652,6.631-6.632,9.947-10.608c3.315-3.979-7.765,2.25-8.289,0c-0.423-1.813,5.837-5.428,8.303-6.772
					c-7.75,1.482-15.167,6.874-15.436,9.022c-0.333,2.663-2.664,16.979-0.999,18.976c0.86,1.032,2.973,1.966,6.5,2.089
					C158.846,338.292,159.343,337.268,159.343,337.268z"/>
				
					<use xlink:href="#XMLID_15_"  overflow="visible" fill="none" stroke="#1A2E35" stroke-linecap="round" stroke-linejoin="round" stroke-miterlimit="10"/>
			</g>
		</g>
		<g>
			<defs>
				<path id="XMLID_8_" d="M164.527,324.29c0,0-12.494,4.96-12.984,14.648c-0.271,5.362,8.656,7.656,17.978,7.656
					c9.321,0,22.638-11.651,31.293-16.646c8.656-4.993,28.63-16.646,30.96-17.644c2.331-0.999,10.32,1.664,13.649,2.663
					c3.329,0.998,9.654,0.998,9.654,0.998s4.661,7.324,6.991,7.324c2.331,0-4.994-10.985-5.992-13.316
					c-0.999-2.33-17.312-7.656-19.309-7.656c-1.997,0-48.605,11.651-55.596,14.314C174.182,319.295,164.527,324.29,164.527,324.29z"
					/>
			</defs>
			<use xlink:href="#XMLID_8_"  overflow="visible" fill="#FFFFFF"/>
			<clipPath id="XMLID_20_">
				<use xlink:href="#XMLID_8_"  overflow="visible"/>
			</clipPath>
			<path clip-path="url(#XMLID_20_)" fill="#004B83" d="M190.637,322.903c19.038-9.519,46.132-20.585,46.132-20.585
				c-1.997,0-48.605,11.651-55.596,14.314c-6.991,2.663-16.646,7.657-16.646,7.657s-12.494,4.96-12.984,14.648
				c-0.271,5.362,8.656,7.656,17.978,7.656c9.321,0,22.638-11.651,31.293-16.646c1.469-0.845,3.267-1.888,5.246-3.032
				C193.341,328.552,176.348,330.047,190.637,322.903z"/>
			<path opacity="0.5" clip-path="url(#XMLID_20_)" fill="#FFFFFF" d="M190.637,322.903c19.038-9.519,46.132-20.585,46.132-20.585
				c-1.997,0-48.605,11.651-55.596,14.314c-6.991,2.663-16.646,7.657-16.646,7.657s-12.494,4.96-12.984,14.648
				c-0.271,5.362,8.656,7.656,17.978,7.656c9.321,0,22.638-11.651,31.293-16.646c1.469-0.845,3.267-1.888,5.246-3.032
				C193.341,328.552,176.348,330.047,190.637,322.903z"/>
			
				<use xlink:href="#XMLID_8_"  overflow="visible" fill="none" stroke="#1A2E35" stroke-linecap="round" stroke-linejoin="round" stroke-miterlimit="10"/>
		</g>
		<g>
			<path fill="#FFFFFF" stroke="#1A2E35" stroke-linecap="round" stroke-linejoin="round" stroke-miterlimit="10" d="
				M261.895,250.247l-10.146,57.064l73.241,0.333l10.895-54.112c0.409-2.04-1.113-3.959-3.194-4.023l-67.385-2.034
				C263.639,247.425,262.187,248.605,261.895,250.247z"/>
			<g>
				<defs>
					<polygon id="XMLID_9_" points="251.75,307.311 216.087,332.535 297.65,330.204 324.99,307.644 					"/>
				</defs>
				<use xlink:href="#XMLID_9_"  overflow="visible" fill="#FFFFFF"/>
				<clipPath id="XMLID_21_">
					<use xlink:href="#XMLID_9_"  overflow="visible"/>
				</clipPath>
				<polygon clip-path="url(#XMLID_21_)" fill="#004B83" points="251.75,307.311 216.087,332.535 297.65,330.204 324.99,307.644 
									"/>
				<polygon opacity="0.5" clip-path="url(#XMLID_21_)" fill="#FFFFFF" points="251.75,307.311 216.087,332.535 297.65,330.204 
					324.99,307.644 				"/>
				
					<use xlink:href="#XMLID_9_"  overflow="visible" fill="none" stroke="#1A2E35" stroke-linecap="round" stroke-linejoin="round" stroke-miterlimit="10"/>
			</g>
		</g>
		<g>
			<defs>
				<path id="XMLID_12_" d="M278.716,332.28c0,0,29.296-25.635,58.259-34.29c28.963-8.656,34.955-7.324,34.29,5.659
					c-0.666,12.983-14.648,80.897-23.97,98.209s-20.974,48.938-20.641,54.93c0.333,5.993,11.651,23.637,21.639,29.962
					c9.988,6.325,8.989,13.982,2.664,15.314c-6.325,1.331-13.649,3.662-35.289-10.32c-21.639-13.982-30.628-33.957-29.296-38.95
					c1.332-4.994,15.313-11.652,20.974-21.64c5.659-9.987,14.98-47.273,15.646-64.252s6.658-31.293,6.658-31.293
					s-36.62,6.658-47.273,13.316L278.716,332.28z"/>
			</defs>
			<use xlink:href="#XMLID_12_"  overflow="visible" fill="#FFFFFF"/>
			<clipPath id="XMLID_22_">
				<use xlink:href="#XMLID_12_"  overflow="visible"/>
			</clipPath>
			<path clip-path="url(#XMLID_22_)" fill="#004B83" d="M278.716,332.28c0,0,29.296-25.635,58.259-34.29
				c28.963-8.656,34.955-7.324,34.29,5.659c-0.666,12.983-14.648,80.897-23.97,98.209s-20.974,48.938-20.641,54.93
				c0.333,5.993,11.651,23.637,21.639,29.962c9.988,6.325,8.989,13.982,2.664,15.314c-6.325,1.331-13.649,3.662-35.289-10.32
				c-21.639-13.982-30.628-33.957-29.296-38.95c1.332-4.994,15.313-11.652,20.974-21.64c5.659-9.987,14.98-47.273,15.646-64.252
				s6.658-31.293,6.658-31.293s-36.62,6.658-47.273,13.316L278.716,332.28z"/>
			<path opacity="0.5" clip-path="url(#XMLID_22_)" fill="#FFFFFF" d="M278.716,332.28c0,0,29.296-25.635,58.259-34.29
				c28.963-8.656,34.955-7.324,34.29,5.659c-0.666,12.983-14.648,80.897-23.97,98.209s-20.974,48.938-20.641,54.93
				c0.333,5.993,11.651,23.637,21.639,29.962c9.988,6.325,8.989,13.982,2.664,15.314c-6.325,1.331-13.649,3.662-35.289-10.32
				c-21.639-13.982-30.628-33.957-29.296-38.95c1.332-4.994,15.313-11.652,20.974-21.64c5.659-9.987,14.98-47.273,15.646-64.252
				s6.658-31.293,6.658-31.293s-36.62,6.658-47.273,13.316L278.716,332.28z"/>
			
				<use xlink:href="#XMLID_12_"  overflow="visible" fill="none" stroke="#1A2E35" stroke-linecap="round" stroke-linejoin="round" stroke-miterlimit="10"/>
		</g>
		<path fill="#FFFFFF" stroke="#1A2E35" stroke-linecap="round" stroke-linejoin="round" stroke-miterlimit="10" d="
			M307.347,431.154c-0.424,0.749-0.906,1.472-1.415,2.185c5.136,0.575,12.544,2.396,18.727,7.803
			c1.804,1.579,3.291,3.043,4.551,4.403c3.899-12.445,11.562-31.566,18.087-43.687c9.321-17.312,23.304-85.226,23.97-98.209
			c0.665-12.983-5.327-14.315-34.29-5.659c-28.963,8.655-58.259,34.29-58.259,34.29l3.662,16.646
			c10.653-6.658,47.273-13.316,47.273-13.316s-5.992,14.314-6.658,31.293S313.006,421.167,307.347,431.154z"/>
		<g>
			<defs>
				<path id="XMLID_2_" d="M307.347,431.154c-0.424,0.749-0.906,1.472-1.415,2.185c5.136,0.575,12.544,2.396,18.727,7.803
					c1.804,1.579,3.291,3.043,4.551,4.403c6.383-8.564,13.558-35.621,21.656-46.748c20.927-28.753,19.734-82.164,20.4-95.147
					c0.665-12.983-5.327-14.315-34.29-5.659c-28.963,8.655-58.259,34.29-58.259,34.29l3.662,16.646
					c10.653-6.658,47.273-13.316,47.273-13.316s-5.992,14.314-6.658,31.293S313.006,421.167,307.347,431.154z"/>
			</defs>
			<use xlink:href="#XMLID_2_"  overflow="visible" fill="#1A2E35"/>
			<clipPath id="XMLID_23_">
				<use xlink:href="#XMLID_2_"  overflow="visible"/>
			</clipPath>
			<path opacity="0.53" clip-path="url(#XMLID_23_)" fill="#FFFFFF" d="M307.347,431.154c-0.424,0.749-0.906,1.472-1.415,2.185
				c5.136,0.575,12.544,2.396,18.727,7.803c1.804,1.579,3.291,3.043,4.551,4.403c6.383-8.564,13.558-35.621,21.656-46.748
				c20.927-28.753,19.734-82.164,20.4-95.147c0.665-12.983-5.327-14.315-34.29-5.659c-28.963,8.655-58.259,34.29-58.259,34.29
				l3.662,16.646c10.653-6.658,47.273-13.316,47.273-13.316s-5.992,14.314-6.658,31.293S313.006,421.167,307.347,431.154z"/>
			<path opacity="0.14" clip-path="url(#XMLID_23_)" d="M357.192,301.893c-0.525-4.728-52.018,17.064-73.733,26.475
				c-3.014,2.4-4.743,3.912-4.743,3.912l3.662,16.646c10.653-6.658,47.273-13.316,47.273-13.316s-5.992,14.314-6.658,31.293
				s-9.987,54.265-15.646,64.252c-0.424,0.749-0.906,1.472-1.415,2.183c2.997,0.338,6.77,1.104,10.62,2.754
				c8.064-17.052,16.609-36.818,20.666-52.301C344.541,355.825,357.857,307.886,357.192,301.893z"/>
			
				<path clip-path="url(#XMLID_23_)" fill="none" stroke="#1A2E35" stroke-linecap="round" stroke-linejoin="round" stroke-miterlimit="10" d="
				M329.651,335.609c0,0,9.987-20.308,18.643-28.631"/>
			
				<use xlink:href="#XMLID_2_"  overflow="visible" fill="none" stroke="#1A2E35" stroke-linecap="round" stroke-linejoin="round" stroke-miterlimit="10"/>
		</g>
		<path fill="#1A2E35" stroke="#1A2E35" stroke-linecap="round" stroke-linejoin="round" stroke-miterlimit="10" d="
			M234.825,359.089c0,0,16.432-0.455,31.494-5.933c15.062-5.478-12.324-15.52-22.822-10.042
			C233,348.592,234.825,359.089,234.825,359.089z"/>
		<g>
			<defs>
				<path id="XMLID_10_" d="M191.493,337.606c0,0-10.653,5.992-14.315,12.65s12.096,17.756,28.742,17.091
					c16.646-0.666,47.162-18.755,47.162-18.755s0.333,29.296,5.992,39.949s31.627,36.62,41.948,43.278s44.942,31.626,50.27,35.621
					c5.326,3.995,15.313,11.319,17.644,11.652c2.331,0.333,26.633-29.297,32.293-39.284c5.659-9.987,10.652-30.96,8.655-35.621
					s-5.992-0.666-9.987,2.663s-40.615,27.632-43.944,29.296c-3.329,1.665-5.659,2.331-5.659,2.331s-29.962-28.631-45.941-50.603
					c-15.98-21.972-17.312-50.27-23.304-60.923c-5.994-10.653-14.649-15.313-27.633-13.982
					C240.431,314.302,213.465,321.293,191.493,337.606z"/>
			</defs>
			<use xlink:href="#XMLID_10_"  overflow="visible" fill="#FFFFFF"/>
			<clipPath id="XMLID_24_">
				<use xlink:href="#XMLID_10_"  overflow="visible"/>
			</clipPath>
			<path clip-path="url(#XMLID_24_)" fill="#004B83" d="M332.36,453.729c8.891,6.37,16.634,11.99,18.931,13.712
				c5.326,3.995,15.313,11.319,17.644,11.652c0.826,0.119,4.422-3.54,8.964-8.747l-38.126-24.523L332.36,453.729z"/>
			<path opacity="0.5" clip-path="url(#XMLID_24_)" fill="#FFFFFF" d="M332.36,453.729c8.891,6.37,16.634,11.99,18.931,13.712
				c5.326,3.995,15.313,11.319,17.644,11.652c0.826,0.119,4.422-3.54,8.964-8.747l-38.126-24.523L332.36,453.729z"/>
			
				<use xlink:href="#XMLID_10_"  overflow="visible" fill="none" stroke="#1A2E35" stroke-linecap="round" stroke-linejoin="round" stroke-miterlimit="10"/>
		</g>
		<g>
			<defs>
				<path id="XMLID_1_" d="M348.225,436.478c-7.041-6.869-33.451-42.304-43.874-62.676c-15.273-29.853-16.918-40.027-22.91-50.681
					s-15.042-11.482-28.026-10.151c-12.983,1.332-36.213,3.743-64.716,19.907c0,0-11.964,6.505-15.626,13.163
					s9.67,23.424,32.847,21.307c16.589-1.517,47.162-18.755,47.162-18.755s0.333,29.296,5.992,39.949s31.627,36.62,41.948,43.278
					c6.543,4.224,22.856,15.806,35.279,24.736C339.416,445.407,344.92,439.299,348.225,436.478z"/>
			</defs>
			<use xlink:href="#XMLID_1_"  overflow="visible" fill="#1A2E35"/>
			<clipPath id="XMLID_25_">
				<use xlink:href="#XMLID_1_"  overflow="visible"/>
			</clipPath>
			<path opacity="0.53" clip-path="url(#XMLID_25_)" fill="#FFFFFF" d="M348.225,436.478c-7.041-6.869-33.451-42.304-43.874-62.676
				c-15.273-29.853-16.918-40.027-22.91-50.681s-15.042-11.482-28.026-10.151c-12.983,1.332-36.213,3.743-64.716,19.907
				c0,0-11.964,6.505-15.626,13.163s9.67,23.424,32.847,21.307c16.589-1.517,47.162-18.755,47.162-18.755s0.333,29.296,5.992,39.949
				s31.627,36.62,41.948,43.278c6.543,4.224,22.856,15.806,35.279,24.736C339.416,445.407,344.92,439.299,348.225,436.478z"/>
			<path opacity="0.14" clip-path="url(#XMLID_25_)" d="M281.288,389.116c-9.987-25.301-3.995-75.903-31.959-69.245
				c-20.378,4.851-57.722,22.076-76.487,31.064c2.215,7.642,14.468,18.112,33.077,16.412c16.589-1.517,47.162-18.755,47.162-18.755
				s0.333,29.296,5.992,39.949s31.627,36.62,41.948,43.278c6.543,4.224,22.856,15.806,35.279,24.736
				c1.26-4.51,2.911-8.18,4.648-11.155C316.154,427.083,286.863,403.239,281.288,389.116z"/>
			
				<line clip-path="url(#XMLID_25_)" fill="none" stroke="#1A2E35" stroke-linecap="round" stroke-linejoin="round" stroke-miterlimit="10" x1="253.082" y1="348.592" x2="252.083" y2="331.281"/>
			
				<use xlink:href="#XMLID_1_"  overflow="visible" fill="none" stroke="#1A2E35" stroke-linecap="round" stroke-linejoin="round" stroke-miterlimit="10"/>
		</g>
		<path fill="#1A2E35" stroke="#1A2E35" stroke-linecap="round" stroke-linejoin="round" stroke-miterlimit="10" d="
			M351.291,467.441c5.326,3.995,15.313,11.319,17.644,11.652c2.331,0.333,26.633-29.297,32.293-39.284
			c5.659-9.987,10.652-30.96,8.655-35.621s-5.992-0.666-9.987,2.663s-40.615,27.632-43.944,29.296
			c-0.872,0.438-1.67,0.802-2.381,1.105c-0.964,1.823-2.125,4.653-1.281,6.552c1.332,2.996,6.991,6.991,6.991,6.991l-10.071,15.108
			C350.104,466.562,350.817,467.087,351.291,467.441z"/>
		<g>
			<defs>
				<path id="XMLID_11_" d="M401.228,439.809c5.659-9.987,10.652-30.96,8.655-35.621c-1.157-2.699-2.987-2.486-5.097-1.188
					c1.401,6.229-0.014,18.227-6.888,31.15c-6.136,11.532-25.099,31.915-34.653,41.843c2.594,1.709,4.758,2.968,5.689,3.101
					C371.266,479.426,395.567,449.796,401.228,439.809z"/>
			</defs>
			<use xlink:href="#XMLID_11_"  overflow="visible" fill="#FFFFFF"/>
			<clipPath id="XMLID_26_">
				<use xlink:href="#XMLID_11_"  overflow="visible"/>
			</clipPath>
			<path clip-path="url(#XMLID_26_)" fill="#004B83" d="M369.274,479.007c0.086-0.039,0.181-0.091,0.285-0.156
				c0.029-0.021,0.058-0.034,0.091-0.058c0.134-0.088,0.283-0.197,0.444-0.325c0.051-0.041,0.105-0.085,0.159-0.13
				c0.122-0.099,0.251-0.208,0.387-0.327c0.07-0.063,0.143-0.125,0.216-0.19c0.166-0.148,0.337-0.307,0.518-0.479
				c0.104-0.099,0.214-0.202,0.323-0.31c0.142-0.138,0.286-0.278,0.437-0.426c0.122-0.123,0.248-0.25,0.377-0.38
				c0.12-0.12,0.243-0.247,0.367-0.375c0.306-0.314,0.621-0.645,0.952-0.996c0.051-0.052,0.1-0.104,0.151-0.158
				c0.194-0.208,0.394-0.422,0.595-0.64c0.078-0.086,0.156-0.17,0.234-0.255c0.696-0.757,1.434-1.579,2.205-2.453
				c0.021-0.021,0.04-0.044,0.062-0.067c0.269-0.305,0.541-0.614,0.816-0.932c0.001-0.002,0.004-0.002,0.005-0.005l-5.813-3.74
				c-3.314,3.598-6.389,6.841-8.841,9.387c0,0,0,0,0.002,0c0.307,0.203,0.607,0.398,0.901,0.588
				c0.042,0.026,0.083,0.052,0.124,0.078c0.281,0.18,0.557,0.356,0.823,0.52c0.006,0.003,0.011,0.006,0.016,0.011
				c0.455,0.281,0.878,0.53,1.278,0.76c0.125,0.07,0.254,0.146,0.372,0.211c0.132,0.072,0.251,0.135,0.373,0.2
				c0.147,0.075,0.29,0.15,0.424,0.216c0.101,0.049,0.198,0.096,0.292,0.138c0.145,0.067,0.278,0.122,0.405,0.174
				c0.067,0.026,0.14,0.055,0.2,0.078c0.181,0.063,0.346,0.109,0.479,0.128c0.065,0.01,0.152-0.014,0.251-0.05
				C369.213,479.033,369.244,479.02,369.274,479.007z"/>
			<path opacity="0.5" clip-path="url(#XMLID_26_)" fill="#FFFFFF" d="M369.274,479.007c0.086-0.039,0.181-0.091,0.285-0.156
				c0.029-0.021,0.058-0.034,0.091-0.058c0.134-0.088,0.283-0.197,0.444-0.325c0.051-0.041,0.105-0.085,0.159-0.13
				c0.122-0.099,0.251-0.208,0.387-0.327c0.07-0.063,0.143-0.125,0.216-0.19c0.166-0.148,0.337-0.307,0.518-0.479
				c0.104-0.099,0.214-0.202,0.323-0.31c0.142-0.138,0.286-0.278,0.437-0.426c0.122-0.123,0.248-0.25,0.377-0.38
				c0.12-0.12,0.243-0.247,0.367-0.375c0.306-0.314,0.621-0.645,0.952-0.996c0.051-0.052,0.1-0.104,0.151-0.158
				c0.194-0.208,0.394-0.422,0.595-0.64c0.078-0.086,0.156-0.17,0.234-0.255c0.696-0.757,1.434-1.579,2.205-2.453
				c0.021-0.021,0.04-0.044,0.062-0.067c0.269-0.305,0.541-0.614,0.816-0.932c0.001-0.002,0.004-0.002,0.005-0.005l-5.813-3.74
				c-3.314,3.598-6.389,6.841-8.841,9.387c0,0,0,0,0.002,0c0.307,0.203,0.607,0.398,0.901,0.588
				c0.042,0.026,0.083,0.052,0.124,0.078c0.281,0.18,0.557,0.356,0.823,0.52c0.006,0.003,0.011,0.006,0.016,0.011
				c0.455,0.281,0.878,0.53,1.278,0.76c0.125,0.07,0.254,0.146,0.372,0.211c0.132,0.072,0.251,0.135,0.373,0.2
				c0.147,0.075,0.29,0.15,0.424,0.216c0.101,0.049,0.198,0.096,0.292,0.138c0.145,0.067,0.278,0.122,0.405,0.174
				c0.067,0.026,0.14,0.055,0.2,0.078c0.181,0.063,0.346,0.109,0.479,0.128c0.065,0.01,0.152-0.014,0.251-0.05
				C369.213,479.033,369.244,479.02,369.274,479.007z"/>
			
				<use xlink:href="#XMLID_11_"  overflow="visible" fill="none" stroke="#1A2E35" stroke-linecap="round" stroke-linejoin="round" stroke-miterlimit="10"/>
		</g>
		<path fill="#1A2E35" stroke="#1A2E35" stroke-linecap="round" stroke-linejoin="round" stroke-miterlimit="10" d="M348.294,486.75
			c-9.987-6.325-21.306-23.969-21.639-29.962c-0.027-0.486,0.032-1.157,0.156-1.963c-3.164,0.039-5.482,1.963-5.482,1.963
			s-7.324-6.658-12.984-10.32c-4.055-2.621-9.29-3.362-11.941-3.573c-4.835,3.969-9.306,7.184-10.03,9.899
			c-1.332,4.993,7.657,24.968,29.296,38.95c21.64,13.982,28.964,11.651,35.289,10.32
			C357.283,500.732,358.282,493.075,348.294,486.75z"/>
		<path fill="#FFFFFF" stroke="#1A2E35" stroke-linecap="round" stroke-linejoin="round" stroke-miterlimit="10" d="
			M284.376,453.458"/>
		<g>
			<defs>
				<path id="XMLID_13_" d="M348.294,486.75c-2.949-1.867-6.009-4.73-8.872-7.981c-6.872-2.918-16.038-6.708-24.086-11.66
					c-8.655-5.326-6.658-8.655-11.651-13.649c-3.833-3.831-11.371-4.327-14.68-4.354c-1.365,1.329-2.329,2.554-2.632,3.688
					c-1.332,4.993,7.657,24.968,29.296,38.95c21.64,13.982,28.964,11.651,35.289,10.32
					C357.283,500.732,358.282,493.075,348.294,486.75z"/>
			</defs>
			<use xlink:href="#XMLID_13_"  overflow="visible" fill="#FFFFFF"/>
			<clipPath id="XMLID_27_">
				<use xlink:href="#XMLID_13_"  overflow="visible"/>
			</clipPath>
			<path clip-path="url(#XMLID_27_)" fill="#004B83" d="M348.294,486.75c-2.949-1.867-6.009-4.73-8.872-7.981
				c-6.872-2.918-16.038-6.708-24.086-11.66c-8.655-5.326-6.658-8.655-11.651-13.649c-3.833-3.831-11.371-4.327-14.68-4.354
				c-1.365,1.329-2.329,2.554-2.632,3.688c-1.332,4.993,7.657,24.968,29.296,38.95c21.64,13.982,28.964,11.651,35.289,10.32
				C357.283,500.732,358.282,493.075,348.294,486.75z"/>
			<path opacity="0.5" clip-path="url(#XMLID_27_)" fill="#FFFFFF" d="M348.294,486.75c-2.949-1.867-6.009-4.73-8.872-7.981
				c-6.872-2.918-16.038-6.708-24.086-11.66c-8.655-5.326-6.658-8.655-11.651-13.649c-3.833-3.831-11.371-4.327-14.68-4.354
				c-1.365,1.329-2.329,2.554-2.632,3.688c-1.332,4.993,7.657,24.968,29.296,38.95c21.64,13.982,28.964,11.651,35.289,10.32
				C357.283,500.732,358.282,493.075,348.294,486.75z"/>
			
				<use xlink:href="#XMLID_13_"  overflow="visible" fill="none" stroke="#1A2E35" stroke-linecap="round" stroke-linejoin="round" stroke-miterlimit="10"/>
		</g>
		<g>
			<defs>
				<path id="XMLID_3_" d="M349.959,489.081c-8.655-4.994-26.3-8.323-37.619-15.98c-11.318-7.656-8.322-14.314-16.646-19.642
					c-3.824-2.447-7.013-1.87-9.346-0.533c-1.156,5.191,7.855,24.95,29.32,38.818c21.64,13.982,28.964,11.651,35.289,10.32
					c4.204-0.885,6.03-4.567,3.866-8.794C353.458,491.629,351.844,490.167,349.959,489.081z"/>
			</defs>
			<use xlink:href="#XMLID_3_"  overflow="visible" fill="#1A2E35"/>
			<clipPath id="XMLID_28_">
				<use xlink:href="#XMLID_3_"  overflow="visible"/>
			</clipPath>
			<path opacity="0.53" clip-path="url(#XMLID_28_)" fill="#FFFFFF" d="M349.959,489.081c-8.655-4.994-26.3-8.323-37.619-15.98
				c-11.318-7.656-8.322-14.314-16.646-19.642c-3.824-2.447-7.013-1.87-9.346-0.533c-1.156,5.191,7.855,24.95,29.32,38.818
				c21.64,13.982,28.964,11.651,35.289,10.32c4.204-0.885,6.03-4.567,3.866-8.794C353.458,491.629,351.844,490.167,349.959,489.081z
				"/>
			
				<use xlink:href="#XMLID_3_"  overflow="visible" fill="none" stroke="#1A2E35" stroke-linecap="round" stroke-linejoin="round" stroke-miterlimit="10"/>
		</g>
		<g>
			<path fill="#FFFFFF" stroke="#1A2E35" stroke-linecap="round" stroke-linejoin="round" stroke-miterlimit="10" d="
				M184.066,425.401c0,0,6.39-7.759,7.303-1.826c0.913,5.936-0.457,16.888-5.02,20.997c-4.565,4.106-6.847-2.283-6.847-2.283
				l2.739-3.652c0,0,2.282,4.564,4.108-2.735c1.825-7.304-3.652-6.391-3.652-6.391L184.066,425.401z"/>
			<path fill="#FFFFFF" stroke="#1A2E35" stroke-linecap="round" stroke-linejoin="round" stroke-miterlimit="10" d="
				M179.174,454.614c-3.782,2.799-16.102,2.799-19.884,0c-8.003-5.925-6.627-34.55-6.627-34.55h33.11
				C185.772,420.064,187.177,448.689,179.174,454.614z"/>
			<g>
				<path fill="none" stroke="#1A2E35" stroke-linecap="round" stroke-linejoin="round" stroke-miterlimit="10" d="M156.261,414.446
					c0-3.604,3.337-3.604,3.337-7.207c0-3.604-3.337-3.604-3.337-7.207c0-3.604,3.337-3.604,3.337-7.209
					c0-3.61-3.337-3.61-3.337-7.218s3.337-3.607,3.337-7.218"/>
				<path fill="none" stroke="#1A2E35" stroke-linecap="round" stroke-linejoin="round" stroke-miterlimit="10" d="M167.699,414.446
					c0-2.736,3.337-2.736,3.337-5.472c0-2.736-3.337-2.736-3.337-5.473c0-2.738,3.337-2.738,3.337-5.478
					c0-2.741-3.337-2.741-3.337-5.482c0-2.739,3.337-2.739,3.337-5.48"/>
				<path fill="none" stroke="#1A2E35" stroke-linecap="round" stroke-linejoin="round" stroke-miterlimit="10" d="M180.28,414.446
					c0-3.604,3.337-3.604,3.337-7.207c0-3.604-3.337-3.604-3.337-7.207c0-3.604,3.337-3.604,3.337-7.209
					c0-3.61-3.337-3.61-3.337-7.218s3.337-3.607,3.337-7.218"/>
			</g>
			
				<ellipse fill="#FFFFFF" stroke="#1A2E35" stroke-linecap="round" stroke-linejoin="round" stroke-miterlimit="10" cx="169.217" cy="420.064" rx="16.555" ry="1.508"/>
		</g>
		<g>
			<g>
				<defs>
					<path id="XMLID_5_" d="M216.333,214.036c0,0,1.551,16.819,2.204,22.125s2.143,20.572,3.674,25.62s9.873,13.826,10.682,11.797
						c0.808-2.031,4.933-15.742,3.28-23.896c-1.654-8.153-2.155-15.241-1.125-17.28c1.031-2.04,4.713-4.406,4.713-4.406
						s-6.571-3.295-12.503-7.282C221.325,216.727,217.15,212.228,216.333,214.036z"/>
				</defs>
				<use xlink:href="#XMLID_5_"  overflow="visible" fill="#FFFFFF"/>
				<clipPath id="XMLID_29_">
					<use xlink:href="#XMLID_5_"  overflow="visible"/>
				</clipPath>
				<path clip-path="url(#XMLID_29_)" fill="#004B83" d="M237.701,228.776l-1.36-2.592c-2.445-1.34-5.855-3.3-9.083-5.47
					c-5.932-3.987-10.107-8.486-10.924-6.678c0,0,1.551,16.819,2.204,22.125s2.143,20.572,3.674,25.62
					c0.374,1.232,1.157,2.687,2.133,4.153c-1.611-10.042,0.137-28.169,0.137-28.169L237.701,228.776z"/>
				<path opacity="0.5" clip-path="url(#XMLID_29_)" fill="#FFFFFF" d="M237.701,228.776l-1.36-2.592
					c-2.445-1.34-5.855-3.3-9.083-5.47c-5.932-3.987-10.107-8.486-10.924-6.678c0,0,1.551,16.819,2.204,22.125
					s2.143,20.572,3.674,25.62c0.374,1.232,1.157,2.687,2.133,4.153c-1.611-10.042,0.137-28.169,0.137-28.169L237.701,228.776z"/>
				
					<use xlink:href="#XMLID_5_"  overflow="visible" fill="none" stroke="#1A2E35" stroke-linecap="round" stroke-linejoin="round" stroke-miterlimit="10"/>
			</g>
			<g>
				<g>
					<g>
						<defs>
							<path id="XMLID_6_" d="M215.712,216.438c0,0,9.59,8.027,16.949,10.925c7.359,2.899,18.656,2.744,20.243-1.086
								c1.589-3.83-2.79-34.087-6.581-42.053c-3.792-7.965-7.854-8.095-14.543-8.701s-20.096,4.848-22.449,11.316
								c-2.354,6.468,0.326,15.637,2.278,21.066C213.561,213.334,215.712,216.438,215.712,216.438z"/>
						</defs>
						<use xlink:href="#XMLID_6_"  overflow="visible" fill="#FFFFFF"/>
						<clipPath id="XMLID_30_">
							<use xlink:href="#XMLID_6_"  overflow="visible"/>
						</clipPath>
						<path clip-path="url(#XMLID_30_)" fill="#004B83" d="M232.941,216.084c-3.398-10.1-4.23-25.912-4.23-30.142
							c0-3.264,8.495-6.841,12.378-8.306c-2.541-1.573-5.498-1.77-9.309-2.115c-6.689-0.606-20.096,4.848-22.449,11.316
							c-2.354,6.468,0.326,15.637,2.278,21.066c1.952,5.429,4.103,8.533,4.103,8.533s9.59,8.027,16.949,10.925
							c4.903,1.931,11.54,2.498,15.903,1.535C243.365,226.909,235.205,222.812,232.941,216.084z"/>
						<path opacity="0.5" clip-path="url(#XMLID_30_)" fill="#FFFFFF" d="M232.941,216.084c-3.398-10.1-4.23-25.912-4.23-30.142
							c0-3.264,8.495-6.841,12.378-8.306c-2.541-1.573-5.498-1.77-9.309-2.115c-6.689-0.606-20.096,4.848-22.449,11.316
							c-2.354,6.468,0.326,15.637,2.278,21.066c1.952,5.429,4.103,8.533,4.103,8.533s9.59,8.027,16.949,10.925
							c4.903,1.931,11.54,2.498,15.903,1.535C243.365,226.909,235.205,222.812,232.941,216.084z"/>
						
							<use xlink:href="#XMLID_6_"  overflow="visible" fill="none" stroke="#1A2E35" stroke-linecap="round" stroke-linejoin="round" stroke-miterlimit="10"/>
					</g>
					
						<ellipse transform="matrix(0.9992 -0.0393 0.0393 0.9992 -7.5508 9.6391)" fill="none" stroke="#1A2E35" stroke-linecap="round" stroke-linejoin="round" stroke-miterlimit="10" cx="241.401" cy="196.879" rx="5.647" ry="6.95"/>
					
						<ellipse transform="matrix(0.9992 -0.0393 0.0393 0.9992 -7.4897 10.0476)" fill="none" stroke="#1A2E35" stroke-linecap="round" stroke-linejoin="round" stroke-miterlimit="10" cx="251.542" cy="195.32" rx="3.041" ry="6.95"/>
					<path fill="#FFFFFF" stroke="#1A2E35" stroke-linecap="round" stroke-linejoin="round" stroke-miterlimit="10" d="
						M247.434,195.276c0,0,10.999,2.092,9.944,4.741c-1.055,2.65-8.499,5.513-8.499,5.513"/>
					<path fill="none" stroke="#1A2E35" stroke-linecap="round" stroke-linejoin="round" stroke-miterlimit="10" d="
						M246.761,194.053c0,0,0.155-1.36,1.855-0.49"/>
					
						<line fill="none" stroke="#1A2E35" stroke-linecap="round" stroke-linejoin="round" stroke-miterlimit="10" x1="235.447" y1="197.727" x2="215.447" y2="205.597"/>
					
						<path fill="none" stroke="#1A2E35" stroke-width="2" stroke-linecap="round" stroke-linejoin="round" stroke-miterlimit="10" d="
						M235.714,191.259c0,0,1.229-3.173,4.985-3.009"/>
					
						<line fill="none" stroke="#1A2E35" stroke-width="2" stroke-linecap="round" stroke-linejoin="round" stroke-miterlimit="10" x1="249.035" y1="188.338" x2="245.956" y2="189.502"/>
					<path fill="none" stroke="#1A2E35" stroke-linecap="round" stroke-linejoin="round" stroke-miterlimit="10" d="
						M239.522,210.681c0,0,3.957-1.044,6.271,1.308"/>
					
						<ellipse transform="matrix(0.9908 -0.1356 0.1356 0.9908 -24.5548 34.5355)" fill="#1A2E35" cx="241.225" cy="197.509" rx="0.888" ry="2.441"/>
				</g>
				<g>
					<path fill="#1A2E35" stroke="#1A2E35" stroke-linecap="round" stroke-linejoin="round" stroke-miterlimit="10" d="
						M217.316,205.652c0,0-1.344,2.661,2.429,2.802c3.772,0.141,6.308-1.698,4.481-3.944c-1.827-2.246-4.522-4.458-1.742-7.466
						c2.779-3.007,8.186-5.539,5.156-8.897s-14.213-0.31-11.421-3.028c2.791-2.718,15.721-5.546,21.531-5.195
						c5.81,0.352,16.646-4.132,19.022-10.022c2.376-5.89-0.95-16.772-8.751-16.175c-7.801,0.597-13.615,7.491-17.076,7.917
						c-3.461,0.426-10.565-3.352-16.517,0.07c-5.951,3.422-6.154,12.994-6.687,14.174s-8.579,2.946-9.995,11.116
						c-1.417,8.17,2.316,14.689,5.647,18.325c3.331,3.637,4.834,5.027,4.834,5.027L217.316,205.652z"/>
					<g>
						
							<path fill="none" stroke="#FFFFFF" stroke-width="0.75" stroke-linecap="round" stroke-linejoin="round" stroke-miterlimit="10" d="
							M200.372,190.902c-0.132,2.019,0.861,3.541,0.861,3.541"/>
						
							<path fill="none" stroke="#FFFFFF" stroke-width="0.75" stroke-linecap="round" stroke-linejoin="round" stroke-miterlimit="10" d="
							M234.325,169.822c0,0-2.912-6.354,4.5-6.354c7.413,0,8.472,9.266,0.794,12.708c-7.677,3.441-24.355,4.236-33.356,8.207
							c-2.25,0.993-3.69,2.118-4.583,3.248"/>
						
							<path fill="none" stroke="#FFFFFF" stroke-width="0.75" stroke-linecap="round" stroke-linejoin="round" stroke-miterlimit="10" d="
							M220.918,192.38c-2.661,0.952-6.114,2.285-9.626,3.916c-7.413,3.441-5.825,6.883-5.825,6.883"/>
						
							<path fill="none" stroke="#FFFFFF" stroke-width="0.75" stroke-linecap="round" stroke-linejoin="round" stroke-miterlimit="10" d="
							M225.853,190.736c0,0-0.647,0.192-1.754,0.554"/>
					</g>
				</g>
				<g>
					<defs>
						<path id="XMLID_7_" d="M218.588,208.5c0,0-4.302-6.206-8.84-3.709c-4.539,2.497-1.002,11.342,1.727,14.423
							c2.729,3.08,8.011-2.634,8.532-4.104"/>
					</defs>
					<use xlink:href="#XMLID_7_"  overflow="visible" fill="#FFFFFF"/>
					<clipPath id="XMLID_31_">
						<use xlink:href="#XMLID_7_"  overflow="visible"/>
					</clipPath>
					<path clip-path="url(#XMLID_31_)" fill="#004B83" d="M218.588,208.5c0,0-4.302-6.206-8.84-3.709
						c-4.539,2.497-1.002,11.342,1.727,14.423c2.729,3.08,8.011-2.634,8.532-4.104"/>
					<path opacity="0.5" clip-path="url(#XMLID_31_)" fill="#FFFFFF" d="M218.588,208.5c0,0-4.302-6.206-8.84-3.709
						c-4.539,2.497-1.002,11.342,1.727,14.423c2.729,3.08,8.011-2.634,8.532-4.104"/>
					
						<use xlink:href="#XMLID_7_"  overflow="visible" fill="none" stroke="#1A2E35" stroke-linecap="round" stroke-linejoin="round" stroke-miterlimit="10"/>
				</g>
			</g>
		</g>
	</g>
	<g>
		<path fill="#FFFFFF" stroke="#1A2E35" stroke-linecap="round" stroke-linejoin="round" stroke-miterlimit="10" d="
			M164.259,286.257H68.81c-3.765,0-6.818-3.054-6.818-6.817v-69.784c0-3.765,3.053-6.817,6.818-6.817h95.449
			c3.766,0,6.818,3.052,6.818,6.817v69.784C171.078,283.204,168.025,286.257,164.259,286.257z"/>
		<polyline fill="#FFFFFF" stroke="#1A2E35" stroke-linecap="round" stroke-linejoin="round" stroke-miterlimit="10" points="
			169.001,262.847 232.92,279.493 169.001,248.199 		"/>
		
			<rect x="70.815" y="210.86" fill="#004B83" stroke="#1A2E35" stroke-linecap="round" stroke-linejoin="round" stroke-miterlimit="10" width="25.667" height="67.376"/>
		
			<rect x="162.208" y="210.86" fill="#004B83" stroke="#1A2E35" stroke-linecap="round" stroke-linejoin="round" stroke-miterlimit="10" width="3.208" height="67.376"/>
		
			<rect x="162.208" y="241.669" fill="#1A2E35" stroke="#1A2E35" stroke-linecap="round" stroke-linejoin="round" stroke-miterlimit="10" width="3.208" height="5.757"/>
		
			<line fill="#FFFFFF" stroke="#1A2E35" stroke-linecap="round" stroke-linejoin="round" stroke-miterlimit="10" x1="104.503" y1="212.464" x2="155.035" y2="212.464"/>
		
			<line fill="#FFFFFF" stroke="#1A2E35" stroke-linecap="round" stroke-linejoin="round" stroke-miterlimit="10" x1="104.503" y1="219.683" x2="155.035" y2="219.683"/>
		
			<line fill="#FFFFFF" stroke="#1A2E35" stroke-linecap="round" stroke-linejoin="round" stroke-miterlimit="10" x1="104.503" y1="226.901" x2="155.035" y2="226.901"/>
		
			<line fill="#FFFFFF" stroke="#1A2E35" stroke-linecap="round" stroke-linejoin="round" stroke-miterlimit="10" x1="104.503" y1="234.121" x2="155.035" y2="234.121"/>
		
			<line fill="#FFFFFF" stroke="#1A2E35" stroke-linecap="round" stroke-linejoin="round" stroke-miterlimit="10" x1="104.503" y1="251.767" x2="155.035" y2="251.767"/>
		
			<line fill="#FFFFFF" stroke="#1A2E35" stroke-linecap="round" stroke-linejoin="round" stroke-miterlimit="10" x1="104.503" y1="258.183" x2="155.035" y2="258.183"/>
		
			<line fill="#FFFFFF" stroke="#1A2E35" stroke-linecap="round" stroke-linejoin="round" stroke-miterlimit="10" x1="104.503" y1="264.6" x2="155.035" y2="264.6"/>
		
			<line fill="#FFFFFF" stroke="#1A2E35" stroke-linecap="round" stroke-linejoin="round" stroke-miterlimit="10" x1="104.503" y1="277.917" x2="155.035" y2="277.917"/>
		
			<line fill="none" stroke="#1A2E35" stroke-linecap="round" stroke-linejoin="round" stroke-miterlimit="10" x1="70.815" y1="278.236" x2="96.482" y2="210.86"/>
	</g>
</g>
<g>
	<g>
		<ellipse fill="#004B83" cx="457.551" cy="454.709" rx="22.274" ry="9.993"/>
		<ellipse opacity="0.5" fill="#FFFFFF" cx="457.551" cy="454.709" rx="22.274" ry="9.993"/>
	</g>
	<g>
		<path fill="#1A2E35" d="M431.492,306.923c2.384,1.041,8.215,0.91,8.22,0.91c0.062-0.002-1.253-3.817-1.364-4.049
			c-1.279-2.677-5.325-7.096-8.616-6.65c-2.372,0.319-3.69,2.694-3.155,4.926C427.123,304.341,429.462,306.034,431.492,306.923z"/>
		<path fill="#1A2E35" d="M507.876,287.074c-3.304-0.354-7.229,4.172-8.435,6.882c-0.104,0.234-1.313,4.083-1.254,4.083
			c0,0,0.057,0,0.071,0c-0.625,0.711-1.287,1.478-1.993,2.331c-1.293,1.589-2.737,3.394-4.179,5.464
			c-1.444,2.065-2.957,4.352-4.332,6.9c-1.382,2.557-2.704,5.313-3.7,8.331c-0.011,0.033-0.019,0.069-0.03,0.106
			c0.017-0.976-0.024-3.696-0.052-3.907c-0.383-2.941-2.849-8.4-6.115-9.004c-2.353-0.435-4.346,1.407-4.534,3.696
			c-0.191,2.338,1.503,4.676,3.156,6.153c1.863,1.665,7.036,3.277,7.448,3.404c-0.922,2.882-1.633,5.915-2.185,9.025
			c-0.317,1.776-0.582,3.576-0.824,5.384c-0.012-0.843-0.03-1.595-0.043-1.698c-0.382-2.944-2.848-8.403-6.113-9.007
			c-2.354-0.435-4.348,1.409-4.534,3.698c-0.192,2.336,1.503,4.677,3.154,6.151c1.678,1.498,6.061,2.962,7.226,3.334
			c-0.086,0.694-0.18,1.386-0.263,2.081c-0.398,3.334-0.78,6.663-1.257,9.917c-0.167,1.145-0.374,2.268-0.577,3.392
			c-0.012-0.747-0.027-1.376-0.04-1.473c-0.381-2.941-2.847-8.4-6.113-9.004c-2.354-0.438-4.348,1.407-4.535,3.695
			c-0.19,2.339,1.504,4.677,3.156,6.154c1.6,1.428,5.634,2.813,7.016,3.264c-0.243,1.145-0.483,2.292-0.77,3.392
			c-0.213,0.746-0.365,1.478-0.62,2.216c-0.238,0.733-0.474,1.462-0.705,2.183c-0.499,1.373-1.006,2.79-1.526,4.117
			c-0.355,0.926-0.71,1.8-1.065,2.682c0.18-1.14,0.484-3.376,0.488-3.566c0.045-1.972-0.654-5.176-2.047-7.428
			c0.009-0.291-0.008-0.58-0.055-0.869c-0.364-2.268-2.494-3.95-4.807-3.334c-3.211,0.855-5.246,6.489-5.398,9.451
			c-0.009,0.175,0.105,2.081,0.198,3.285c-0.163-0.699-0.312-1.378-0.486-2.097c-0.337-1.42-0.714-2.827-1.115-4.341
			c-0.22-0.726-0.44-1.459-0.664-2.197c-0.207-0.738-0.519-1.49-0.776-2.244c-0.635-1.738-1.363-3.465-2.134-5.189
			c1.243-0.299,5.64-1.42,7.405-2.774c1.757-1.351,3.622-3.556,3.605-5.901c-0.018-2.297-1.866-4.284-4.246-4.024
			c-3.303,0.359-6.169,5.621-6.769,8.526c-0.037,0.179-0.233,2.312-0.317,3.487c-0.473-1.035-0.938-2.067-1.45-3.098
			c-1.476-2.973-3.063-5.935-4.632-8.897c-0.481-0.907-0.949-1.818-1.423-2.729c0.443-0.102,5.7-1.318,7.677-2.837
			c1.758-1.348,3.623-3.556,3.605-5.901c-0.017-2.294-1.867-4.281-4.246-4.023c-3.303,0.358-6.169,5.62-6.769,8.525
			c-0.045,0.219-0.322,3.287-0.354,4.073c-1.04-2.003-2.059-4.009-2.981-6.026c-1.278-2.783-2.379-5.582-3.244-8.375
			c0.207-0.047,5.699-1.293,7.724-2.848c1.758-1.348,3.623-3.556,3.606-5.901c-0.018-2.294-1.868-4.281-4.246-4.023
			c-3.303,0.358-6.169,5.62-6.769,8.525c-0.047,0.227-0.344,3.529-0.354,4.133c-0.053-0.167-0.123-0.333-0.172-0.5
			c-0.886-2.99-1.368-6-1.682-8.84c-0.185-1.651-0.27-3.238-0.317-4.783c1.047-0.127,5.822-0.765,7.8-1.961
			c1.896-1.149,3.991-3.137,4.231-5.47c0.235-2.283-1.385-4.463-3.777-4.466c-3.322-0.008-6.749,4.908-7.663,7.73
			c-0.051,0.153-0.384,1.769-0.609,2.949c-0.012-0.697-0.035-1.418-0.032-2.089c0.005-2.513,0.164-4.812,0.321-6.848
			c0.098-1.157,0.211-2.2,0.325-3.176c0.962-0.663,4.804-3.373,5.985-5.313c1.154-1.891,2.097-4.622,1.236-6.802
			c-0.843-2.138-3.287-3.323-5.411-2.224c-2.952,1.524-3.729,7.465-3.24,10.391c0.042,0.255,1.156,4.133,1.207,4.099
			c0,0,0.047-0.031,0.059-0.039c-0.13,0.937-0.258,1.943-0.376,3.043c-0.202,2.037-0.412,4.341-0.471,6.861
			c-0.066,2.521-0.066,5.262,0.194,8.146c0.257,2.892,0.675,5.924,1.508,8.988c0.011,0.036,0.025,0.07,0.034,0.104
			c-0.522-0.819-2.062-3.066-2.199-3.225c-1.94-2.245-7.009-5.438-10.066-4.141c-2.203,0.937-2.848,3.573-1.742,5.587
			c1.13,2.055,3.835,3.071,6.025,3.392c2.474,0.358,7.677-1.15,8.09-1.272c0.822,2.913,1.901,5.837,3.158,8.734
			c0.715,1.656,1.487,3.303,2.283,4.943c-0.475-0.694-0.905-1.311-0.974-1.391c-1.941-2.245-7.011-5.438-10.068-4.141
			c-2.203,0.936-2.848,3.573-1.742,5.586c1.13,2.055,3.835,3.072,6.027,3.392c2.224,0.323,6.687-0.874,7.863-1.206
			c0.312,0.626,0.615,1.256,0.93,1.88c1.508,3.002,3.024,5.987,4.422,8.965c0.493,1.049,0.94,2.1,1.392,3.15
			c-0.423-0.619-0.783-1.135-0.847-1.207c-1.94-2.245-7.01-5.438-10.066-4.141c-2.203,0.937-2.85,3.573-1.743,5.587
			c1.131,2.055,3.834,3.071,6.026,3.389c2.124,0.31,6.253-0.757,7.652-1.147c0.429,1.09,0.861,2.18,1.229,3.254
			c0.234,0.739,0.511,1.436,0.705,2.19c0.208,0.743,0.413,1.482,0.617,2.211c0.34,1.42,0.7,2.881,0.998,4.275
			c0.214,0.968,0.4,1.894,0.59,2.824c-0.479-1.048-1.459-3.084-1.561-3.246c-1.577-2.51-6.104-6.434-9.324-5.615
			c-2.318,0.591-3.356,3.101-2.568,5.257c0.807,2.203,3.325,3.618,5.444,4.266c2.333,0.712,7.498,0.063,8.142-0.023
			c0.31,1.542,0.597,3.045,0.844,4.471c0.87,4.932,1.407,9.074,1.741,11.972c0.061,0.515,0.109,0.976,0.156,1.41h-9.998
			l3.217,62.725c0.243,4.768,4.179,8.508,8.953,8.508l0,0c4.773,0,8.71-3.74,8.953-8.508l3.215-62.725h-9.313
			c0.068-0.144,0.134-0.276,0.207-0.427c1.276-2.663,3.049-6.489,4.963-11.174c0.609-1.477,1.23-3.068,1.853-4.707
			c0.624,0.13,5.737,1.168,8.12,0.629c2.161-0.488,4.778-1.711,5.746-3.847c0.946-2.091,0.099-4.671-2.17-5.433
			c-3.148-1.059-7.955,2.518-9.716,4.905c-0.105,0.14-1.062,1.794-1.647,2.848c0.251-0.671,0.5-1.321,0.75-2.016
			c0.503-1.371,0.964-2.752,1.466-4.237c0.217-0.726,0.437-1.459,0.658-2.197c0.235-0.73,0.39-1.529,0.591-2.302
			c0.429-1.797,0.774-3.642,1.082-5.506c1.201,0.437,5.487,1.93,7.708,1.773c2.209-0.156,4.982-0.968,6.262-2.934
			c1.254-1.925,0.807-4.601-1.321-5.698c-2.952-1.524-8.245,1.284-10.348,3.376c-0.131,0.13-1.471,1.802-2.189,2.733
			c0.177-1.121,0.357-2.242,0.499-3.382c0.408-3.295,0.721-6.64,1.046-9.979c0.099-1.021,0.21-2.039,0.317-3.059
			c0.425,0.162,5.482,2.045,7.969,1.868c2.209-0.154,4.981-0.965,6.262-2.932c1.253-1.925,0.806-4.604-1.321-5.698
			c-2.952-1.524-8.245,1.282-10.348,3.376c-0.159,0.158-2.083,2.564-2.543,3.201c0.237-2.244,0.495-4.479,0.838-6.671
			c0.468-3.024,1.097-5.967,1.914-8.772c0.199,0.075,5.467,2.063,8.014,1.886c2.211-0.156,4.983-0.968,6.263-2.935
			c1.252-1.924,0.807-4.601-1.321-5.698c-2.953-1.524-8.246,1.285-10.349,3.376c-0.164,0.164-2.234,2.757-2.575,3.251
			c0.048-0.166,0.081-0.343,0.133-0.51c0.911-2.983,2.169-5.761,3.475-8.302c0.756-1.478,1.561-2.848,2.373-4.164
			c0.944,0.471,5.279,2.575,7.589,2.669c2.213,0.088,5.059-0.417,6.546-2.229c1.456-1.773,1.307-4.483-0.687-5.808
			c-2.769-1.839-8.337,0.369-10.657,2.219c-0.125,0.102-1.295,1.264-2.134,2.125c0.376-0.588,0.753-1.202,1.125-1.759
			c1.389-2.094,2.79-3.925,4.044-5.534c0.722-0.91,1.391-1.722,2.025-2.471c1.166-0.021,5.867-0.164,7.922-1.129
			c2.005-0.941,4.299-2.7,4.784-4.994C511.638,289.667,510.256,287.332,507.876,287.074z M471.305,375.815
			c-1.996,4.594-3.833,8.344-5.152,10.947c-0.267,0.525-0.506,0.988-0.728,1.418h-0.222c-0.063-0.508-0.138-1.064-0.223-1.688
			c-0.402-2.926-1.036-7.095-2.021-12.055c-0.309-1.568-0.669-3.238-1.055-4.949c0.388-0.156,2.59-1.046,4.542-2.139
			c1.701,1.842,6.058,3.998,6.622,4.271C472.476,373.08,471.884,374.492,471.305,375.815z"/>
		<path fill="#1A2E35" d="M490.472,308.206c0.051,0.031,1.061-3.875,1.097-4.13c0.408-2.937-0.528-8.856-3.52-10.3
			c-2.154-1.04-4.564,0.211-5.35,2.37c-0.801,2.202,0.216,4.905,1.419,6.767C485.531,305.095,490.468,308.204,490.472,308.206z"/>
	</g>
</g>
</svg>
