<?xml version="1.0" encoding="utf-8"?>
<!-- Generator: Adobe Illustrator 16.0.0, SVG Export Plug-In . SVG Version: 6.00 Build 0)  -->
<!DOCTYPE svg PUBLIC "-//W3C//DTD SVG 1.1//EN" "http://www.w3.org/Graphics/SVG/1.1/DTD/svg11.dtd">
<svg version="1.1" id="Layer_1" xmlns="http://www.w3.org/2000/svg" xmlns:xlink="http://www.w3.org/1999/xlink" x="0px" y="0px"
	 width="35px" height="35px" viewBox="0 0 35 35" enable-background="new 0 0 35 35" xml:space="preserve">
<g>
	<path fill="#38A7DF" d="M2344.182,1850.476c0,3.729,3.033,6.762,6.762,6.762c3.729,0,6.764-3.033,6.764-6.762
		c0-3.729-3.035-6.763-6.764-6.763S2344.182,1846.746,2344.182,1850.476z M2354.242,1850.476c0,1.818-1.48,3.297-3.299,3.297
		s-3.297-1.479-3.297-3.297s1.479-3.298,3.297-3.298S2354.242,1848.657,2354.242,1850.476z"/>
	<path fill="#38A7DF" d="M2373.953,1850.476c0-3.729-3.033-6.763-6.762-6.763c-3.729,0-6.763,3.033-6.763,6.763
		c0,3.729,3.034,6.762,6.763,6.762S2373.953,1854.204,2373.953,1850.476z M2363.893,1850.476c0-1.818,1.48-3.298,3.299-3.298
		s3.297,1.479,3.297,3.298s-1.479,3.297-3.297,3.297S2363.893,1852.294,2363.893,1850.476L2363.893,1850.476z"/>
	<path fill="#38A7DF" d="M2390.201,1850.476c0-3.729-3.034-6.763-6.763-6.763c-3.729,0-6.763,3.033-6.763,6.763
		c0,3.729,3.033,6.762,6.763,6.762C2387.167,1857.237,2390.201,1854.204,2390.201,1850.476z M2380.141,1850.476
		c0-1.818,1.479-3.298,3.297-3.298s3.299,1.479,3.299,3.298s-1.48,3.297-3.299,3.297S2380.141,1852.294,2380.141,1850.476
		L2380.141,1850.476z"/>
	<path fill="#38A7DF" d="M2406.447,1850.476c0-3.729-3.033-6.763-6.762-6.763c-3.729,0-6.763,3.033-6.763,6.763
		c0,3.729,3.034,6.762,6.763,6.762S2406.447,1854.204,2406.447,1850.476z M2396.387,1850.476c0-1.818,1.479-3.298,3.299-3.298
		c1.817,0,3.297,1.479,3.297,3.298s-1.479,3.297-3.297,3.297C2397.866,1853.772,2396.387,1852.294,2396.387,1850.476z"/>
	<path fill="#010101" d="M2429.574,1791.252h-63.92c-9.313,0-16.891,7.577-16.891,16.892v2.732h-3.674
		c-9.313,0-16.891,7.577-16.891,16.891v42.95c0,9.313,7.577,16.891,16.891,16.891h18.059c0.957,0,1.732-0.775,1.732-1.732
		s-0.775-1.732-1.732-1.732h-18.059c-7.402,0-13.426-6.023-13.426-13.426v-42.95c0-7.402,6.023-13.426,13.426-13.426h63.92
		c7.402,0,13.426,6.023,13.426,13.426v42.95c0,7.402-6.023,13.426-13.426,13.426c-1.974,0-3.815,0.868-5.055,2.382
		c-6.795,8.305-14.887,14.173-20.478,17.633c-0.521,0.322-1.122-0.222-0.848-0.781c2.197-4.482,3.882-9.185,5.007-13.974
		c0.63-2.684-1.416-5.26-4.184-5.26h-12.219c-0.958,0-1.732,0.775-1.732,1.732s0.774,1.732,1.732,1.732h12.219
		c0.532,0,0.931,0.491,0.811,1.003c-1.065,4.536-2.662,8.991-4.745,13.241c-1.796,3.666,2.315,7.397,5.782,5.252
		c5.816-3.6,14.238-9.711,21.336-18.385c0.578-0.706,1.443-1.111,2.373-1.111c9.313,0,16.891-7.577,16.891-16.891v-2.733h3.674
		c9.313,0,16.891-7.577,16.891-16.891v-17.433c0-0.956-0.775-1.732-1.732-1.732s-1.732,0.776-1.732,1.732v17.433
		c0,7.403-6.022,13.426-13.426,13.426h-3.674v-36.752c0-9.313-7.577-16.891-16.891-16.891h-56.781v-2.732
		c0-7.403,6.023-13.427,13.426-13.427h63.92c7.403,0,13.426,6.023,13.426,13.427v17.433c0,0.956,0.775,1.731,1.732,1.731
		s1.732-0.775,1.732-1.731v-17.433C2446.465,1798.829,2438.888,1791.252,2429.574,1791.252L2429.574,1791.252z"/>
</g>
<g>
	<path fill="#38A7DF" d="M5.477,18.245c0,1.046,0.851,1.896,1.896,1.896s1.896-0.851,1.896-1.896c0-1.045-0.851-1.896-1.896-1.896
		S5.477,17.2,5.477,18.245z M8.298,18.245c0,0.51-0.415,0.925-0.925,0.925s-0.925-0.415-0.925-0.925
		c0-0.509,0.415-0.924,0.925-0.924S8.298,17.736,8.298,18.245z"/>
	<path fill="#38A7DF" d="M13.825,18.245c0-1.045-0.851-1.896-1.896-1.896c-1.046,0-1.896,0.85-1.896,1.896
		c0,1.046,0.85,1.896,1.896,1.896C12.975,20.142,13.825,19.291,13.825,18.245z M11.004,18.245c0-0.509,0.415-0.924,0.925-0.924
		c0.509,0,0.924,0.415,0.924,0.924c0,0.51-0.415,0.925-0.924,0.925C11.419,19.17,11.004,18.755,11.004,18.245L11.004,18.245z"/>
	<path fill="#38A7DF" d="M18.381,18.245c0-1.045-0.851-1.896-1.896-1.896c-1.046,0-1.896,0.85-1.896,1.896
		c0,1.046,0.85,1.896,1.896,1.896C17.53,20.142,18.381,19.291,18.381,18.245z M15.56,18.245c0-0.509,0.414-0.924,0.924-0.924
		c0.51,0,0.925,0.415,0.925,0.924c0,0.51-0.415,0.925-0.925,0.925C15.974,19.17,15.56,18.755,15.56,18.245L15.56,18.245z"/>
	<path fill="#38A7DF" d="M22.936,18.245c0-1.045-0.85-1.896-1.896-1.896c-1.047,0-1.896,0.85-1.896,1.896
		c0,1.046,0.851,1.896,1.896,1.896S22.936,19.291,22.936,18.245z M20.115,18.245c0-0.509,0.415-0.924,0.925-0.924
		c0.509,0,0.924,0.415,0.924,0.924c0,0.51-0.415,0.925-0.924,0.925C20.53,19.17,20.115,18.755,20.115,18.245z"/>
	<path fill="#010101" d="M29.42,1.64H11.498c-2.611,0-4.736,2.125-4.736,4.736v0.766h-1.03c-2.611,0-4.736,2.125-4.736,4.736v12.042
		c0,2.611,2.125,4.736,4.736,4.736h5.063c0.268,0,0.486-0.218,0.486-0.485c0-0.27-0.218-0.486-0.486-0.486H5.732
		c-2.075,0-3.764-1.688-3.764-3.765V11.878c0-2.076,1.689-3.765,3.764-3.765h17.922c2.075,0,3.765,1.689,3.765,3.765v12.042
		c0,2.076-1.689,3.765-3.765,3.765c-0.554,0-1.07,0.243-1.418,0.668c-1.904,2.328-4.173,3.974-5.741,4.943
		c-0.146,0.092-0.314-0.062-0.238-0.219c0.616-1.257,1.089-2.575,1.404-3.918c0.177-0.753-0.397-1.475-1.173-1.475h-3.426
		c-0.269,0-0.485,0.217-0.485,0.486c0,0.268,0.216,0.485,0.485,0.485h3.426c0.149,0,0.261,0.137,0.228,0.28
		c-0.299,1.272-0.746,2.521-1.331,3.713c-0.503,1.029,0.649,2.074,1.622,1.474c1.631-1.01,3.991-2.724,5.981-5.155
		c0.162-0.198,0.404-0.312,0.666-0.312c2.612,0,4.735-2.125,4.735-4.736v-0.766h1.03c2.611,0,4.736-2.126,4.736-4.736v-4.888
		c0-0.269-0.217-0.486-0.485-0.486c-0.27,0-0.486,0.217-0.486,0.486v4.888c0,2.075-1.688,3.765-3.765,3.765h-1.03V11.878
		c0-2.612-2.123-4.736-4.735-4.736H7.734V6.376c0-2.076,1.688-3.765,3.764-3.765H29.42c2.076,0,3.765,1.689,3.765,3.765v4.888
		c0,0.268,0.217,0.486,0.486,0.486c0.269,0,0.485-0.218,0.485-0.486V6.376C34.156,3.765,32.031,1.64,29.42,1.64L29.42,1.64z"/>
</g>
</svg>
