<?xml version="1.0" encoding="utf-8"?>
<!-- Generator: Adobe Illustrator 16.0.0, SVG Export Plug-In . SVG Version: 6.00 Build 0)  -->
<!DOCTYPE svg PUBLIC "-//W3C//DTD SVG 1.1//EN" "http://www.w3.org/Graphics/SVG/1.1/DTD/svg11.dtd">
<svg version="1.1" id="Layer_1" xmlns="http://www.w3.org/2000/svg" xmlns:xlink="http://www.w3.org/1999/xlink" x="0px" y="0px"
	 width="50px" height="50px" viewBox="5 5 50 50" enable-background="new 5 5 50 50" xml:space="preserve">
<g>
	<path fill="#010101" d="M42.326,44.238l-7.337-4.89c-1.005-0.665-2.354-0.445-3.098,0.503l-2.135,2.746
		c-0.224,0.295-0.628,0.38-0.952,0.201l-0.406-0.224c-1.338-0.73-3.002-1.638-6.363-4.999c-0.046-0.045-0.996-1.022-1.003-1.03
		h0.004c-0.318-0.408-1.263-1.313-1.503-1.669c-0.967-1.123-1.808-2.351-2.498-3.662l-0.224-0.409
		c-0.179-0.323-0.093-0.726,0.2-0.95l2.747-2.136c0.95-0.743,1.168-2.092,0.502-3.099l-1.816-2.724
		c-0.09-0.084-1.584-2.378-1.584-2.378l-1.489-2.233c-0.682-1.028-2.052-1.337-3.108-0.699l-3.063,1.841
		c-1.003,0.589-1.738,1.543-2.052,2.663c-1.118,4.07-0.29,11.078,10,21.371c8.183,8.174,14.284,10.376,18.488,10.376
		c0.974,0.004,1.942-0.122,2.883-0.377c1.121-0.313,2.074-1.049,2.665-2.05l1.839-3.066C43.658,46.287,43.352,44.921,42.326,44.238z
		 M41.691,46.541l-1.84,3.068c-0.384,0.658-1.008,1.142-1.74,1.352c-3.675,1.01-10.104,0.155-19.861-9.602
		c-9.757-9.759-10.61-16.188-9.601-19.858c0.208-0.733,0.692-1.357,1.35-1.742l3.066-1.84c0.344-0.206,0.788-0.104,1.011,0.229
		l4.892,7.334c0.217,0.329,0.146,0.768-0.163,1.01l-2.747,2.137c-0.903,0.691-1.161,1.941-0.605,2.932l0.218,0.396
		c0.777,1.427,1.744,3.199,5.264,6.719c3.521,3.521,5.294,4.487,6.718,5.265l0.395,0.215c0.993,0.557,2.241,0.299,2.933-0.604
		l2.136-2.745c0.243-0.31,0.683-0.38,1.011-0.163l7.335,4.891C41.796,45.754,41.896,46.197,41.691,46.541z"/>
	<g>
		<path fill="#859037" d="M51.403,8.555H18.842c-1.094,0.001-1.98,0.887-1.981,1.981v6.236c0.142,0.028,0.284,0.103,0.41,0.243
			c0.412,0.454,0.795,0.943,1.143,1.456v-7.935c-0.001-0.113,0.043-0.223,0.124-0.304c0.08-0.08,0.19-0.125,0.303-0.123h32.56
			c0.114-0.001,0.225,0.043,0.304,0.123c0.082,0.081,0.126,0.191,0.124,0.304v24.037c-0.002,0.234-0.193,0.421-0.428,0.42H21.809
			c0.151,0.188,0.299,0.377,0.465,0.56c0.326,0.352,0.678,0.687,1.053,0.993h28.077c1.093,0,1.978-0.882,1.981-1.973V10.537
			C53.383,9.442,52.497,8.556,51.403,8.555z"/>
		<path fill="#859037" d="M48.728,12.154l-12.988,9.851c-0.367,0.265-0.864,0.265-1.232,0l-12.983-9.851
			c-0.342-0.259-0.829-0.191-1.088,0.149c-0.259,0.342-0.192,0.83,0.149,1.089l12.984,9.849c0.923,0.682,2.183,0.682,3.109,0
			l12.987-9.849c0.163-0.125,0.273-0.31,0.301-0.514c0.028-0.204-0.026-0.411-0.152-0.575C49.557,11.961,49.07,11.894,48.728,12.154
			z"/>
		<path fill="#859037" d="M28.492,23.307L20.53,31.83c-0.292,0.315-0.275,0.806,0.039,1.101c0.315,0.292,0.807,0.274,1.099-0.04
			l7.961-8.527c0.262-0.317,0.233-0.785-0.07-1.066C29.257,23.018,28.788,23.021,28.492,23.307z"/>
		<path fill="#859037" d="M41.807,23.307c-0.293-0.314-0.786-0.332-1.1-0.039c-0.314,0.293-0.331,0.786-0.039,1.099l7.958,8.524
			c0.293,0.314,0.785,0.332,1.1,0.04c0.313-0.295,0.332-0.785,0.039-1.101L41.807,23.307z"/>
	</g>
</g>
</svg>
