<?xml version="1.0" encoding="utf-8"?>
<!-- Generator: Adobe Illustrator 16.0.0, SVG Export Plug-In . SVG Version: 6.00 Build 0)  -->
<!DOCTYPE svg PUBLIC "-//W3C//DTD SVG 1.1//EN" "http://www.w3.org/Graphics/SVG/1.1/DTD/svg11.dtd">
<svg version="1.1" id="Layer_1" xmlns="http://www.w3.org/2000/svg" xmlns:xlink="http://www.w3.org/1999/xlink" x="0px" y="0px"
	 width="35px" height="35px" viewBox="0 0 35 35" enable-background="new 0 0 35 35" xml:space="preserve">
<g>
	<path fill="#38A7DF" d="M2344.182,1850.476c0,3.729,3.033,6.762,6.762,6.762c3.729,0,6.764-3.033,6.764-6.762
		c0-3.729-3.035-6.763-6.764-6.763S2344.182,1846.746,2344.182,1850.476z M2354.242,1850.476c0,1.818-1.48,3.297-3.299,3.297
		s-3.297-1.479-3.297-3.297s1.479-3.298,3.297-3.298S2354.242,1848.657,2354.242,1850.476z"/>
	<path fill="#38A7DF" d="M2373.953,1850.476c0-3.729-3.033-6.763-6.762-6.763c-3.729,0-6.763,3.033-6.763,6.763
		c0,3.729,3.034,6.762,6.763,6.762S2373.953,1854.204,2373.953,1850.476z M2363.893,1850.476c0-1.818,1.48-3.298,3.299-3.298
		s3.297,1.479,3.297,3.298s-1.479,3.297-3.297,3.297S2363.893,1852.294,2363.893,1850.476L2363.893,1850.476z"/>
	<path fill="#38A7DF" d="M2390.201,1850.476c0-3.729-3.034-6.763-6.763-6.763c-3.729,0-6.763,3.033-6.763,6.763
		c0,3.729,3.033,6.762,6.763,6.762C2387.167,1857.237,2390.201,1854.204,2390.201,1850.476z M2380.141,1850.476
		c0-1.818,1.479-3.298,3.297-3.298s3.299,1.479,3.299,3.298s-1.48,3.297-3.299,3.297S2380.141,1852.294,2380.141,1850.476
		L2380.141,1850.476z"/>
	<path fill="#38A7DF" d="M2406.447,1850.476c0-3.729-3.033-6.763-6.762-6.763c-3.729,0-6.763,3.033-6.763,6.763
		c0,3.729,3.034,6.762,6.763,6.762S2406.447,1854.204,2406.447,1850.476z M2396.387,1850.476c0-1.818,1.479-3.298,3.299-3.298
		c1.817,0,3.297,1.479,3.297,3.298s-1.479,3.297-3.297,3.297C2397.866,1853.772,2396.387,1852.294,2396.387,1850.476z"/>
	<path fill="#010101" d="M2429.574,1791.252h-63.92c-9.313,0-16.891,7.577-16.891,16.892v2.732h-3.674
		c-9.313,0-16.891,7.577-16.891,16.891v42.95c0,9.313,7.577,16.891,16.891,16.891h18.059c0.957,0,1.732-0.775,1.732-1.732
		s-0.775-1.732-1.732-1.732h-18.059c-7.402,0-13.426-6.023-13.426-13.426v-42.95c0-7.402,6.023-13.426,13.426-13.426h63.92
		c7.402,0,13.426,6.023,13.426,13.426v42.95c0,7.402-6.023,13.426-13.426,13.426c-1.974,0-3.815,0.868-5.055,2.382
		c-6.795,8.305-14.887,14.173-20.478,17.633c-0.521,0.322-1.122-0.222-0.848-0.781c2.197-4.482,3.882-9.185,5.007-13.974
		c0.63-2.684-1.416-5.26-4.184-5.26h-12.219c-0.958,0-1.732,0.775-1.732,1.732s0.774,1.732,1.732,1.732h12.219
		c0.532,0,0.931,0.491,0.811,1.003c-1.065,4.536-2.662,8.991-4.745,13.241c-1.796,3.666,2.315,7.397,5.782,5.252
		c5.816-3.6,14.238-9.711,21.336-18.385c0.578-0.706,1.443-1.111,2.373-1.111c9.313,0,16.891-7.577,16.891-16.891v-2.733h3.674
		c9.313,0,16.891-7.577,16.891-16.891v-17.433c0-0.956-0.775-1.732-1.732-1.732s-1.732,0.776-1.732,1.732v17.433
		c0,7.403-6.022,13.426-13.426,13.426h-3.674v-36.752c0-9.313-7.577-16.891-16.891-16.891h-56.781v-2.732
		c0-7.403,6.023-13.427,13.426-13.427h63.92c7.403,0,13.426,6.023,13.426,13.427v17.433c0,0.956,0.775,1.731,1.732,1.731
		s1.732-0.775,1.732-1.731v-17.433C2446.465,1798.829,2438.888,1791.252,2429.574,1791.252L2429.574,1791.252z"/>
</g>
<g>
	<g>
		<g>
			<path fill="#010101" d="M31.324,5.989H3.51C1.975,5.991,0.73,7.236,0.729,8.771v16.687c0.001,1.536,1.247,2.781,2.782,2.783
				h27.814c1.536-0.002,2.779-1.247,2.781-2.783V8.771C34.104,7.236,32.86,5.991,31.324,5.989z M32.992,25.458
				c0,0.923-0.747,1.67-1.668,1.67H3.51c-0.922,0-1.669-0.747-1.669-1.67V8.771c0-0.922,0.747-1.669,1.669-1.669h27.814
				c0.921,0,1.668,0.747,1.668,1.669V25.458z"/>
		</g>
	</g>
	<g>
		<g>
			<path fill="#38A7DF" d="M29.965,9.585c-0.139-0.229-0.437-0.304-0.667-0.166l-10.633,6.379c-0.768,0.463-1.728,0.463-2.497,0
				L5.535,9.42C5.303,9.286,5.006,9.365,4.873,9.598c-0.131,0.226-0.058,0.515,0.163,0.653l10.635,6.38
				c1.075,0.646,2.419,0.646,3.493,0l10.635-6.38C30.028,10.113,30.102,9.815,29.965,9.585z"/>
		</g>
	</g>
	<g>
		<g>
			<path fill="#38A7DF" d="M5.285,11.292c-0.268,0-0.485,0.218-0.485,0.485v12.617c0,0.269,0.217,0.485,0.485,0.485
				c0.269,0,0.485-0.217,0.485-0.485V11.777C5.771,11.509,5.554,11.292,5.285,11.292z"/>
		</g>
	</g>
	<g>
		<g>
			<path fill="#38A7DF" d="M29.548,11.292c-0.267,0-0.484,0.218-0.484,0.485v12.617c0,0.269,0.218,0.485,0.484,0.485
				c0.269,0,0.486-0.217,0.486-0.485V11.777C30.034,11.509,29.816,11.292,29.548,11.292z"/>
		</g>
	</g>
</g>
</svg>
