<?xml version="1.0" encoding="utf-8"?>
<!-- Generator: Adobe Illustrator 16.0.0, SVG Export Plug-In . SVG Version: 6.00 Build 0)  -->
<!DOCTYPE svg PUBLIC "-//W3C//DTD SVG 1.1//EN" "http://www.w3.org/Graphics/SVG/1.1/DTD/svg11.dtd">
<svg version="1.1" id="Layer_1" xmlns="http://www.w3.org/2000/svg" xmlns:xlink="http://www.w3.org/1999/xlink" x="0px" y="0px"
	 width="45px" height="44px" viewBox="0 0 45 44" enable-background="new 0 0 45 44" xml:space="preserve">
<ellipse id="Ellipse_3" fill="#29AAE1" cx="22.5" cy="22" rx="21.25" ry="20.778"/>
<path id="Icon_awesome-linkedin-in" fill="#FFFFFF" d="M19.906,29.293h-3.481V18.078h3.481V29.293z M18.164,16.548
	c-1.12,0.006-2.032-0.896-2.037-2.016c-0.006-1.119,0.897-2.031,2.016-2.038c1.12-0.005,2.032,0.897,2.037,2.017c0,0,0,0,0,0.001
	C20.181,15.629,19.281,16.539,18.164,16.548z M32.94,29.293h-3.477v-5.459c0-1.301-0.027-2.969-1.811-2.969
	c-1.811,0-2.089,1.417-2.089,2.875v5.554h-3.476V18.078h3.34v1.53h0.05c0.68-1.165,1.945-1.861,3.294-1.812
	c3.525,0,4.173,2.321,4.173,5.336v6.16H32.94z"/>
</svg>
