<?xml version="1.0" encoding="utf-8"?>
<!-- Generator: Adobe Illustrator 16.0.0, SVG Export Plug-In . SVG Version: 6.00 Build 0)  -->
<!DOCTYPE svg PUBLIC "-//W3C//DTD SVG 1.1//EN" "http://www.w3.org/Graphics/SVG/1.1/DTD/svg11.dtd">
<svg version="1.1" id="Layer_1" xmlns="http://www.w3.org/2000/svg" xmlns:xlink="http://www.w3.org/1999/xlink" x="0px" y="0px"
	 width="50px" height="50px" viewBox="5 5 50 50" enable-background="new 5 5 50 50" xml:space="preserve">
<g>
	<path fill="#59C4F0" d="M35.017,38.174h-0.907V26.367c0-0.501-0.407-0.909-0.909-0.909h-7.266c-0.501,0-0.909,0.407-0.909,0.909V30
		c0,0.502,0.407,0.908,0.909,0.908h0.909v7.266h-0.909c-0.501,0-0.909,0.407-0.909,0.909v3.633c0,0.501,0.407,0.909,0.909,0.909
		h9.082c0.501,0,0.909-0.407,0.909-0.909v-3.633C35.926,38.581,35.519,38.174,35.017,38.174z M34.109,41.807h-7.266V39.99h0.908
		c0.501,0,0.909-0.406,0.909-0.908V30c0-0.501-0.407-0.909-0.909-0.909h-0.908v-1.816h5.45v11.807c0,0.502,0.405,0.908,0.908,0.908
		h0.908V41.807L34.109,41.807z"/>
	<path fill="#59C4F0" d="M30.476,23.642c2.003,0,3.633-1.629,3.633-3.633c0-2.003-1.63-3.633-3.633-3.633s-3.633,1.63-3.633,3.633
		C26.843,22.013,28.473,23.642,30.476,23.642z M30.476,18.193c1.001,0,1.817,0.815,1.817,1.816c0,1.002-0.815,1.816-1.817,1.816
		c-1.002,0-1.816-0.814-1.816-1.816C28.66,19.008,29.473,18.193,30.476,18.193z"/>
	<path fill="#010101" d="M30.476,6.75C17.945,6.75,7.226,17.449,7.226,30c0,4.288,1.229,8.848,3.3,12.296l-3.254,9.759
		c-0.109,0.326-0.024,0.687,0.219,0.931c0.245,0.244,0.605,0.327,0.929,0.22l9.759-3.254c3.449,2.072,8.008,3.3,12.295,3.3
		c12.535,0,23.25-10.7,23.25-23.25C53.727,17.466,43.025,6.75,30.476,6.75z M30.476,51.434c-4.114,0-8.485-1.214-11.694-3.245
		c-0.227-0.145-0.511-0.183-0.773-0.095L9.57,50.906l2.813-8.438c0.086-0.259,0.052-0.543-0.095-0.773
		C10.255,38.485,9.042,34.113,9.042,30c0-11.619,9.815-21.434,21.434-21.434C42.094,8.566,51.91,18.381,51.91,30
		C51.91,41.619,42.094,51.434,30.476,51.434z"/>
</g>
</svg>
