<?xml version="1.0" encoding="utf-8"?>
<!-- Generator: Adobe Illustrator 16.0.0, SVG Export Plug-In . SVG Version: 6.00 Build 0)  -->
<!DOCTYPE svg PUBLIC "-//W3C//DTD SVG 1.1//EN" "http://www.w3.org/Graphics/SVG/1.1/DTD/svg11.dtd">
<svg version="1.1" id="Layer_1" xmlns="http://www.w3.org/2000/svg" xmlns:xlink="http://www.w3.org/1999/xlink" x="0px" y="0px"
	 width="35px" height="35px" viewBox="0 0 35 35" enable-background="new 0 0 35 35" xml:space="preserve">
<g>
	<path fill="#010101" d="M30.147,27.1l-6.011-4.009c-0.763-0.504-1.785-0.338-2.35,0.382l-1.751,2.25
		c-0.225,0.298-0.634,0.384-0.959,0.203l-0.333-0.184c-1.104-0.603-2.478-1.352-5.246-4.12s-3.519-4.143-4.12-5.246l-0.183-0.333
		c-0.184-0.326-0.1-0.736,0.197-0.963l2.25-1.75c0.72-0.564,0.886-1.586,0.382-2.349L8.016,4.969C7.5,4.193,6.463,3.959,5.663,4.44
		L3.15,5.95C2.36,6.414,1.78,7.166,1.533,8.048c-0.905,3.298-0.224,8.989,8.16,17.375c6.67,6.67,11.635,8.463,15.047,8.463
		c0.787,0.004,1.568-0.1,2.327-0.305c0.881-0.247,1.634-0.826,2.099-1.616l1.511-2.513C31.158,28.652,30.926,27.616,30.147,27.1z
		 M29.824,28.945l-1.508,2.515c-0.334,0.568-0.874,0.989-1.51,1.169c-3.045,0.836-8.364,0.145-16.413-7.905
		C2.344,16.673,1.652,11.355,2.488,8.31c0.181-0.636,0.6-1.178,1.171-1.512l2.514-1.508C6.52,5.082,6.97,5.183,7.193,5.52
		l2.177,3.27l1.828,2.741c0.219,0.331,0.148,0.774-0.165,1.019l-2.25,1.751c-0.685,0.523-0.88,1.471-0.458,2.223l0.178,0.325
		c0.633,1.159,1.419,2.604,4.29,5.474c2.871,2.87,4.314,3.656,5.473,4.289l0.325,0.178c0.752,0.423,1.699,0.229,2.223-0.458
		l1.751-2.251c0.245-0.312,0.688-0.383,1.02-0.164l6.01,4.008C29.932,28.148,30.033,28.599,29.824,28.945z"/>
	<path fill="#38A7DF" d="M18.779,2.925c7.243,0.008,13.113,5.878,13.122,13.123c0,0.426,0.346,0.772,0.771,0.772
		c0.427,0,0.772-0.346,0.772-0.772c-0.009-8.096-6.57-14.658-14.666-14.667c-0.427,0-0.772,0.345-0.772,0.772
		C18.007,2.58,18.353,2.925,18.779,2.925z"/>
	<path fill="#38A7DF" d="M18.779,7.557c4.687,0.005,8.485,3.804,8.491,8.491c0,0.426,0.346,0.772,0.771,0.772
		s0.771-0.346,0.771-0.772c-0.007-5.54-4.495-10.029-10.034-10.035c-0.427,0-0.772,0.346-0.772,0.772S18.353,7.557,18.779,7.557z"/>
	<path fill="#38A7DF" d="M18.779,12.189c2.13,0.002,3.856,1.729,3.859,3.859c0,0.426,0.346,0.772,0.771,0.772
		s0.771-0.346,0.771-0.772c-0.003-2.983-2.42-5.4-5.402-5.404c-0.427,0-0.772,0.346-0.772,0.772
		C18.007,11.843,18.353,12.189,18.779,12.189z"/>
</g>
</svg>
