<?xml version="1.0" encoding="utf-8"?>
<!-- Generator: Adobe Illustrator 16.0.0, SVG Export Plug-In . SVG Version: 6.00 Build 0)  -->
<!DOCTYPE svg PUBLIC "-//W3C//DTD SVG 1.1//EN" "http://www.w3.org/Graphics/SVG/1.1/DTD/svg11.dtd">
<svg version="1.1" id="Layer_1" xmlns="http://www.w3.org/2000/svg" xmlns:xlink="http://www.w3.org/1999/xlink" x="0px" y="0px"
	 width="50px" height="50px" viewBox="5 5 50 50" enable-background="new 5 5 50 50" xml:space="preserve">
<g>
	<circle fill="#E79536" cx="42.652" cy="43.82" r="0.688"/>
</g>
<path fill="#010101" d="M44.09,17.93H12.76c-0.381,0-0.69,0.31-0.69,0.69c0,0.382,0.309,0.69,0.69,0.69h31.33
	c0.382,0,0.69-0.309,0.69-0.69C44.78,18.239,44.472,17.93,44.09,17.93z"/>
<path fill="#010101" d="M44.78,24.794c0-0.381-0.309-0.69-0.69-0.69H12.76c-0.381,0-0.69,0.309-0.69,0.69
	c0,0.382,0.309,0.69,0.69,0.69h31.33C44.472,25.485,44.78,25.175,44.78,24.794z"/>
<path fill="#010101" d="M12.76,30.278c-0.381,0-0.69,0.309-0.69,0.69c0,0.383,0.309,0.69,0.69,0.69h15.394
	c0.381,0,0.69-0.308,0.69-0.69c0-0.381-0.309-0.69-0.69-0.69H12.76z"/>
<path fill="#E79536" d="M42.719,33.146c-1.618-0.034-3.005,1.149-3.228,2.746c-0.02,0.147-0.03,0.297-0.03,0.445
	c0,0.381,0.309,0.688,0.689,0.688c0.382,0,0.691-0.308,0.691-0.688c0-0.086,0.005-0.17,0.018-0.254
	c0.125-0.905,0.914-1.577,1.831-1.557c0.943,0.02,1.721,0.771,1.77,1.713c0.053,1.046-0.778,1.907-1.808,1.907
	c-0.383,0-0.691,0.31-0.691,0.69v2.613c0,0.382,0.309,0.69,0.691,0.69c0.381,0,0.689-0.309,0.689-0.69v-2.001
	c1.484-0.331,2.579-1.676,2.496-3.282C45.753,34.506,44.381,33.18,42.719,33.146L42.719,33.146z"/>
<path fill="#E79536" d="M53.46,47.533l-2.199-4.982c-0.061-0.135-0.063-0.285-0.012-0.425c0.402-1.081,0.597-2.218,0.576-3.38
	c-0.088-4.974-4.155-9.001-9.129-9.04c-5.149-0.039-9.325,4.131-9.281,9.283c0.04,5.053,4.177,9.16,9.272,9.128
	c1.225-0.007,2.415-0.256,3.536-0.731c0.121-0.053,0.26-0.057,0.39-0.015l5.371,1.784c0.455,0.151,0.939,0.025,1.268-0.331
	C53.573,48.469,53.653,47.974,53.46,47.533L53.46,47.533z M47.048,46.063c-0.198-0.065-0.406-0.101-0.611-0.101
	c-0.259,0-0.514,0.053-0.755,0.155c-0.951,0.404-1.961,0.611-3.004,0.62c-4.309,0.031-7.847-3.446-7.884-7.759
	c-0.035-4.372,3.493-7.893,7.826-7.893c0.021,0,0.044,0,0.063,0c4.205,0.034,7.687,3.481,7.761,7.684
	c0.019,0.99-0.147,1.956-0.488,2.875c-0.179,0.479-0.163,1,0.042,1.465l2.035,4.608L47.048,46.063z"/>
<path fill="#010101" d="M30.875,39.008H21.12c-0.566,0-1.102,0.213-1.513,0.603l-7.123,6.763l1.044-5.795
	c0.146-0.817-0.483-1.57-1.314-1.57h-0.44c-2.182,0-3.956-1.775-3.956-3.956V16.116c0-2.181,1.774-3.956,3.956-3.956h33.302
	c2.181,0,3.956,1.775,3.956,3.956v14.438c0,0.381,0.31,0.69,0.69,0.69s0.69-0.31,0.69-0.69V16.116c0-2.943-2.394-5.337-5.337-5.337
	H11.773c-2.943,0-5.337,2.394-5.337,5.337v18.936c0,2.941,2.394,5.337,5.337,5.337h0.385l-1.135,6.303
	c-0.091,0.508,0.153,1.016,0.609,1.262c0.453,0.245,1.011,0.173,1.387-0.185l7.539-7.157c0.152-0.145,0.352-0.224,0.561-0.224h9.755
	c0.381,0,0.689-0.309,0.689-0.69C31.564,39.315,31.256,39.008,30.875,39.008L30.875,39.008z"/>
</svg>
