<?xml version="1.0" encoding="utf-8"?>
<!-- Generator: Adobe Illustrator 16.0.0, SVG Export Plug-In . SVG Version: 6.00 Build 0)  -->
<!DOCTYPE svg PUBLIC "-//W3C//DTD SVG 1.1//EN" "http://www.w3.org/Graphics/SVG/1.1/DTD/svg11.dtd">
<svg version="1.1" id="Layer_1" xmlns="http://www.w3.org/2000/svg" xmlns:xlink="http://www.w3.org/1999/xlink" x="0px" y="0px"
	 width="40px" height="40px" viewBox="10 10 40 40" enable-background="new 10 10 40 40" xml:space="preserve">
<g>
	<g>
		<path fill="#757777" d="M47.532,45.663L37.238,35.368c1.952-2.411,3.128-5.476,3.128-8.813c0-7.734-6.294-14.027-14.029-14.027
			S12.31,18.821,12.31,26.555c0,7.735,6.293,14.03,14.028,14.03c3.337,0,6.402-1.177,8.813-3.129l10.295,10.296
			c0.289,0.287,0.755,0.287,1.045,0l1.043-1.044C47.821,46.418,47.821,45.951,47.532,45.663z M26.338,37.631
			c-6.107,0-11.075-4.969-11.075-11.076s4.968-11.074,11.075-11.074c6.107,0,11.075,4.967,11.075,11.074
			C37.412,32.664,32.445,37.631,26.338,37.631z"/>
	</g>
</g>
</svg>
