<?xml version="1.0" encoding="utf-8"?>
<!-- Generator: Adobe Illustrator 16.0.0, SVG Export Plug-In . SVG Version: 6.00 Build 0)  -->
<!DOCTYPE svg PUBLIC "-//W3C//DTD SVG 1.1//EN" "http://www.w3.org/Graphics/SVG/1.1/DTD/svg11.dtd">
<svg version="1.1" id="Layer_1" xmlns="http://www.w3.org/2000/svg" xmlns:xlink="http://www.w3.org/1999/xlink" x="0px" y="0px"
	 width="45px" height="44px" viewBox="0 0 45 44" enable-background="new 0 0 45 44" xml:space="preserve">
<ellipse id="Ellipse_3" fill="#85D4EC" cx="22.5" cy="22" rx="21.25" ry="20.778"/>
<path id="Icon_awesome-twitter" fill="#FFFFFF" d="M31.229,18.73c0.013,0.175,0.013,0.351,0.013,0.525
	c0.044,6.313-5.038,11.466-11.351,11.509c-0.053,0.001-0.105,0.001-0.158,0c-2.203,0.006-4.36-0.625-6.213-1.815
	c0.325,0.035,0.651,0.052,0.978,0.05c1.821,0.005,3.591-0.604,5.022-1.728c-1.729-0.032-3.249-1.159-3.781-2.806
	c0.252,0.04,0.508,0.062,0.764,0.063c0.359-0.002,0.717-0.048,1.064-0.139c-1.891-0.381-3.249-2.043-3.246-3.971v-0.05
	c0.561,0.313,1.188,0.489,1.83,0.514c-1.782-1.188-2.331-3.559-1.252-5.41c2.055,2.529,5.086,4.067,8.34,4.233
	c-0.065-0.305-0.099-0.615-0.101-0.927c0.003-2.236,1.817-4.047,4.054-4.045c1.116,0.001,2.183,0.463,2.946,1.276
	c0.906-0.174,1.774-0.505,2.567-0.977c-0.302,0.935-0.934,1.727-1.778,2.229c0.804-0.091,1.589-0.302,2.329-0.626
	c-0.554,0.807-1.24,1.514-2.029,2.091L31.229,18.73z"/>
</svg>
