<?xml version="1.0" encoding="utf-8"?>
<!-- Generator: Adobe Illustrator 16.0.0, SVG Export Plug-In . SVG Version: 6.00 Build 0)  -->
<!DOCTYPE svg PUBLIC "-//W3C//DTD SVG 1.1//EN" "http://www.w3.org/Graphics/SVG/1.1/DTD/svg11.dtd">
<svg version="1.1" id="Layer_1" xmlns="http://www.w3.org/2000/svg" xmlns:xlink="http://www.w3.org/1999/xlink" x="0px" y="0px"
	 width="445.299px" height="339.182px" viewBox="-69.701 0 345.299 339.182" enable-background="new -69.701 0 445.299 339.182"
	 xml:space="preserve">
<path fill="#EEF6FC" d="M207.147,21.351c-41.671-7.893-92.834-1.831-128.545,19.55c-36.265,22.788-64.575,56.012-92.445,87.98
	c-24.488,28.088-43.652,62.953-40.427,101.395c4.24,50.557,43.102,91.124,94.007,95.404c23.888,2.01,48.414-4.988,69.059-16.858
	c18.144-10.434,33.565-25.519,53.173-33.396c22.299-8.956,47.122-5.66,69.69,0.595c18.683,5.178,37.419,11.694,56.803,11.378
	c34.52-0.563,55.687-31.271,63.368-61.87C374.336,40.858,215.185,22.672,207.147,21.351z"/>
</svg>
